G04 (created by PCBNEW (2013-07-07 BZR 4022)-stable) date 4/20/2014 11:00:22 PM*
%MOIN*%
G04 Gerber Fmt 3.4, Leading zero omitted, Abs format*
%FSLAX34Y34*%
G01*
G70*
G90*
G04 APERTURE LIST*
%ADD10C,0.00590551*%
%ADD11R,0.1035X0.069*%
%ADD12O,0.1035X0.069*%
%ADD13O,0.0885X0.059*%
%ADD14O,0.059X0.0885*%
%ADD15O,0.069X0.1035*%
%ADD16C,0.23622*%
%ADD17C,0.055*%
%ADD18R,0.069X0.1035*%
%ADD19R,0.0885X0.059*%
%ADD20C,0.16*%
%ADD21R,0.137795X0.137795*%
%ADD22C,0.137795*%
%ADD23C,0.15*%
%ADD24C,0.36*%
%ADD25R,0.059X0.0885*%
%ADD26C,0.11811*%
%ADD27R,0.16X0.16*%
%ADD28C,0.02*%
%ADD29C,0.15*%
%ADD30C,0.04*%
%ADD31C,0.01*%
%ADD32C,0.06*%
%ADD33C,0.08*%
G04 APERTURE END LIST*
G54D10*
G54D11*
X74922Y-54750D03*
G54D12*
X74922Y-53750D03*
X74922Y-52750D03*
G54D11*
X71577Y-52750D03*
G54D12*
X71577Y-53750D03*
X71577Y-54750D03*
G54D13*
X83897Y-83750D03*
X87602Y-83750D03*
G54D14*
X79750Y-55602D03*
X79750Y-51897D03*
G54D15*
X60000Y-71577D03*
X60000Y-66922D03*
X61500Y-71577D03*
X61500Y-66922D03*
X63000Y-71577D03*
X63000Y-66922D03*
X66000Y-71577D03*
X66000Y-66922D03*
X64500Y-71577D03*
X64500Y-66922D03*
G54D12*
X67172Y-77250D03*
X71827Y-77250D03*
X67172Y-75750D03*
X71827Y-75750D03*
X67172Y-74250D03*
X71827Y-74250D03*
X67172Y-72750D03*
X71827Y-72750D03*
G54D14*
X56500Y-71602D03*
X56500Y-67897D03*
X58500Y-71602D03*
X58500Y-67897D03*
X57500Y-71602D03*
X57500Y-67897D03*
G54D16*
X55000Y-83250D03*
X55000Y-46500D03*
X91500Y-46500D03*
X91500Y-83250D03*
G54D17*
X69750Y-56250D03*
X67750Y-56250D03*
G54D18*
X60750Y-56327D03*
G54D15*
X60750Y-58672D03*
G54D19*
X73897Y-71000D03*
G54D13*
X72602Y-71000D03*
G54D19*
X80852Y-53750D03*
G54D13*
X82147Y-53750D03*
G54D19*
X73897Y-68750D03*
G54D13*
X72602Y-68750D03*
G54D20*
X73250Y-58750D03*
X73250Y-48750D03*
G54D21*
X55250Y-53120D03*
G54D22*
X55250Y-51250D03*
X55250Y-49379D03*
G54D21*
X55250Y-62620D03*
G54D22*
X55250Y-60750D03*
X55250Y-58879D03*
G54D21*
X77000Y-74870D03*
G54D22*
X77000Y-73000D03*
X77000Y-71129D03*
G54D18*
X81750Y-82327D03*
G54D15*
X81750Y-83672D03*
G54D23*
X56118Y-79334D03*
X58952Y-82169D03*
X57141Y-81145D03*
X60960Y-82169D03*
X60921Y-74531D03*
X58952Y-74531D03*
X56118Y-77366D03*
X63755Y-77366D03*
X63755Y-79334D03*
X57141Y-75555D03*
X62732Y-75555D03*
X62732Y-81145D03*
X61000Y-76500D03*
X58874Y-80200D03*
G54D24*
X69500Y-82250D03*
X77000Y-82250D03*
G54D25*
X77750Y-52102D03*
G54D14*
X77750Y-55397D03*
G54D25*
X78750Y-52102D03*
G54D14*
X78750Y-55397D03*
G54D19*
X63602Y-53250D03*
G54D13*
X66897Y-53250D03*
G54D19*
X66852Y-52000D03*
G54D13*
X70147Y-52000D03*
G54D17*
X92000Y-78250D03*
X92000Y-80250D03*
X88000Y-71250D03*
X90000Y-71250D03*
G54D14*
X85750Y-81147D03*
X86750Y-81147D03*
G54D25*
X84750Y-81147D03*
G54D18*
X82250Y-63922D03*
G54D15*
X83250Y-63922D03*
X84250Y-63922D03*
G54D18*
X87250Y-63922D03*
G54D15*
X88250Y-63922D03*
X89250Y-63922D03*
G54D19*
X88897Y-61250D03*
G54D13*
X87602Y-61250D03*
G54D19*
X82602Y-61250D03*
G54D13*
X83897Y-61250D03*
G54D25*
X85750Y-61897D03*
G54D14*
X85750Y-60602D03*
G54D15*
X87750Y-58672D03*
G54D18*
X85750Y-57672D03*
G54D15*
X89750Y-57672D03*
G54D13*
X91999Y-75862D03*
G54D26*
X81222Y-80586D03*
G54D13*
X91999Y-77043D03*
G54D26*
X90277Y-80586D03*
G54D18*
X84750Y-71172D03*
G54D15*
X85750Y-71172D03*
X86750Y-71172D03*
G54D27*
X64750Y-50500D03*
G54D20*
X64750Y-48150D03*
X62900Y-49300D03*
G54D27*
X59750Y-50500D03*
G54D20*
X59750Y-48150D03*
X57900Y-49300D03*
G54D28*
X67000Y-52000D02*
X66750Y-52250D01*
X66750Y-52250D02*
X66750Y-53250D01*
X73750Y-71000D02*
X73750Y-71750D01*
X73500Y-72000D02*
X73000Y-72000D01*
X73750Y-71750D02*
X73500Y-72000D01*
G54D29*
X72000Y-62250D02*
X72000Y-63750D01*
X70500Y-58250D02*
X70500Y-60750D01*
X72000Y-62250D02*
X70500Y-60750D01*
G54D28*
X74750Y-52750D02*
X76250Y-51250D01*
X78500Y-51500D02*
X78750Y-51750D01*
X78750Y-51750D02*
X78750Y-52250D01*
X78250Y-51250D02*
X78500Y-51500D01*
X76250Y-51250D02*
X78250Y-51250D01*
X70000Y-52000D02*
X71000Y-52000D01*
X71000Y-52000D02*
X71750Y-52750D01*
G54D29*
X66000Y-62620D02*
X66129Y-62620D01*
X66129Y-62620D02*
X70500Y-58250D01*
G54D28*
X71750Y-52750D02*
X73250Y-52750D01*
G54D30*
X74750Y-52750D02*
X73250Y-52750D01*
G54D29*
X70500Y-58250D02*
X73250Y-55500D01*
X73250Y-55500D02*
X73250Y-52750D01*
G54D28*
X85750Y-61750D02*
X85750Y-63750D01*
X84250Y-63750D02*
X85750Y-63750D01*
X85750Y-63750D02*
X87250Y-63750D01*
X92000Y-78250D02*
X90250Y-78250D01*
X82250Y-83000D02*
X81750Y-82500D01*
X88000Y-83000D02*
X82250Y-83000D01*
X88500Y-82500D02*
X88000Y-83000D01*
X88500Y-80000D02*
X88500Y-82500D01*
X90250Y-78250D02*
X88500Y-80000D01*
X88000Y-71250D02*
X88000Y-71000D01*
X85750Y-70500D02*
X85750Y-71000D01*
X86250Y-70000D02*
X85750Y-70500D01*
X87000Y-70000D02*
X86250Y-70000D01*
X88000Y-71000D02*
X87000Y-70000D01*
X91852Y-77043D02*
X91852Y-78102D01*
X91852Y-78102D02*
X92000Y-78250D01*
X88000Y-71250D02*
X88000Y-73190D01*
X88000Y-73190D02*
X91852Y-77043D01*
X89250Y-63750D02*
X89250Y-70000D01*
X89250Y-70000D02*
X88000Y-71250D01*
X88750Y-61250D02*
X89250Y-61750D01*
X89250Y-61750D02*
X89250Y-63750D01*
X81222Y-80586D02*
X84336Y-80586D01*
X84336Y-80586D02*
X84750Y-81000D01*
X81750Y-83500D02*
X82000Y-83750D01*
X82000Y-83750D02*
X83750Y-83750D01*
G54D31*
X66250Y-51500D02*
X66000Y-51750D01*
X92250Y-50750D02*
X92250Y-59750D01*
X92250Y-59750D02*
X82750Y-59750D01*
X82750Y-61250D02*
X82750Y-59750D01*
X64500Y-53250D02*
X63750Y-53250D01*
X66500Y-51250D02*
X66250Y-51500D01*
X66500Y-51250D02*
X75250Y-51250D01*
X75750Y-50750D02*
X75250Y-51250D01*
X75750Y-50750D02*
X92250Y-50750D01*
X65750Y-53250D02*
X64500Y-53250D01*
X66000Y-53000D02*
X65750Y-53250D01*
X66000Y-51750D02*
X66000Y-53000D01*
G54D28*
X82250Y-63750D02*
X82250Y-61750D01*
X82250Y-61750D02*
X82750Y-61250D01*
X63750Y-53250D02*
X63500Y-53500D01*
X63500Y-53500D02*
X63500Y-54750D01*
G54D29*
X55250Y-54750D02*
X56879Y-54750D01*
X56879Y-54750D02*
X60250Y-54750D01*
G54D28*
X60750Y-56500D02*
X60750Y-54750D01*
G54D29*
X60750Y-54750D02*
X60250Y-54750D01*
G54D28*
X69750Y-56250D02*
X69750Y-54750D01*
G54D32*
X69750Y-54750D02*
X70000Y-54750D01*
G54D28*
X64000Y-54250D02*
X63500Y-54750D01*
G54D29*
X60250Y-54750D02*
X63500Y-54750D01*
X63500Y-54750D02*
X70000Y-54750D01*
G54D30*
X71750Y-54750D02*
X70000Y-54750D01*
G54D32*
X61500Y-70000D02*
X61500Y-70500D01*
X60000Y-68000D02*
X60000Y-68500D01*
X60000Y-68500D02*
X61500Y-70000D01*
G54D28*
X60000Y-66750D02*
X60000Y-68000D01*
X61500Y-70500D02*
X61500Y-71750D01*
X63000Y-71750D02*
X63000Y-72750D01*
X63000Y-75287D02*
X62732Y-75555D01*
X63000Y-74250D02*
X63000Y-75287D01*
G54D33*
X63000Y-72750D02*
X63000Y-74250D01*
G54D28*
X60921Y-74531D02*
X60000Y-73610D01*
X60000Y-72500D02*
X60000Y-71750D01*
G54D32*
X60000Y-73610D02*
X60000Y-72500D01*
G54D28*
X57141Y-75555D02*
X56500Y-74913D01*
X56500Y-74913D02*
X56500Y-71750D01*
G54D30*
X58500Y-73500D02*
X58500Y-72500D01*
G54D28*
X58500Y-74078D02*
X58500Y-73500D01*
X58952Y-74531D02*
X58500Y-74078D01*
X58500Y-72500D02*
X58500Y-71750D01*
X57500Y-71750D02*
X58500Y-71750D01*
X84750Y-71000D02*
X83750Y-72000D01*
X83750Y-72000D02*
X78000Y-72000D01*
X78750Y-55250D02*
X79250Y-55250D01*
X79250Y-55250D02*
X79750Y-55750D01*
X78750Y-55250D02*
X78750Y-54750D01*
X77750Y-53750D02*
X77750Y-52250D01*
X78750Y-54750D02*
X77750Y-53750D01*
X77750Y-52250D02*
X77750Y-52500D01*
X77750Y-52500D02*
X76500Y-53750D01*
G54D30*
X74750Y-53750D02*
X76500Y-53750D01*
G54D29*
X76500Y-53750D02*
X76500Y-57250D01*
G54D28*
X86000Y-54000D02*
X87750Y-55750D01*
X83750Y-51750D02*
X86000Y-54000D01*
X79750Y-51750D02*
X83750Y-51750D01*
X87750Y-55750D02*
X87750Y-58500D01*
X87750Y-58500D02*
X88750Y-58500D01*
X88750Y-58500D02*
X89750Y-57500D01*
X81000Y-53750D02*
X80500Y-53750D01*
X79750Y-53000D02*
X79750Y-51750D01*
X80500Y-53750D02*
X79750Y-53000D01*
X81000Y-53750D02*
X81000Y-55750D01*
X81000Y-55750D02*
X80250Y-56500D01*
X80250Y-56500D02*
X78000Y-56500D01*
X78000Y-56500D02*
X77750Y-56250D01*
X77750Y-56250D02*
X77750Y-55250D01*
G54D10*
G36*
X73200Y-77979D02*
X72729Y-78450D01*
X72577Y-78450D01*
X72577Y-77392D01*
X72577Y-77107D01*
X72577Y-75892D01*
X72577Y-75607D01*
X72577Y-74392D01*
X72577Y-74107D01*
X72577Y-72892D01*
X72577Y-72607D01*
X72568Y-72568D01*
X72456Y-72364D01*
X72273Y-72219D01*
X72050Y-72155D01*
X71877Y-72155D01*
X71877Y-72700D01*
X72530Y-72700D01*
X72577Y-72607D01*
X72577Y-72892D01*
X72530Y-72800D01*
X71877Y-72800D01*
X71877Y-73345D01*
X72050Y-73345D01*
X72273Y-73280D01*
X72456Y-73135D01*
X72568Y-72931D01*
X72577Y-72892D01*
X72577Y-74107D01*
X72568Y-74068D01*
X72456Y-73864D01*
X72273Y-73719D01*
X72050Y-73655D01*
X71877Y-73655D01*
X71877Y-74200D01*
X72530Y-74200D01*
X72577Y-74107D01*
X72577Y-74392D01*
X72530Y-74300D01*
X71877Y-74300D01*
X71877Y-74845D01*
X72050Y-74845D01*
X72273Y-74780D01*
X72456Y-74635D01*
X72568Y-74431D01*
X72577Y-74392D01*
X72577Y-75607D01*
X72568Y-75568D01*
X72456Y-75364D01*
X72273Y-75219D01*
X72050Y-75155D01*
X71877Y-75155D01*
X71877Y-75700D01*
X72530Y-75700D01*
X72577Y-75607D01*
X72577Y-75892D01*
X72530Y-75800D01*
X71877Y-75800D01*
X71877Y-76345D01*
X72050Y-76345D01*
X72273Y-76280D01*
X72456Y-76135D01*
X72568Y-75931D01*
X72577Y-75892D01*
X72577Y-77107D01*
X72568Y-77068D01*
X72456Y-76864D01*
X72273Y-76719D01*
X72050Y-76655D01*
X71877Y-76655D01*
X71877Y-77200D01*
X72530Y-77200D01*
X72577Y-77107D01*
X72577Y-77392D01*
X72530Y-77300D01*
X71877Y-77300D01*
X71877Y-77845D01*
X72050Y-77845D01*
X72273Y-77780D01*
X72456Y-77635D01*
X72568Y-77431D01*
X72577Y-77392D01*
X72577Y-78450D01*
X71777Y-78450D01*
X71777Y-77845D01*
X71777Y-77300D01*
X71777Y-77200D01*
X71777Y-76655D01*
X71777Y-76345D01*
X71777Y-75800D01*
X71777Y-75700D01*
X71777Y-75155D01*
X71777Y-74845D01*
X71777Y-74300D01*
X71777Y-74200D01*
X71777Y-73655D01*
X71777Y-73345D01*
X71777Y-72800D01*
X71777Y-72700D01*
X71777Y-72155D01*
X71605Y-72155D01*
X71381Y-72219D01*
X71198Y-72364D01*
X71086Y-72568D01*
X71077Y-72607D01*
X71124Y-72700D01*
X71777Y-72700D01*
X71777Y-72800D01*
X71124Y-72800D01*
X71077Y-72892D01*
X71086Y-72931D01*
X71198Y-73135D01*
X71381Y-73280D01*
X71605Y-73345D01*
X71777Y-73345D01*
X71777Y-73655D01*
X71605Y-73655D01*
X71381Y-73719D01*
X71198Y-73864D01*
X71086Y-74068D01*
X71077Y-74107D01*
X71124Y-74200D01*
X71777Y-74200D01*
X71777Y-74300D01*
X71124Y-74300D01*
X71077Y-74392D01*
X71086Y-74431D01*
X71198Y-74635D01*
X71381Y-74780D01*
X71605Y-74845D01*
X71777Y-74845D01*
X71777Y-75155D01*
X71605Y-75155D01*
X71381Y-75219D01*
X71198Y-75364D01*
X71086Y-75568D01*
X71077Y-75607D01*
X71124Y-75700D01*
X71777Y-75700D01*
X71777Y-75800D01*
X71124Y-75800D01*
X71077Y-75892D01*
X71086Y-75931D01*
X71198Y-76135D01*
X71381Y-76280D01*
X71605Y-76345D01*
X71777Y-76345D01*
X71777Y-76655D01*
X71605Y-76655D01*
X71381Y-76719D01*
X71198Y-76864D01*
X71086Y-77068D01*
X71077Y-77107D01*
X71124Y-77200D01*
X71777Y-77200D01*
X71777Y-77300D01*
X71124Y-77300D01*
X71077Y-77392D01*
X71086Y-77431D01*
X71198Y-77635D01*
X71381Y-77780D01*
X71605Y-77845D01*
X71777Y-77845D01*
X71777Y-78450D01*
X68800Y-78450D01*
X68800Y-62800D01*
X73200Y-62800D01*
X73200Y-68716D01*
X73172Y-68579D01*
X73076Y-68435D01*
X72931Y-68338D01*
X72761Y-68305D01*
X72443Y-68305D01*
X72273Y-68338D01*
X72128Y-68435D01*
X72032Y-68579D01*
X71998Y-68750D01*
X72032Y-68920D01*
X72128Y-69064D01*
X72273Y-69161D01*
X72443Y-69195D01*
X72761Y-69195D01*
X72931Y-69161D01*
X73076Y-69064D01*
X73172Y-68920D01*
X73200Y-68783D01*
X73200Y-70966D01*
X73172Y-70829D01*
X73076Y-70685D01*
X72931Y-70588D01*
X72761Y-70555D01*
X72443Y-70555D01*
X72273Y-70588D01*
X72128Y-70685D01*
X72032Y-70829D01*
X71998Y-71000D01*
X72032Y-71170D01*
X72128Y-71314D01*
X72273Y-71411D01*
X72443Y-71445D01*
X72761Y-71445D01*
X72931Y-71411D01*
X73076Y-71314D01*
X73172Y-71170D01*
X73200Y-71033D01*
X73200Y-77979D01*
X73200Y-77979D01*
G37*
G54D31*
X73200Y-77979D02*
X72729Y-78450D01*
X72577Y-78450D01*
X72577Y-77392D01*
X72577Y-77107D01*
X72577Y-75892D01*
X72577Y-75607D01*
X72577Y-74392D01*
X72577Y-74107D01*
X72577Y-72892D01*
X72577Y-72607D01*
X72568Y-72568D01*
X72456Y-72364D01*
X72273Y-72219D01*
X72050Y-72155D01*
X71877Y-72155D01*
X71877Y-72700D01*
X72530Y-72700D01*
X72577Y-72607D01*
X72577Y-72892D01*
X72530Y-72800D01*
X71877Y-72800D01*
X71877Y-73345D01*
X72050Y-73345D01*
X72273Y-73280D01*
X72456Y-73135D01*
X72568Y-72931D01*
X72577Y-72892D01*
X72577Y-74107D01*
X72568Y-74068D01*
X72456Y-73864D01*
X72273Y-73719D01*
X72050Y-73655D01*
X71877Y-73655D01*
X71877Y-74200D01*
X72530Y-74200D01*
X72577Y-74107D01*
X72577Y-74392D01*
X72530Y-74300D01*
X71877Y-74300D01*
X71877Y-74845D01*
X72050Y-74845D01*
X72273Y-74780D01*
X72456Y-74635D01*
X72568Y-74431D01*
X72577Y-74392D01*
X72577Y-75607D01*
X72568Y-75568D01*
X72456Y-75364D01*
X72273Y-75219D01*
X72050Y-75155D01*
X71877Y-75155D01*
X71877Y-75700D01*
X72530Y-75700D01*
X72577Y-75607D01*
X72577Y-75892D01*
X72530Y-75800D01*
X71877Y-75800D01*
X71877Y-76345D01*
X72050Y-76345D01*
X72273Y-76280D01*
X72456Y-76135D01*
X72568Y-75931D01*
X72577Y-75892D01*
X72577Y-77107D01*
X72568Y-77068D01*
X72456Y-76864D01*
X72273Y-76719D01*
X72050Y-76655D01*
X71877Y-76655D01*
X71877Y-77200D01*
X72530Y-77200D01*
X72577Y-77107D01*
X72577Y-77392D01*
X72530Y-77300D01*
X71877Y-77300D01*
X71877Y-77845D01*
X72050Y-77845D01*
X72273Y-77780D01*
X72456Y-77635D01*
X72568Y-77431D01*
X72577Y-77392D01*
X72577Y-78450D01*
X71777Y-78450D01*
X71777Y-77845D01*
X71777Y-77300D01*
X71777Y-77200D01*
X71777Y-76655D01*
X71777Y-76345D01*
X71777Y-75800D01*
X71777Y-75700D01*
X71777Y-75155D01*
X71777Y-74845D01*
X71777Y-74300D01*
X71777Y-74200D01*
X71777Y-73655D01*
X71777Y-73345D01*
X71777Y-72800D01*
X71777Y-72700D01*
X71777Y-72155D01*
X71605Y-72155D01*
X71381Y-72219D01*
X71198Y-72364D01*
X71086Y-72568D01*
X71077Y-72607D01*
X71124Y-72700D01*
X71777Y-72700D01*
X71777Y-72800D01*
X71124Y-72800D01*
X71077Y-72892D01*
X71086Y-72931D01*
X71198Y-73135D01*
X71381Y-73280D01*
X71605Y-73345D01*
X71777Y-73345D01*
X71777Y-73655D01*
X71605Y-73655D01*
X71381Y-73719D01*
X71198Y-73864D01*
X71086Y-74068D01*
X71077Y-74107D01*
X71124Y-74200D01*
X71777Y-74200D01*
X71777Y-74300D01*
X71124Y-74300D01*
X71077Y-74392D01*
X71086Y-74431D01*
X71198Y-74635D01*
X71381Y-74780D01*
X71605Y-74845D01*
X71777Y-74845D01*
X71777Y-75155D01*
X71605Y-75155D01*
X71381Y-75219D01*
X71198Y-75364D01*
X71086Y-75568D01*
X71077Y-75607D01*
X71124Y-75700D01*
X71777Y-75700D01*
X71777Y-75800D01*
X71124Y-75800D01*
X71077Y-75892D01*
X71086Y-75931D01*
X71198Y-76135D01*
X71381Y-76280D01*
X71605Y-76345D01*
X71777Y-76345D01*
X71777Y-76655D01*
X71605Y-76655D01*
X71381Y-76719D01*
X71198Y-76864D01*
X71086Y-77068D01*
X71077Y-77107D01*
X71124Y-77200D01*
X71777Y-77200D01*
X71777Y-77300D01*
X71124Y-77300D01*
X71077Y-77392D01*
X71086Y-77431D01*
X71198Y-77635D01*
X71381Y-77780D01*
X71605Y-77845D01*
X71777Y-77845D01*
X71777Y-78450D01*
X68800Y-78450D01*
X68800Y-62800D01*
X73200Y-62800D01*
X73200Y-68716D01*
X73172Y-68579D01*
X73076Y-68435D01*
X72931Y-68338D01*
X72761Y-68305D01*
X72443Y-68305D01*
X72273Y-68338D01*
X72128Y-68435D01*
X72032Y-68579D01*
X71998Y-68750D01*
X72032Y-68920D01*
X72128Y-69064D01*
X72273Y-69161D01*
X72443Y-69195D01*
X72761Y-69195D01*
X72931Y-69161D01*
X73076Y-69064D01*
X73172Y-68920D01*
X73200Y-68783D01*
X73200Y-70966D01*
X73172Y-70829D01*
X73076Y-70685D01*
X72931Y-70588D01*
X72761Y-70555D01*
X72443Y-70555D01*
X72273Y-70588D01*
X72128Y-70685D01*
X72032Y-70829D01*
X71998Y-71000D01*
X72032Y-71170D01*
X72128Y-71314D01*
X72273Y-71411D01*
X72443Y-71445D01*
X72761Y-71445D01*
X72931Y-71411D01*
X73076Y-71314D01*
X73172Y-71170D01*
X73200Y-71033D01*
X73200Y-77979D01*
G54D10*
G36*
X68450Y-78221D02*
X67922Y-78538D01*
X67922Y-77392D01*
X67922Y-77107D01*
X67922Y-75892D01*
X67922Y-75607D01*
X67922Y-74392D01*
X67922Y-74107D01*
X67922Y-72892D01*
X67922Y-72607D01*
X67913Y-72568D01*
X67801Y-72364D01*
X67618Y-72219D01*
X67395Y-72155D01*
X67222Y-72155D01*
X67222Y-72700D01*
X67875Y-72700D01*
X67922Y-72607D01*
X67922Y-72892D01*
X67875Y-72800D01*
X67222Y-72800D01*
X67222Y-73345D01*
X67395Y-73345D01*
X67618Y-73280D01*
X67801Y-73135D01*
X67913Y-72931D01*
X67922Y-72892D01*
X67922Y-74107D01*
X67913Y-74068D01*
X67801Y-73864D01*
X67618Y-73719D01*
X67395Y-73655D01*
X67222Y-73655D01*
X67222Y-74200D01*
X67875Y-74200D01*
X67922Y-74107D01*
X67922Y-74392D01*
X67875Y-74300D01*
X67222Y-74300D01*
X67222Y-74845D01*
X67395Y-74845D01*
X67618Y-74780D01*
X67801Y-74635D01*
X67913Y-74431D01*
X67922Y-74392D01*
X67922Y-75607D01*
X67913Y-75568D01*
X67801Y-75364D01*
X67618Y-75219D01*
X67395Y-75155D01*
X67222Y-75155D01*
X67222Y-75700D01*
X67875Y-75700D01*
X67922Y-75607D01*
X67922Y-75892D01*
X67875Y-75800D01*
X67222Y-75800D01*
X67222Y-76345D01*
X67395Y-76345D01*
X67618Y-76280D01*
X67801Y-76135D01*
X67913Y-75931D01*
X67922Y-75892D01*
X67922Y-77107D01*
X67913Y-77068D01*
X67801Y-76864D01*
X67618Y-76719D01*
X67395Y-76655D01*
X67222Y-76655D01*
X67222Y-77200D01*
X67875Y-77200D01*
X67922Y-77107D01*
X67922Y-77392D01*
X67875Y-77300D01*
X67222Y-77300D01*
X67222Y-77845D01*
X67395Y-77845D01*
X67618Y-77780D01*
X67801Y-77635D01*
X67913Y-77431D01*
X67922Y-77392D01*
X67922Y-78538D01*
X67122Y-79018D01*
X67122Y-77845D01*
X67122Y-77300D01*
X67122Y-77200D01*
X67122Y-76655D01*
X67122Y-76345D01*
X67122Y-75800D01*
X67122Y-75700D01*
X67122Y-75155D01*
X67122Y-74845D01*
X67122Y-74300D01*
X67122Y-74200D01*
X67122Y-73655D01*
X67122Y-73345D01*
X67122Y-72800D01*
X66469Y-72800D01*
X66422Y-72892D01*
X66431Y-72931D01*
X66543Y-73135D01*
X66726Y-73280D01*
X66950Y-73345D01*
X67122Y-73345D01*
X67122Y-73655D01*
X66950Y-73655D01*
X66726Y-73719D01*
X66543Y-73864D01*
X66431Y-74068D01*
X66422Y-74107D01*
X66469Y-74200D01*
X67122Y-74200D01*
X67122Y-74300D01*
X66469Y-74300D01*
X66422Y-74392D01*
X66431Y-74431D01*
X66543Y-74635D01*
X66726Y-74780D01*
X66950Y-74845D01*
X67122Y-74845D01*
X67122Y-75155D01*
X66950Y-75155D01*
X66726Y-75219D01*
X66543Y-75364D01*
X66431Y-75568D01*
X66422Y-75607D01*
X66469Y-75700D01*
X67122Y-75700D01*
X67122Y-75800D01*
X66469Y-75800D01*
X66422Y-75892D01*
X66431Y-75931D01*
X66543Y-76135D01*
X66726Y-76280D01*
X66950Y-76345D01*
X67122Y-76345D01*
X67122Y-76655D01*
X66950Y-76655D01*
X66726Y-76719D01*
X66543Y-76864D01*
X66431Y-77068D01*
X66422Y-77107D01*
X66469Y-77200D01*
X67122Y-77200D01*
X67122Y-77300D01*
X66469Y-77300D01*
X66422Y-77392D01*
X66431Y-77431D01*
X66543Y-77635D01*
X66726Y-77780D01*
X66950Y-77845D01*
X67122Y-77845D01*
X67122Y-79018D01*
X64757Y-80437D01*
X64757Y-79523D01*
X64753Y-79125D01*
X64609Y-78776D01*
X64467Y-78694D01*
X63826Y-79334D01*
X64467Y-79975D01*
X64609Y-79892D01*
X64757Y-79523D01*
X64757Y-80437D01*
X64736Y-80450D01*
X64396Y-80450D01*
X64396Y-80045D01*
X63755Y-79405D01*
X63685Y-79476D01*
X63685Y-79334D01*
X63044Y-78694D01*
X62902Y-78776D01*
X62754Y-79145D01*
X62757Y-79543D01*
X62902Y-79892D01*
X63044Y-79975D01*
X63685Y-79334D01*
X63685Y-79476D01*
X63115Y-80045D01*
X63197Y-80187D01*
X63566Y-80336D01*
X63964Y-80332D01*
X64314Y-80187D01*
X64396Y-80045D01*
X64396Y-80450D01*
X63309Y-80450D01*
X63242Y-80383D01*
X62912Y-80245D01*
X62554Y-80245D01*
X62223Y-80382D01*
X62183Y-80421D01*
X57120Y-78492D01*
X57120Y-77555D01*
X57116Y-77157D01*
X56971Y-76808D01*
X56829Y-76725D01*
X56758Y-76796D01*
X56758Y-76654D01*
X56676Y-76512D01*
X56307Y-76364D01*
X55909Y-76368D01*
X55559Y-76512D01*
X55477Y-76654D01*
X56118Y-77295D01*
X56758Y-76654D01*
X56758Y-76796D01*
X56188Y-77366D01*
X56829Y-78006D01*
X56971Y-77924D01*
X57120Y-77555D01*
X57120Y-78492D01*
X57009Y-78450D01*
X56758Y-78450D01*
X56758Y-78077D01*
X56118Y-77436D01*
X56047Y-77507D01*
X56047Y-77366D01*
X55406Y-76725D01*
X55264Y-76808D01*
X55116Y-77177D01*
X55120Y-77574D01*
X55264Y-77924D01*
X55406Y-78006D01*
X56047Y-77366D01*
X56047Y-77507D01*
X55477Y-78077D01*
X55559Y-78219D01*
X55928Y-78368D01*
X56326Y-78364D01*
X56676Y-78219D01*
X56758Y-78077D01*
X56758Y-78450D01*
X56334Y-78450D01*
X56297Y-78434D01*
X55939Y-78434D01*
X55902Y-78450D01*
X55515Y-78450D01*
X54800Y-77973D01*
X54800Y-76776D01*
X55515Y-76300D01*
X56613Y-76300D01*
X56631Y-76317D01*
X56961Y-76454D01*
X57319Y-76455D01*
X57336Y-76448D01*
X62239Y-78550D01*
X63157Y-78550D01*
X63115Y-78623D01*
X63755Y-79263D01*
X64396Y-78623D01*
X64329Y-78507D01*
X65800Y-77526D01*
X65800Y-73270D01*
X66436Y-72634D01*
X66469Y-72700D01*
X67122Y-72700D01*
X67122Y-72155D01*
X66950Y-72155D01*
X66901Y-72168D01*
X67270Y-71800D01*
X68450Y-71800D01*
X68450Y-78221D01*
X68450Y-78221D01*
G37*
G54D31*
X68450Y-78221D02*
X67922Y-78538D01*
X67922Y-77392D01*
X67922Y-77107D01*
X67922Y-75892D01*
X67922Y-75607D01*
X67922Y-74392D01*
X67922Y-74107D01*
X67922Y-72892D01*
X67922Y-72607D01*
X67913Y-72568D01*
X67801Y-72364D01*
X67618Y-72219D01*
X67395Y-72155D01*
X67222Y-72155D01*
X67222Y-72700D01*
X67875Y-72700D01*
X67922Y-72607D01*
X67922Y-72892D01*
X67875Y-72800D01*
X67222Y-72800D01*
X67222Y-73345D01*
X67395Y-73345D01*
X67618Y-73280D01*
X67801Y-73135D01*
X67913Y-72931D01*
X67922Y-72892D01*
X67922Y-74107D01*
X67913Y-74068D01*
X67801Y-73864D01*
X67618Y-73719D01*
X67395Y-73655D01*
X67222Y-73655D01*
X67222Y-74200D01*
X67875Y-74200D01*
X67922Y-74107D01*
X67922Y-74392D01*
X67875Y-74300D01*
X67222Y-74300D01*
X67222Y-74845D01*
X67395Y-74845D01*
X67618Y-74780D01*
X67801Y-74635D01*
X67913Y-74431D01*
X67922Y-74392D01*
X67922Y-75607D01*
X67913Y-75568D01*
X67801Y-75364D01*
X67618Y-75219D01*
X67395Y-75155D01*
X67222Y-75155D01*
X67222Y-75700D01*
X67875Y-75700D01*
X67922Y-75607D01*
X67922Y-75892D01*
X67875Y-75800D01*
X67222Y-75800D01*
X67222Y-76345D01*
X67395Y-76345D01*
X67618Y-76280D01*
X67801Y-76135D01*
X67913Y-75931D01*
X67922Y-75892D01*
X67922Y-77107D01*
X67913Y-77068D01*
X67801Y-76864D01*
X67618Y-76719D01*
X67395Y-76655D01*
X67222Y-76655D01*
X67222Y-77200D01*
X67875Y-77200D01*
X67922Y-77107D01*
X67922Y-77392D01*
X67875Y-77300D01*
X67222Y-77300D01*
X67222Y-77845D01*
X67395Y-77845D01*
X67618Y-77780D01*
X67801Y-77635D01*
X67913Y-77431D01*
X67922Y-77392D01*
X67922Y-78538D01*
X67122Y-79018D01*
X67122Y-77845D01*
X67122Y-77300D01*
X67122Y-77200D01*
X67122Y-76655D01*
X67122Y-76345D01*
X67122Y-75800D01*
X67122Y-75700D01*
X67122Y-75155D01*
X67122Y-74845D01*
X67122Y-74300D01*
X67122Y-74200D01*
X67122Y-73655D01*
X67122Y-73345D01*
X67122Y-72800D01*
X66469Y-72800D01*
X66422Y-72892D01*
X66431Y-72931D01*
X66543Y-73135D01*
X66726Y-73280D01*
X66950Y-73345D01*
X67122Y-73345D01*
X67122Y-73655D01*
X66950Y-73655D01*
X66726Y-73719D01*
X66543Y-73864D01*
X66431Y-74068D01*
X66422Y-74107D01*
X66469Y-74200D01*
X67122Y-74200D01*
X67122Y-74300D01*
X66469Y-74300D01*
X66422Y-74392D01*
X66431Y-74431D01*
X66543Y-74635D01*
X66726Y-74780D01*
X66950Y-74845D01*
X67122Y-74845D01*
X67122Y-75155D01*
X66950Y-75155D01*
X66726Y-75219D01*
X66543Y-75364D01*
X66431Y-75568D01*
X66422Y-75607D01*
X66469Y-75700D01*
X67122Y-75700D01*
X67122Y-75800D01*
X66469Y-75800D01*
X66422Y-75892D01*
X66431Y-75931D01*
X66543Y-76135D01*
X66726Y-76280D01*
X66950Y-76345D01*
X67122Y-76345D01*
X67122Y-76655D01*
X66950Y-76655D01*
X66726Y-76719D01*
X66543Y-76864D01*
X66431Y-77068D01*
X66422Y-77107D01*
X66469Y-77200D01*
X67122Y-77200D01*
X67122Y-77300D01*
X66469Y-77300D01*
X66422Y-77392D01*
X66431Y-77431D01*
X66543Y-77635D01*
X66726Y-77780D01*
X66950Y-77845D01*
X67122Y-77845D01*
X67122Y-79018D01*
X64757Y-80437D01*
X64757Y-79523D01*
X64753Y-79125D01*
X64609Y-78776D01*
X64467Y-78694D01*
X63826Y-79334D01*
X64467Y-79975D01*
X64609Y-79892D01*
X64757Y-79523D01*
X64757Y-80437D01*
X64736Y-80450D01*
X64396Y-80450D01*
X64396Y-80045D01*
X63755Y-79405D01*
X63685Y-79476D01*
X63685Y-79334D01*
X63044Y-78694D01*
X62902Y-78776D01*
X62754Y-79145D01*
X62757Y-79543D01*
X62902Y-79892D01*
X63044Y-79975D01*
X63685Y-79334D01*
X63685Y-79476D01*
X63115Y-80045D01*
X63197Y-80187D01*
X63566Y-80336D01*
X63964Y-80332D01*
X64314Y-80187D01*
X64396Y-80045D01*
X64396Y-80450D01*
X63309Y-80450D01*
X63242Y-80383D01*
X62912Y-80245D01*
X62554Y-80245D01*
X62223Y-80382D01*
X62183Y-80421D01*
X57120Y-78492D01*
X57120Y-77555D01*
X57116Y-77157D01*
X56971Y-76808D01*
X56829Y-76725D01*
X56758Y-76796D01*
X56758Y-76654D01*
X56676Y-76512D01*
X56307Y-76364D01*
X55909Y-76368D01*
X55559Y-76512D01*
X55477Y-76654D01*
X56118Y-77295D01*
X56758Y-76654D01*
X56758Y-76796D01*
X56188Y-77366D01*
X56829Y-78006D01*
X56971Y-77924D01*
X57120Y-77555D01*
X57120Y-78492D01*
X57009Y-78450D01*
X56758Y-78450D01*
X56758Y-78077D01*
X56118Y-77436D01*
X56047Y-77507D01*
X56047Y-77366D01*
X55406Y-76725D01*
X55264Y-76808D01*
X55116Y-77177D01*
X55120Y-77574D01*
X55264Y-77924D01*
X55406Y-78006D01*
X56047Y-77366D01*
X56047Y-77507D01*
X55477Y-78077D01*
X55559Y-78219D01*
X55928Y-78368D01*
X56326Y-78364D01*
X56676Y-78219D01*
X56758Y-78077D01*
X56758Y-78450D01*
X56334Y-78450D01*
X56297Y-78434D01*
X55939Y-78434D01*
X55902Y-78450D01*
X55515Y-78450D01*
X54800Y-77973D01*
X54800Y-76776D01*
X55515Y-76300D01*
X56613Y-76300D01*
X56631Y-76317D01*
X56961Y-76454D01*
X57319Y-76455D01*
X57336Y-76448D01*
X62239Y-78550D01*
X63157Y-78550D01*
X63115Y-78623D01*
X63755Y-79263D01*
X64396Y-78623D01*
X64329Y-78507D01*
X65800Y-77526D01*
X65800Y-73270D01*
X66436Y-72634D01*
X66469Y-72700D01*
X67122Y-72700D01*
X67122Y-72155D01*
X66950Y-72155D01*
X66901Y-72168D01*
X67270Y-71800D01*
X68450Y-71800D01*
X68450Y-78221D01*
G54D10*
G36*
X66950Y-71729D02*
X66595Y-72084D01*
X66595Y-71800D01*
X66595Y-71627D01*
X66595Y-71527D01*
X66595Y-71355D01*
X66530Y-71131D01*
X66385Y-70948D01*
X66181Y-70836D01*
X66142Y-70827D01*
X66050Y-70874D01*
X66050Y-71527D01*
X66595Y-71527D01*
X66595Y-71627D01*
X66050Y-71627D01*
X66050Y-72280D01*
X66142Y-72327D01*
X66181Y-72318D01*
X66385Y-72206D01*
X66530Y-72023D01*
X66595Y-71800D01*
X66595Y-72084D01*
X65950Y-72729D01*
X65950Y-72280D01*
X65950Y-71627D01*
X65950Y-71527D01*
X65950Y-70874D01*
X65857Y-70827D01*
X65818Y-70836D01*
X65614Y-70948D01*
X65469Y-71131D01*
X65405Y-71355D01*
X65405Y-71527D01*
X65950Y-71527D01*
X65950Y-71627D01*
X65405Y-71627D01*
X65405Y-71800D01*
X65469Y-72023D01*
X65614Y-72206D01*
X65818Y-72318D01*
X65857Y-72327D01*
X65950Y-72280D01*
X65950Y-72729D01*
X65450Y-73229D01*
X65450Y-77471D01*
X65095Y-77684D01*
X65095Y-71800D01*
X65095Y-71627D01*
X65095Y-71527D01*
X65095Y-71355D01*
X65030Y-71131D01*
X64885Y-70948D01*
X64681Y-70836D01*
X64642Y-70827D01*
X64550Y-70874D01*
X64550Y-71527D01*
X65095Y-71527D01*
X65095Y-71627D01*
X64550Y-71627D01*
X64550Y-72280D01*
X64642Y-72327D01*
X64681Y-72318D01*
X64885Y-72206D01*
X65030Y-72023D01*
X65095Y-71800D01*
X65095Y-77684D01*
X64757Y-77887D01*
X64501Y-78040D01*
X64467Y-78006D01*
X64609Y-77924D01*
X64757Y-77555D01*
X64753Y-77157D01*
X64609Y-76808D01*
X64467Y-76725D01*
X64450Y-76742D01*
X64450Y-72280D01*
X64450Y-71627D01*
X64450Y-71527D01*
X64450Y-70874D01*
X64357Y-70827D01*
X64318Y-70836D01*
X64114Y-70948D01*
X63969Y-71131D01*
X63905Y-71355D01*
X63905Y-71527D01*
X64450Y-71527D01*
X64450Y-71627D01*
X63905Y-71627D01*
X63905Y-71800D01*
X63969Y-72023D01*
X64114Y-72206D01*
X64318Y-72318D01*
X64357Y-72327D01*
X64450Y-72280D01*
X64450Y-76742D01*
X64396Y-76796D01*
X64396Y-76654D01*
X64314Y-76512D01*
X63945Y-76364D01*
X63547Y-76368D01*
X63197Y-76512D01*
X63115Y-76654D01*
X63755Y-77295D01*
X64396Y-76654D01*
X64396Y-76796D01*
X63826Y-77366D01*
X63832Y-77371D01*
X63761Y-77442D01*
X63755Y-77436D01*
X63685Y-77507D01*
X63685Y-77366D01*
X63044Y-76725D01*
X62902Y-76808D01*
X62754Y-77177D01*
X62757Y-77574D01*
X62902Y-77924D01*
X63044Y-78006D01*
X63685Y-77366D01*
X63685Y-77507D01*
X63115Y-78077D01*
X63186Y-78200D01*
X63020Y-78200D01*
X62550Y-77729D01*
X62550Y-77020D01*
X64050Y-75520D01*
X64050Y-72488D01*
X63800Y-71988D01*
X63800Y-71020D01*
X64270Y-70550D01*
X66229Y-70550D01*
X66950Y-71270D01*
X66950Y-71729D01*
X66950Y-71729D01*
G37*
G54D31*
X66950Y-71729D02*
X66595Y-72084D01*
X66595Y-71800D01*
X66595Y-71627D01*
X66595Y-71527D01*
X66595Y-71355D01*
X66530Y-71131D01*
X66385Y-70948D01*
X66181Y-70836D01*
X66142Y-70827D01*
X66050Y-70874D01*
X66050Y-71527D01*
X66595Y-71527D01*
X66595Y-71627D01*
X66050Y-71627D01*
X66050Y-72280D01*
X66142Y-72327D01*
X66181Y-72318D01*
X66385Y-72206D01*
X66530Y-72023D01*
X66595Y-71800D01*
X66595Y-72084D01*
X65950Y-72729D01*
X65950Y-72280D01*
X65950Y-71627D01*
X65950Y-71527D01*
X65950Y-70874D01*
X65857Y-70827D01*
X65818Y-70836D01*
X65614Y-70948D01*
X65469Y-71131D01*
X65405Y-71355D01*
X65405Y-71527D01*
X65950Y-71527D01*
X65950Y-71627D01*
X65405Y-71627D01*
X65405Y-71800D01*
X65469Y-72023D01*
X65614Y-72206D01*
X65818Y-72318D01*
X65857Y-72327D01*
X65950Y-72280D01*
X65950Y-72729D01*
X65450Y-73229D01*
X65450Y-77471D01*
X65095Y-77684D01*
X65095Y-71800D01*
X65095Y-71627D01*
X65095Y-71527D01*
X65095Y-71355D01*
X65030Y-71131D01*
X64885Y-70948D01*
X64681Y-70836D01*
X64642Y-70827D01*
X64550Y-70874D01*
X64550Y-71527D01*
X65095Y-71527D01*
X65095Y-71627D01*
X64550Y-71627D01*
X64550Y-72280D01*
X64642Y-72327D01*
X64681Y-72318D01*
X64885Y-72206D01*
X65030Y-72023D01*
X65095Y-71800D01*
X65095Y-77684D01*
X64757Y-77887D01*
X64501Y-78040D01*
X64467Y-78006D01*
X64609Y-77924D01*
X64757Y-77555D01*
X64753Y-77157D01*
X64609Y-76808D01*
X64467Y-76725D01*
X64450Y-76742D01*
X64450Y-72280D01*
X64450Y-71627D01*
X64450Y-71527D01*
X64450Y-70874D01*
X64357Y-70827D01*
X64318Y-70836D01*
X64114Y-70948D01*
X63969Y-71131D01*
X63905Y-71355D01*
X63905Y-71527D01*
X64450Y-71527D01*
X64450Y-71627D01*
X63905Y-71627D01*
X63905Y-71800D01*
X63969Y-72023D01*
X64114Y-72206D01*
X64318Y-72318D01*
X64357Y-72327D01*
X64450Y-72280D01*
X64450Y-76742D01*
X64396Y-76796D01*
X64396Y-76654D01*
X64314Y-76512D01*
X63945Y-76364D01*
X63547Y-76368D01*
X63197Y-76512D01*
X63115Y-76654D01*
X63755Y-77295D01*
X64396Y-76654D01*
X64396Y-76796D01*
X63826Y-77366D01*
X63832Y-77371D01*
X63761Y-77442D01*
X63755Y-77436D01*
X63685Y-77507D01*
X63685Y-77366D01*
X63044Y-76725D01*
X62902Y-76808D01*
X62754Y-77177D01*
X62757Y-77574D01*
X62902Y-77924D01*
X63044Y-78006D01*
X63685Y-77366D01*
X63685Y-77507D01*
X63115Y-78077D01*
X63186Y-78200D01*
X63020Y-78200D01*
X62550Y-77729D01*
X62550Y-77020D01*
X64050Y-75520D01*
X64050Y-72488D01*
X63800Y-71988D01*
X63800Y-71020D01*
X64270Y-70550D01*
X66229Y-70550D01*
X66950Y-71270D01*
X66950Y-71729D01*
G54D10*
G36*
X67200Y-67729D02*
X66595Y-68334D01*
X66595Y-67145D01*
X66595Y-66972D01*
X66595Y-66872D01*
X66595Y-66700D01*
X66530Y-66476D01*
X66385Y-66293D01*
X66181Y-66181D01*
X66142Y-66172D01*
X66050Y-66219D01*
X66050Y-66872D01*
X66595Y-66872D01*
X66595Y-66972D01*
X66050Y-66972D01*
X66050Y-67625D01*
X66142Y-67672D01*
X66181Y-67663D01*
X66385Y-67551D01*
X66530Y-67368D01*
X66595Y-67145D01*
X66595Y-68334D01*
X66479Y-68450D01*
X65950Y-68450D01*
X65950Y-67625D01*
X65950Y-66972D01*
X65950Y-66872D01*
X65950Y-66219D01*
X65857Y-66172D01*
X65818Y-66181D01*
X65614Y-66293D01*
X65469Y-66476D01*
X65405Y-66700D01*
X65405Y-66872D01*
X65950Y-66872D01*
X65950Y-66972D01*
X65405Y-66972D01*
X65405Y-67145D01*
X65469Y-67368D01*
X65614Y-67551D01*
X65818Y-67663D01*
X65857Y-67672D01*
X65950Y-67625D01*
X65950Y-68450D01*
X65095Y-68450D01*
X65095Y-67145D01*
X65095Y-66972D01*
X65095Y-66872D01*
X65095Y-66700D01*
X65030Y-66476D01*
X64885Y-66293D01*
X64681Y-66181D01*
X64642Y-66172D01*
X64550Y-66219D01*
X64550Y-66872D01*
X65095Y-66872D01*
X65095Y-66972D01*
X64550Y-66972D01*
X64550Y-67625D01*
X64642Y-67672D01*
X64681Y-67663D01*
X64885Y-67551D01*
X65030Y-67368D01*
X65095Y-67145D01*
X65095Y-68450D01*
X64450Y-68450D01*
X64450Y-67625D01*
X64450Y-66972D01*
X64450Y-66872D01*
X64450Y-66219D01*
X64357Y-66172D01*
X64318Y-66181D01*
X64114Y-66293D01*
X63969Y-66476D01*
X63905Y-66700D01*
X63905Y-66872D01*
X64450Y-66872D01*
X64450Y-66972D01*
X63905Y-66972D01*
X63905Y-67145D01*
X63969Y-67368D01*
X64114Y-67551D01*
X64318Y-67663D01*
X64357Y-67672D01*
X64450Y-67625D01*
X64450Y-68450D01*
X63595Y-68450D01*
X63595Y-67145D01*
X63595Y-66972D01*
X63595Y-66872D01*
X63595Y-66700D01*
X63530Y-66476D01*
X63385Y-66293D01*
X63181Y-66181D01*
X63142Y-66172D01*
X63050Y-66219D01*
X63050Y-66872D01*
X63595Y-66872D01*
X63595Y-66972D01*
X63050Y-66972D01*
X63050Y-67625D01*
X63142Y-67672D01*
X63181Y-67663D01*
X63385Y-67551D01*
X63530Y-67368D01*
X63595Y-67145D01*
X63595Y-68450D01*
X62950Y-68450D01*
X62950Y-67625D01*
X62950Y-66972D01*
X62950Y-66872D01*
X62950Y-66219D01*
X62857Y-66172D01*
X62818Y-66181D01*
X62614Y-66293D01*
X62469Y-66476D01*
X62405Y-66700D01*
X62405Y-66872D01*
X62950Y-66872D01*
X62950Y-66972D01*
X62405Y-66972D01*
X62405Y-67145D01*
X62469Y-67368D01*
X62614Y-67551D01*
X62818Y-67663D01*
X62857Y-67672D01*
X62950Y-67625D01*
X62950Y-68450D01*
X62095Y-68450D01*
X62095Y-67145D01*
X62095Y-66972D01*
X62095Y-66872D01*
X62095Y-66700D01*
X62030Y-66476D01*
X61885Y-66293D01*
X61681Y-66181D01*
X61642Y-66172D01*
X61550Y-66219D01*
X61550Y-66872D01*
X62095Y-66872D01*
X62095Y-66972D01*
X61550Y-66972D01*
X61550Y-67625D01*
X61642Y-67672D01*
X61681Y-67663D01*
X61885Y-67551D01*
X62030Y-67368D01*
X62095Y-67145D01*
X62095Y-68450D01*
X61520Y-68450D01*
X61450Y-68379D01*
X61450Y-67625D01*
X61450Y-66972D01*
X61450Y-66872D01*
X61450Y-66219D01*
X61357Y-66172D01*
X61318Y-66181D01*
X61114Y-66293D01*
X60969Y-66476D01*
X60905Y-66700D01*
X60905Y-66872D01*
X61450Y-66872D01*
X61450Y-66972D01*
X60905Y-66972D01*
X60905Y-67145D01*
X60969Y-67368D01*
X61114Y-67551D01*
X61318Y-67663D01*
X61357Y-67672D01*
X61450Y-67625D01*
X61450Y-68379D01*
X60800Y-67729D01*
X60800Y-66488D01*
X60530Y-65950D01*
X59729Y-65950D01*
X59200Y-66479D01*
X59200Y-68950D01*
X59045Y-68950D01*
X59045Y-68095D01*
X59045Y-67947D01*
X59045Y-67847D01*
X59045Y-67700D01*
X58984Y-67495D01*
X58850Y-67329D01*
X58662Y-67227D01*
X58634Y-67221D01*
X58550Y-67270D01*
X58550Y-67847D01*
X59045Y-67847D01*
X59045Y-67947D01*
X58550Y-67947D01*
X58550Y-68524D01*
X58634Y-68573D01*
X58662Y-68567D01*
X58850Y-68465D01*
X58984Y-68299D01*
X59045Y-68095D01*
X59045Y-68950D01*
X58450Y-68950D01*
X58450Y-68524D01*
X58450Y-67947D01*
X58450Y-67847D01*
X58450Y-67270D01*
X58365Y-67221D01*
X58337Y-67227D01*
X58149Y-67329D01*
X58015Y-67495D01*
X58000Y-67548D01*
X57984Y-67495D01*
X57850Y-67329D01*
X57662Y-67227D01*
X57634Y-67221D01*
X57550Y-67270D01*
X57550Y-67847D01*
X57955Y-67847D01*
X58045Y-67847D01*
X58450Y-67847D01*
X58450Y-67947D01*
X58045Y-67947D01*
X57955Y-67947D01*
X57550Y-67947D01*
X57550Y-68524D01*
X57634Y-68573D01*
X57662Y-68567D01*
X57850Y-68465D01*
X57984Y-68299D01*
X58000Y-68246D01*
X58015Y-68299D01*
X58149Y-68465D01*
X58337Y-68567D01*
X58365Y-68573D01*
X58450Y-68524D01*
X58450Y-68950D01*
X57450Y-68950D01*
X57450Y-68524D01*
X57450Y-67947D01*
X57450Y-67847D01*
X57450Y-67270D01*
X57365Y-67221D01*
X57337Y-67227D01*
X57149Y-67329D01*
X57015Y-67495D01*
X57000Y-67548D01*
X56984Y-67495D01*
X56850Y-67329D01*
X56662Y-67227D01*
X56634Y-67221D01*
X56550Y-67270D01*
X56550Y-67847D01*
X56955Y-67847D01*
X57045Y-67847D01*
X57450Y-67847D01*
X57450Y-67947D01*
X57045Y-67947D01*
X56955Y-67947D01*
X56550Y-67947D01*
X56550Y-68524D01*
X56634Y-68573D01*
X56662Y-68567D01*
X56850Y-68465D01*
X56984Y-68299D01*
X57000Y-68246D01*
X57015Y-68299D01*
X57149Y-68465D01*
X57337Y-68567D01*
X57365Y-68573D01*
X57450Y-68524D01*
X57450Y-68950D01*
X56450Y-68950D01*
X56450Y-68524D01*
X56450Y-67947D01*
X56450Y-67847D01*
X56450Y-67270D01*
X56365Y-67221D01*
X56337Y-67227D01*
X56189Y-67308D01*
X56189Y-63259D01*
X56188Y-62732D01*
X56126Y-62670D01*
X55300Y-62670D01*
X55300Y-63496D01*
X55362Y-63559D01*
X55988Y-63559D01*
X56080Y-63521D01*
X56150Y-63450D01*
X56188Y-63359D01*
X56189Y-63259D01*
X56189Y-67308D01*
X56149Y-67329D01*
X56015Y-67495D01*
X55955Y-67700D01*
X55955Y-67847D01*
X56450Y-67847D01*
X56450Y-67947D01*
X55955Y-67947D01*
X55955Y-68095D01*
X56015Y-68299D01*
X56149Y-68465D01*
X56337Y-68567D01*
X56365Y-68573D01*
X56450Y-68524D01*
X56450Y-68950D01*
X55780Y-68950D01*
X55200Y-67788D01*
X55200Y-63496D01*
X55200Y-62670D01*
X54373Y-62670D01*
X54311Y-62732D01*
X54310Y-63259D01*
X54311Y-63359D01*
X54349Y-63450D01*
X54419Y-63521D01*
X54511Y-63559D01*
X55137Y-63559D01*
X55200Y-63496D01*
X55200Y-67788D01*
X54050Y-65488D01*
X54050Y-62050D01*
X54310Y-62050D01*
X54311Y-62507D01*
X54373Y-62570D01*
X55200Y-62570D01*
X55200Y-62562D01*
X55300Y-62562D01*
X55300Y-62570D01*
X56126Y-62570D01*
X56188Y-62507D01*
X56189Y-62050D01*
X67200Y-62050D01*
X67200Y-67729D01*
X67200Y-67729D01*
G37*
G54D31*
X67200Y-67729D02*
X66595Y-68334D01*
X66595Y-67145D01*
X66595Y-66972D01*
X66595Y-66872D01*
X66595Y-66700D01*
X66530Y-66476D01*
X66385Y-66293D01*
X66181Y-66181D01*
X66142Y-66172D01*
X66050Y-66219D01*
X66050Y-66872D01*
X66595Y-66872D01*
X66595Y-66972D01*
X66050Y-66972D01*
X66050Y-67625D01*
X66142Y-67672D01*
X66181Y-67663D01*
X66385Y-67551D01*
X66530Y-67368D01*
X66595Y-67145D01*
X66595Y-68334D01*
X66479Y-68450D01*
X65950Y-68450D01*
X65950Y-67625D01*
X65950Y-66972D01*
X65950Y-66872D01*
X65950Y-66219D01*
X65857Y-66172D01*
X65818Y-66181D01*
X65614Y-66293D01*
X65469Y-66476D01*
X65405Y-66700D01*
X65405Y-66872D01*
X65950Y-66872D01*
X65950Y-66972D01*
X65405Y-66972D01*
X65405Y-67145D01*
X65469Y-67368D01*
X65614Y-67551D01*
X65818Y-67663D01*
X65857Y-67672D01*
X65950Y-67625D01*
X65950Y-68450D01*
X65095Y-68450D01*
X65095Y-67145D01*
X65095Y-66972D01*
X65095Y-66872D01*
X65095Y-66700D01*
X65030Y-66476D01*
X64885Y-66293D01*
X64681Y-66181D01*
X64642Y-66172D01*
X64550Y-66219D01*
X64550Y-66872D01*
X65095Y-66872D01*
X65095Y-66972D01*
X64550Y-66972D01*
X64550Y-67625D01*
X64642Y-67672D01*
X64681Y-67663D01*
X64885Y-67551D01*
X65030Y-67368D01*
X65095Y-67145D01*
X65095Y-68450D01*
X64450Y-68450D01*
X64450Y-67625D01*
X64450Y-66972D01*
X64450Y-66872D01*
X64450Y-66219D01*
X64357Y-66172D01*
X64318Y-66181D01*
X64114Y-66293D01*
X63969Y-66476D01*
X63905Y-66700D01*
X63905Y-66872D01*
X64450Y-66872D01*
X64450Y-66972D01*
X63905Y-66972D01*
X63905Y-67145D01*
X63969Y-67368D01*
X64114Y-67551D01*
X64318Y-67663D01*
X64357Y-67672D01*
X64450Y-67625D01*
X64450Y-68450D01*
X63595Y-68450D01*
X63595Y-67145D01*
X63595Y-66972D01*
X63595Y-66872D01*
X63595Y-66700D01*
X63530Y-66476D01*
X63385Y-66293D01*
X63181Y-66181D01*
X63142Y-66172D01*
X63050Y-66219D01*
X63050Y-66872D01*
X63595Y-66872D01*
X63595Y-66972D01*
X63050Y-66972D01*
X63050Y-67625D01*
X63142Y-67672D01*
X63181Y-67663D01*
X63385Y-67551D01*
X63530Y-67368D01*
X63595Y-67145D01*
X63595Y-68450D01*
X62950Y-68450D01*
X62950Y-67625D01*
X62950Y-66972D01*
X62950Y-66872D01*
X62950Y-66219D01*
X62857Y-66172D01*
X62818Y-66181D01*
X62614Y-66293D01*
X62469Y-66476D01*
X62405Y-66700D01*
X62405Y-66872D01*
X62950Y-66872D01*
X62950Y-66972D01*
X62405Y-66972D01*
X62405Y-67145D01*
X62469Y-67368D01*
X62614Y-67551D01*
X62818Y-67663D01*
X62857Y-67672D01*
X62950Y-67625D01*
X62950Y-68450D01*
X62095Y-68450D01*
X62095Y-67145D01*
X62095Y-66972D01*
X62095Y-66872D01*
X62095Y-66700D01*
X62030Y-66476D01*
X61885Y-66293D01*
X61681Y-66181D01*
X61642Y-66172D01*
X61550Y-66219D01*
X61550Y-66872D01*
X62095Y-66872D01*
X62095Y-66972D01*
X61550Y-66972D01*
X61550Y-67625D01*
X61642Y-67672D01*
X61681Y-67663D01*
X61885Y-67551D01*
X62030Y-67368D01*
X62095Y-67145D01*
X62095Y-68450D01*
X61520Y-68450D01*
X61450Y-68379D01*
X61450Y-67625D01*
X61450Y-66972D01*
X61450Y-66872D01*
X61450Y-66219D01*
X61357Y-66172D01*
X61318Y-66181D01*
X61114Y-66293D01*
X60969Y-66476D01*
X60905Y-66700D01*
X60905Y-66872D01*
X61450Y-66872D01*
X61450Y-66972D01*
X60905Y-66972D01*
X60905Y-67145D01*
X60969Y-67368D01*
X61114Y-67551D01*
X61318Y-67663D01*
X61357Y-67672D01*
X61450Y-67625D01*
X61450Y-68379D01*
X60800Y-67729D01*
X60800Y-66488D01*
X60530Y-65950D01*
X59729Y-65950D01*
X59200Y-66479D01*
X59200Y-68950D01*
X59045Y-68950D01*
X59045Y-68095D01*
X59045Y-67947D01*
X59045Y-67847D01*
X59045Y-67700D01*
X58984Y-67495D01*
X58850Y-67329D01*
X58662Y-67227D01*
X58634Y-67221D01*
X58550Y-67270D01*
X58550Y-67847D01*
X59045Y-67847D01*
X59045Y-67947D01*
X58550Y-67947D01*
X58550Y-68524D01*
X58634Y-68573D01*
X58662Y-68567D01*
X58850Y-68465D01*
X58984Y-68299D01*
X59045Y-68095D01*
X59045Y-68950D01*
X58450Y-68950D01*
X58450Y-68524D01*
X58450Y-67947D01*
X58450Y-67847D01*
X58450Y-67270D01*
X58365Y-67221D01*
X58337Y-67227D01*
X58149Y-67329D01*
X58015Y-67495D01*
X58000Y-67548D01*
X57984Y-67495D01*
X57850Y-67329D01*
X57662Y-67227D01*
X57634Y-67221D01*
X57550Y-67270D01*
X57550Y-67847D01*
X57955Y-67847D01*
X58045Y-67847D01*
X58450Y-67847D01*
X58450Y-67947D01*
X58045Y-67947D01*
X57955Y-67947D01*
X57550Y-67947D01*
X57550Y-68524D01*
X57634Y-68573D01*
X57662Y-68567D01*
X57850Y-68465D01*
X57984Y-68299D01*
X58000Y-68246D01*
X58015Y-68299D01*
X58149Y-68465D01*
X58337Y-68567D01*
X58365Y-68573D01*
X58450Y-68524D01*
X58450Y-68950D01*
X57450Y-68950D01*
X57450Y-68524D01*
X57450Y-67947D01*
X57450Y-67847D01*
X57450Y-67270D01*
X57365Y-67221D01*
X57337Y-67227D01*
X57149Y-67329D01*
X57015Y-67495D01*
X57000Y-67548D01*
X56984Y-67495D01*
X56850Y-67329D01*
X56662Y-67227D01*
X56634Y-67221D01*
X56550Y-67270D01*
X56550Y-67847D01*
X56955Y-67847D01*
X57045Y-67847D01*
X57450Y-67847D01*
X57450Y-67947D01*
X57045Y-67947D01*
X56955Y-67947D01*
X56550Y-67947D01*
X56550Y-68524D01*
X56634Y-68573D01*
X56662Y-68567D01*
X56850Y-68465D01*
X56984Y-68299D01*
X57000Y-68246D01*
X57015Y-68299D01*
X57149Y-68465D01*
X57337Y-68567D01*
X57365Y-68573D01*
X57450Y-68524D01*
X57450Y-68950D01*
X56450Y-68950D01*
X56450Y-68524D01*
X56450Y-67947D01*
X56450Y-67847D01*
X56450Y-67270D01*
X56365Y-67221D01*
X56337Y-67227D01*
X56189Y-67308D01*
X56189Y-63259D01*
X56188Y-62732D01*
X56126Y-62670D01*
X55300Y-62670D01*
X55300Y-63496D01*
X55362Y-63559D01*
X55988Y-63559D01*
X56080Y-63521D01*
X56150Y-63450D01*
X56188Y-63359D01*
X56189Y-63259D01*
X56189Y-67308D01*
X56149Y-67329D01*
X56015Y-67495D01*
X55955Y-67700D01*
X55955Y-67847D01*
X56450Y-67847D01*
X56450Y-67947D01*
X55955Y-67947D01*
X55955Y-68095D01*
X56015Y-68299D01*
X56149Y-68465D01*
X56337Y-68567D01*
X56365Y-68573D01*
X56450Y-68524D01*
X56450Y-68950D01*
X55780Y-68950D01*
X55200Y-67788D01*
X55200Y-63496D01*
X55200Y-62670D01*
X54373Y-62670D01*
X54311Y-62732D01*
X54310Y-63259D01*
X54311Y-63359D01*
X54349Y-63450D01*
X54419Y-63521D01*
X54511Y-63559D01*
X55137Y-63559D01*
X55200Y-63496D01*
X55200Y-67788D01*
X54050Y-65488D01*
X54050Y-62050D01*
X54310Y-62050D01*
X54311Y-62507D01*
X54373Y-62570D01*
X55200Y-62570D01*
X55200Y-62562D01*
X55300Y-62562D01*
X55300Y-62570D01*
X56126Y-62570D01*
X56188Y-62507D01*
X56189Y-62050D01*
X67200Y-62050D01*
X67200Y-67729D01*
G54D10*
G36*
X57450Y-60729D02*
X56479Y-61700D01*
X56191Y-61700D01*
X56191Y-60924D01*
X56189Y-60747D01*
X56189Y-53759D01*
X56188Y-53232D01*
X56126Y-53170D01*
X55300Y-53170D01*
X55300Y-53996D01*
X55362Y-54059D01*
X55988Y-54059D01*
X56080Y-54021D01*
X56150Y-53950D01*
X56188Y-53859D01*
X56189Y-53759D01*
X56189Y-60747D01*
X56186Y-60551D01*
X56089Y-60316D01*
X56089Y-58713D01*
X55961Y-58405D01*
X55725Y-58169D01*
X55417Y-58041D01*
X55200Y-58040D01*
X55200Y-53996D01*
X55200Y-53170D01*
X54373Y-53170D01*
X54311Y-53232D01*
X54310Y-53759D01*
X54311Y-53859D01*
X54349Y-53950D01*
X54419Y-54021D01*
X54511Y-54059D01*
X55137Y-54059D01*
X55200Y-53996D01*
X55200Y-58040D01*
X55083Y-58040D01*
X54775Y-58168D01*
X54539Y-58404D01*
X54411Y-58712D01*
X54410Y-59046D01*
X54538Y-59354D01*
X54774Y-59590D01*
X55082Y-59718D01*
X55416Y-59719D01*
X55724Y-59591D01*
X55960Y-59355D01*
X56088Y-59047D01*
X56089Y-58713D01*
X56089Y-60316D01*
X56052Y-60228D01*
X55917Y-60153D01*
X55846Y-60224D01*
X55846Y-60082D01*
X55771Y-59947D01*
X55424Y-59808D01*
X55051Y-59813D01*
X54728Y-59947D01*
X54653Y-60082D01*
X55250Y-60679D01*
X55846Y-60082D01*
X55846Y-60224D01*
X55320Y-60750D01*
X55917Y-61346D01*
X56052Y-61271D01*
X56191Y-60924D01*
X56191Y-61700D01*
X55846Y-61700D01*
X55846Y-61417D01*
X55250Y-60820D01*
X55179Y-60891D01*
X55179Y-60750D01*
X54582Y-60153D01*
X54447Y-60228D01*
X54308Y-60575D01*
X54313Y-60948D01*
X54447Y-61271D01*
X54582Y-61346D01*
X55179Y-60750D01*
X55179Y-60891D01*
X54653Y-61417D01*
X54728Y-61552D01*
X55075Y-61691D01*
X55448Y-61686D01*
X55771Y-61552D01*
X55846Y-61417D01*
X55846Y-61700D01*
X54050Y-61700D01*
X54050Y-52550D01*
X54310Y-52550D01*
X54311Y-53007D01*
X54373Y-53070D01*
X55200Y-53070D01*
X55200Y-53062D01*
X55300Y-53062D01*
X55300Y-53070D01*
X56126Y-53070D01*
X56188Y-53007D01*
X56189Y-52550D01*
X56229Y-52550D01*
X57450Y-53770D01*
X57450Y-60729D01*
X57450Y-60729D01*
G37*
G54D31*
X57450Y-60729D02*
X56479Y-61700D01*
X56191Y-61700D01*
X56191Y-60924D01*
X56189Y-60747D01*
X56189Y-53759D01*
X56188Y-53232D01*
X56126Y-53170D01*
X55300Y-53170D01*
X55300Y-53996D01*
X55362Y-54059D01*
X55988Y-54059D01*
X56080Y-54021D01*
X56150Y-53950D01*
X56188Y-53859D01*
X56189Y-53759D01*
X56189Y-60747D01*
X56186Y-60551D01*
X56089Y-60316D01*
X56089Y-58713D01*
X55961Y-58405D01*
X55725Y-58169D01*
X55417Y-58041D01*
X55200Y-58040D01*
X55200Y-53996D01*
X55200Y-53170D01*
X54373Y-53170D01*
X54311Y-53232D01*
X54310Y-53759D01*
X54311Y-53859D01*
X54349Y-53950D01*
X54419Y-54021D01*
X54511Y-54059D01*
X55137Y-54059D01*
X55200Y-53996D01*
X55200Y-58040D01*
X55083Y-58040D01*
X54775Y-58168D01*
X54539Y-58404D01*
X54411Y-58712D01*
X54410Y-59046D01*
X54538Y-59354D01*
X54774Y-59590D01*
X55082Y-59718D01*
X55416Y-59719D01*
X55724Y-59591D01*
X55960Y-59355D01*
X56088Y-59047D01*
X56089Y-58713D01*
X56089Y-60316D01*
X56052Y-60228D01*
X55917Y-60153D01*
X55846Y-60224D01*
X55846Y-60082D01*
X55771Y-59947D01*
X55424Y-59808D01*
X55051Y-59813D01*
X54728Y-59947D01*
X54653Y-60082D01*
X55250Y-60679D01*
X55846Y-60082D01*
X55846Y-60224D01*
X55320Y-60750D01*
X55917Y-61346D01*
X56052Y-61271D01*
X56191Y-60924D01*
X56191Y-61700D01*
X55846Y-61700D01*
X55846Y-61417D01*
X55250Y-60820D01*
X55179Y-60891D01*
X55179Y-60750D01*
X54582Y-60153D01*
X54447Y-60228D01*
X54308Y-60575D01*
X54313Y-60948D01*
X54447Y-61271D01*
X54582Y-61346D01*
X55179Y-60750D01*
X55179Y-60891D01*
X54653Y-61417D01*
X54728Y-61552D01*
X55075Y-61691D01*
X55448Y-61686D01*
X55771Y-61552D01*
X55846Y-61417D01*
X55846Y-61700D01*
X54050Y-61700D01*
X54050Y-52550D01*
X54310Y-52550D01*
X54311Y-53007D01*
X54373Y-53070D01*
X55200Y-53070D01*
X55200Y-53062D01*
X55300Y-53062D01*
X55300Y-53070D01*
X56126Y-53070D01*
X56188Y-53007D01*
X56189Y-52550D01*
X56229Y-52550D01*
X57450Y-53770D01*
X57450Y-60729D01*
G54D10*
G36*
X66450Y-50729D02*
X65779Y-51400D01*
X65800Y-51349D01*
X65800Y-49650D01*
X65762Y-49558D01*
X65691Y-49488D01*
X65599Y-49450D01*
X65500Y-49449D01*
X64862Y-49450D01*
X64800Y-49512D01*
X64800Y-50450D01*
X65737Y-50450D01*
X65800Y-50387D01*
X65800Y-49650D01*
X65800Y-51349D01*
X65800Y-50612D01*
X65737Y-50550D01*
X64800Y-50550D01*
X64800Y-51487D01*
X64862Y-51550D01*
X65500Y-51550D01*
X65599Y-51549D01*
X65691Y-51511D01*
X65700Y-51503D01*
X65700Y-52200D01*
X64700Y-52200D01*
X64700Y-51487D01*
X64700Y-50550D01*
X63762Y-50550D01*
X63700Y-50612D01*
X63699Y-51349D01*
X63737Y-51441D01*
X63808Y-51511D01*
X63900Y-51549D01*
X63999Y-51550D01*
X64637Y-51550D01*
X64700Y-51487D01*
X64700Y-52200D01*
X60800Y-52200D01*
X60800Y-51349D01*
X60800Y-49650D01*
X60762Y-49558D01*
X60691Y-49488D01*
X60599Y-49450D01*
X60500Y-49449D01*
X59862Y-49450D01*
X59800Y-49512D01*
X59800Y-50450D01*
X60737Y-50450D01*
X60800Y-50387D01*
X60800Y-49650D01*
X60800Y-51349D01*
X60800Y-50612D01*
X60737Y-50550D01*
X59800Y-50550D01*
X59800Y-51487D01*
X59862Y-51550D01*
X60500Y-51550D01*
X60599Y-51549D01*
X60691Y-51511D01*
X60762Y-51441D01*
X60800Y-51349D01*
X60800Y-52200D01*
X59700Y-52200D01*
X59700Y-51487D01*
X59700Y-50550D01*
X58762Y-50550D01*
X58700Y-50612D01*
X58699Y-51349D01*
X58737Y-51441D01*
X58808Y-51511D01*
X58900Y-51549D01*
X58999Y-51550D01*
X59637Y-51550D01*
X59700Y-51487D01*
X59700Y-52200D01*
X56191Y-52200D01*
X56191Y-51424D01*
X56186Y-51051D01*
X56052Y-50728D01*
X55917Y-50653D01*
X55846Y-50724D01*
X55846Y-50582D01*
X55771Y-50447D01*
X55424Y-50308D01*
X55051Y-50313D01*
X54728Y-50447D01*
X54653Y-50582D01*
X55250Y-51179D01*
X55846Y-50582D01*
X55846Y-50724D01*
X55320Y-51250D01*
X55917Y-51846D01*
X56052Y-51771D01*
X56191Y-51424D01*
X56191Y-52200D01*
X55846Y-52200D01*
X55846Y-51917D01*
X55250Y-51320D01*
X55179Y-51391D01*
X55179Y-51250D01*
X54582Y-50653D01*
X54447Y-50728D01*
X54308Y-51075D01*
X54313Y-51448D01*
X54447Y-51771D01*
X54582Y-51846D01*
X55179Y-51250D01*
X55179Y-51391D01*
X54653Y-51917D01*
X54728Y-52052D01*
X55075Y-52191D01*
X55448Y-52186D01*
X55771Y-52052D01*
X55846Y-51917D01*
X55846Y-52200D01*
X54050Y-52200D01*
X54050Y-48800D01*
X54643Y-48800D01*
X54539Y-48904D01*
X54411Y-49212D01*
X54410Y-49546D01*
X54538Y-49854D01*
X54774Y-50090D01*
X55082Y-50218D01*
X55416Y-50219D01*
X55724Y-50091D01*
X55960Y-49855D01*
X56088Y-49547D01*
X56089Y-49213D01*
X55961Y-48905D01*
X55856Y-48800D01*
X57078Y-48800D01*
X56950Y-49110D01*
X56949Y-49488D01*
X57094Y-49837D01*
X57361Y-50104D01*
X57710Y-50249D01*
X58088Y-50250D01*
X58437Y-50105D01*
X58699Y-49843D01*
X58700Y-50387D01*
X58762Y-50450D01*
X59700Y-50450D01*
X59700Y-49512D01*
X59637Y-49450D01*
X58999Y-49449D01*
X58900Y-49450D01*
X58849Y-49470D01*
X58850Y-49111D01*
X58721Y-48800D01*
X59056Y-48800D01*
X59211Y-48954D01*
X59560Y-49099D01*
X59938Y-49100D01*
X60287Y-48955D01*
X60443Y-48800D01*
X62078Y-48800D01*
X61950Y-49110D01*
X61949Y-49488D01*
X62094Y-49837D01*
X62361Y-50104D01*
X62710Y-50249D01*
X63088Y-50250D01*
X63437Y-50105D01*
X63699Y-49843D01*
X63700Y-50387D01*
X63762Y-50450D01*
X64700Y-50450D01*
X64700Y-49512D01*
X64637Y-49450D01*
X63999Y-49449D01*
X63900Y-49450D01*
X63849Y-49470D01*
X63850Y-49111D01*
X63721Y-48800D01*
X64056Y-48800D01*
X64211Y-48954D01*
X64560Y-49099D01*
X64938Y-49100D01*
X65287Y-48955D01*
X65443Y-48800D01*
X66450Y-48800D01*
X66450Y-50729D01*
X66450Y-50729D01*
G37*
G54D31*
X66450Y-50729D02*
X65779Y-51400D01*
X65800Y-51349D01*
X65800Y-49650D01*
X65762Y-49558D01*
X65691Y-49488D01*
X65599Y-49450D01*
X65500Y-49449D01*
X64862Y-49450D01*
X64800Y-49512D01*
X64800Y-50450D01*
X65737Y-50450D01*
X65800Y-50387D01*
X65800Y-49650D01*
X65800Y-51349D01*
X65800Y-50612D01*
X65737Y-50550D01*
X64800Y-50550D01*
X64800Y-51487D01*
X64862Y-51550D01*
X65500Y-51550D01*
X65599Y-51549D01*
X65691Y-51511D01*
X65700Y-51503D01*
X65700Y-52200D01*
X64700Y-52200D01*
X64700Y-51487D01*
X64700Y-50550D01*
X63762Y-50550D01*
X63700Y-50612D01*
X63699Y-51349D01*
X63737Y-51441D01*
X63808Y-51511D01*
X63900Y-51549D01*
X63999Y-51550D01*
X64637Y-51550D01*
X64700Y-51487D01*
X64700Y-52200D01*
X60800Y-52200D01*
X60800Y-51349D01*
X60800Y-49650D01*
X60762Y-49558D01*
X60691Y-49488D01*
X60599Y-49450D01*
X60500Y-49449D01*
X59862Y-49450D01*
X59800Y-49512D01*
X59800Y-50450D01*
X60737Y-50450D01*
X60800Y-50387D01*
X60800Y-49650D01*
X60800Y-51349D01*
X60800Y-50612D01*
X60737Y-50550D01*
X59800Y-50550D01*
X59800Y-51487D01*
X59862Y-51550D01*
X60500Y-51550D01*
X60599Y-51549D01*
X60691Y-51511D01*
X60762Y-51441D01*
X60800Y-51349D01*
X60800Y-52200D01*
X59700Y-52200D01*
X59700Y-51487D01*
X59700Y-50550D01*
X58762Y-50550D01*
X58700Y-50612D01*
X58699Y-51349D01*
X58737Y-51441D01*
X58808Y-51511D01*
X58900Y-51549D01*
X58999Y-51550D01*
X59637Y-51550D01*
X59700Y-51487D01*
X59700Y-52200D01*
X56191Y-52200D01*
X56191Y-51424D01*
X56186Y-51051D01*
X56052Y-50728D01*
X55917Y-50653D01*
X55846Y-50724D01*
X55846Y-50582D01*
X55771Y-50447D01*
X55424Y-50308D01*
X55051Y-50313D01*
X54728Y-50447D01*
X54653Y-50582D01*
X55250Y-51179D01*
X55846Y-50582D01*
X55846Y-50724D01*
X55320Y-51250D01*
X55917Y-51846D01*
X56052Y-51771D01*
X56191Y-51424D01*
X56191Y-52200D01*
X55846Y-52200D01*
X55846Y-51917D01*
X55250Y-51320D01*
X55179Y-51391D01*
X55179Y-51250D01*
X54582Y-50653D01*
X54447Y-50728D01*
X54308Y-51075D01*
X54313Y-51448D01*
X54447Y-51771D01*
X54582Y-51846D01*
X55179Y-51250D01*
X55179Y-51391D01*
X54653Y-51917D01*
X54728Y-52052D01*
X55075Y-52191D01*
X55448Y-52186D01*
X55771Y-52052D01*
X55846Y-51917D01*
X55846Y-52200D01*
X54050Y-52200D01*
X54050Y-48800D01*
X54643Y-48800D01*
X54539Y-48904D01*
X54411Y-49212D01*
X54410Y-49546D01*
X54538Y-49854D01*
X54774Y-50090D01*
X55082Y-50218D01*
X55416Y-50219D01*
X55724Y-50091D01*
X55960Y-49855D01*
X56088Y-49547D01*
X56089Y-49213D01*
X55961Y-48905D01*
X55856Y-48800D01*
X57078Y-48800D01*
X56950Y-49110D01*
X56949Y-49488D01*
X57094Y-49837D01*
X57361Y-50104D01*
X57710Y-50249D01*
X58088Y-50250D01*
X58437Y-50105D01*
X58699Y-49843D01*
X58700Y-50387D01*
X58762Y-50450D01*
X59700Y-50450D01*
X59700Y-49512D01*
X59637Y-49450D01*
X58999Y-49449D01*
X58900Y-49450D01*
X58849Y-49470D01*
X58850Y-49111D01*
X58721Y-48800D01*
X59056Y-48800D01*
X59211Y-48954D01*
X59560Y-49099D01*
X59938Y-49100D01*
X60287Y-48955D01*
X60443Y-48800D01*
X62078Y-48800D01*
X61950Y-49110D01*
X61949Y-49488D01*
X62094Y-49837D01*
X62361Y-50104D01*
X62710Y-50249D01*
X63088Y-50250D01*
X63437Y-50105D01*
X63699Y-49843D01*
X63700Y-50387D01*
X63762Y-50450D01*
X64700Y-50450D01*
X64700Y-49512D01*
X64637Y-49450D01*
X63999Y-49449D01*
X63900Y-49450D01*
X63849Y-49470D01*
X63850Y-49111D01*
X63721Y-48800D01*
X64056Y-48800D01*
X64211Y-48954D01*
X64560Y-49099D01*
X64938Y-49100D01*
X65287Y-48955D01*
X65443Y-48800D01*
X66450Y-48800D01*
X66450Y-50729D01*
G54D10*
G36*
X82700Y-81450D02*
X82066Y-81450D01*
X82066Y-80737D01*
X82059Y-80403D01*
X81943Y-80124D01*
X81818Y-80061D01*
X81747Y-80131D01*
X81747Y-79990D01*
X81684Y-79865D01*
X81373Y-79743D01*
X81039Y-79749D01*
X80760Y-79865D01*
X80697Y-79990D01*
X81222Y-80515D01*
X81747Y-79990D01*
X81747Y-80131D01*
X81293Y-80586D01*
X81818Y-81111D01*
X81943Y-81049D01*
X82066Y-80737D01*
X82066Y-81450D01*
X81747Y-81450D01*
X81747Y-81182D01*
X81222Y-80657D01*
X81151Y-80728D01*
X81151Y-80586D01*
X80626Y-80061D01*
X80500Y-80124D01*
X80378Y-80435D01*
X80385Y-80769D01*
X80500Y-81049D01*
X80626Y-81111D01*
X81151Y-80586D01*
X81151Y-80728D01*
X80697Y-81182D01*
X80760Y-81308D01*
X81071Y-81430D01*
X81405Y-81423D01*
X81684Y-81308D01*
X81747Y-81182D01*
X81747Y-81450D01*
X81229Y-81450D01*
X80950Y-81729D01*
X80950Y-84200D01*
X79056Y-84200D01*
X79056Y-81873D01*
X78755Y-81115D01*
X78719Y-81062D01*
X78468Y-80852D01*
X78397Y-80922D01*
X78397Y-80781D01*
X78187Y-80530D01*
X77439Y-80206D01*
X76623Y-80193D01*
X75865Y-80494D01*
X75812Y-80530D01*
X75602Y-80781D01*
X77000Y-82179D01*
X78397Y-80781D01*
X78397Y-80922D01*
X77070Y-82250D01*
X78468Y-83647D01*
X78719Y-83437D01*
X79043Y-82689D01*
X79056Y-81873D01*
X79056Y-84200D01*
X77643Y-84200D01*
X78134Y-84005D01*
X78187Y-83969D01*
X78397Y-83718D01*
X77000Y-82320D01*
X76929Y-82391D01*
X76929Y-82250D01*
X75531Y-80852D01*
X75280Y-81062D01*
X74956Y-81810D01*
X74943Y-82626D01*
X75244Y-83384D01*
X75280Y-83437D01*
X75531Y-83647D01*
X76929Y-82250D01*
X76929Y-82391D01*
X75602Y-83718D01*
X75812Y-83969D01*
X76344Y-84200D01*
X73550Y-84200D01*
X73550Y-82519D01*
X77021Y-78800D01*
X82700Y-78800D01*
X82700Y-81450D01*
X82700Y-81450D01*
G37*
G54D31*
X82700Y-81450D02*
X82066Y-81450D01*
X82066Y-80737D01*
X82059Y-80403D01*
X81943Y-80124D01*
X81818Y-80061D01*
X81747Y-80131D01*
X81747Y-79990D01*
X81684Y-79865D01*
X81373Y-79743D01*
X81039Y-79749D01*
X80760Y-79865D01*
X80697Y-79990D01*
X81222Y-80515D01*
X81747Y-79990D01*
X81747Y-80131D01*
X81293Y-80586D01*
X81818Y-81111D01*
X81943Y-81049D01*
X82066Y-80737D01*
X82066Y-81450D01*
X81747Y-81450D01*
X81747Y-81182D01*
X81222Y-80657D01*
X81151Y-80728D01*
X81151Y-80586D01*
X80626Y-80061D01*
X80500Y-80124D01*
X80378Y-80435D01*
X80385Y-80769D01*
X80500Y-81049D01*
X80626Y-81111D01*
X81151Y-80586D01*
X81151Y-80728D01*
X80697Y-81182D01*
X80760Y-81308D01*
X81071Y-81430D01*
X81405Y-81423D01*
X81684Y-81308D01*
X81747Y-81182D01*
X81747Y-81450D01*
X81229Y-81450D01*
X80950Y-81729D01*
X80950Y-84200D01*
X79056Y-84200D01*
X79056Y-81873D01*
X78755Y-81115D01*
X78719Y-81062D01*
X78468Y-80852D01*
X78397Y-80922D01*
X78397Y-80781D01*
X78187Y-80530D01*
X77439Y-80206D01*
X76623Y-80193D01*
X75865Y-80494D01*
X75812Y-80530D01*
X75602Y-80781D01*
X77000Y-82179D01*
X78397Y-80781D01*
X78397Y-80922D01*
X77070Y-82250D01*
X78468Y-83647D01*
X78719Y-83437D01*
X79043Y-82689D01*
X79056Y-81873D01*
X79056Y-84200D01*
X77643Y-84200D01*
X78134Y-84005D01*
X78187Y-83969D01*
X78397Y-83718D01*
X77000Y-82320D01*
X76929Y-82391D01*
X76929Y-82250D01*
X75531Y-80852D01*
X75280Y-81062D01*
X74956Y-81810D01*
X74943Y-82626D01*
X75244Y-83384D01*
X75280Y-83437D01*
X75531Y-83647D01*
X76929Y-82250D01*
X76929Y-82391D01*
X75602Y-83718D01*
X75812Y-83969D01*
X76344Y-84200D01*
X73550Y-84200D01*
X73550Y-82519D01*
X77021Y-78800D01*
X82700Y-78800D01*
X82700Y-81450D01*
G54D10*
G36*
X79200Y-78450D02*
X77939Y-78450D01*
X77939Y-75509D01*
X77938Y-74982D01*
X77876Y-74920D01*
X77050Y-74920D01*
X77050Y-75746D01*
X77112Y-75809D01*
X77738Y-75809D01*
X77830Y-75771D01*
X77900Y-75700D01*
X77938Y-75609D01*
X77939Y-75509D01*
X77939Y-78450D01*
X76950Y-78450D01*
X76950Y-75746D01*
X76950Y-74920D01*
X76123Y-74920D01*
X76061Y-74982D01*
X76060Y-75509D01*
X76061Y-75609D01*
X76099Y-75700D01*
X76169Y-75771D01*
X76261Y-75809D01*
X76887Y-75809D01*
X76950Y-75746D01*
X76950Y-78450D01*
X76728Y-78450D01*
X73200Y-82230D01*
X73200Y-84200D01*
X71556Y-84200D01*
X71556Y-81873D01*
X71255Y-81115D01*
X71219Y-81062D01*
X70968Y-80852D01*
X70897Y-80922D01*
X70897Y-80781D01*
X70687Y-80530D01*
X69939Y-80206D01*
X69123Y-80193D01*
X68365Y-80494D01*
X68312Y-80530D01*
X68102Y-80781D01*
X69500Y-82179D01*
X70897Y-80781D01*
X70897Y-80922D01*
X69570Y-82250D01*
X70968Y-83647D01*
X71219Y-83437D01*
X71543Y-82689D01*
X71556Y-81873D01*
X71556Y-84200D01*
X70143Y-84200D01*
X70634Y-84005D01*
X70687Y-83969D01*
X70897Y-83718D01*
X69500Y-82320D01*
X69429Y-82391D01*
X69429Y-82250D01*
X68031Y-80852D01*
X67780Y-81062D01*
X67456Y-81810D01*
X67443Y-82626D01*
X67744Y-83384D01*
X67780Y-83437D01*
X68031Y-83647D01*
X69429Y-82250D01*
X69429Y-82391D01*
X68102Y-83718D01*
X68312Y-83969D01*
X68844Y-84200D01*
X65550Y-84200D01*
X65550Y-80527D01*
X68264Y-78800D01*
X73020Y-78800D01*
X73550Y-78270D01*
X73550Y-74300D01*
X76060Y-74300D01*
X76061Y-74757D01*
X76123Y-74820D01*
X76950Y-74820D01*
X76950Y-74812D01*
X77050Y-74812D01*
X77050Y-74820D01*
X77876Y-74820D01*
X77938Y-74757D01*
X77939Y-74300D01*
X79200Y-74300D01*
X79200Y-78450D01*
X79200Y-78450D01*
G37*
G54D31*
X79200Y-78450D02*
X77939Y-78450D01*
X77939Y-75509D01*
X77938Y-74982D01*
X77876Y-74920D01*
X77050Y-74920D01*
X77050Y-75746D01*
X77112Y-75809D01*
X77738Y-75809D01*
X77830Y-75771D01*
X77900Y-75700D01*
X77938Y-75609D01*
X77939Y-75509D01*
X77939Y-78450D01*
X76950Y-78450D01*
X76950Y-75746D01*
X76950Y-74920D01*
X76123Y-74920D01*
X76061Y-74982D01*
X76060Y-75509D01*
X76061Y-75609D01*
X76099Y-75700D01*
X76169Y-75771D01*
X76261Y-75809D01*
X76887Y-75809D01*
X76950Y-75746D01*
X76950Y-78450D01*
X76728Y-78450D01*
X73200Y-82230D01*
X73200Y-84200D01*
X71556Y-84200D01*
X71556Y-81873D01*
X71255Y-81115D01*
X71219Y-81062D01*
X70968Y-80852D01*
X70897Y-80922D01*
X70897Y-80781D01*
X70687Y-80530D01*
X69939Y-80206D01*
X69123Y-80193D01*
X68365Y-80494D01*
X68312Y-80530D01*
X68102Y-80781D01*
X69500Y-82179D01*
X70897Y-80781D01*
X70897Y-80922D01*
X69570Y-82250D01*
X70968Y-83647D01*
X71219Y-83437D01*
X71543Y-82689D01*
X71556Y-81873D01*
X71556Y-84200D01*
X70143Y-84200D01*
X70634Y-84005D01*
X70687Y-83969D01*
X70897Y-83718D01*
X69500Y-82320D01*
X69429Y-82391D01*
X69429Y-82250D01*
X68031Y-80852D01*
X67780Y-81062D01*
X67456Y-81810D01*
X67443Y-82626D01*
X67744Y-83384D01*
X67780Y-83437D01*
X68031Y-83647D01*
X69429Y-82250D01*
X69429Y-82391D01*
X68102Y-83718D01*
X68312Y-83969D01*
X68844Y-84200D01*
X65550Y-84200D01*
X65550Y-80527D01*
X68264Y-78800D01*
X73020Y-78800D01*
X73550Y-78270D01*
X73550Y-74300D01*
X76060Y-74300D01*
X76061Y-74757D01*
X76123Y-74820D01*
X76950Y-74820D01*
X76950Y-74812D01*
X77050Y-74812D01*
X77050Y-74820D01*
X77876Y-74820D01*
X77938Y-74757D01*
X77939Y-74300D01*
X79200Y-74300D01*
X79200Y-78450D01*
G54D10*
G36*
X78700Y-73950D02*
X77941Y-73950D01*
X77941Y-73174D01*
X77936Y-72801D01*
X77839Y-72566D01*
X77839Y-70963D01*
X77711Y-70655D01*
X77475Y-70419D01*
X77167Y-70291D01*
X76833Y-70290D01*
X76525Y-70418D01*
X76289Y-70654D01*
X76161Y-70962D01*
X76160Y-71296D01*
X76288Y-71604D01*
X76524Y-71840D01*
X76832Y-71968D01*
X77166Y-71969D01*
X77474Y-71841D01*
X77710Y-71605D01*
X77838Y-71297D01*
X77839Y-70963D01*
X77839Y-72566D01*
X77802Y-72478D01*
X77667Y-72403D01*
X77596Y-72474D01*
X77596Y-72332D01*
X77521Y-72197D01*
X77174Y-72058D01*
X76801Y-72063D01*
X76478Y-72197D01*
X76403Y-72332D01*
X77000Y-72929D01*
X77596Y-72332D01*
X77596Y-72474D01*
X77070Y-73000D01*
X77667Y-73596D01*
X77802Y-73521D01*
X77941Y-73174D01*
X77941Y-73950D01*
X77596Y-73950D01*
X77596Y-73667D01*
X77000Y-73070D01*
X76929Y-73141D01*
X76929Y-73000D01*
X76332Y-72403D01*
X76197Y-72478D01*
X76058Y-72825D01*
X76063Y-73198D01*
X76197Y-73521D01*
X76332Y-73596D01*
X76929Y-73000D01*
X76929Y-73141D01*
X76403Y-73667D01*
X76478Y-73802D01*
X76825Y-73941D01*
X77198Y-73936D01*
X77521Y-73802D01*
X77596Y-73667D01*
X77596Y-73950D01*
X74590Y-73950D01*
X74590Y-68995D01*
X74590Y-68504D01*
X74589Y-68405D01*
X74551Y-68313D01*
X74481Y-68242D01*
X74389Y-68204D01*
X74010Y-68205D01*
X73947Y-68267D01*
X73947Y-68700D01*
X74527Y-68700D01*
X74590Y-68637D01*
X74590Y-68504D01*
X74590Y-68995D01*
X74590Y-68862D01*
X74527Y-68800D01*
X73947Y-68800D01*
X73947Y-69232D01*
X74010Y-69295D01*
X74389Y-69295D01*
X74481Y-69257D01*
X74551Y-69186D01*
X74589Y-69094D01*
X74590Y-68995D01*
X74590Y-73950D01*
X73550Y-73950D01*
X73550Y-72240D01*
X73595Y-72230D01*
X73676Y-72176D01*
X73926Y-71926D01*
X73926Y-71926D01*
X73926Y-71926D01*
X73980Y-71845D01*
X73980Y-71845D01*
X74000Y-71750D01*
X74000Y-71445D01*
X74369Y-71445D01*
X74424Y-71422D01*
X74467Y-71380D01*
X74489Y-71324D01*
X74490Y-71265D01*
X74490Y-70675D01*
X74467Y-70620D01*
X74425Y-70577D01*
X74369Y-70555D01*
X74310Y-70554D01*
X73550Y-70554D01*
X73550Y-69295D01*
X73785Y-69295D01*
X73847Y-69232D01*
X73847Y-68800D01*
X73839Y-68800D01*
X73839Y-68700D01*
X73847Y-68700D01*
X73847Y-68267D01*
X73785Y-68205D01*
X73550Y-68204D01*
X73550Y-60050D01*
X74550Y-60050D01*
X74550Y-57050D01*
X78700Y-57050D01*
X78700Y-73950D01*
X78700Y-73950D01*
G37*
G54D31*
X78700Y-73950D02*
X77941Y-73950D01*
X77941Y-73174D01*
X77936Y-72801D01*
X77839Y-72566D01*
X77839Y-70963D01*
X77711Y-70655D01*
X77475Y-70419D01*
X77167Y-70291D01*
X76833Y-70290D01*
X76525Y-70418D01*
X76289Y-70654D01*
X76161Y-70962D01*
X76160Y-71296D01*
X76288Y-71604D01*
X76524Y-71840D01*
X76832Y-71968D01*
X77166Y-71969D01*
X77474Y-71841D01*
X77710Y-71605D01*
X77838Y-71297D01*
X77839Y-70963D01*
X77839Y-72566D01*
X77802Y-72478D01*
X77667Y-72403D01*
X77596Y-72474D01*
X77596Y-72332D01*
X77521Y-72197D01*
X77174Y-72058D01*
X76801Y-72063D01*
X76478Y-72197D01*
X76403Y-72332D01*
X77000Y-72929D01*
X77596Y-72332D01*
X77596Y-72474D01*
X77070Y-73000D01*
X77667Y-73596D01*
X77802Y-73521D01*
X77941Y-73174D01*
X77941Y-73950D01*
X77596Y-73950D01*
X77596Y-73667D01*
X77000Y-73070D01*
X76929Y-73141D01*
X76929Y-73000D01*
X76332Y-72403D01*
X76197Y-72478D01*
X76058Y-72825D01*
X76063Y-73198D01*
X76197Y-73521D01*
X76332Y-73596D01*
X76929Y-73000D01*
X76929Y-73141D01*
X76403Y-73667D01*
X76478Y-73802D01*
X76825Y-73941D01*
X77198Y-73936D01*
X77521Y-73802D01*
X77596Y-73667D01*
X77596Y-73950D01*
X74590Y-73950D01*
X74590Y-68995D01*
X74590Y-68504D01*
X74589Y-68405D01*
X74551Y-68313D01*
X74481Y-68242D01*
X74389Y-68204D01*
X74010Y-68205D01*
X73947Y-68267D01*
X73947Y-68700D01*
X74527Y-68700D01*
X74590Y-68637D01*
X74590Y-68504D01*
X74590Y-68995D01*
X74590Y-68862D01*
X74527Y-68800D01*
X73947Y-68800D01*
X73947Y-69232D01*
X74010Y-69295D01*
X74389Y-69295D01*
X74481Y-69257D01*
X74551Y-69186D01*
X74589Y-69094D01*
X74590Y-68995D01*
X74590Y-73950D01*
X73550Y-73950D01*
X73550Y-72240D01*
X73595Y-72230D01*
X73676Y-72176D01*
X73926Y-71926D01*
X73926Y-71926D01*
X73926Y-71926D01*
X73980Y-71845D01*
X73980Y-71845D01*
X74000Y-71750D01*
X74000Y-71445D01*
X74369Y-71445D01*
X74424Y-71422D01*
X74467Y-71380D01*
X74489Y-71324D01*
X74490Y-71265D01*
X74490Y-70675D01*
X74467Y-70620D01*
X74425Y-70577D01*
X74369Y-70555D01*
X74310Y-70554D01*
X73550Y-70554D01*
X73550Y-69295D01*
X73785Y-69295D01*
X73847Y-69232D01*
X73847Y-68800D01*
X73839Y-68800D01*
X73839Y-68700D01*
X73847Y-68700D01*
X73847Y-68267D01*
X73785Y-68205D01*
X73550Y-68204D01*
X73550Y-60050D01*
X74550Y-60050D01*
X74550Y-57050D01*
X78700Y-57050D01*
X78700Y-73950D01*
M02*
