G04 (created by PCBNEW (2013-07-07 BZR 4022)-stable) date 3/27/2014 11:31:02 PM*
%MOIN*%
G04 Gerber Fmt 3.4, Leading zero omitted, Abs format*
%FSLAX34Y34*%
G01*
G70*
G90*
G04 APERTURE LIST*
%ADD10C,0.00590551*%
%ADD11C,0.008*%
%ADD12C,0.012*%
%ADD13C,0.006*%
%ADD14C,0.0001*%
G04 APERTURE END LIST*
G54D10*
G54D11*
X66900Y-63814D02*
X66919Y-63795D01*
X66957Y-63738D01*
X66976Y-63700D01*
X66995Y-63642D01*
X67014Y-63547D01*
X67014Y-63471D01*
X66995Y-63376D01*
X66976Y-63319D01*
X66957Y-63280D01*
X66919Y-63223D01*
X66900Y-63204D01*
X66785Y-63395D02*
X66690Y-63661D01*
X66595Y-63395D01*
X66233Y-63661D02*
X66461Y-63661D01*
X66347Y-63661D02*
X66347Y-63261D01*
X66385Y-63319D01*
X66423Y-63357D01*
X66461Y-63376D01*
X66100Y-63814D02*
X66080Y-63795D01*
X66042Y-63738D01*
X66023Y-63700D01*
X66004Y-63642D01*
X65985Y-63547D01*
X65985Y-63471D01*
X66004Y-63376D01*
X66023Y-63319D01*
X66042Y-63280D01*
X66080Y-63223D01*
X66100Y-63204D01*
X76345Y-64395D02*
X76345Y-64719D01*
X76364Y-64757D01*
X76383Y-64776D01*
X76421Y-64795D01*
X76478Y-64795D01*
X76516Y-64776D01*
X76345Y-64642D02*
X76383Y-64661D01*
X76459Y-64661D01*
X76497Y-64642D01*
X76516Y-64623D01*
X76535Y-64585D01*
X76535Y-64471D01*
X76516Y-64433D01*
X76497Y-64414D01*
X76459Y-64395D01*
X76383Y-64395D01*
X76345Y-64414D01*
X76154Y-64661D02*
X76154Y-64395D01*
X76154Y-64261D02*
X76173Y-64280D01*
X76154Y-64300D01*
X76135Y-64280D01*
X76154Y-64261D01*
X76154Y-64300D01*
X76021Y-64395D02*
X75869Y-64395D01*
X75964Y-64261D02*
X75964Y-64604D01*
X75945Y-64642D01*
X75907Y-64661D01*
X75869Y-64661D01*
X75735Y-64661D02*
X75735Y-64261D01*
X75564Y-64661D02*
X75564Y-64452D01*
X75583Y-64414D01*
X75621Y-64395D01*
X75678Y-64395D01*
X75716Y-64414D01*
X75735Y-64433D01*
X75202Y-64395D02*
X75202Y-64661D01*
X75373Y-64395D02*
X75373Y-64604D01*
X75354Y-64642D01*
X75316Y-64661D01*
X75259Y-64661D01*
X75221Y-64642D01*
X75202Y-64623D01*
X75011Y-64661D02*
X75011Y-64261D01*
X75011Y-64414D02*
X74973Y-64395D01*
X74897Y-64395D01*
X74859Y-64414D01*
X74840Y-64433D01*
X74821Y-64471D01*
X74821Y-64585D01*
X74840Y-64623D01*
X74859Y-64642D01*
X74897Y-64661D01*
X74973Y-64661D01*
X75011Y-64642D01*
X74649Y-64623D02*
X74630Y-64642D01*
X74649Y-64661D01*
X74669Y-64642D01*
X74649Y-64623D01*
X74649Y-64661D01*
X74288Y-64642D02*
X74326Y-64661D01*
X74402Y-64661D01*
X74440Y-64642D01*
X74459Y-64623D01*
X74478Y-64585D01*
X74478Y-64471D01*
X74459Y-64433D01*
X74440Y-64414D01*
X74402Y-64395D01*
X74326Y-64395D01*
X74288Y-64414D01*
X74059Y-64661D02*
X74097Y-64642D01*
X74116Y-64623D01*
X74135Y-64585D01*
X74135Y-64471D01*
X74116Y-64433D01*
X74097Y-64414D01*
X74059Y-64395D01*
X74002Y-64395D01*
X73964Y-64414D01*
X73945Y-64433D01*
X73926Y-64471D01*
X73926Y-64585D01*
X73945Y-64623D01*
X73964Y-64642D01*
X74002Y-64661D01*
X74059Y-64661D01*
X73754Y-64661D02*
X73754Y-64395D01*
X73754Y-64433D02*
X73735Y-64414D01*
X73697Y-64395D01*
X73640Y-64395D01*
X73602Y-64414D01*
X73583Y-64452D01*
X73583Y-64661D01*
X73583Y-64452D02*
X73564Y-64414D01*
X73526Y-64395D01*
X73469Y-64395D01*
X73430Y-64414D01*
X73411Y-64452D01*
X73411Y-64661D01*
X72935Y-64242D02*
X73278Y-64757D01*
X72802Y-64395D02*
X72802Y-64795D01*
X72802Y-64414D02*
X72764Y-64395D01*
X72688Y-64395D01*
X72649Y-64414D01*
X72630Y-64433D01*
X72611Y-64471D01*
X72611Y-64585D01*
X72630Y-64623D01*
X72649Y-64642D01*
X72688Y-64661D01*
X72764Y-64661D01*
X72802Y-64642D01*
X72288Y-64642D02*
X72326Y-64661D01*
X72402Y-64661D01*
X72440Y-64642D01*
X72459Y-64604D01*
X72459Y-64452D01*
X72440Y-64414D01*
X72402Y-64395D01*
X72326Y-64395D01*
X72288Y-64414D01*
X72269Y-64452D01*
X72269Y-64490D01*
X72459Y-64528D01*
X72097Y-64395D02*
X72097Y-64795D01*
X72097Y-64414D02*
X72059Y-64395D01*
X71983Y-64395D01*
X71945Y-64414D01*
X71926Y-64433D01*
X71907Y-64471D01*
X71907Y-64585D01*
X71926Y-64623D01*
X71945Y-64642D01*
X71983Y-64661D01*
X72059Y-64661D01*
X72097Y-64642D01*
X71564Y-64661D02*
X71564Y-64452D01*
X71583Y-64414D01*
X71621Y-64395D01*
X71697Y-64395D01*
X71735Y-64414D01*
X71564Y-64642D02*
X71602Y-64661D01*
X71697Y-64661D01*
X71735Y-64642D01*
X71754Y-64604D01*
X71754Y-64566D01*
X71735Y-64528D01*
X71697Y-64509D01*
X71602Y-64509D01*
X71564Y-64490D01*
X71392Y-64642D02*
X71354Y-64661D01*
X71278Y-64661D01*
X71240Y-64642D01*
X71221Y-64604D01*
X71221Y-64585D01*
X71240Y-64547D01*
X71278Y-64528D01*
X71335Y-64528D01*
X71373Y-64509D01*
X71392Y-64471D01*
X71392Y-64452D01*
X71373Y-64414D01*
X71335Y-64395D01*
X71278Y-64395D01*
X71240Y-64414D01*
X70992Y-64661D02*
X71030Y-64642D01*
X71049Y-64604D01*
X71049Y-64261D01*
X70669Y-64661D02*
X70669Y-64452D01*
X70688Y-64414D01*
X70726Y-64395D01*
X70802Y-64395D01*
X70840Y-64414D01*
X70669Y-64642D02*
X70707Y-64661D01*
X70802Y-64661D01*
X70840Y-64642D01*
X70859Y-64604D01*
X70859Y-64566D01*
X70840Y-64528D01*
X70802Y-64509D01*
X70707Y-64509D01*
X70669Y-64490D01*
X70478Y-64661D02*
X70478Y-64261D01*
X70478Y-64414D02*
X70440Y-64395D01*
X70364Y-64395D01*
X70326Y-64414D01*
X70307Y-64433D01*
X70288Y-64471D01*
X70288Y-64585D01*
X70307Y-64623D01*
X70326Y-64642D01*
X70364Y-64661D01*
X70440Y-64661D01*
X70478Y-64642D01*
X70135Y-64642D02*
X70097Y-64661D01*
X70021Y-64661D01*
X69983Y-64642D01*
X69964Y-64604D01*
X69964Y-64585D01*
X69983Y-64547D01*
X70021Y-64528D01*
X70078Y-64528D01*
X70116Y-64509D01*
X70135Y-64471D01*
X70135Y-64452D01*
X70116Y-64414D01*
X70078Y-64395D01*
X70021Y-64395D01*
X69983Y-64414D01*
G54D12*
X79078Y-63742D02*
X79078Y-63142D01*
X78935Y-63142D01*
X78850Y-63171D01*
X78792Y-63228D01*
X78764Y-63285D01*
X78735Y-63400D01*
X78735Y-63485D01*
X78764Y-63600D01*
X78792Y-63657D01*
X78850Y-63714D01*
X78935Y-63742D01*
X79078Y-63742D01*
X78221Y-63342D02*
X78221Y-63742D01*
X78478Y-63342D02*
X78478Y-63657D01*
X78450Y-63714D01*
X78392Y-63742D01*
X78307Y-63742D01*
X78250Y-63714D01*
X78221Y-63685D01*
X77678Y-63742D02*
X77678Y-63428D01*
X77707Y-63371D01*
X77764Y-63342D01*
X77878Y-63342D01*
X77935Y-63371D01*
X77678Y-63714D02*
X77735Y-63742D01*
X77878Y-63742D01*
X77935Y-63714D01*
X77964Y-63657D01*
X77964Y-63600D01*
X77935Y-63542D01*
X77878Y-63514D01*
X77735Y-63514D01*
X77678Y-63485D01*
X77307Y-63742D02*
X77364Y-63714D01*
X77392Y-63657D01*
X77392Y-63142D01*
X76335Y-63742D02*
X76621Y-63742D01*
X76621Y-63142D01*
X76135Y-63742D02*
X76135Y-63142D01*
X75935Y-63571D01*
X75735Y-63142D01*
X75735Y-63742D01*
X75507Y-63142D02*
X75135Y-63142D01*
X75335Y-63371D01*
X75250Y-63371D01*
X75192Y-63400D01*
X75164Y-63428D01*
X75135Y-63485D01*
X75135Y-63628D01*
X75164Y-63685D01*
X75192Y-63714D01*
X75250Y-63742D01*
X75421Y-63742D01*
X75478Y-63714D01*
X75507Y-63685D01*
X74564Y-63742D02*
X74907Y-63742D01*
X74735Y-63742D02*
X74735Y-63142D01*
X74792Y-63228D01*
X74850Y-63285D01*
X74907Y-63314D01*
X74364Y-63142D02*
X73964Y-63142D01*
X74221Y-63742D01*
X73078Y-63428D02*
X72992Y-63457D01*
X72964Y-63485D01*
X72935Y-63542D01*
X72935Y-63628D01*
X72964Y-63685D01*
X72992Y-63714D01*
X73049Y-63742D01*
X73278Y-63742D01*
X73278Y-63142D01*
X73078Y-63142D01*
X73021Y-63171D01*
X72992Y-63200D01*
X72964Y-63257D01*
X72964Y-63314D01*
X72992Y-63371D01*
X73021Y-63400D01*
X73078Y-63428D01*
X73278Y-63428D01*
X72449Y-63714D02*
X72507Y-63742D01*
X72621Y-63742D01*
X72678Y-63714D01*
X72707Y-63657D01*
X72707Y-63428D01*
X72678Y-63371D01*
X72621Y-63342D01*
X72507Y-63342D01*
X72449Y-63371D01*
X72421Y-63428D01*
X72421Y-63485D01*
X72707Y-63542D01*
X72164Y-63342D02*
X72164Y-63742D01*
X72164Y-63400D02*
X72135Y-63371D01*
X72078Y-63342D01*
X71992Y-63342D01*
X71935Y-63371D01*
X71907Y-63428D01*
X71907Y-63742D01*
X71364Y-63714D02*
X71421Y-63742D01*
X71535Y-63742D01*
X71592Y-63714D01*
X71621Y-63685D01*
X71649Y-63628D01*
X71649Y-63457D01*
X71621Y-63400D01*
X71592Y-63371D01*
X71535Y-63342D01*
X71421Y-63342D01*
X71364Y-63371D01*
X71107Y-63742D02*
X71107Y-63142D01*
X70849Y-63742D02*
X70849Y-63428D01*
X70878Y-63371D01*
X70935Y-63342D01*
X71021Y-63342D01*
X71078Y-63371D01*
X71107Y-63400D01*
X70135Y-63714D02*
X70049Y-63742D01*
X69907Y-63742D01*
X69849Y-63714D01*
X69821Y-63685D01*
X69792Y-63628D01*
X69792Y-63571D01*
X69821Y-63514D01*
X69849Y-63485D01*
X69907Y-63457D01*
X70021Y-63428D01*
X70078Y-63400D01*
X70107Y-63371D01*
X70135Y-63314D01*
X70135Y-63257D01*
X70107Y-63200D01*
X70078Y-63171D01*
X70021Y-63142D01*
X69878Y-63142D01*
X69792Y-63171D01*
X69278Y-63342D02*
X69278Y-63742D01*
X69535Y-63342D02*
X69535Y-63657D01*
X69507Y-63714D01*
X69449Y-63742D01*
X69364Y-63742D01*
X69307Y-63714D01*
X69278Y-63685D01*
X68992Y-63342D02*
X68992Y-63942D01*
X68992Y-63371D02*
X68935Y-63342D01*
X68821Y-63342D01*
X68764Y-63371D01*
X68735Y-63400D01*
X68707Y-63457D01*
X68707Y-63628D01*
X68735Y-63685D01*
X68764Y-63714D01*
X68821Y-63742D01*
X68935Y-63742D01*
X68992Y-63714D01*
X68449Y-63342D02*
X68449Y-63942D01*
X68449Y-63371D02*
X68392Y-63342D01*
X68278Y-63342D01*
X68221Y-63371D01*
X68192Y-63400D01*
X68164Y-63457D01*
X68164Y-63628D01*
X68192Y-63685D01*
X68221Y-63714D01*
X68278Y-63742D01*
X68392Y-63742D01*
X68449Y-63714D01*
X67821Y-63742D02*
X67878Y-63714D01*
X67907Y-63657D01*
X67907Y-63142D01*
X67649Y-63342D02*
X67507Y-63742D01*
X67364Y-63342D02*
X67507Y-63742D01*
X67564Y-63885D01*
X67592Y-63914D01*
X67649Y-63942D01*
G54D13*
X66292Y-46235D02*
X66307Y-46221D01*
X66335Y-46178D01*
X66350Y-46150D01*
X66364Y-46107D01*
X66378Y-46035D01*
X66378Y-45978D01*
X66364Y-45907D01*
X66350Y-45864D01*
X66335Y-45835D01*
X66307Y-45792D01*
X66292Y-45778D01*
X66135Y-46121D02*
X66164Y-46107D01*
X66178Y-46092D01*
X66192Y-46064D01*
X66192Y-45978D01*
X66178Y-45950D01*
X66164Y-45935D01*
X66135Y-45921D01*
X66092Y-45921D01*
X66064Y-45935D01*
X66050Y-45950D01*
X66035Y-45978D01*
X66035Y-46064D01*
X66050Y-46092D01*
X66064Y-46107D01*
X66092Y-46121D01*
X66135Y-46121D01*
X65907Y-45921D02*
X65907Y-46121D01*
X65907Y-45950D02*
X65892Y-45935D01*
X65864Y-45921D01*
X65821Y-45921D01*
X65792Y-45935D01*
X65778Y-45964D01*
X65778Y-46121D01*
X65592Y-46121D02*
X65621Y-46107D01*
X65635Y-46078D01*
X65635Y-45821D01*
X65507Y-45921D02*
X65435Y-46121D01*
X65364Y-45921D02*
X65435Y-46121D01*
X65464Y-46192D01*
X65478Y-46207D01*
X65507Y-46221D01*
X64892Y-45921D02*
X64892Y-46121D01*
X65021Y-45921D02*
X65021Y-46078D01*
X65007Y-46107D01*
X64978Y-46121D01*
X64935Y-46121D01*
X64907Y-46107D01*
X64892Y-46092D01*
X64764Y-46107D02*
X64735Y-46121D01*
X64678Y-46121D01*
X64650Y-46107D01*
X64635Y-46078D01*
X64635Y-46064D01*
X64650Y-46035D01*
X64678Y-46021D01*
X64721Y-46021D01*
X64750Y-46007D01*
X64764Y-45978D01*
X64764Y-45964D01*
X64750Y-45935D01*
X64721Y-45921D01*
X64678Y-45921D01*
X64650Y-45935D01*
X64392Y-46107D02*
X64421Y-46121D01*
X64478Y-46121D01*
X64507Y-46107D01*
X64521Y-46078D01*
X64521Y-45964D01*
X64507Y-45935D01*
X64478Y-45921D01*
X64421Y-45921D01*
X64392Y-45935D01*
X64378Y-45964D01*
X64378Y-45992D01*
X64521Y-46021D01*
X63978Y-46121D02*
X64007Y-46107D01*
X64021Y-46092D01*
X64035Y-46064D01*
X64035Y-45978D01*
X64021Y-45950D01*
X64007Y-45935D01*
X63978Y-45921D01*
X63935Y-45921D01*
X63907Y-45935D01*
X63892Y-45950D01*
X63878Y-45978D01*
X63878Y-46064D01*
X63892Y-46092D01*
X63907Y-46107D01*
X63935Y-46121D01*
X63978Y-46121D01*
X63750Y-45921D02*
X63750Y-46121D01*
X63750Y-45950D02*
X63735Y-45935D01*
X63707Y-45921D01*
X63664Y-45921D01*
X63635Y-45935D01*
X63621Y-45964D01*
X63621Y-46121D01*
X63364Y-46107D02*
X63392Y-46121D01*
X63450Y-46121D01*
X63478Y-46107D01*
X63492Y-46078D01*
X63492Y-45964D01*
X63478Y-45935D01*
X63450Y-45921D01*
X63392Y-45921D01*
X63364Y-45935D01*
X63350Y-45964D01*
X63350Y-45992D01*
X63492Y-46021D01*
X62992Y-45921D02*
X62992Y-46221D01*
X62992Y-45935D02*
X62964Y-45921D01*
X62907Y-45921D01*
X62878Y-45935D01*
X62864Y-45950D01*
X62850Y-45978D01*
X62850Y-46064D01*
X62864Y-46092D01*
X62878Y-46107D01*
X62907Y-46121D01*
X62964Y-46121D01*
X62992Y-46107D01*
X62678Y-46121D02*
X62707Y-46107D01*
X62721Y-46092D01*
X62735Y-46064D01*
X62735Y-45978D01*
X62721Y-45950D01*
X62707Y-45935D01*
X62678Y-45921D01*
X62635Y-45921D01*
X62607Y-45935D01*
X62592Y-45950D01*
X62578Y-45978D01*
X62578Y-46064D01*
X62592Y-46092D01*
X62607Y-46107D01*
X62635Y-46121D01*
X62678Y-46121D01*
X62478Y-45921D02*
X62421Y-46121D01*
X62364Y-45978D01*
X62307Y-46121D01*
X62249Y-45921D01*
X62021Y-46107D02*
X62049Y-46121D01*
X62107Y-46121D01*
X62135Y-46107D01*
X62149Y-46078D01*
X62149Y-45964D01*
X62135Y-45935D01*
X62107Y-45921D01*
X62049Y-45921D01*
X62021Y-45935D01*
X62007Y-45964D01*
X62007Y-45992D01*
X62149Y-46021D01*
X61878Y-46121D02*
X61878Y-45921D01*
X61878Y-45978D02*
X61864Y-45950D01*
X61849Y-45935D01*
X61821Y-45921D01*
X61792Y-45921D01*
X61464Y-45921D02*
X61464Y-46178D01*
X61478Y-46207D01*
X61507Y-46221D01*
X61521Y-46221D01*
X61464Y-45821D02*
X61478Y-45835D01*
X61464Y-45850D01*
X61450Y-45835D01*
X61464Y-45821D01*
X61464Y-45850D01*
X61192Y-46121D02*
X61192Y-45964D01*
X61207Y-45935D01*
X61235Y-45921D01*
X61292Y-45921D01*
X61321Y-45935D01*
X61192Y-46107D02*
X61221Y-46121D01*
X61292Y-46121D01*
X61321Y-46107D01*
X61335Y-46078D01*
X61335Y-46050D01*
X61321Y-46021D01*
X61292Y-46007D01*
X61221Y-46007D01*
X61192Y-45992D01*
X60921Y-46107D02*
X60949Y-46121D01*
X61007Y-46121D01*
X61035Y-46107D01*
X61049Y-46092D01*
X61064Y-46064D01*
X61064Y-45978D01*
X61049Y-45950D01*
X61035Y-45935D01*
X61007Y-45921D01*
X60949Y-45921D01*
X60921Y-45935D01*
X60792Y-46121D02*
X60792Y-45821D01*
X60764Y-46007D02*
X60678Y-46121D01*
X60678Y-45921D02*
X60792Y-46035D01*
X60192Y-46121D02*
X60192Y-45964D01*
X60207Y-45935D01*
X60235Y-45921D01*
X60292Y-45921D01*
X60321Y-45935D01*
X60192Y-46107D02*
X60221Y-46121D01*
X60292Y-46121D01*
X60321Y-46107D01*
X60335Y-46078D01*
X60335Y-46050D01*
X60321Y-46021D01*
X60292Y-46007D01*
X60221Y-46007D01*
X60192Y-45992D01*
X60092Y-45921D02*
X59978Y-45921D01*
X60049Y-45821D02*
X60049Y-46078D01*
X60035Y-46107D01*
X60007Y-46121D01*
X59978Y-46121D01*
X59521Y-46121D02*
X59521Y-45964D01*
X59535Y-45935D01*
X59564Y-45921D01*
X59621Y-45921D01*
X59649Y-45935D01*
X59521Y-46107D02*
X59549Y-46121D01*
X59621Y-46121D01*
X59649Y-46107D01*
X59664Y-46078D01*
X59664Y-46050D01*
X59649Y-46021D01*
X59621Y-46007D01*
X59549Y-46007D01*
X59521Y-45992D01*
X59192Y-45921D02*
X59078Y-45921D01*
X59149Y-45821D02*
X59149Y-46078D01*
X59135Y-46107D01*
X59107Y-46121D01*
X59078Y-46121D01*
X58978Y-46121D02*
X58978Y-45921D01*
X58978Y-45821D02*
X58992Y-45835D01*
X58978Y-45850D01*
X58964Y-45835D01*
X58978Y-45821D01*
X58978Y-45850D01*
X58835Y-46121D02*
X58835Y-45921D01*
X58835Y-45950D02*
X58821Y-45935D01*
X58792Y-45921D01*
X58749Y-45921D01*
X58721Y-45935D01*
X58707Y-45964D01*
X58707Y-46121D01*
X58707Y-45964D02*
X58692Y-45935D01*
X58664Y-45921D01*
X58621Y-45921D01*
X58592Y-45935D01*
X58578Y-45964D01*
X58578Y-46121D01*
X58321Y-46107D02*
X58349Y-46121D01*
X58407Y-46121D01*
X58435Y-46107D01*
X58449Y-46078D01*
X58449Y-45964D01*
X58435Y-45935D01*
X58407Y-45921D01*
X58349Y-45921D01*
X58321Y-45935D01*
X58307Y-45964D01*
X58307Y-45992D01*
X58449Y-46021D01*
X58207Y-46235D02*
X58192Y-46221D01*
X58164Y-46178D01*
X58149Y-46150D01*
X58135Y-46107D01*
X58121Y-46035D01*
X58121Y-45978D01*
X58135Y-45907D01*
X58149Y-45864D01*
X58164Y-45835D01*
X58192Y-45792D01*
X58207Y-45778D01*
G54D14*
G36*
X73727Y-66457D02*
X73719Y-66453D01*
X73700Y-66441D01*
X73674Y-66424D01*
X73643Y-66403D01*
X73612Y-66382D01*
X73586Y-66365D01*
X73568Y-66353D01*
X73561Y-66349D01*
X73557Y-66350D01*
X73542Y-66358D01*
X73520Y-66369D01*
X73508Y-66375D01*
X73488Y-66384D01*
X73478Y-66386D01*
X73477Y-66383D01*
X73469Y-66368D01*
X73458Y-66342D01*
X73443Y-66308D01*
X73426Y-66268D01*
X73408Y-66225D01*
X73390Y-66181D01*
X73372Y-66139D01*
X73357Y-66101D01*
X73344Y-66071D01*
X73336Y-66049D01*
X73333Y-66040D01*
X73334Y-66038D01*
X73344Y-66029D01*
X73361Y-66016D01*
X73399Y-65985D01*
X73435Y-65939D01*
X73458Y-65887D01*
X73465Y-65829D01*
X73459Y-65776D01*
X73438Y-65725D01*
X73402Y-65678D01*
X73358Y-65644D01*
X73307Y-65622D01*
X73250Y-65615D01*
X73195Y-65621D01*
X73143Y-65642D01*
X73096Y-65677D01*
X73077Y-65700D01*
X73050Y-65747D01*
X73034Y-65797D01*
X73033Y-65809D01*
X73035Y-65865D01*
X73051Y-65918D01*
X73080Y-65965D01*
X73121Y-66004D01*
X73126Y-66008D01*
X73145Y-66022D01*
X73157Y-66031D01*
X73167Y-66039D01*
X73097Y-66209D01*
X73086Y-66236D01*
X73066Y-66282D01*
X73049Y-66322D01*
X73036Y-66354D01*
X73026Y-66375D01*
X73022Y-66384D01*
X73022Y-66384D01*
X73016Y-66385D01*
X73003Y-66380D01*
X72979Y-66369D01*
X72963Y-66361D01*
X72945Y-66352D01*
X72937Y-66349D01*
X72930Y-66353D01*
X72913Y-66364D01*
X72888Y-66381D01*
X72858Y-66401D01*
X72829Y-66421D01*
X72802Y-66439D01*
X72783Y-66451D01*
X72773Y-66456D01*
X72772Y-66456D01*
X72764Y-66451D01*
X72748Y-66439D01*
X72725Y-66417D01*
X72693Y-66385D01*
X72688Y-66380D01*
X72661Y-66352D01*
X72639Y-66329D01*
X72624Y-66313D01*
X72619Y-66306D01*
X72619Y-66306D01*
X72624Y-66296D01*
X72636Y-66277D01*
X72654Y-66250D01*
X72675Y-66219D01*
X72731Y-66137D01*
X72700Y-66060D01*
X72691Y-66037D01*
X72679Y-66008D01*
X72670Y-65988D01*
X72665Y-65979D01*
X72657Y-65976D01*
X72636Y-65971D01*
X72605Y-65964D01*
X72569Y-65958D01*
X72534Y-65951D01*
X72503Y-65945D01*
X72480Y-65941D01*
X72470Y-65939D01*
X72468Y-65937D01*
X72466Y-65932D01*
X72464Y-65922D01*
X72464Y-65903D01*
X72463Y-65873D01*
X72463Y-65829D01*
X72463Y-65825D01*
X72464Y-65783D01*
X72464Y-65750D01*
X72465Y-65729D01*
X72467Y-65721D01*
X72467Y-65721D01*
X72477Y-65718D01*
X72499Y-65714D01*
X72530Y-65707D01*
X72568Y-65700D01*
X72570Y-65700D01*
X72607Y-65693D01*
X72638Y-65686D01*
X72660Y-65681D01*
X72669Y-65678D01*
X72671Y-65676D01*
X72679Y-65661D01*
X72690Y-65638D01*
X72702Y-65610D01*
X72714Y-65581D01*
X72725Y-65554D01*
X72732Y-65535D01*
X72734Y-65526D01*
X72734Y-65526D01*
X72728Y-65517D01*
X72715Y-65497D01*
X72697Y-65471D01*
X72675Y-65439D01*
X72674Y-65436D01*
X72652Y-65405D01*
X72635Y-65378D01*
X72623Y-65359D01*
X72619Y-65351D01*
X72619Y-65350D01*
X72626Y-65341D01*
X72642Y-65323D01*
X72665Y-65299D01*
X72693Y-65271D01*
X72702Y-65263D01*
X72732Y-65233D01*
X72753Y-65213D01*
X72767Y-65203D01*
X72773Y-65200D01*
X72773Y-65201D01*
X72783Y-65206D01*
X72803Y-65219D01*
X72830Y-65238D01*
X72862Y-65259D01*
X72864Y-65261D01*
X72895Y-65282D01*
X72921Y-65300D01*
X72940Y-65312D01*
X72948Y-65317D01*
X72950Y-65317D01*
X72962Y-65313D01*
X72985Y-65306D01*
X73012Y-65295D01*
X73041Y-65283D01*
X73068Y-65272D01*
X73088Y-65263D01*
X73097Y-65258D01*
X73097Y-65257D01*
X73101Y-65246D01*
X73106Y-65222D01*
X73113Y-65190D01*
X73120Y-65151D01*
X73121Y-65145D01*
X73128Y-65108D01*
X73134Y-65077D01*
X73139Y-65055D01*
X73141Y-65046D01*
X73146Y-65045D01*
X73165Y-65044D01*
X73193Y-65043D01*
X73227Y-65043D01*
X73262Y-65043D01*
X73296Y-65044D01*
X73326Y-65045D01*
X73347Y-65046D01*
X73356Y-65048D01*
X73357Y-65049D01*
X73360Y-65060D01*
X73365Y-65084D01*
X73372Y-65116D01*
X73379Y-65155D01*
X73380Y-65162D01*
X73387Y-65199D01*
X73394Y-65230D01*
X73398Y-65251D01*
X73401Y-65259D01*
X73404Y-65261D01*
X73419Y-65268D01*
X73444Y-65278D01*
X73476Y-65291D01*
X73548Y-65320D01*
X73636Y-65259D01*
X73644Y-65254D01*
X73676Y-65232D01*
X73702Y-65215D01*
X73720Y-65203D01*
X73728Y-65199D01*
X73728Y-65199D01*
X73737Y-65207D01*
X73755Y-65223D01*
X73779Y-65247D01*
X73806Y-65274D01*
X73827Y-65295D01*
X73851Y-65320D01*
X73867Y-65336D01*
X73875Y-65347D01*
X73878Y-65354D01*
X73877Y-65358D01*
X73872Y-65367D01*
X73859Y-65386D01*
X73841Y-65413D01*
X73819Y-65444D01*
X73801Y-65471D01*
X73782Y-65500D01*
X73770Y-65521D01*
X73765Y-65532D01*
X73766Y-65536D01*
X73773Y-65553D01*
X73783Y-65580D01*
X73796Y-65611D01*
X73827Y-65681D01*
X73873Y-65689D01*
X73901Y-65695D01*
X73940Y-65702D01*
X73977Y-65709D01*
X74035Y-65721D01*
X74037Y-65933D01*
X74028Y-65937D01*
X74019Y-65940D01*
X73998Y-65944D01*
X73967Y-65950D01*
X73931Y-65957D01*
X73900Y-65963D01*
X73869Y-65969D01*
X73847Y-65973D01*
X73837Y-65975D01*
X73834Y-65979D01*
X73826Y-65994D01*
X73815Y-66018D01*
X73803Y-66047D01*
X73791Y-66076D01*
X73780Y-66104D01*
X73772Y-66125D01*
X73769Y-66136D01*
X73773Y-66144D01*
X73785Y-66162D01*
X73802Y-66188D01*
X73823Y-66219D01*
X73845Y-66250D01*
X73862Y-66277D01*
X73875Y-66296D01*
X73880Y-66304D01*
X73877Y-66310D01*
X73865Y-66325D01*
X73842Y-66349D01*
X73807Y-66384D01*
X73801Y-66389D01*
X73774Y-66416D01*
X73750Y-66437D01*
X73734Y-66452D01*
X73727Y-66457D01*
X73727Y-66457D01*
G37*
M02*
