M48
INCH,TZ
T1C0.032
T2C0.040
T3C0.079
T4C0.098
T5C0.105
T6C0.120
T7C0.126
T8C0.240
%
G90
G05
T1
X5.65Y-6.775
X5.65Y-7.175
X5.75Y-6.775
X5.75Y-7.175
X5.85Y-6.775
X5.85Y-7.175
X6.4Y-5.325
X6.7Y-5.2
X6.7Y-5.325
X6.775Y-5.625
X6.8Y-7.025
X6.9Y-7.025
X6.975Y-5.625
X7.Y-5.2
X7.4Y-6.925
X7.4Y-7.025
X7.775Y-5.225
X7.775Y-5.525
X7.875Y-5.225
X7.875Y-5.525
X7.975Y-5.175
X7.975Y-5.575
X8.175Y-4.625
X8.175Y-4.825
X8.2Y-8.325
X8.225Y-5.65
X8.225Y-5.75
X8.475Y-7.95
X8.575Y-7.95
X8.6Y-8.325
X8.675Y-7.95
X8.775Y-6.975
X8.825Y-4.675
X8.825Y-4.775
X8.975Y-6.975
X9.0671Y-7.4309
X9.0671Y-7.5096
X9.2Y-7.525
X9.2Y-7.725
T2
X6.Y-6.675
X6.Y-7.175
X6.075Y-5.625
X6.075Y-5.825
X6.15Y-6.675
X6.15Y-7.175
X6.3Y-6.675
X6.3Y-7.175
X6.45Y-6.675
X6.45Y-7.175
X6.6Y-6.675
X6.6Y-7.175
X6.7Y-7.275
X6.7Y-7.425
X6.7Y-7.575
X6.7Y-7.725
X7.175Y-5.275
X7.175Y-5.375
X7.175Y-5.475
X7.2Y-7.275
X7.2Y-7.425
X7.2Y-7.575
X7.2Y-7.725
X7.475Y-5.275
X7.475Y-5.375
X7.475Y-5.475
X8.325Y-5.275
X8.325Y-5.375
X8.325Y-5.475
X8.375Y-4.725
X8.475Y-4.725
X8.475Y-6.9
X8.575Y-4.725
X8.575Y-6.9
X8.675Y-6.9
X8.725Y-8.325
X8.825Y-8.325
T3
X8.1222Y-7.7065
X8.2797Y-7.7065
X8.8703Y-7.7065
X9.0278Y-7.7065
T4
X5.525Y-4.938
X5.525Y-5.125
X5.525Y-5.312
X5.525Y-5.888
X5.525Y-6.075
X5.525Y-6.262
X7.7Y-7.113
X7.7Y-7.3
X7.7Y-7.487
T5
X5.6118Y-7.7366
X5.6118Y-7.9335
X5.7142Y-7.5555
X5.7142Y-8.1146
X5.8874Y-8.0201
X5.8953Y-7.4531
X5.8953Y-8.2169
X6.0921Y-7.4531
X6.0961Y-8.2169
X6.1Y-7.65
X6.2732Y-7.5555
X6.2732Y-8.1146
X6.3756Y-7.7366
X6.3756Y-7.9335
X7.325Y-4.875
X7.325Y-5.875
T6
X5.79Y-4.93
X5.975Y-4.815
X5.975Y-5.05
X6.29Y-4.93
X6.475Y-4.815
X6.475Y-5.05
T7
X5.5Y-4.65
X5.5Y-8.325
X9.15Y-4.65
X9.15Y-8.325
T8
X6.95Y-8.225
X7.7Y-8.225
T0
M30
