G04 (created by PCBNEW (2013-07-07 BZR 4022)-stable) date 3/27/2014 11:31:02 PM*
%MOIN*%
G04 Gerber Fmt 3.4, Leading zero omitted, Abs format*
%FSLAX34Y34*%
G01*
G70*
G90*
G04 APERTURE LIST*
%ADD10C,0.00590551*%
%ADD11R,0.1035X0.069*%
%ADD12O,0.1035X0.069*%
%ADD13R,0.069X0.1035*%
%ADD14O,0.069X0.1035*%
%ADD15O,0.0885X0.059*%
%ADD16O,0.059X0.0885*%
%ADD17R,0.16X0.16*%
%ADD18C,0.16*%
%ADD19C,0.23622*%
%ADD20C,0.055*%
%ADD21R,0.059X0.0885*%
%ADD22R,0.0885X0.059*%
%ADD23R,0.137795X0.137795*%
%ADD24C,0.137795*%
%ADD25C,0.15*%
%ADD26C,0.36*%
%ADD27C,0.11811*%
%ADD28C,0.02*%
%ADD29C,0.04*%
%ADD30C,0.15*%
%ADD31C,0.08*%
%ADD32C,0.06*%
%ADD33C,0.12*%
%ADD34C,0.1*%
G04 APERTURE END LIST*
G54D10*
G54D11*
X74922Y-54750D03*
G54D12*
X74922Y-53750D03*
X74922Y-52750D03*
G54D11*
X71577Y-52750D03*
G54D12*
X71577Y-53750D03*
X71577Y-54750D03*
G54D13*
X83750Y-47422D03*
G54D14*
X84750Y-47422D03*
X85750Y-47422D03*
G54D15*
X85852Y-83250D03*
X82147Y-83250D03*
G54D16*
X79750Y-55602D03*
X79750Y-51897D03*
G54D17*
X64750Y-50500D03*
G54D18*
X64750Y-48150D03*
X62900Y-49300D03*
G54D14*
X60000Y-71577D03*
X60000Y-66922D03*
X61500Y-71577D03*
X61500Y-66922D03*
X63000Y-71577D03*
X63000Y-66922D03*
X66000Y-71577D03*
X66000Y-66922D03*
X64500Y-71577D03*
X64500Y-66922D03*
G54D12*
X67172Y-77250D03*
X71827Y-77250D03*
X67172Y-75750D03*
X71827Y-75750D03*
X67172Y-74250D03*
X71827Y-74250D03*
X67172Y-72750D03*
X71827Y-72750D03*
G54D16*
X56500Y-71602D03*
X56500Y-67897D03*
X58500Y-71602D03*
X58500Y-67897D03*
X57500Y-71602D03*
X57500Y-67897D03*
G54D17*
X59750Y-50500D03*
G54D18*
X59750Y-48150D03*
X57900Y-49300D03*
G54D19*
X55000Y-83250D03*
X55000Y-46500D03*
X91500Y-46500D03*
X91500Y-83250D03*
G54D20*
X81750Y-46250D03*
X81750Y-48250D03*
X69750Y-56250D03*
X67750Y-56250D03*
G54D13*
X60750Y-56077D03*
G54D14*
X60750Y-58422D03*
G54D21*
X88250Y-47897D03*
G54D16*
X88250Y-46602D03*
G54D22*
X69147Y-70250D03*
G54D15*
X67852Y-70250D03*
G54D21*
X82250Y-56352D03*
G54D16*
X82250Y-57647D03*
G54D21*
X74000Y-70397D03*
G54D16*
X74000Y-69102D03*
G54D18*
X73250Y-58750D03*
X73250Y-48750D03*
G54D23*
X55250Y-53120D03*
G54D24*
X55250Y-51250D03*
X55250Y-49379D03*
G54D23*
X55250Y-62620D03*
G54D24*
X55250Y-60750D03*
X55250Y-58879D03*
G54D23*
X77000Y-74870D03*
G54D24*
X77000Y-73000D03*
X77000Y-71129D03*
G54D11*
X88422Y-83250D03*
G54D12*
X87077Y-83250D03*
G54D25*
X56118Y-79334D03*
X58952Y-82169D03*
X57141Y-81145D03*
X60960Y-82169D03*
X60921Y-74531D03*
X58952Y-74531D03*
X56118Y-77366D03*
X63755Y-77366D03*
X63755Y-79334D03*
X57141Y-75555D03*
X62732Y-75555D03*
X62732Y-81145D03*
X61000Y-76500D03*
X58874Y-80200D03*
G54D26*
X69500Y-82250D03*
X77000Y-82250D03*
G54D21*
X77750Y-52102D03*
G54D16*
X77750Y-55397D03*
G54D21*
X78750Y-52102D03*
G54D16*
X78750Y-55397D03*
G54D22*
X63852Y-53250D03*
G54D15*
X67147Y-53250D03*
G54D22*
X66852Y-52000D03*
G54D15*
X70147Y-52000D03*
G54D12*
X83077Y-53750D03*
G54D11*
X83077Y-52750D03*
G54D12*
X83077Y-54750D03*
G54D13*
X84750Y-68827D03*
G54D14*
X85750Y-68827D03*
X86750Y-68827D03*
G54D15*
X90523Y-74309D03*
G54D27*
X81222Y-77064D03*
G54D15*
X90523Y-75096D03*
G54D27*
X90277Y-77064D03*
X82797Y-77064D03*
X88702Y-77064D03*
G54D20*
X92000Y-75250D03*
X92000Y-77250D03*
X87750Y-69750D03*
X89750Y-69750D03*
G54D16*
X85750Y-79647D03*
X86750Y-79647D03*
G54D21*
X84750Y-79647D03*
G54D28*
X67000Y-52000D02*
X67000Y-53250D01*
X74750Y-52750D02*
X76250Y-51250D01*
X78500Y-51500D02*
X78750Y-51750D01*
X78750Y-51750D02*
X78750Y-52250D01*
X78250Y-51250D02*
X78500Y-51500D01*
X76250Y-51250D02*
X78250Y-51250D01*
G54D29*
X69000Y-70250D02*
X72000Y-70250D01*
G54D28*
X70000Y-52000D02*
X71000Y-52000D01*
X71000Y-52000D02*
X71750Y-52750D01*
G54D30*
X66000Y-66750D02*
X66000Y-62620D01*
X66000Y-62620D02*
X66129Y-62620D01*
X55250Y-62620D02*
X66129Y-62620D01*
X66129Y-62620D02*
X70500Y-58250D01*
G54D28*
X71750Y-52750D02*
X73250Y-52750D01*
G54D31*
X74750Y-52750D02*
X73250Y-52750D01*
G54D30*
X72000Y-62250D02*
X70500Y-60750D01*
X70500Y-60750D02*
X70500Y-58250D01*
X70500Y-58250D02*
X73250Y-55500D01*
X73250Y-55500D02*
X73250Y-52750D01*
X72000Y-62250D02*
X72000Y-69250D01*
X72000Y-69250D02*
X72000Y-70250D01*
X72000Y-70250D02*
X72000Y-72750D01*
G54D32*
X57500Y-67750D02*
X58500Y-67750D01*
G54D29*
X56500Y-67750D02*
X57500Y-67750D01*
G54D31*
X58500Y-67750D02*
X58500Y-66750D01*
X60500Y-65750D02*
X61500Y-66750D01*
X59500Y-65750D02*
X60500Y-65750D01*
X58500Y-66750D02*
X59500Y-65750D01*
G54D30*
X72000Y-77250D02*
X72000Y-75750D01*
X72000Y-75750D02*
X72000Y-74250D01*
X72000Y-74250D02*
X72000Y-72750D01*
X66000Y-66750D02*
X64500Y-66750D01*
X64500Y-66750D02*
X63000Y-66750D01*
X63000Y-66750D02*
X61500Y-66750D01*
G54D28*
X87750Y-69750D02*
X86250Y-69750D01*
X88250Y-47750D02*
X86250Y-47750D01*
X86250Y-47750D02*
X85750Y-47250D01*
G54D29*
X86250Y-69750D02*
X86250Y-71500D01*
X89846Y-75096D02*
X90671Y-75096D01*
X86250Y-71500D02*
X89846Y-75096D01*
X85750Y-69250D02*
X85750Y-69000D01*
X86250Y-69750D02*
X85750Y-69250D01*
X85750Y-47250D02*
X85750Y-69000D01*
G54D28*
X92000Y-75250D02*
X90824Y-75250D01*
X90824Y-75250D02*
X90671Y-75096D01*
X90671Y-75096D02*
X88653Y-75096D01*
X88653Y-75096D02*
X87250Y-76500D01*
X87250Y-76500D02*
X87250Y-78000D01*
X87250Y-78000D02*
X88250Y-79000D01*
X88250Y-79000D02*
X88250Y-83250D01*
X82250Y-56500D02*
X82250Y-55750D01*
X83000Y-55750D02*
X82250Y-55750D01*
X82250Y-55750D02*
X81000Y-55750D01*
X83250Y-54750D02*
X83250Y-55500D01*
X77750Y-56250D02*
X77750Y-55250D01*
X78000Y-56500D02*
X77750Y-56250D01*
X80250Y-56500D02*
X78000Y-56500D01*
X81000Y-55750D02*
X80250Y-56500D01*
X83250Y-55500D02*
X83000Y-55750D01*
X83250Y-54750D02*
X83250Y-53750D01*
X79750Y-51750D02*
X81000Y-51750D01*
X82000Y-53750D02*
X83250Y-53750D01*
X81500Y-53250D02*
X82000Y-53750D01*
X81500Y-52250D02*
X81500Y-53250D01*
X81000Y-51750D02*
X81500Y-52250D01*
G54D30*
X55250Y-51250D02*
X59000Y-51250D01*
X59000Y-51250D02*
X59750Y-50500D01*
X64750Y-50500D02*
X64000Y-51250D01*
X60500Y-51250D02*
X59750Y-50500D01*
X64000Y-51250D02*
X60500Y-51250D01*
G54D28*
X77000Y-73000D02*
X81000Y-69000D01*
X81000Y-69000D02*
X84750Y-69000D01*
G54D29*
X74000Y-70250D02*
X75250Y-70250D01*
G54D30*
X76500Y-63750D02*
X76500Y-69000D01*
X76500Y-53750D02*
X76500Y-63750D01*
X76000Y-73000D02*
X77000Y-73000D01*
X75250Y-72250D02*
X76000Y-73000D01*
X75250Y-70250D02*
X75250Y-72250D01*
X76500Y-69000D02*
X75250Y-70250D01*
G54D28*
X78750Y-55250D02*
X79250Y-55750D01*
X79250Y-55750D02*
X79750Y-55750D01*
X78750Y-55250D02*
X78750Y-54500D01*
X78000Y-53750D02*
X76500Y-53750D01*
X78750Y-54500D02*
X78000Y-53750D01*
X77750Y-52250D02*
X77750Y-53000D01*
G54D31*
X76500Y-53750D02*
X74750Y-53750D01*
G54D28*
X77000Y-53750D02*
X76500Y-53750D01*
X77750Y-53000D02*
X77000Y-53750D01*
X86000Y-83250D02*
X87250Y-83250D01*
G54D30*
X60750Y-56250D02*
X60750Y-54750D01*
X60750Y-54750D02*
X60250Y-54750D01*
G54D29*
X83750Y-47250D02*
X83000Y-47250D01*
X81750Y-46250D02*
X81750Y-47250D01*
X66500Y-51250D02*
X66000Y-51250D01*
X81250Y-47250D02*
X79250Y-47250D01*
X75250Y-51250D02*
X79250Y-47250D01*
X66500Y-51250D02*
X75250Y-51250D01*
X65750Y-52000D02*
X66000Y-51750D01*
X65250Y-52000D02*
X65750Y-52000D01*
X65250Y-52000D02*
X64000Y-53250D01*
X66000Y-51250D02*
X66000Y-51750D01*
X81250Y-47250D02*
X81750Y-47250D01*
X81750Y-47250D02*
X83000Y-47250D01*
X83000Y-47250D02*
X83500Y-47250D01*
G54D28*
X83500Y-47250D02*
X82250Y-47250D01*
G54D32*
X69750Y-56250D02*
X69750Y-54750D01*
X69750Y-54750D02*
X70000Y-54750D01*
G54D29*
X64000Y-53250D02*
X64000Y-54250D01*
G54D28*
X64000Y-54250D02*
X63500Y-54750D01*
G54D30*
X55250Y-53120D02*
X55250Y-56500D01*
X56250Y-60750D02*
X55250Y-60750D01*
X57000Y-60000D02*
X56250Y-60750D01*
X57000Y-58250D02*
X57000Y-60000D01*
X55250Y-56500D02*
X57000Y-58250D01*
X60250Y-54750D02*
X63500Y-54750D01*
X63500Y-54750D02*
X70000Y-54750D01*
G54D31*
X71750Y-54750D02*
X70000Y-54750D01*
G54D30*
X56879Y-54750D02*
X60250Y-54750D01*
X56879Y-54750D02*
X55250Y-53120D01*
G54D31*
X64500Y-71750D02*
X66000Y-71750D01*
G54D33*
X63755Y-77366D02*
X64500Y-76622D01*
X64500Y-76622D02*
X64500Y-71750D01*
G54D30*
X63755Y-79334D02*
X64915Y-79334D01*
X64915Y-79334D02*
X67000Y-77250D01*
X67000Y-77250D02*
X67000Y-74250D01*
X67000Y-74250D02*
X67000Y-72750D01*
X63755Y-79334D02*
X60834Y-79334D01*
X60834Y-79334D02*
X58866Y-77366D01*
X58866Y-77366D02*
X56118Y-77366D01*
G54D31*
X60000Y-66750D02*
X60000Y-68250D01*
X61500Y-69750D02*
X61500Y-71750D01*
X60000Y-68250D02*
X61500Y-69750D01*
G54D34*
X62732Y-75555D02*
X63000Y-75287D01*
X63000Y-75287D02*
X63000Y-71750D01*
G54D31*
X60000Y-71750D02*
X60000Y-73610D01*
X60000Y-73610D02*
X60921Y-74531D01*
G54D29*
X57141Y-75555D02*
X56500Y-74913D01*
X56500Y-74913D02*
X56500Y-71750D01*
G54D32*
X57500Y-71750D02*
X58500Y-71750D01*
X58952Y-74531D02*
X58500Y-74078D01*
X58500Y-74078D02*
X58500Y-71750D01*
G54D30*
X77000Y-74870D02*
X77000Y-77000D01*
X71750Y-82250D02*
X69500Y-82250D01*
X77000Y-77000D02*
X71750Y-82250D01*
G54D28*
X82797Y-77064D02*
X82797Y-78547D01*
X83750Y-79500D02*
X84750Y-79500D01*
X82797Y-78547D02*
X83750Y-79500D01*
G54D30*
X77000Y-82250D02*
X77000Y-81287D01*
X77000Y-81287D02*
X81222Y-77064D01*
X81222Y-77064D02*
X82797Y-77064D01*
M02*
