G04 (created by PCBNEW (2013-07-07 BZR 4022)-stable) date 4/19/2014 2:23:07 PM*
%MOIN*%
G04 Gerber Fmt 3.4, Leading zero omitted, Abs format*
%FSLAX34Y34*%
G01*
G70*
G90*
G04 APERTURE LIST*
%ADD10C,0.00590551*%
%ADD11R,0.1035X0.069*%
%ADD12O,0.1035X0.069*%
%ADD13R,0.069X0.1035*%
%ADD14O,0.069X0.1035*%
%ADD15O,0.0885X0.059*%
%ADD16O,0.059X0.0885*%
%ADD17R,0.16X0.16*%
%ADD18C,0.16*%
%ADD19C,0.23622*%
%ADD20C,0.055*%
%ADD21R,0.059X0.0885*%
%ADD22R,0.0885X0.059*%
%ADD23R,0.137795X0.137795*%
%ADD24C,0.137795*%
%ADD25C,0.15*%
%ADD26C,0.36*%
%ADD27C,0.11811*%
%ADD28C,0.02*%
%ADD29C,0.04*%
%ADD30C,0.15*%
%ADD31C,0.01*%
G04 APERTURE END LIST*
G54D10*
G54D11*
X74922Y-54750D03*
G54D12*
X74922Y-53750D03*
X74922Y-52750D03*
G54D11*
X71577Y-52750D03*
G54D12*
X71577Y-53750D03*
X71577Y-54750D03*
G54D13*
X83750Y-47422D03*
G54D14*
X84750Y-47422D03*
X85750Y-47422D03*
G54D15*
X85852Y-83250D03*
X82147Y-83250D03*
G54D16*
X79750Y-55602D03*
X79750Y-51897D03*
G54D17*
X64750Y-50500D03*
G54D18*
X64750Y-48150D03*
X62900Y-49300D03*
G54D14*
X60000Y-71577D03*
X60000Y-66922D03*
X61500Y-71577D03*
X61500Y-66922D03*
X63000Y-71577D03*
X63000Y-66922D03*
X66000Y-71577D03*
X66000Y-66922D03*
X64500Y-71577D03*
X64500Y-66922D03*
G54D12*
X67172Y-77250D03*
X71827Y-77250D03*
X67172Y-75750D03*
X71827Y-75750D03*
X67172Y-74250D03*
X71827Y-74250D03*
X67172Y-72750D03*
X71827Y-72750D03*
G54D16*
X56500Y-71602D03*
X56500Y-67897D03*
X58500Y-71602D03*
X58500Y-67897D03*
X57500Y-71602D03*
X57500Y-67897D03*
G54D17*
X59750Y-50500D03*
G54D18*
X59750Y-48150D03*
X57900Y-49300D03*
G54D19*
X55000Y-83250D03*
X55000Y-46500D03*
X91500Y-46500D03*
X91500Y-83250D03*
G54D20*
X81750Y-46250D03*
X81750Y-48250D03*
X69750Y-56250D03*
X67750Y-56250D03*
G54D13*
X60750Y-56327D03*
G54D14*
X60750Y-58672D03*
G54D21*
X88250Y-47897D03*
G54D16*
X88250Y-46602D03*
G54D22*
X70397Y-70250D03*
G54D15*
X69102Y-70250D03*
G54D21*
X82250Y-56352D03*
G54D16*
X82250Y-57647D03*
G54D22*
X78102Y-69000D03*
G54D15*
X79397Y-69000D03*
G54D18*
X73250Y-58750D03*
X73250Y-48750D03*
G54D23*
X55250Y-53120D03*
G54D24*
X55250Y-51250D03*
X55250Y-49379D03*
G54D23*
X55250Y-62620D03*
G54D24*
X55250Y-60750D03*
X55250Y-58879D03*
G54D23*
X77000Y-74870D03*
G54D24*
X77000Y-73000D03*
X77000Y-71129D03*
G54D11*
X88422Y-83250D03*
G54D12*
X87077Y-83250D03*
G54D25*
X56118Y-79334D03*
X58952Y-82169D03*
X57141Y-81145D03*
X60960Y-82169D03*
X60921Y-74531D03*
X58952Y-74531D03*
X56118Y-77366D03*
X63755Y-77366D03*
X63755Y-79334D03*
X57141Y-75555D03*
X62732Y-75555D03*
X62732Y-81145D03*
X61000Y-76500D03*
X58874Y-80200D03*
G54D26*
X69500Y-82250D03*
X77000Y-82250D03*
G54D21*
X77750Y-52102D03*
G54D16*
X77750Y-55397D03*
G54D21*
X78750Y-52102D03*
G54D16*
X78750Y-55397D03*
G54D22*
X63602Y-53250D03*
G54D15*
X66897Y-53250D03*
G54D22*
X66852Y-52000D03*
G54D15*
X70147Y-52000D03*
G54D12*
X83077Y-53750D03*
G54D11*
X83077Y-52750D03*
G54D12*
X83077Y-54750D03*
G54D13*
X84750Y-68827D03*
G54D14*
X85750Y-68827D03*
X86750Y-68827D03*
G54D15*
X90523Y-74309D03*
G54D27*
X81222Y-77064D03*
G54D15*
X90523Y-75096D03*
G54D27*
X90277Y-77064D03*
X82797Y-77064D03*
X88702Y-77064D03*
G54D20*
X92000Y-75250D03*
X92000Y-77250D03*
X87750Y-69750D03*
X89750Y-69750D03*
G54D16*
X85750Y-79647D03*
X86750Y-79647D03*
G54D21*
X84750Y-79647D03*
G54D28*
X66750Y-53250D02*
X67750Y-53250D01*
X67750Y-53250D02*
X68250Y-53750D01*
G54D29*
X71750Y-53750D02*
X70000Y-53750D01*
G54D30*
X68250Y-53750D02*
X67875Y-54125D01*
X55000Y-67000D02*
X55000Y-73000D01*
X67875Y-54125D02*
X55000Y-67000D01*
X70000Y-53750D02*
X68250Y-53750D01*
G54D28*
X74750Y-54750D02*
X76250Y-54750D01*
X76250Y-54750D02*
X76750Y-55250D01*
X76750Y-55250D02*
X77750Y-55250D01*
G54D10*
G36*
X92450Y-82317D02*
X92297Y-82164D01*
X92297Y-77617D01*
X92000Y-77320D01*
X91929Y-77391D01*
X91929Y-77250D01*
X91632Y-76952D01*
X91539Y-76977D01*
X91470Y-77174D01*
X91481Y-77382D01*
X91539Y-77522D01*
X91632Y-77547D01*
X91929Y-77250D01*
X91929Y-77391D01*
X91702Y-77617D01*
X91727Y-77710D01*
X91924Y-77779D01*
X92132Y-77768D01*
X92272Y-77710D01*
X92297Y-77617D01*
X92297Y-82164D01*
X92254Y-82122D01*
X91765Y-81919D01*
X91236Y-81918D01*
X91199Y-81933D01*
X91199Y-74443D01*
X91199Y-74174D01*
X91193Y-74146D01*
X91091Y-73959D01*
X90926Y-73824D01*
X90721Y-73764D01*
X90573Y-73764D01*
X90573Y-74259D01*
X91151Y-74259D01*
X91199Y-74174D01*
X91199Y-74443D01*
X91151Y-74359D01*
X90573Y-74359D01*
X90573Y-74366D01*
X90473Y-74366D01*
X90473Y-74359D01*
X90473Y-74259D01*
X90473Y-73764D01*
X90326Y-73764D01*
X90279Y-73777D01*
X90279Y-69825D01*
X90268Y-69617D01*
X90210Y-69477D01*
X90117Y-69452D01*
X90047Y-69523D01*
X90047Y-69382D01*
X90022Y-69289D01*
X89825Y-69220D01*
X89617Y-69231D01*
X89477Y-69289D01*
X89452Y-69382D01*
X89750Y-69679D01*
X90047Y-69382D01*
X90047Y-69523D01*
X89820Y-69750D01*
X90117Y-70047D01*
X90210Y-70022D01*
X90279Y-69825D01*
X90279Y-73777D01*
X90121Y-73824D01*
X90047Y-73884D01*
X90047Y-70117D01*
X89750Y-69820D01*
X89679Y-69891D01*
X89679Y-69750D01*
X89382Y-69452D01*
X89289Y-69477D01*
X89220Y-69674D01*
X89231Y-69882D01*
X89289Y-70022D01*
X89382Y-70047D01*
X89679Y-69750D01*
X89679Y-69891D01*
X89452Y-70117D01*
X89477Y-70210D01*
X89674Y-70279D01*
X89882Y-70268D01*
X90022Y-70210D01*
X90047Y-70117D01*
X90047Y-73884D01*
X89955Y-73959D01*
X89853Y-74146D01*
X89848Y-74174D01*
X89896Y-74259D01*
X90473Y-74259D01*
X90473Y-74359D01*
X89896Y-74359D01*
X89848Y-74443D01*
X89853Y-74471D01*
X89955Y-74659D01*
X90081Y-74760D01*
X90049Y-74781D01*
X89953Y-74926D01*
X89919Y-75096D01*
X89953Y-75266D01*
X90049Y-75411D01*
X90194Y-75507D01*
X90364Y-75541D01*
X90682Y-75541D01*
X90853Y-75507D01*
X90997Y-75411D01*
X91093Y-75266D01*
X91127Y-75096D01*
X91093Y-74926D01*
X90997Y-74781D01*
X90966Y-74760D01*
X91091Y-74659D01*
X91193Y-74471D01*
X91199Y-74443D01*
X91199Y-81933D01*
X91121Y-81966D01*
X91121Y-77216D01*
X91114Y-76881D01*
X90999Y-76602D01*
X90873Y-76539D01*
X90802Y-76610D01*
X90802Y-76468D01*
X90739Y-76343D01*
X90428Y-76221D01*
X90094Y-76227D01*
X89815Y-76343D01*
X89752Y-76468D01*
X90277Y-76994D01*
X90802Y-76468D01*
X90802Y-76610D01*
X90348Y-77064D01*
X90873Y-77590D01*
X90999Y-77527D01*
X91121Y-77216D01*
X91121Y-81966D01*
X90802Y-82097D01*
X90802Y-77661D01*
X90277Y-77135D01*
X90206Y-77206D01*
X90206Y-77064D01*
X89681Y-76539D01*
X89556Y-76602D01*
X89491Y-76765D01*
X89424Y-76602D01*
X89298Y-76539D01*
X89228Y-76610D01*
X89228Y-76468D01*
X89165Y-76343D01*
X88853Y-76221D01*
X88795Y-76222D01*
X88795Y-46800D01*
X88795Y-46652D01*
X88795Y-46552D01*
X88795Y-46405D01*
X88734Y-46200D01*
X88600Y-46034D01*
X88412Y-45932D01*
X88384Y-45926D01*
X88300Y-45975D01*
X88300Y-46552D01*
X88795Y-46552D01*
X88795Y-46652D01*
X88300Y-46652D01*
X88300Y-47229D01*
X88384Y-47278D01*
X88412Y-47272D01*
X88600Y-47170D01*
X88734Y-47004D01*
X88795Y-46800D01*
X88795Y-76222D01*
X88695Y-76224D01*
X88695Y-48310D01*
X88695Y-47425D01*
X88672Y-47370D01*
X88630Y-47327D01*
X88574Y-47305D01*
X88515Y-47304D01*
X88200Y-47304D01*
X88200Y-47229D01*
X88200Y-46652D01*
X88200Y-46552D01*
X88200Y-45975D01*
X88115Y-45926D01*
X88087Y-45932D01*
X87899Y-46034D01*
X87765Y-46200D01*
X87705Y-46405D01*
X87705Y-46552D01*
X88200Y-46552D01*
X88200Y-46652D01*
X87705Y-46652D01*
X87705Y-46800D01*
X87765Y-47004D01*
X87899Y-47170D01*
X88087Y-47272D01*
X88115Y-47278D01*
X88200Y-47229D01*
X88200Y-47304D01*
X87925Y-47304D01*
X87870Y-47327D01*
X87827Y-47369D01*
X87805Y-47425D01*
X87804Y-47484D01*
X87804Y-48369D01*
X87827Y-48424D01*
X87869Y-48467D01*
X87925Y-48489D01*
X87984Y-48490D01*
X88574Y-48490D01*
X88629Y-48467D01*
X88672Y-48425D01*
X88694Y-48369D01*
X88695Y-48310D01*
X88695Y-76224D01*
X88519Y-76227D01*
X88240Y-76343D01*
X88177Y-76468D01*
X88702Y-76994D01*
X89228Y-76468D01*
X89228Y-76610D01*
X88773Y-77064D01*
X89298Y-77590D01*
X89424Y-77527D01*
X89488Y-77364D01*
X89556Y-77527D01*
X89681Y-77590D01*
X90206Y-77064D01*
X90206Y-77206D01*
X89752Y-77661D01*
X89815Y-77786D01*
X90126Y-77908D01*
X90460Y-77902D01*
X90739Y-77786D01*
X90802Y-77661D01*
X90802Y-82097D01*
X90746Y-82120D01*
X90372Y-82495D01*
X90169Y-82984D01*
X90168Y-83513D01*
X90370Y-84003D01*
X90567Y-84200D01*
X89228Y-84200D01*
X89228Y-77661D01*
X88702Y-77135D01*
X88632Y-77206D01*
X88632Y-77064D01*
X88175Y-76607D01*
X88175Y-69665D01*
X88110Y-69509D01*
X87991Y-69389D01*
X87834Y-69325D01*
X87665Y-69324D01*
X87509Y-69389D01*
X87389Y-69508D01*
X87345Y-69617D01*
X87345Y-69050D01*
X87345Y-68877D01*
X87345Y-68777D01*
X87345Y-68605D01*
X87280Y-68381D01*
X87135Y-68198D01*
X86931Y-68086D01*
X86892Y-68077D01*
X86800Y-68124D01*
X86800Y-68777D01*
X87345Y-68777D01*
X87345Y-68877D01*
X86800Y-68877D01*
X86800Y-69530D01*
X86892Y-69577D01*
X86931Y-69568D01*
X87135Y-69456D01*
X87280Y-69273D01*
X87345Y-69050D01*
X87345Y-69617D01*
X87325Y-69665D01*
X87324Y-69834D01*
X87389Y-69990D01*
X87508Y-70110D01*
X87665Y-70174D01*
X87834Y-70175D01*
X87990Y-70110D01*
X88110Y-69991D01*
X88174Y-69834D01*
X88175Y-69665D01*
X88175Y-76607D01*
X88106Y-76539D01*
X87981Y-76602D01*
X87859Y-76913D01*
X87865Y-77248D01*
X87981Y-77527D01*
X88106Y-77590D01*
X88632Y-77064D01*
X88632Y-77206D01*
X88177Y-77661D01*
X88240Y-77786D01*
X88551Y-77908D01*
X88885Y-77902D01*
X89165Y-77786D01*
X89228Y-77661D01*
X89228Y-84200D01*
X89090Y-84200D01*
X89090Y-83565D01*
X89090Y-82875D01*
X89067Y-82820D01*
X89025Y-82777D01*
X88969Y-82755D01*
X88910Y-82754D01*
X87875Y-82754D01*
X87820Y-82777D01*
X87777Y-82819D01*
X87755Y-82875D01*
X87754Y-82934D01*
X87754Y-83234D01*
X87720Y-83060D01*
X87613Y-82899D01*
X87452Y-82792D01*
X87295Y-82761D01*
X87295Y-79845D01*
X87295Y-79697D01*
X87295Y-79597D01*
X87295Y-79450D01*
X87234Y-79245D01*
X87100Y-79079D01*
X86912Y-78977D01*
X86884Y-78971D01*
X86800Y-79020D01*
X86800Y-79597D01*
X87295Y-79597D01*
X87295Y-79697D01*
X86800Y-79697D01*
X86800Y-80274D01*
X86884Y-80323D01*
X86912Y-80317D01*
X87100Y-80215D01*
X87234Y-80049D01*
X87295Y-79845D01*
X87295Y-82761D01*
X87263Y-82755D01*
X86891Y-82755D01*
X86702Y-82792D01*
X86700Y-82794D01*
X86700Y-80274D01*
X86700Y-79697D01*
X86700Y-79597D01*
X86700Y-79020D01*
X86700Y-69530D01*
X86700Y-68877D01*
X86692Y-68877D01*
X86692Y-68777D01*
X86700Y-68777D01*
X86700Y-68124D01*
X86607Y-68077D01*
X86568Y-68086D01*
X86364Y-68198D01*
X86245Y-68349D01*
X86245Y-47608D01*
X86245Y-47236D01*
X86207Y-47047D01*
X86100Y-46886D01*
X85939Y-46779D01*
X85750Y-46741D01*
X85560Y-46779D01*
X85399Y-46886D01*
X85298Y-47038D01*
X85280Y-46976D01*
X85135Y-46793D01*
X84931Y-46681D01*
X84892Y-46672D01*
X84800Y-46719D01*
X84800Y-47372D01*
X84807Y-47372D01*
X84807Y-47472D01*
X84800Y-47472D01*
X84800Y-48125D01*
X84892Y-48172D01*
X84931Y-48163D01*
X85135Y-48051D01*
X85280Y-47868D01*
X85298Y-47806D01*
X85399Y-47958D01*
X85560Y-48065D01*
X85750Y-48103D01*
X85939Y-48065D01*
X86100Y-47958D01*
X86207Y-47797D01*
X86245Y-47608D01*
X86245Y-68349D01*
X86219Y-68381D01*
X86201Y-68443D01*
X86100Y-68291D01*
X85939Y-68184D01*
X85750Y-68146D01*
X85560Y-68184D01*
X85399Y-68291D01*
X85292Y-68452D01*
X85255Y-68641D01*
X85255Y-69013D01*
X85292Y-69202D01*
X85399Y-69363D01*
X85560Y-69470D01*
X85750Y-69508D01*
X85939Y-69470D01*
X86100Y-69363D01*
X86201Y-69211D01*
X86219Y-69273D01*
X86364Y-69456D01*
X86568Y-69568D01*
X86607Y-69577D01*
X86700Y-69530D01*
X86700Y-79020D01*
X86615Y-78971D01*
X86587Y-78977D01*
X86399Y-79079D01*
X86265Y-79245D01*
X86250Y-79298D01*
X86234Y-79245D01*
X86100Y-79079D01*
X85912Y-78977D01*
X85884Y-78971D01*
X85800Y-79020D01*
X85800Y-79597D01*
X86205Y-79597D01*
X86295Y-79597D01*
X86700Y-79597D01*
X86700Y-79697D01*
X86295Y-79697D01*
X86205Y-79697D01*
X85800Y-79697D01*
X85800Y-80274D01*
X85884Y-80323D01*
X85912Y-80317D01*
X86100Y-80215D01*
X86234Y-80049D01*
X86250Y-79996D01*
X86265Y-80049D01*
X86399Y-80215D01*
X86587Y-80317D01*
X86615Y-80323D01*
X86700Y-80274D01*
X86700Y-82794D01*
X86541Y-82899D01*
X86434Y-83060D01*
X86426Y-83099D01*
X86422Y-83079D01*
X86326Y-82935D01*
X86181Y-82838D01*
X86011Y-82805D01*
X85700Y-82805D01*
X85700Y-80274D01*
X85700Y-79697D01*
X85700Y-79597D01*
X85700Y-79020D01*
X85615Y-78971D01*
X85587Y-78977D01*
X85399Y-79079D01*
X85265Y-79245D01*
X85245Y-79314D01*
X85245Y-69315D01*
X85245Y-68280D01*
X85222Y-68225D01*
X85180Y-68182D01*
X85124Y-68160D01*
X85065Y-68159D01*
X84700Y-68159D01*
X84700Y-48125D01*
X84700Y-47472D01*
X84692Y-47472D01*
X84692Y-47372D01*
X84700Y-47372D01*
X84700Y-46719D01*
X84607Y-46672D01*
X84568Y-46681D01*
X84364Y-46793D01*
X84245Y-46943D01*
X84245Y-46875D01*
X84222Y-46820D01*
X84180Y-46777D01*
X84124Y-46755D01*
X84065Y-46754D01*
X83375Y-46754D01*
X83320Y-46777D01*
X83277Y-46819D01*
X83255Y-46875D01*
X83254Y-46934D01*
X83254Y-47969D01*
X83277Y-48024D01*
X83319Y-48067D01*
X83375Y-48089D01*
X83434Y-48090D01*
X84124Y-48090D01*
X84179Y-48067D01*
X84222Y-48025D01*
X84244Y-47969D01*
X84245Y-47910D01*
X84245Y-47901D01*
X84364Y-48051D01*
X84568Y-48163D01*
X84607Y-48172D01*
X84700Y-48125D01*
X84700Y-68159D01*
X84375Y-68159D01*
X84320Y-68182D01*
X84277Y-68224D01*
X84255Y-68280D01*
X84254Y-68339D01*
X84254Y-69374D01*
X84277Y-69429D01*
X84319Y-69472D01*
X84375Y-69494D01*
X84434Y-69495D01*
X85124Y-69495D01*
X85179Y-69472D01*
X85222Y-69430D01*
X85244Y-69374D01*
X85245Y-69315D01*
X85245Y-79314D01*
X85205Y-79450D01*
X85205Y-79597D01*
X85700Y-79597D01*
X85700Y-79697D01*
X85205Y-79697D01*
X85205Y-79845D01*
X85265Y-80049D01*
X85399Y-80215D01*
X85587Y-80317D01*
X85615Y-80323D01*
X85700Y-80274D01*
X85700Y-82805D01*
X85693Y-82805D01*
X85523Y-82838D01*
X85378Y-82935D01*
X85282Y-83079D01*
X85248Y-83250D01*
X85282Y-83420D01*
X85378Y-83564D01*
X85523Y-83661D01*
X85693Y-83695D01*
X86011Y-83695D01*
X86181Y-83661D01*
X86326Y-83564D01*
X86422Y-83420D01*
X86426Y-83400D01*
X86434Y-83439D01*
X86541Y-83600D01*
X86702Y-83707D01*
X86891Y-83745D01*
X87263Y-83745D01*
X87452Y-83707D01*
X87613Y-83600D01*
X87720Y-83439D01*
X87754Y-83265D01*
X87754Y-83624D01*
X87777Y-83679D01*
X87819Y-83722D01*
X87875Y-83744D01*
X87934Y-83745D01*
X88969Y-83745D01*
X89024Y-83722D01*
X89067Y-83680D01*
X89089Y-83624D01*
X89090Y-83565D01*
X89090Y-84200D01*
X85195Y-84200D01*
X85195Y-80060D01*
X85195Y-79175D01*
X85172Y-79120D01*
X85130Y-79077D01*
X85074Y-79055D01*
X85015Y-79054D01*
X84425Y-79054D01*
X84370Y-79077D01*
X84327Y-79119D01*
X84305Y-79175D01*
X84304Y-79234D01*
X84304Y-80119D01*
X84327Y-80174D01*
X84369Y-80217D01*
X84425Y-80239D01*
X84484Y-80240D01*
X85074Y-80240D01*
X85129Y-80217D01*
X85172Y-80175D01*
X85194Y-80119D01*
X85195Y-80060D01*
X85195Y-84200D01*
X83845Y-84200D01*
X83845Y-53045D01*
X83845Y-52454D01*
X83844Y-52355D01*
X83806Y-52263D01*
X83736Y-52192D01*
X83644Y-52154D01*
X83190Y-52155D01*
X83127Y-52217D01*
X83127Y-52700D01*
X83782Y-52700D01*
X83845Y-52637D01*
X83845Y-52454D01*
X83845Y-53045D01*
X83845Y-52862D01*
X83782Y-52800D01*
X83127Y-52800D01*
X83127Y-52807D01*
X83027Y-52807D01*
X83027Y-52800D01*
X83027Y-52700D01*
X83027Y-52217D01*
X82965Y-52155D01*
X82510Y-52154D01*
X82418Y-52192D01*
X82348Y-52263D01*
X82310Y-52355D01*
X82309Y-52454D01*
X82310Y-52637D01*
X82372Y-52700D01*
X83027Y-52700D01*
X83027Y-52800D01*
X82372Y-52800D01*
X82310Y-52862D01*
X82309Y-53045D01*
X82310Y-53144D01*
X82348Y-53236D01*
X82418Y-53307D01*
X82510Y-53345D01*
X82624Y-53345D01*
X82541Y-53399D01*
X82434Y-53560D01*
X82396Y-53750D01*
X82434Y-53939D01*
X82541Y-54100D01*
X82702Y-54207D01*
X82891Y-54245D01*
X83263Y-54245D01*
X83452Y-54207D01*
X83613Y-54100D01*
X83720Y-53939D01*
X83758Y-53750D01*
X83720Y-53560D01*
X83613Y-53399D01*
X83530Y-53345D01*
X83644Y-53345D01*
X83736Y-53307D01*
X83806Y-53236D01*
X83844Y-53144D01*
X83845Y-53045D01*
X83845Y-84200D01*
X83758Y-84200D01*
X83758Y-54750D01*
X83720Y-54560D01*
X83613Y-54399D01*
X83452Y-54292D01*
X83263Y-54255D01*
X82891Y-54255D01*
X82702Y-54292D01*
X82541Y-54399D01*
X82434Y-54560D01*
X82396Y-54750D01*
X82434Y-54939D01*
X82541Y-55100D01*
X82702Y-55207D01*
X82891Y-55245D01*
X83263Y-55245D01*
X83452Y-55207D01*
X83613Y-55100D01*
X83720Y-54939D01*
X83758Y-54750D01*
X83758Y-84200D01*
X83537Y-84200D01*
X83537Y-76918D01*
X83425Y-76646D01*
X83217Y-76437D01*
X82945Y-76324D01*
X82795Y-76324D01*
X82795Y-57845D01*
X82795Y-57697D01*
X82795Y-57597D01*
X82795Y-57450D01*
X82734Y-57245D01*
X82695Y-57196D01*
X82695Y-56765D01*
X82695Y-55880D01*
X82672Y-55825D01*
X82630Y-55782D01*
X82574Y-55760D01*
X82515Y-55759D01*
X82279Y-55759D01*
X82279Y-48325D01*
X82268Y-48117D01*
X82210Y-47977D01*
X82175Y-47967D01*
X82175Y-46165D01*
X82110Y-46009D01*
X81991Y-45889D01*
X81834Y-45825D01*
X81665Y-45824D01*
X81509Y-45889D01*
X81389Y-46008D01*
X81325Y-46165D01*
X81324Y-46334D01*
X81389Y-46490D01*
X81508Y-46610D01*
X81665Y-46674D01*
X81834Y-46675D01*
X81990Y-46610D01*
X82110Y-46491D01*
X82174Y-46334D01*
X82175Y-46165D01*
X82175Y-47967D01*
X82117Y-47952D01*
X82047Y-48023D01*
X82047Y-47882D01*
X82022Y-47789D01*
X81825Y-47720D01*
X81617Y-47731D01*
X81477Y-47789D01*
X81452Y-47882D01*
X81750Y-48179D01*
X82047Y-47882D01*
X82047Y-48023D01*
X81820Y-48250D01*
X82117Y-48547D01*
X82210Y-48522D01*
X82279Y-48325D01*
X82279Y-55759D01*
X82047Y-55759D01*
X82047Y-48617D01*
X81750Y-48320D01*
X81679Y-48391D01*
X81679Y-48250D01*
X81382Y-47952D01*
X81289Y-47977D01*
X81220Y-48174D01*
X81231Y-48382D01*
X81289Y-48522D01*
X81382Y-48547D01*
X81679Y-48250D01*
X81679Y-48391D01*
X81452Y-48617D01*
X81477Y-48710D01*
X81674Y-48779D01*
X81882Y-48768D01*
X82022Y-48710D01*
X82047Y-48617D01*
X82047Y-55759D01*
X81925Y-55759D01*
X81870Y-55782D01*
X81827Y-55824D01*
X81805Y-55880D01*
X81804Y-55939D01*
X81804Y-56824D01*
X81827Y-56879D01*
X81869Y-56922D01*
X81925Y-56944D01*
X81984Y-56945D01*
X82574Y-56945D01*
X82629Y-56922D01*
X82672Y-56880D01*
X82694Y-56824D01*
X82695Y-56765D01*
X82695Y-57196D01*
X82600Y-57079D01*
X82412Y-56977D01*
X82384Y-56971D01*
X82300Y-57020D01*
X82300Y-57597D01*
X82795Y-57597D01*
X82795Y-57697D01*
X82300Y-57697D01*
X82300Y-58274D01*
X82384Y-58323D01*
X82412Y-58317D01*
X82600Y-58215D01*
X82734Y-58049D01*
X82795Y-57845D01*
X82795Y-76324D01*
X82650Y-76324D01*
X82378Y-76436D01*
X82200Y-76614D01*
X82200Y-58274D01*
X82200Y-57697D01*
X82200Y-57597D01*
X82200Y-57020D01*
X82115Y-56971D01*
X82087Y-56977D01*
X81899Y-57079D01*
X81765Y-57245D01*
X81705Y-57450D01*
X81705Y-57597D01*
X82200Y-57597D01*
X82200Y-57697D01*
X81705Y-57697D01*
X81705Y-57845D01*
X81765Y-58049D01*
X81899Y-58215D01*
X82087Y-58317D01*
X82115Y-58323D01*
X82200Y-58274D01*
X82200Y-76614D01*
X82169Y-76644D01*
X82056Y-76917D01*
X82056Y-77211D01*
X82169Y-77483D01*
X82377Y-77692D01*
X82649Y-77805D01*
X82943Y-77805D01*
X83216Y-77693D01*
X83424Y-77484D01*
X83537Y-77212D01*
X83537Y-76918D01*
X83537Y-84200D01*
X82823Y-84200D01*
X82823Y-83384D01*
X82823Y-83115D01*
X82817Y-83087D01*
X82715Y-82899D01*
X82549Y-82765D01*
X82345Y-82705D01*
X82197Y-82705D01*
X82197Y-83200D01*
X82774Y-83200D01*
X82823Y-83115D01*
X82823Y-83384D01*
X82774Y-83300D01*
X82197Y-83300D01*
X82197Y-83795D01*
X82345Y-83795D01*
X82549Y-83734D01*
X82715Y-83600D01*
X82817Y-83412D01*
X82823Y-83384D01*
X82823Y-84200D01*
X82097Y-84200D01*
X82097Y-83795D01*
X82097Y-83300D01*
X82097Y-83200D01*
X82097Y-82705D01*
X81963Y-82705D01*
X81963Y-76918D01*
X81850Y-76646D01*
X81642Y-76437D01*
X81370Y-76324D01*
X81075Y-76324D01*
X81030Y-76343D01*
X81030Y-65845D01*
X80911Y-65558D01*
X80692Y-65339D01*
X80405Y-65220D01*
X80195Y-65220D01*
X80195Y-55761D01*
X80195Y-55443D01*
X80195Y-52056D01*
X80195Y-51738D01*
X80161Y-51568D01*
X80064Y-51423D01*
X79920Y-51327D01*
X79750Y-51293D01*
X79579Y-51327D01*
X79435Y-51423D01*
X79338Y-51568D01*
X79305Y-51738D01*
X79305Y-52056D01*
X79338Y-52226D01*
X79435Y-52371D01*
X79579Y-52467D01*
X79750Y-52501D01*
X79920Y-52467D01*
X80064Y-52371D01*
X80161Y-52226D01*
X80195Y-52056D01*
X80195Y-55443D01*
X80161Y-55273D01*
X80064Y-55128D01*
X79920Y-55032D01*
X79750Y-54998D01*
X79579Y-55032D01*
X79435Y-55128D01*
X79338Y-55273D01*
X79305Y-55443D01*
X79305Y-55761D01*
X79338Y-55931D01*
X79435Y-56076D01*
X79579Y-56172D01*
X79750Y-56206D01*
X79920Y-56172D01*
X80064Y-56076D01*
X80161Y-55931D01*
X80195Y-55761D01*
X80195Y-65220D01*
X80095Y-65219D01*
X79808Y-65338D01*
X79589Y-65557D01*
X79470Y-65844D01*
X79469Y-66154D01*
X79588Y-66441D01*
X79807Y-66660D01*
X80094Y-66779D01*
X80404Y-66780D01*
X80691Y-66661D01*
X80910Y-66442D01*
X81029Y-66155D01*
X81030Y-65845D01*
X81030Y-76343D01*
X80821Y-76429D01*
X80821Y-71595D01*
X80702Y-71308D01*
X80483Y-71089D01*
X80197Y-70970D01*
X80073Y-70970D01*
X80073Y-69134D01*
X80073Y-68865D01*
X80067Y-68837D01*
X79965Y-68649D01*
X79799Y-68515D01*
X79595Y-68455D01*
X79447Y-68455D01*
X79447Y-68950D01*
X80024Y-68950D01*
X80073Y-68865D01*
X80073Y-69134D01*
X80024Y-69050D01*
X79447Y-69050D01*
X79447Y-69545D01*
X79595Y-69545D01*
X79799Y-69484D01*
X79965Y-69350D01*
X80067Y-69162D01*
X80073Y-69134D01*
X80073Y-70970D01*
X79886Y-70969D01*
X79600Y-71088D01*
X79380Y-71307D01*
X79347Y-71387D01*
X79347Y-69545D01*
X79347Y-69050D01*
X79347Y-68950D01*
X79347Y-68455D01*
X79200Y-68455D01*
X79195Y-68456D01*
X79195Y-52515D01*
X79195Y-51630D01*
X79172Y-51575D01*
X79130Y-51532D01*
X79074Y-51510D01*
X79015Y-51509D01*
X78425Y-51509D01*
X78370Y-51532D01*
X78327Y-51574D01*
X78305Y-51630D01*
X78304Y-51689D01*
X78304Y-52574D01*
X78327Y-52629D01*
X78369Y-52672D01*
X78425Y-52694D01*
X78484Y-52695D01*
X79074Y-52695D01*
X79129Y-52672D01*
X79172Y-52630D01*
X79194Y-52574D01*
X79195Y-52515D01*
X79195Y-68456D01*
X79195Y-68456D01*
X79195Y-55556D01*
X79195Y-55238D01*
X79161Y-55068D01*
X79064Y-54923D01*
X78920Y-54827D01*
X78750Y-54793D01*
X78579Y-54827D01*
X78435Y-54923D01*
X78338Y-55068D01*
X78305Y-55238D01*
X78305Y-55556D01*
X78338Y-55726D01*
X78435Y-55871D01*
X78579Y-55967D01*
X78750Y-56001D01*
X78920Y-55967D01*
X79064Y-55871D01*
X79161Y-55726D01*
X79195Y-55556D01*
X79195Y-68456D01*
X78995Y-68515D01*
X78829Y-68649D01*
X78727Y-68837D01*
X78721Y-68865D01*
X78770Y-68950D01*
X79347Y-68950D01*
X79347Y-69050D01*
X78770Y-69050D01*
X78721Y-69134D01*
X78727Y-69162D01*
X78829Y-69350D01*
X78995Y-69484D01*
X79200Y-69545D01*
X79347Y-69545D01*
X79347Y-71387D01*
X79261Y-71594D01*
X79261Y-71904D01*
X79379Y-72191D01*
X79598Y-72410D01*
X79885Y-72529D01*
X80195Y-72530D01*
X80482Y-72411D01*
X80702Y-72192D01*
X80821Y-71905D01*
X80821Y-71595D01*
X80821Y-76429D01*
X80803Y-76436D01*
X80594Y-76644D01*
X80482Y-76917D01*
X80481Y-77211D01*
X80594Y-77483D01*
X80802Y-77692D01*
X81074Y-77805D01*
X81369Y-77805D01*
X81641Y-77693D01*
X81849Y-77484D01*
X81962Y-77212D01*
X81963Y-76918D01*
X81963Y-82705D01*
X81950Y-82705D01*
X81745Y-82765D01*
X81579Y-82899D01*
X81477Y-83087D01*
X81471Y-83115D01*
X81520Y-83200D01*
X82097Y-83200D01*
X82097Y-83300D01*
X81520Y-83300D01*
X81471Y-83384D01*
X81477Y-83412D01*
X81579Y-83600D01*
X81745Y-83734D01*
X81950Y-83795D01*
X82097Y-83795D01*
X82097Y-84200D01*
X77386Y-84200D01*
X78103Y-83904D01*
X78652Y-83356D01*
X78949Y-82639D01*
X78950Y-81863D01*
X78695Y-81245D01*
X78695Y-69265D01*
X78695Y-68675D01*
X78672Y-68620D01*
X78630Y-68577D01*
X78574Y-68555D01*
X78515Y-68554D01*
X78195Y-68554D01*
X78195Y-52515D01*
X78195Y-51630D01*
X78172Y-51575D01*
X78130Y-51532D01*
X78074Y-51510D01*
X78015Y-51509D01*
X77425Y-51509D01*
X77370Y-51532D01*
X77327Y-51574D01*
X77305Y-51630D01*
X77304Y-51689D01*
X77304Y-52574D01*
X77327Y-52629D01*
X77369Y-52672D01*
X77425Y-52694D01*
X77484Y-52695D01*
X78074Y-52695D01*
X78129Y-52672D01*
X78172Y-52630D01*
X78194Y-52574D01*
X78195Y-52515D01*
X78195Y-68554D01*
X78195Y-68554D01*
X78195Y-55556D01*
X78195Y-55238D01*
X78161Y-55068D01*
X78064Y-54923D01*
X77920Y-54827D01*
X77750Y-54793D01*
X77579Y-54827D01*
X77435Y-54923D01*
X77384Y-55000D01*
X76853Y-55000D01*
X76426Y-54573D01*
X76345Y-54519D01*
X76250Y-54500D01*
X75603Y-54500D01*
X75603Y-53750D01*
X75603Y-52750D01*
X75565Y-52560D01*
X75458Y-52399D01*
X75297Y-52292D01*
X75108Y-52255D01*
X74736Y-52255D01*
X74547Y-52292D01*
X74386Y-52399D01*
X74279Y-52560D01*
X74241Y-52750D01*
X74279Y-52939D01*
X74386Y-53100D01*
X74547Y-53207D01*
X74736Y-53245D01*
X75108Y-53245D01*
X75297Y-53207D01*
X75458Y-53100D01*
X75565Y-52939D01*
X75603Y-52750D01*
X75603Y-53750D01*
X75565Y-53560D01*
X75458Y-53399D01*
X75297Y-53292D01*
X75108Y-53255D01*
X74736Y-53255D01*
X74547Y-53292D01*
X74386Y-53399D01*
X74279Y-53560D01*
X74241Y-53750D01*
X74279Y-53939D01*
X74386Y-54100D01*
X74547Y-54207D01*
X74736Y-54245D01*
X75108Y-54245D01*
X75297Y-54207D01*
X75458Y-54100D01*
X75565Y-53939D01*
X75603Y-53750D01*
X75603Y-54500D01*
X75590Y-54500D01*
X75590Y-54375D01*
X75567Y-54320D01*
X75525Y-54277D01*
X75469Y-54255D01*
X75410Y-54254D01*
X74375Y-54254D01*
X74320Y-54277D01*
X74277Y-54319D01*
X74255Y-54375D01*
X74254Y-54434D01*
X74254Y-55124D01*
X74277Y-55179D01*
X74319Y-55222D01*
X74375Y-55244D01*
X74434Y-55245D01*
X75469Y-55245D01*
X75524Y-55222D01*
X75567Y-55180D01*
X75589Y-55124D01*
X75590Y-55065D01*
X75590Y-55000D01*
X76146Y-55000D01*
X76573Y-55426D01*
X76654Y-55480D01*
X76750Y-55500D01*
X77305Y-55500D01*
X77305Y-55556D01*
X77338Y-55726D01*
X77435Y-55871D01*
X77579Y-55967D01*
X77750Y-56001D01*
X77920Y-55967D01*
X78064Y-55871D01*
X78161Y-55726D01*
X78195Y-55556D01*
X78195Y-68554D01*
X77630Y-68554D01*
X77575Y-68577D01*
X77532Y-68619D01*
X77510Y-68675D01*
X77509Y-68734D01*
X77509Y-69324D01*
X77532Y-69379D01*
X77574Y-69422D01*
X77630Y-69444D01*
X77689Y-69445D01*
X78574Y-69445D01*
X78629Y-69422D01*
X78672Y-69380D01*
X78694Y-69324D01*
X78695Y-69265D01*
X78695Y-81245D01*
X78654Y-81146D01*
X78106Y-80597D01*
X77839Y-80487D01*
X77839Y-72833D01*
X77839Y-70963D01*
X77711Y-70655D01*
X77475Y-70419D01*
X77167Y-70291D01*
X76833Y-70290D01*
X76525Y-70418D01*
X76289Y-70654D01*
X76161Y-70962D01*
X76160Y-71296D01*
X76288Y-71604D01*
X76524Y-71840D01*
X76832Y-71968D01*
X77166Y-71969D01*
X77474Y-71841D01*
X77710Y-71605D01*
X77838Y-71297D01*
X77839Y-70963D01*
X77839Y-72833D01*
X77711Y-72525D01*
X77475Y-72289D01*
X77167Y-72161D01*
X76833Y-72160D01*
X76525Y-72288D01*
X76289Y-72524D01*
X76161Y-72832D01*
X76160Y-73166D01*
X76288Y-73474D01*
X76524Y-73710D01*
X76832Y-73838D01*
X77166Y-73839D01*
X77474Y-73711D01*
X77710Y-73475D01*
X77838Y-73167D01*
X77839Y-72833D01*
X77839Y-80487D01*
X77839Y-80486D01*
X77839Y-75529D01*
X77839Y-74151D01*
X77816Y-74096D01*
X77774Y-74054D01*
X77718Y-74031D01*
X77659Y-74031D01*
X76281Y-74031D01*
X76226Y-74053D01*
X76183Y-74096D01*
X76161Y-74151D01*
X76160Y-74210D01*
X76160Y-75588D01*
X76183Y-75643D01*
X76225Y-75686D01*
X76281Y-75709D01*
X76340Y-75709D01*
X77718Y-75709D01*
X77773Y-75686D01*
X77816Y-75644D01*
X77838Y-75589D01*
X77839Y-75529D01*
X77839Y-80486D01*
X77389Y-80300D01*
X76613Y-80299D01*
X75896Y-80595D01*
X75347Y-81143D01*
X75050Y-81860D01*
X75049Y-82636D01*
X75345Y-83353D01*
X75893Y-83902D01*
X76610Y-84199D01*
X76999Y-84200D01*
X74200Y-84200D01*
X74200Y-58561D01*
X74200Y-48561D01*
X74055Y-48212D01*
X73788Y-47945D01*
X73439Y-47800D01*
X73061Y-47799D01*
X72712Y-47944D01*
X72445Y-48211D01*
X72300Y-48560D01*
X72299Y-48938D01*
X72444Y-49287D01*
X72711Y-49554D01*
X73060Y-49699D01*
X73438Y-49700D01*
X73787Y-49555D01*
X74054Y-49288D01*
X74199Y-48939D01*
X74200Y-48561D01*
X74200Y-58561D01*
X74055Y-58212D01*
X73788Y-57945D01*
X73439Y-57800D01*
X73061Y-57799D01*
X72712Y-57944D01*
X72445Y-58211D01*
X72300Y-58560D01*
X72299Y-58938D01*
X72444Y-59287D01*
X72711Y-59554D01*
X73060Y-59699D01*
X73438Y-59700D01*
X73787Y-59555D01*
X74054Y-59288D01*
X74199Y-58939D01*
X74200Y-58561D01*
X74200Y-84200D01*
X72508Y-84200D01*
X72508Y-77250D01*
X72508Y-75750D01*
X72508Y-74250D01*
X72508Y-72750D01*
X72470Y-72560D01*
X72363Y-72399D01*
X72258Y-72329D01*
X72258Y-54750D01*
X72220Y-54560D01*
X72113Y-54399D01*
X71952Y-54292D01*
X71763Y-54255D01*
X71391Y-54255D01*
X71202Y-54292D01*
X71041Y-54399D01*
X70934Y-54560D01*
X70896Y-54750D01*
X70934Y-54939D01*
X71041Y-55100D01*
X71202Y-55207D01*
X71391Y-55245D01*
X71763Y-55245D01*
X71952Y-55207D01*
X72113Y-55100D01*
X72220Y-54939D01*
X72258Y-54750D01*
X72258Y-72329D01*
X72202Y-72292D01*
X72013Y-72255D01*
X71641Y-72255D01*
X71452Y-72292D01*
X71291Y-72399D01*
X71184Y-72560D01*
X71146Y-72750D01*
X71184Y-72939D01*
X71291Y-73100D01*
X71452Y-73207D01*
X71641Y-73245D01*
X72013Y-73245D01*
X72202Y-73207D01*
X72363Y-73100D01*
X72470Y-72939D01*
X72508Y-72750D01*
X72508Y-74250D01*
X72470Y-74060D01*
X72363Y-73899D01*
X72202Y-73792D01*
X72013Y-73755D01*
X71641Y-73755D01*
X71452Y-73792D01*
X71291Y-73899D01*
X71184Y-74060D01*
X71146Y-74250D01*
X71184Y-74439D01*
X71291Y-74600D01*
X71452Y-74707D01*
X71641Y-74745D01*
X72013Y-74745D01*
X72202Y-74707D01*
X72363Y-74600D01*
X72470Y-74439D01*
X72508Y-74250D01*
X72508Y-75750D01*
X72470Y-75560D01*
X72363Y-75399D01*
X72202Y-75292D01*
X72013Y-75255D01*
X71641Y-75255D01*
X71452Y-75292D01*
X71291Y-75399D01*
X71184Y-75560D01*
X71146Y-75750D01*
X71184Y-75939D01*
X71291Y-76100D01*
X71452Y-76207D01*
X71641Y-76245D01*
X72013Y-76245D01*
X72202Y-76207D01*
X72363Y-76100D01*
X72470Y-75939D01*
X72508Y-75750D01*
X72508Y-77250D01*
X72470Y-77060D01*
X72363Y-76899D01*
X72202Y-76792D01*
X72013Y-76755D01*
X71641Y-76755D01*
X71452Y-76792D01*
X71291Y-76899D01*
X71184Y-77060D01*
X71146Y-77250D01*
X71184Y-77439D01*
X71291Y-77600D01*
X71452Y-77707D01*
X71641Y-77745D01*
X72013Y-77745D01*
X72202Y-77707D01*
X72363Y-77600D01*
X72470Y-77439D01*
X72508Y-77250D01*
X72508Y-84200D01*
X69886Y-84200D01*
X70603Y-83904D01*
X71152Y-83356D01*
X71449Y-82639D01*
X71450Y-81863D01*
X71154Y-81146D01*
X70990Y-80982D01*
X70990Y-70515D01*
X70990Y-69925D01*
X70967Y-69870D01*
X70925Y-69827D01*
X70869Y-69805D01*
X70810Y-69804D01*
X70175Y-69804D01*
X70175Y-56165D01*
X70110Y-56009D01*
X69991Y-55889D01*
X69834Y-55825D01*
X69665Y-55824D01*
X69509Y-55889D01*
X69389Y-56008D01*
X69325Y-56165D01*
X69324Y-56334D01*
X69389Y-56490D01*
X69508Y-56610D01*
X69665Y-56674D01*
X69834Y-56675D01*
X69990Y-56610D01*
X70110Y-56491D01*
X70174Y-56334D01*
X70175Y-56165D01*
X70175Y-69804D01*
X69925Y-69804D01*
X69870Y-69827D01*
X69827Y-69869D01*
X69805Y-69925D01*
X69804Y-69984D01*
X69804Y-70574D01*
X69827Y-70629D01*
X69869Y-70672D01*
X69925Y-70694D01*
X69984Y-70695D01*
X70869Y-70695D01*
X70924Y-70672D01*
X70967Y-70630D01*
X70989Y-70574D01*
X70990Y-70515D01*
X70990Y-80982D01*
X70606Y-80597D01*
X69889Y-80300D01*
X69778Y-80300D01*
X69778Y-70384D01*
X69778Y-70115D01*
X69772Y-70087D01*
X69670Y-69899D01*
X69504Y-69765D01*
X69300Y-69705D01*
X69152Y-69705D01*
X69152Y-70200D01*
X69729Y-70200D01*
X69778Y-70115D01*
X69778Y-70384D01*
X69729Y-70300D01*
X69152Y-70300D01*
X69152Y-70795D01*
X69300Y-70795D01*
X69504Y-70734D01*
X69670Y-70600D01*
X69772Y-70412D01*
X69778Y-70384D01*
X69778Y-80300D01*
X69113Y-80299D01*
X69052Y-80325D01*
X69052Y-70795D01*
X69052Y-70300D01*
X69052Y-70200D01*
X69052Y-69705D01*
X68905Y-69705D01*
X68700Y-69765D01*
X68534Y-69899D01*
X68432Y-70087D01*
X68426Y-70115D01*
X68475Y-70200D01*
X69052Y-70200D01*
X69052Y-70300D01*
X68475Y-70300D01*
X68426Y-70384D01*
X68432Y-70412D01*
X68534Y-70600D01*
X68700Y-70734D01*
X68905Y-70795D01*
X69052Y-70795D01*
X69052Y-80325D01*
X68396Y-80595D01*
X68279Y-80712D01*
X68279Y-56325D01*
X68268Y-56117D01*
X68210Y-55977D01*
X68117Y-55952D01*
X67820Y-56250D01*
X68117Y-56547D01*
X68210Y-56522D01*
X68279Y-56325D01*
X68279Y-80712D01*
X68047Y-80945D01*
X68047Y-56617D01*
X67750Y-56320D01*
X67452Y-56617D01*
X67477Y-56710D01*
X67674Y-56779D01*
X67882Y-56768D01*
X68022Y-56710D01*
X68047Y-56617D01*
X68047Y-80945D01*
X67853Y-81138D01*
X67853Y-77250D01*
X67853Y-75750D01*
X67853Y-74250D01*
X67853Y-72750D01*
X67815Y-72560D01*
X67708Y-72399D01*
X67547Y-72292D01*
X67358Y-72255D01*
X66986Y-72255D01*
X66797Y-72292D01*
X66636Y-72399D01*
X66529Y-72560D01*
X66491Y-72750D01*
X66529Y-72939D01*
X66636Y-73100D01*
X66797Y-73207D01*
X66986Y-73245D01*
X67358Y-73245D01*
X67547Y-73207D01*
X67708Y-73100D01*
X67815Y-72939D01*
X67853Y-72750D01*
X67853Y-74250D01*
X67815Y-74060D01*
X67708Y-73899D01*
X67547Y-73792D01*
X67358Y-73755D01*
X66986Y-73755D01*
X66797Y-73792D01*
X66636Y-73899D01*
X66529Y-74060D01*
X66491Y-74250D01*
X66529Y-74439D01*
X66636Y-74600D01*
X66797Y-74707D01*
X66986Y-74745D01*
X67358Y-74745D01*
X67547Y-74707D01*
X67708Y-74600D01*
X67815Y-74439D01*
X67853Y-74250D01*
X67853Y-75750D01*
X67815Y-75560D01*
X67708Y-75399D01*
X67547Y-75292D01*
X67358Y-75255D01*
X66986Y-75255D01*
X66797Y-75292D01*
X66636Y-75399D01*
X66529Y-75560D01*
X66491Y-75750D01*
X66529Y-75939D01*
X66636Y-76100D01*
X66797Y-76207D01*
X66986Y-76245D01*
X67358Y-76245D01*
X67547Y-76207D01*
X67708Y-76100D01*
X67815Y-75939D01*
X67853Y-75750D01*
X67853Y-77250D01*
X67815Y-77060D01*
X67708Y-76899D01*
X67547Y-76792D01*
X67358Y-76755D01*
X66986Y-76755D01*
X66797Y-76792D01*
X66636Y-76899D01*
X66529Y-77060D01*
X66491Y-77250D01*
X66529Y-77439D01*
X66636Y-77600D01*
X66797Y-77707D01*
X66986Y-77745D01*
X67358Y-77745D01*
X67547Y-77707D01*
X67708Y-77600D01*
X67815Y-77439D01*
X67853Y-77250D01*
X67853Y-81138D01*
X67847Y-81143D01*
X67550Y-81860D01*
X67549Y-82636D01*
X67845Y-83353D01*
X68393Y-83902D01*
X69110Y-84199D01*
X69499Y-84200D01*
X65550Y-84200D01*
X65550Y-71963D01*
X65649Y-72113D01*
X65810Y-72220D01*
X66000Y-72258D01*
X66189Y-72220D01*
X66350Y-72113D01*
X66457Y-71952D01*
X66495Y-71763D01*
X66495Y-71391D01*
X66495Y-67108D01*
X66495Y-66736D01*
X66457Y-66547D01*
X66350Y-66386D01*
X66189Y-66279D01*
X66000Y-66241D01*
X65810Y-66279D01*
X65649Y-66386D01*
X65542Y-66547D01*
X65505Y-66736D01*
X65505Y-67108D01*
X65542Y-67297D01*
X65649Y-67458D01*
X65810Y-67565D01*
X66000Y-67603D01*
X66189Y-67565D01*
X66350Y-67458D01*
X66457Y-67297D01*
X66495Y-67108D01*
X66495Y-71391D01*
X66457Y-71202D01*
X66350Y-71041D01*
X66189Y-70934D01*
X66000Y-70896D01*
X65810Y-70934D01*
X65649Y-71041D01*
X65542Y-71202D01*
X65505Y-71391D01*
X65505Y-71763D01*
X65542Y-71950D01*
X64957Y-71950D01*
X64995Y-71763D01*
X64995Y-71391D01*
X64995Y-67108D01*
X64995Y-66736D01*
X64957Y-66547D01*
X64850Y-66386D01*
X64689Y-66279D01*
X64500Y-66241D01*
X64310Y-66279D01*
X64149Y-66386D01*
X64042Y-66547D01*
X64005Y-66736D01*
X64005Y-67108D01*
X64042Y-67297D01*
X64149Y-67458D01*
X64310Y-67565D01*
X64500Y-67603D01*
X64689Y-67565D01*
X64850Y-67458D01*
X64957Y-67297D01*
X64995Y-67108D01*
X64995Y-71391D01*
X64957Y-71202D01*
X64850Y-71041D01*
X64689Y-70934D01*
X64500Y-70896D01*
X64310Y-70934D01*
X64149Y-71041D01*
X64042Y-71202D01*
X64005Y-71391D01*
X64005Y-71763D01*
X64042Y-71950D01*
X63457Y-71950D01*
X63495Y-71763D01*
X63495Y-71391D01*
X63495Y-67108D01*
X63495Y-66736D01*
X63457Y-66547D01*
X63350Y-66386D01*
X63189Y-66279D01*
X63000Y-66241D01*
X62810Y-66279D01*
X62649Y-66386D01*
X62542Y-66547D01*
X62505Y-66736D01*
X62505Y-67108D01*
X62542Y-67297D01*
X62649Y-67458D01*
X62810Y-67565D01*
X63000Y-67603D01*
X63189Y-67565D01*
X63350Y-67458D01*
X63457Y-67297D01*
X63495Y-67108D01*
X63495Y-71391D01*
X63457Y-71202D01*
X63350Y-71041D01*
X63189Y-70934D01*
X63000Y-70896D01*
X62810Y-70934D01*
X62649Y-71041D01*
X62542Y-71202D01*
X62505Y-71391D01*
X62505Y-71763D01*
X62542Y-71950D01*
X61957Y-71950D01*
X61995Y-71763D01*
X61995Y-71391D01*
X61995Y-67108D01*
X61995Y-66736D01*
X61957Y-66547D01*
X61850Y-66386D01*
X61689Y-66279D01*
X61500Y-66241D01*
X61310Y-66279D01*
X61149Y-66386D01*
X61042Y-66547D01*
X61005Y-66736D01*
X61005Y-67108D01*
X61042Y-67297D01*
X61149Y-67458D01*
X61310Y-67565D01*
X61500Y-67603D01*
X61689Y-67565D01*
X61850Y-67458D01*
X61957Y-67297D01*
X61995Y-67108D01*
X61995Y-71391D01*
X61957Y-71202D01*
X61850Y-71041D01*
X61689Y-70934D01*
X61500Y-70896D01*
X61310Y-70934D01*
X61149Y-71041D01*
X61042Y-71202D01*
X61005Y-71391D01*
X61005Y-71763D01*
X61042Y-71950D01*
X60457Y-71950D01*
X60495Y-71763D01*
X60495Y-71391D01*
X60495Y-67108D01*
X60495Y-66736D01*
X60457Y-66547D01*
X60350Y-66386D01*
X60189Y-66279D01*
X60000Y-66241D01*
X59810Y-66279D01*
X59649Y-66386D01*
X59542Y-66547D01*
X59505Y-66736D01*
X59505Y-67108D01*
X59542Y-67297D01*
X59649Y-67458D01*
X59810Y-67565D01*
X60000Y-67603D01*
X60189Y-67565D01*
X60350Y-67458D01*
X60457Y-67297D01*
X60495Y-67108D01*
X60495Y-71391D01*
X60457Y-71202D01*
X60350Y-71041D01*
X60189Y-70934D01*
X60000Y-70896D01*
X59810Y-70934D01*
X59649Y-71041D01*
X59542Y-71202D01*
X59505Y-71391D01*
X59505Y-71763D01*
X59542Y-71950D01*
X58899Y-71950D01*
X58911Y-71931D01*
X58945Y-71761D01*
X58945Y-71443D01*
X58945Y-68056D01*
X58945Y-67738D01*
X58911Y-67568D01*
X58814Y-67423D01*
X58670Y-67327D01*
X58500Y-67293D01*
X58329Y-67327D01*
X58185Y-67423D01*
X58088Y-67568D01*
X58055Y-67738D01*
X58055Y-68056D01*
X58088Y-68226D01*
X58185Y-68371D01*
X58329Y-68467D01*
X58500Y-68501D01*
X58670Y-68467D01*
X58814Y-68371D01*
X58911Y-68226D01*
X58945Y-68056D01*
X58945Y-71443D01*
X58911Y-71273D01*
X58814Y-71128D01*
X58670Y-71032D01*
X58500Y-70998D01*
X58329Y-71032D01*
X58185Y-71128D01*
X58088Y-71273D01*
X58055Y-71443D01*
X58055Y-71761D01*
X58088Y-71931D01*
X58100Y-71950D01*
X57899Y-71950D01*
X57911Y-71931D01*
X57945Y-71761D01*
X57945Y-71443D01*
X57945Y-68056D01*
X57945Y-67738D01*
X57911Y-67568D01*
X57814Y-67423D01*
X57670Y-67327D01*
X57500Y-67293D01*
X57329Y-67327D01*
X57185Y-67423D01*
X57088Y-67568D01*
X57055Y-67738D01*
X57055Y-68056D01*
X57088Y-68226D01*
X57185Y-68371D01*
X57329Y-68467D01*
X57500Y-68501D01*
X57670Y-68467D01*
X57814Y-68371D01*
X57911Y-68226D01*
X57945Y-68056D01*
X57945Y-71443D01*
X57911Y-71273D01*
X57814Y-71128D01*
X57670Y-71032D01*
X57500Y-70998D01*
X57329Y-71032D01*
X57185Y-71128D01*
X57088Y-71273D01*
X57055Y-71443D01*
X57055Y-71761D01*
X57088Y-71931D01*
X57100Y-71950D01*
X56899Y-71950D01*
X56911Y-71931D01*
X56945Y-71761D01*
X56945Y-71443D01*
X56945Y-68056D01*
X56945Y-67738D01*
X56911Y-67568D01*
X56814Y-67423D01*
X56670Y-67327D01*
X56500Y-67293D01*
X56329Y-67327D01*
X56185Y-67423D01*
X56088Y-67568D01*
X56055Y-67738D01*
X56055Y-68056D01*
X56088Y-68226D01*
X56185Y-68371D01*
X56329Y-68467D01*
X56500Y-68501D01*
X56670Y-68467D01*
X56814Y-68371D01*
X56911Y-68226D01*
X56945Y-68056D01*
X56945Y-71443D01*
X56911Y-71273D01*
X56814Y-71128D01*
X56670Y-71032D01*
X56500Y-70998D01*
X56329Y-71032D01*
X56185Y-71128D01*
X56088Y-71273D01*
X56055Y-71443D01*
X56055Y-71761D01*
X56088Y-71931D01*
X56100Y-71950D01*
X55900Y-71950D01*
X55900Y-67372D01*
X67286Y-55986D01*
X67220Y-56174D01*
X67231Y-56382D01*
X67289Y-56522D01*
X67382Y-56547D01*
X67679Y-56250D01*
X67673Y-56244D01*
X67744Y-56173D01*
X67750Y-56179D01*
X68047Y-55882D01*
X68022Y-55789D01*
X67825Y-55720D01*
X67617Y-55731D01*
X67487Y-55785D01*
X68511Y-54761D01*
X68622Y-54650D01*
X70000Y-54650D01*
X70344Y-54581D01*
X70636Y-54386D01*
X70827Y-54100D01*
X71041Y-54100D01*
X71041Y-54100D01*
X71202Y-54207D01*
X71391Y-54245D01*
X71763Y-54245D01*
X71952Y-54207D01*
X72113Y-54100D01*
X72220Y-53939D01*
X72258Y-53750D01*
X72245Y-53684D01*
X72245Y-53065D01*
X72245Y-52375D01*
X72222Y-52320D01*
X72180Y-52277D01*
X72124Y-52255D01*
X72065Y-52254D01*
X71030Y-52254D01*
X70975Y-52277D01*
X70932Y-52319D01*
X70910Y-52375D01*
X70909Y-52434D01*
X70909Y-53124D01*
X70932Y-53179D01*
X70974Y-53222D01*
X71030Y-53244D01*
X71089Y-53245D01*
X72124Y-53245D01*
X72179Y-53222D01*
X72222Y-53180D01*
X72244Y-53124D01*
X72245Y-53065D01*
X72245Y-53684D01*
X72220Y-53560D01*
X72113Y-53399D01*
X71952Y-53292D01*
X71763Y-53255D01*
X71391Y-53255D01*
X71202Y-53292D01*
X71041Y-53399D01*
X71041Y-53400D01*
X70827Y-53400D01*
X70751Y-53286D01*
X70751Y-52000D01*
X70717Y-51829D01*
X70621Y-51685D01*
X70476Y-51588D01*
X70306Y-51555D01*
X69988Y-51555D01*
X69818Y-51588D01*
X69673Y-51685D01*
X69577Y-51829D01*
X69543Y-52000D01*
X69577Y-52170D01*
X69673Y-52314D01*
X69818Y-52411D01*
X69988Y-52445D01*
X70306Y-52445D01*
X70476Y-52411D01*
X70621Y-52314D01*
X70717Y-52170D01*
X70751Y-52000D01*
X70751Y-53286D01*
X70636Y-53113D01*
X70344Y-52918D01*
X70000Y-52850D01*
X68250Y-52850D01*
X67905Y-52918D01*
X67775Y-53005D01*
X67750Y-53000D01*
X67445Y-53000D01*
X67445Y-52265D01*
X67445Y-51675D01*
X67422Y-51620D01*
X67380Y-51577D01*
X67324Y-51555D01*
X67265Y-51554D01*
X66380Y-51554D01*
X66325Y-51577D01*
X66282Y-51619D01*
X66260Y-51675D01*
X66259Y-51734D01*
X66259Y-52324D01*
X66282Y-52379D01*
X66324Y-52422D01*
X66380Y-52444D01*
X66439Y-52445D01*
X67324Y-52445D01*
X67379Y-52422D01*
X67422Y-52380D01*
X67444Y-52324D01*
X67445Y-52265D01*
X67445Y-53000D01*
X67414Y-53000D01*
X67371Y-52935D01*
X67226Y-52838D01*
X67056Y-52805D01*
X66738Y-52805D01*
X66568Y-52838D01*
X66423Y-52935D01*
X66327Y-53079D01*
X66293Y-53250D01*
X66327Y-53420D01*
X66423Y-53564D01*
X66568Y-53661D01*
X66738Y-53695D01*
X67032Y-53695D01*
X65801Y-54925D01*
X65801Y-48351D01*
X65798Y-47933D01*
X65644Y-47561D01*
X65497Y-47473D01*
X65426Y-47544D01*
X65426Y-47402D01*
X65338Y-47255D01*
X64951Y-47098D01*
X64533Y-47101D01*
X64161Y-47255D01*
X64073Y-47402D01*
X64750Y-48079D01*
X65426Y-47402D01*
X65426Y-47544D01*
X64820Y-48150D01*
X65497Y-48826D01*
X65644Y-48738D01*
X65801Y-48351D01*
X65801Y-54925D01*
X65700Y-55027D01*
X65700Y-51270D01*
X65700Y-49670D01*
X65677Y-49615D01*
X65635Y-49572D01*
X65579Y-49550D01*
X65520Y-49549D01*
X65426Y-49549D01*
X65426Y-48897D01*
X64750Y-48220D01*
X64679Y-48291D01*
X64679Y-48150D01*
X64002Y-47473D01*
X63855Y-47561D01*
X63698Y-47948D01*
X63701Y-48366D01*
X63855Y-48738D01*
X64002Y-48826D01*
X64679Y-48150D01*
X64679Y-48291D01*
X64073Y-48897D01*
X64161Y-49044D01*
X64548Y-49201D01*
X64966Y-49198D01*
X65338Y-49044D01*
X65426Y-48897D01*
X65426Y-49549D01*
X63931Y-49549D01*
X63951Y-49501D01*
X63948Y-49083D01*
X63794Y-48711D01*
X63647Y-48623D01*
X63576Y-48694D01*
X63576Y-48552D01*
X63488Y-48405D01*
X63101Y-48248D01*
X62683Y-48251D01*
X62311Y-48405D01*
X62223Y-48552D01*
X62900Y-49229D01*
X63576Y-48552D01*
X63576Y-48694D01*
X62970Y-49300D01*
X63647Y-49976D01*
X63794Y-49888D01*
X63799Y-49874D01*
X63799Y-51329D01*
X63822Y-51384D01*
X63864Y-51427D01*
X63920Y-51449D01*
X63979Y-51450D01*
X65579Y-51450D01*
X65634Y-51427D01*
X65677Y-51385D01*
X65699Y-51329D01*
X65700Y-51270D01*
X65700Y-55027D01*
X64195Y-56532D01*
X64195Y-53515D01*
X64195Y-52925D01*
X64172Y-52870D01*
X64130Y-52827D01*
X64074Y-52805D01*
X64015Y-52804D01*
X63576Y-52804D01*
X63576Y-50047D01*
X62900Y-49370D01*
X62829Y-49441D01*
X62829Y-49300D01*
X62152Y-48623D01*
X62005Y-48711D01*
X61848Y-49098D01*
X61851Y-49516D01*
X62005Y-49888D01*
X62152Y-49976D01*
X62829Y-49300D01*
X62829Y-49441D01*
X62223Y-50047D01*
X62311Y-50194D01*
X62698Y-50351D01*
X63116Y-50348D01*
X63488Y-50194D01*
X63576Y-50047D01*
X63576Y-52804D01*
X63130Y-52804D01*
X63075Y-52827D01*
X63032Y-52869D01*
X63010Y-52925D01*
X63009Y-52984D01*
X63009Y-53574D01*
X63032Y-53629D01*
X63074Y-53672D01*
X63130Y-53694D01*
X63189Y-53695D01*
X64074Y-53695D01*
X64129Y-53672D01*
X64172Y-53630D01*
X64194Y-53574D01*
X64195Y-53515D01*
X64195Y-56532D01*
X61345Y-59382D01*
X61345Y-58895D01*
X61345Y-58722D01*
X61345Y-58622D01*
X61345Y-58450D01*
X61280Y-58226D01*
X61245Y-58181D01*
X61245Y-56815D01*
X61245Y-55780D01*
X61222Y-55725D01*
X61180Y-55682D01*
X61124Y-55660D01*
X61065Y-55659D01*
X60801Y-55659D01*
X60801Y-48351D01*
X60798Y-47933D01*
X60644Y-47561D01*
X60497Y-47473D01*
X60426Y-47544D01*
X60426Y-47402D01*
X60338Y-47255D01*
X59951Y-47098D01*
X59533Y-47101D01*
X59161Y-47255D01*
X59073Y-47402D01*
X59750Y-48079D01*
X60426Y-47402D01*
X60426Y-47544D01*
X59820Y-48150D01*
X60497Y-48826D01*
X60644Y-48738D01*
X60801Y-48351D01*
X60801Y-55659D01*
X60700Y-55659D01*
X60700Y-51270D01*
X60700Y-49670D01*
X60677Y-49615D01*
X60635Y-49572D01*
X60579Y-49550D01*
X60520Y-49549D01*
X60426Y-49549D01*
X60426Y-48897D01*
X59750Y-48220D01*
X59679Y-48291D01*
X59679Y-48150D01*
X59002Y-47473D01*
X58855Y-47561D01*
X58698Y-47948D01*
X58701Y-48366D01*
X58855Y-48738D01*
X59002Y-48826D01*
X59679Y-48150D01*
X59679Y-48291D01*
X59073Y-48897D01*
X59161Y-49044D01*
X59548Y-49201D01*
X59966Y-49198D01*
X60338Y-49044D01*
X60426Y-48897D01*
X60426Y-49549D01*
X58931Y-49549D01*
X58951Y-49501D01*
X58948Y-49083D01*
X58794Y-48711D01*
X58647Y-48623D01*
X58576Y-48694D01*
X58576Y-48552D01*
X58488Y-48405D01*
X58101Y-48248D01*
X57683Y-48251D01*
X57311Y-48405D01*
X57223Y-48552D01*
X57900Y-49229D01*
X58576Y-48552D01*
X58576Y-48694D01*
X57970Y-49300D01*
X58647Y-49976D01*
X58794Y-49888D01*
X58799Y-49874D01*
X58799Y-51329D01*
X58822Y-51384D01*
X58864Y-51427D01*
X58920Y-51449D01*
X58979Y-51450D01*
X60579Y-51450D01*
X60634Y-51427D01*
X60677Y-51385D01*
X60699Y-51329D01*
X60700Y-51270D01*
X60700Y-55659D01*
X60375Y-55659D01*
X60320Y-55682D01*
X60277Y-55724D01*
X60255Y-55780D01*
X60254Y-55839D01*
X60254Y-56874D01*
X60277Y-56929D01*
X60319Y-56972D01*
X60375Y-56994D01*
X60434Y-56995D01*
X61124Y-56995D01*
X61179Y-56972D01*
X61222Y-56930D01*
X61244Y-56874D01*
X61245Y-56815D01*
X61245Y-58181D01*
X61135Y-58043D01*
X60931Y-57931D01*
X60892Y-57922D01*
X60800Y-57969D01*
X60800Y-58622D01*
X61345Y-58622D01*
X61345Y-58722D01*
X60800Y-58722D01*
X60800Y-59375D01*
X60892Y-59422D01*
X60931Y-59413D01*
X61135Y-59301D01*
X61280Y-59118D01*
X61345Y-58895D01*
X61345Y-59382D01*
X60700Y-60027D01*
X60700Y-59375D01*
X60700Y-58722D01*
X60700Y-58622D01*
X60700Y-57969D01*
X60607Y-57922D01*
X60568Y-57931D01*
X60364Y-58043D01*
X60219Y-58226D01*
X60155Y-58450D01*
X60155Y-58622D01*
X60700Y-58622D01*
X60700Y-58722D01*
X60155Y-58722D01*
X60155Y-58895D01*
X60219Y-59118D01*
X60364Y-59301D01*
X60568Y-59413D01*
X60607Y-59422D01*
X60700Y-59375D01*
X60700Y-60027D01*
X58576Y-62150D01*
X58576Y-50047D01*
X57900Y-49370D01*
X57829Y-49441D01*
X57829Y-49300D01*
X57152Y-48623D01*
X57005Y-48711D01*
X56848Y-49098D01*
X56851Y-49516D01*
X57005Y-49888D01*
X57152Y-49976D01*
X57829Y-49300D01*
X57829Y-49441D01*
X57223Y-50047D01*
X57311Y-50194D01*
X57698Y-50351D01*
X58116Y-50348D01*
X58488Y-50194D01*
X58576Y-50047D01*
X58576Y-62150D01*
X56089Y-64638D01*
X56089Y-60583D01*
X56089Y-58713D01*
X56089Y-51083D01*
X56089Y-49213D01*
X55961Y-48905D01*
X55725Y-48669D01*
X55417Y-48541D01*
X55083Y-48540D01*
X54775Y-48668D01*
X54539Y-48904D01*
X54411Y-49212D01*
X54410Y-49546D01*
X54538Y-49854D01*
X54774Y-50090D01*
X55082Y-50218D01*
X55416Y-50219D01*
X55724Y-50091D01*
X55960Y-49855D01*
X56088Y-49547D01*
X56089Y-49213D01*
X56089Y-51083D01*
X55961Y-50775D01*
X55725Y-50539D01*
X55417Y-50411D01*
X55083Y-50410D01*
X54775Y-50538D01*
X54539Y-50774D01*
X54411Y-51082D01*
X54410Y-51416D01*
X54538Y-51724D01*
X54774Y-51960D01*
X55082Y-52088D01*
X55416Y-52089D01*
X55724Y-51961D01*
X55960Y-51725D01*
X56088Y-51417D01*
X56089Y-51083D01*
X56089Y-58713D01*
X56089Y-58713D01*
X56089Y-53779D01*
X56089Y-52401D01*
X56066Y-52346D01*
X56024Y-52304D01*
X55968Y-52281D01*
X55909Y-52281D01*
X54531Y-52281D01*
X54476Y-52303D01*
X54433Y-52346D01*
X54411Y-52401D01*
X54410Y-52460D01*
X54410Y-53838D01*
X54433Y-53893D01*
X54475Y-53936D01*
X54531Y-53959D01*
X54590Y-53959D01*
X55968Y-53959D01*
X56023Y-53936D01*
X56066Y-53894D01*
X56088Y-53839D01*
X56089Y-53779D01*
X56089Y-58713D01*
X55961Y-58405D01*
X55725Y-58169D01*
X55417Y-58041D01*
X55083Y-58040D01*
X54775Y-58168D01*
X54539Y-58404D01*
X54411Y-58712D01*
X54410Y-59046D01*
X54538Y-59354D01*
X54774Y-59590D01*
X55082Y-59718D01*
X55416Y-59719D01*
X55724Y-59591D01*
X55960Y-59355D01*
X56088Y-59047D01*
X56089Y-58713D01*
X56089Y-60583D01*
X55961Y-60275D01*
X55725Y-60039D01*
X55417Y-59911D01*
X55083Y-59910D01*
X54775Y-60038D01*
X54539Y-60274D01*
X54411Y-60582D01*
X54410Y-60916D01*
X54538Y-61224D01*
X54774Y-61460D01*
X55082Y-61588D01*
X55416Y-61589D01*
X55724Y-61461D01*
X55960Y-61225D01*
X56088Y-60917D01*
X56089Y-60583D01*
X56089Y-64638D01*
X56089Y-64638D01*
X56089Y-63279D01*
X56089Y-61901D01*
X56066Y-61846D01*
X56024Y-61804D01*
X55968Y-61781D01*
X55909Y-61781D01*
X54531Y-61781D01*
X54476Y-61803D01*
X54433Y-61846D01*
X54411Y-61901D01*
X54410Y-61960D01*
X54410Y-63338D01*
X54433Y-63393D01*
X54475Y-63436D01*
X54531Y-63459D01*
X54590Y-63459D01*
X55968Y-63459D01*
X56023Y-63436D01*
X56066Y-63394D01*
X56088Y-63339D01*
X56089Y-63279D01*
X56089Y-64638D01*
X54363Y-66363D01*
X54168Y-66655D01*
X54100Y-67000D01*
X54100Y-71950D01*
X54050Y-71950D01*
X54050Y-47432D01*
X54245Y-47627D01*
X54734Y-47830D01*
X55263Y-47831D01*
X55753Y-47629D01*
X56127Y-47254D01*
X56330Y-46765D01*
X56331Y-46236D01*
X56129Y-45746D01*
X55932Y-45550D01*
X90567Y-45550D01*
X90372Y-45745D01*
X90169Y-46234D01*
X90168Y-46763D01*
X90370Y-47253D01*
X90745Y-47627D01*
X91234Y-47830D01*
X91763Y-47831D01*
X92253Y-47629D01*
X92450Y-47432D01*
X92450Y-76974D01*
X92425Y-76967D01*
X92425Y-75165D01*
X92360Y-75009D01*
X92241Y-74889D01*
X92238Y-74888D01*
X92238Y-71595D01*
X92120Y-71308D01*
X92030Y-71218D01*
X92030Y-65845D01*
X91911Y-65558D01*
X91692Y-65339D01*
X91405Y-65220D01*
X91095Y-65219D01*
X90808Y-65338D01*
X90589Y-65557D01*
X90470Y-65844D01*
X90469Y-66154D01*
X90588Y-66441D01*
X90807Y-66660D01*
X91094Y-66779D01*
X91404Y-66780D01*
X91691Y-66661D01*
X91910Y-66442D01*
X92029Y-66155D01*
X92030Y-65845D01*
X92030Y-71218D01*
X91901Y-71089D01*
X91614Y-70970D01*
X91304Y-70969D01*
X91017Y-71088D01*
X90797Y-71307D01*
X90678Y-71594D01*
X90678Y-71904D01*
X90797Y-72191D01*
X91016Y-72410D01*
X91302Y-72529D01*
X91613Y-72530D01*
X91899Y-72411D01*
X92119Y-72192D01*
X92238Y-71905D01*
X92238Y-71595D01*
X92238Y-74888D01*
X92084Y-74825D01*
X91915Y-74824D01*
X91759Y-74889D01*
X91639Y-75008D01*
X91575Y-75165D01*
X91574Y-75334D01*
X91639Y-75490D01*
X91758Y-75610D01*
X91915Y-75674D01*
X92084Y-75675D01*
X92240Y-75610D01*
X92360Y-75491D01*
X92424Y-75334D01*
X92425Y-75165D01*
X92425Y-76967D01*
X92367Y-76952D01*
X92297Y-77023D01*
X92297Y-76882D01*
X92272Y-76789D01*
X92075Y-76720D01*
X91867Y-76731D01*
X91727Y-76789D01*
X91702Y-76882D01*
X92000Y-77179D01*
X92297Y-76882D01*
X92297Y-77023D01*
X92070Y-77250D01*
X92367Y-77547D01*
X92450Y-77525D01*
X92450Y-82317D01*
X92450Y-82317D01*
G37*
G54D31*
X92450Y-82317D02*
X92297Y-82164D01*
X92297Y-77617D01*
X92000Y-77320D01*
X91929Y-77391D01*
X91929Y-77250D01*
X91632Y-76952D01*
X91539Y-76977D01*
X91470Y-77174D01*
X91481Y-77382D01*
X91539Y-77522D01*
X91632Y-77547D01*
X91929Y-77250D01*
X91929Y-77391D01*
X91702Y-77617D01*
X91727Y-77710D01*
X91924Y-77779D01*
X92132Y-77768D01*
X92272Y-77710D01*
X92297Y-77617D01*
X92297Y-82164D01*
X92254Y-82122D01*
X91765Y-81919D01*
X91236Y-81918D01*
X91199Y-81933D01*
X91199Y-74443D01*
X91199Y-74174D01*
X91193Y-74146D01*
X91091Y-73959D01*
X90926Y-73824D01*
X90721Y-73764D01*
X90573Y-73764D01*
X90573Y-74259D01*
X91151Y-74259D01*
X91199Y-74174D01*
X91199Y-74443D01*
X91151Y-74359D01*
X90573Y-74359D01*
X90573Y-74366D01*
X90473Y-74366D01*
X90473Y-74359D01*
X90473Y-74259D01*
X90473Y-73764D01*
X90326Y-73764D01*
X90279Y-73777D01*
X90279Y-69825D01*
X90268Y-69617D01*
X90210Y-69477D01*
X90117Y-69452D01*
X90047Y-69523D01*
X90047Y-69382D01*
X90022Y-69289D01*
X89825Y-69220D01*
X89617Y-69231D01*
X89477Y-69289D01*
X89452Y-69382D01*
X89750Y-69679D01*
X90047Y-69382D01*
X90047Y-69523D01*
X89820Y-69750D01*
X90117Y-70047D01*
X90210Y-70022D01*
X90279Y-69825D01*
X90279Y-73777D01*
X90121Y-73824D01*
X90047Y-73884D01*
X90047Y-70117D01*
X89750Y-69820D01*
X89679Y-69891D01*
X89679Y-69750D01*
X89382Y-69452D01*
X89289Y-69477D01*
X89220Y-69674D01*
X89231Y-69882D01*
X89289Y-70022D01*
X89382Y-70047D01*
X89679Y-69750D01*
X89679Y-69891D01*
X89452Y-70117D01*
X89477Y-70210D01*
X89674Y-70279D01*
X89882Y-70268D01*
X90022Y-70210D01*
X90047Y-70117D01*
X90047Y-73884D01*
X89955Y-73959D01*
X89853Y-74146D01*
X89848Y-74174D01*
X89896Y-74259D01*
X90473Y-74259D01*
X90473Y-74359D01*
X89896Y-74359D01*
X89848Y-74443D01*
X89853Y-74471D01*
X89955Y-74659D01*
X90081Y-74760D01*
X90049Y-74781D01*
X89953Y-74926D01*
X89919Y-75096D01*
X89953Y-75266D01*
X90049Y-75411D01*
X90194Y-75507D01*
X90364Y-75541D01*
X90682Y-75541D01*
X90853Y-75507D01*
X90997Y-75411D01*
X91093Y-75266D01*
X91127Y-75096D01*
X91093Y-74926D01*
X90997Y-74781D01*
X90966Y-74760D01*
X91091Y-74659D01*
X91193Y-74471D01*
X91199Y-74443D01*
X91199Y-81933D01*
X91121Y-81966D01*
X91121Y-77216D01*
X91114Y-76881D01*
X90999Y-76602D01*
X90873Y-76539D01*
X90802Y-76610D01*
X90802Y-76468D01*
X90739Y-76343D01*
X90428Y-76221D01*
X90094Y-76227D01*
X89815Y-76343D01*
X89752Y-76468D01*
X90277Y-76994D01*
X90802Y-76468D01*
X90802Y-76610D01*
X90348Y-77064D01*
X90873Y-77590D01*
X90999Y-77527D01*
X91121Y-77216D01*
X91121Y-81966D01*
X90802Y-82097D01*
X90802Y-77661D01*
X90277Y-77135D01*
X90206Y-77206D01*
X90206Y-77064D01*
X89681Y-76539D01*
X89556Y-76602D01*
X89491Y-76765D01*
X89424Y-76602D01*
X89298Y-76539D01*
X89228Y-76610D01*
X89228Y-76468D01*
X89165Y-76343D01*
X88853Y-76221D01*
X88795Y-76222D01*
X88795Y-46800D01*
X88795Y-46652D01*
X88795Y-46552D01*
X88795Y-46405D01*
X88734Y-46200D01*
X88600Y-46034D01*
X88412Y-45932D01*
X88384Y-45926D01*
X88300Y-45975D01*
X88300Y-46552D01*
X88795Y-46552D01*
X88795Y-46652D01*
X88300Y-46652D01*
X88300Y-47229D01*
X88384Y-47278D01*
X88412Y-47272D01*
X88600Y-47170D01*
X88734Y-47004D01*
X88795Y-46800D01*
X88795Y-76222D01*
X88695Y-76224D01*
X88695Y-48310D01*
X88695Y-47425D01*
X88672Y-47370D01*
X88630Y-47327D01*
X88574Y-47305D01*
X88515Y-47304D01*
X88200Y-47304D01*
X88200Y-47229D01*
X88200Y-46652D01*
X88200Y-46552D01*
X88200Y-45975D01*
X88115Y-45926D01*
X88087Y-45932D01*
X87899Y-46034D01*
X87765Y-46200D01*
X87705Y-46405D01*
X87705Y-46552D01*
X88200Y-46552D01*
X88200Y-46652D01*
X87705Y-46652D01*
X87705Y-46800D01*
X87765Y-47004D01*
X87899Y-47170D01*
X88087Y-47272D01*
X88115Y-47278D01*
X88200Y-47229D01*
X88200Y-47304D01*
X87925Y-47304D01*
X87870Y-47327D01*
X87827Y-47369D01*
X87805Y-47425D01*
X87804Y-47484D01*
X87804Y-48369D01*
X87827Y-48424D01*
X87869Y-48467D01*
X87925Y-48489D01*
X87984Y-48490D01*
X88574Y-48490D01*
X88629Y-48467D01*
X88672Y-48425D01*
X88694Y-48369D01*
X88695Y-48310D01*
X88695Y-76224D01*
X88519Y-76227D01*
X88240Y-76343D01*
X88177Y-76468D01*
X88702Y-76994D01*
X89228Y-76468D01*
X89228Y-76610D01*
X88773Y-77064D01*
X89298Y-77590D01*
X89424Y-77527D01*
X89488Y-77364D01*
X89556Y-77527D01*
X89681Y-77590D01*
X90206Y-77064D01*
X90206Y-77206D01*
X89752Y-77661D01*
X89815Y-77786D01*
X90126Y-77908D01*
X90460Y-77902D01*
X90739Y-77786D01*
X90802Y-77661D01*
X90802Y-82097D01*
X90746Y-82120D01*
X90372Y-82495D01*
X90169Y-82984D01*
X90168Y-83513D01*
X90370Y-84003D01*
X90567Y-84200D01*
X89228Y-84200D01*
X89228Y-77661D01*
X88702Y-77135D01*
X88632Y-77206D01*
X88632Y-77064D01*
X88175Y-76607D01*
X88175Y-69665D01*
X88110Y-69509D01*
X87991Y-69389D01*
X87834Y-69325D01*
X87665Y-69324D01*
X87509Y-69389D01*
X87389Y-69508D01*
X87345Y-69617D01*
X87345Y-69050D01*
X87345Y-68877D01*
X87345Y-68777D01*
X87345Y-68605D01*
X87280Y-68381D01*
X87135Y-68198D01*
X86931Y-68086D01*
X86892Y-68077D01*
X86800Y-68124D01*
X86800Y-68777D01*
X87345Y-68777D01*
X87345Y-68877D01*
X86800Y-68877D01*
X86800Y-69530D01*
X86892Y-69577D01*
X86931Y-69568D01*
X87135Y-69456D01*
X87280Y-69273D01*
X87345Y-69050D01*
X87345Y-69617D01*
X87325Y-69665D01*
X87324Y-69834D01*
X87389Y-69990D01*
X87508Y-70110D01*
X87665Y-70174D01*
X87834Y-70175D01*
X87990Y-70110D01*
X88110Y-69991D01*
X88174Y-69834D01*
X88175Y-69665D01*
X88175Y-76607D01*
X88106Y-76539D01*
X87981Y-76602D01*
X87859Y-76913D01*
X87865Y-77248D01*
X87981Y-77527D01*
X88106Y-77590D01*
X88632Y-77064D01*
X88632Y-77206D01*
X88177Y-77661D01*
X88240Y-77786D01*
X88551Y-77908D01*
X88885Y-77902D01*
X89165Y-77786D01*
X89228Y-77661D01*
X89228Y-84200D01*
X89090Y-84200D01*
X89090Y-83565D01*
X89090Y-82875D01*
X89067Y-82820D01*
X89025Y-82777D01*
X88969Y-82755D01*
X88910Y-82754D01*
X87875Y-82754D01*
X87820Y-82777D01*
X87777Y-82819D01*
X87755Y-82875D01*
X87754Y-82934D01*
X87754Y-83234D01*
X87720Y-83060D01*
X87613Y-82899D01*
X87452Y-82792D01*
X87295Y-82761D01*
X87295Y-79845D01*
X87295Y-79697D01*
X87295Y-79597D01*
X87295Y-79450D01*
X87234Y-79245D01*
X87100Y-79079D01*
X86912Y-78977D01*
X86884Y-78971D01*
X86800Y-79020D01*
X86800Y-79597D01*
X87295Y-79597D01*
X87295Y-79697D01*
X86800Y-79697D01*
X86800Y-80274D01*
X86884Y-80323D01*
X86912Y-80317D01*
X87100Y-80215D01*
X87234Y-80049D01*
X87295Y-79845D01*
X87295Y-82761D01*
X87263Y-82755D01*
X86891Y-82755D01*
X86702Y-82792D01*
X86700Y-82794D01*
X86700Y-80274D01*
X86700Y-79697D01*
X86700Y-79597D01*
X86700Y-79020D01*
X86700Y-69530D01*
X86700Y-68877D01*
X86692Y-68877D01*
X86692Y-68777D01*
X86700Y-68777D01*
X86700Y-68124D01*
X86607Y-68077D01*
X86568Y-68086D01*
X86364Y-68198D01*
X86245Y-68349D01*
X86245Y-47608D01*
X86245Y-47236D01*
X86207Y-47047D01*
X86100Y-46886D01*
X85939Y-46779D01*
X85750Y-46741D01*
X85560Y-46779D01*
X85399Y-46886D01*
X85298Y-47038D01*
X85280Y-46976D01*
X85135Y-46793D01*
X84931Y-46681D01*
X84892Y-46672D01*
X84800Y-46719D01*
X84800Y-47372D01*
X84807Y-47372D01*
X84807Y-47472D01*
X84800Y-47472D01*
X84800Y-48125D01*
X84892Y-48172D01*
X84931Y-48163D01*
X85135Y-48051D01*
X85280Y-47868D01*
X85298Y-47806D01*
X85399Y-47958D01*
X85560Y-48065D01*
X85750Y-48103D01*
X85939Y-48065D01*
X86100Y-47958D01*
X86207Y-47797D01*
X86245Y-47608D01*
X86245Y-68349D01*
X86219Y-68381D01*
X86201Y-68443D01*
X86100Y-68291D01*
X85939Y-68184D01*
X85750Y-68146D01*
X85560Y-68184D01*
X85399Y-68291D01*
X85292Y-68452D01*
X85255Y-68641D01*
X85255Y-69013D01*
X85292Y-69202D01*
X85399Y-69363D01*
X85560Y-69470D01*
X85750Y-69508D01*
X85939Y-69470D01*
X86100Y-69363D01*
X86201Y-69211D01*
X86219Y-69273D01*
X86364Y-69456D01*
X86568Y-69568D01*
X86607Y-69577D01*
X86700Y-69530D01*
X86700Y-79020D01*
X86615Y-78971D01*
X86587Y-78977D01*
X86399Y-79079D01*
X86265Y-79245D01*
X86250Y-79298D01*
X86234Y-79245D01*
X86100Y-79079D01*
X85912Y-78977D01*
X85884Y-78971D01*
X85800Y-79020D01*
X85800Y-79597D01*
X86205Y-79597D01*
X86295Y-79597D01*
X86700Y-79597D01*
X86700Y-79697D01*
X86295Y-79697D01*
X86205Y-79697D01*
X85800Y-79697D01*
X85800Y-80274D01*
X85884Y-80323D01*
X85912Y-80317D01*
X86100Y-80215D01*
X86234Y-80049D01*
X86250Y-79996D01*
X86265Y-80049D01*
X86399Y-80215D01*
X86587Y-80317D01*
X86615Y-80323D01*
X86700Y-80274D01*
X86700Y-82794D01*
X86541Y-82899D01*
X86434Y-83060D01*
X86426Y-83099D01*
X86422Y-83079D01*
X86326Y-82935D01*
X86181Y-82838D01*
X86011Y-82805D01*
X85700Y-82805D01*
X85700Y-80274D01*
X85700Y-79697D01*
X85700Y-79597D01*
X85700Y-79020D01*
X85615Y-78971D01*
X85587Y-78977D01*
X85399Y-79079D01*
X85265Y-79245D01*
X85245Y-79314D01*
X85245Y-69315D01*
X85245Y-68280D01*
X85222Y-68225D01*
X85180Y-68182D01*
X85124Y-68160D01*
X85065Y-68159D01*
X84700Y-68159D01*
X84700Y-48125D01*
X84700Y-47472D01*
X84692Y-47472D01*
X84692Y-47372D01*
X84700Y-47372D01*
X84700Y-46719D01*
X84607Y-46672D01*
X84568Y-46681D01*
X84364Y-46793D01*
X84245Y-46943D01*
X84245Y-46875D01*
X84222Y-46820D01*
X84180Y-46777D01*
X84124Y-46755D01*
X84065Y-46754D01*
X83375Y-46754D01*
X83320Y-46777D01*
X83277Y-46819D01*
X83255Y-46875D01*
X83254Y-46934D01*
X83254Y-47969D01*
X83277Y-48024D01*
X83319Y-48067D01*
X83375Y-48089D01*
X83434Y-48090D01*
X84124Y-48090D01*
X84179Y-48067D01*
X84222Y-48025D01*
X84244Y-47969D01*
X84245Y-47910D01*
X84245Y-47901D01*
X84364Y-48051D01*
X84568Y-48163D01*
X84607Y-48172D01*
X84700Y-48125D01*
X84700Y-68159D01*
X84375Y-68159D01*
X84320Y-68182D01*
X84277Y-68224D01*
X84255Y-68280D01*
X84254Y-68339D01*
X84254Y-69374D01*
X84277Y-69429D01*
X84319Y-69472D01*
X84375Y-69494D01*
X84434Y-69495D01*
X85124Y-69495D01*
X85179Y-69472D01*
X85222Y-69430D01*
X85244Y-69374D01*
X85245Y-69315D01*
X85245Y-79314D01*
X85205Y-79450D01*
X85205Y-79597D01*
X85700Y-79597D01*
X85700Y-79697D01*
X85205Y-79697D01*
X85205Y-79845D01*
X85265Y-80049D01*
X85399Y-80215D01*
X85587Y-80317D01*
X85615Y-80323D01*
X85700Y-80274D01*
X85700Y-82805D01*
X85693Y-82805D01*
X85523Y-82838D01*
X85378Y-82935D01*
X85282Y-83079D01*
X85248Y-83250D01*
X85282Y-83420D01*
X85378Y-83564D01*
X85523Y-83661D01*
X85693Y-83695D01*
X86011Y-83695D01*
X86181Y-83661D01*
X86326Y-83564D01*
X86422Y-83420D01*
X86426Y-83400D01*
X86434Y-83439D01*
X86541Y-83600D01*
X86702Y-83707D01*
X86891Y-83745D01*
X87263Y-83745D01*
X87452Y-83707D01*
X87613Y-83600D01*
X87720Y-83439D01*
X87754Y-83265D01*
X87754Y-83624D01*
X87777Y-83679D01*
X87819Y-83722D01*
X87875Y-83744D01*
X87934Y-83745D01*
X88969Y-83745D01*
X89024Y-83722D01*
X89067Y-83680D01*
X89089Y-83624D01*
X89090Y-83565D01*
X89090Y-84200D01*
X85195Y-84200D01*
X85195Y-80060D01*
X85195Y-79175D01*
X85172Y-79120D01*
X85130Y-79077D01*
X85074Y-79055D01*
X85015Y-79054D01*
X84425Y-79054D01*
X84370Y-79077D01*
X84327Y-79119D01*
X84305Y-79175D01*
X84304Y-79234D01*
X84304Y-80119D01*
X84327Y-80174D01*
X84369Y-80217D01*
X84425Y-80239D01*
X84484Y-80240D01*
X85074Y-80240D01*
X85129Y-80217D01*
X85172Y-80175D01*
X85194Y-80119D01*
X85195Y-80060D01*
X85195Y-84200D01*
X83845Y-84200D01*
X83845Y-53045D01*
X83845Y-52454D01*
X83844Y-52355D01*
X83806Y-52263D01*
X83736Y-52192D01*
X83644Y-52154D01*
X83190Y-52155D01*
X83127Y-52217D01*
X83127Y-52700D01*
X83782Y-52700D01*
X83845Y-52637D01*
X83845Y-52454D01*
X83845Y-53045D01*
X83845Y-52862D01*
X83782Y-52800D01*
X83127Y-52800D01*
X83127Y-52807D01*
X83027Y-52807D01*
X83027Y-52800D01*
X83027Y-52700D01*
X83027Y-52217D01*
X82965Y-52155D01*
X82510Y-52154D01*
X82418Y-52192D01*
X82348Y-52263D01*
X82310Y-52355D01*
X82309Y-52454D01*
X82310Y-52637D01*
X82372Y-52700D01*
X83027Y-52700D01*
X83027Y-52800D01*
X82372Y-52800D01*
X82310Y-52862D01*
X82309Y-53045D01*
X82310Y-53144D01*
X82348Y-53236D01*
X82418Y-53307D01*
X82510Y-53345D01*
X82624Y-53345D01*
X82541Y-53399D01*
X82434Y-53560D01*
X82396Y-53750D01*
X82434Y-53939D01*
X82541Y-54100D01*
X82702Y-54207D01*
X82891Y-54245D01*
X83263Y-54245D01*
X83452Y-54207D01*
X83613Y-54100D01*
X83720Y-53939D01*
X83758Y-53750D01*
X83720Y-53560D01*
X83613Y-53399D01*
X83530Y-53345D01*
X83644Y-53345D01*
X83736Y-53307D01*
X83806Y-53236D01*
X83844Y-53144D01*
X83845Y-53045D01*
X83845Y-84200D01*
X83758Y-84200D01*
X83758Y-54750D01*
X83720Y-54560D01*
X83613Y-54399D01*
X83452Y-54292D01*
X83263Y-54255D01*
X82891Y-54255D01*
X82702Y-54292D01*
X82541Y-54399D01*
X82434Y-54560D01*
X82396Y-54750D01*
X82434Y-54939D01*
X82541Y-55100D01*
X82702Y-55207D01*
X82891Y-55245D01*
X83263Y-55245D01*
X83452Y-55207D01*
X83613Y-55100D01*
X83720Y-54939D01*
X83758Y-54750D01*
X83758Y-84200D01*
X83537Y-84200D01*
X83537Y-76918D01*
X83425Y-76646D01*
X83217Y-76437D01*
X82945Y-76324D01*
X82795Y-76324D01*
X82795Y-57845D01*
X82795Y-57697D01*
X82795Y-57597D01*
X82795Y-57450D01*
X82734Y-57245D01*
X82695Y-57196D01*
X82695Y-56765D01*
X82695Y-55880D01*
X82672Y-55825D01*
X82630Y-55782D01*
X82574Y-55760D01*
X82515Y-55759D01*
X82279Y-55759D01*
X82279Y-48325D01*
X82268Y-48117D01*
X82210Y-47977D01*
X82175Y-47967D01*
X82175Y-46165D01*
X82110Y-46009D01*
X81991Y-45889D01*
X81834Y-45825D01*
X81665Y-45824D01*
X81509Y-45889D01*
X81389Y-46008D01*
X81325Y-46165D01*
X81324Y-46334D01*
X81389Y-46490D01*
X81508Y-46610D01*
X81665Y-46674D01*
X81834Y-46675D01*
X81990Y-46610D01*
X82110Y-46491D01*
X82174Y-46334D01*
X82175Y-46165D01*
X82175Y-47967D01*
X82117Y-47952D01*
X82047Y-48023D01*
X82047Y-47882D01*
X82022Y-47789D01*
X81825Y-47720D01*
X81617Y-47731D01*
X81477Y-47789D01*
X81452Y-47882D01*
X81750Y-48179D01*
X82047Y-47882D01*
X82047Y-48023D01*
X81820Y-48250D01*
X82117Y-48547D01*
X82210Y-48522D01*
X82279Y-48325D01*
X82279Y-55759D01*
X82047Y-55759D01*
X82047Y-48617D01*
X81750Y-48320D01*
X81679Y-48391D01*
X81679Y-48250D01*
X81382Y-47952D01*
X81289Y-47977D01*
X81220Y-48174D01*
X81231Y-48382D01*
X81289Y-48522D01*
X81382Y-48547D01*
X81679Y-48250D01*
X81679Y-48391D01*
X81452Y-48617D01*
X81477Y-48710D01*
X81674Y-48779D01*
X81882Y-48768D01*
X82022Y-48710D01*
X82047Y-48617D01*
X82047Y-55759D01*
X81925Y-55759D01*
X81870Y-55782D01*
X81827Y-55824D01*
X81805Y-55880D01*
X81804Y-55939D01*
X81804Y-56824D01*
X81827Y-56879D01*
X81869Y-56922D01*
X81925Y-56944D01*
X81984Y-56945D01*
X82574Y-56945D01*
X82629Y-56922D01*
X82672Y-56880D01*
X82694Y-56824D01*
X82695Y-56765D01*
X82695Y-57196D01*
X82600Y-57079D01*
X82412Y-56977D01*
X82384Y-56971D01*
X82300Y-57020D01*
X82300Y-57597D01*
X82795Y-57597D01*
X82795Y-57697D01*
X82300Y-57697D01*
X82300Y-58274D01*
X82384Y-58323D01*
X82412Y-58317D01*
X82600Y-58215D01*
X82734Y-58049D01*
X82795Y-57845D01*
X82795Y-76324D01*
X82650Y-76324D01*
X82378Y-76436D01*
X82200Y-76614D01*
X82200Y-58274D01*
X82200Y-57697D01*
X82200Y-57597D01*
X82200Y-57020D01*
X82115Y-56971D01*
X82087Y-56977D01*
X81899Y-57079D01*
X81765Y-57245D01*
X81705Y-57450D01*
X81705Y-57597D01*
X82200Y-57597D01*
X82200Y-57697D01*
X81705Y-57697D01*
X81705Y-57845D01*
X81765Y-58049D01*
X81899Y-58215D01*
X82087Y-58317D01*
X82115Y-58323D01*
X82200Y-58274D01*
X82200Y-76614D01*
X82169Y-76644D01*
X82056Y-76917D01*
X82056Y-77211D01*
X82169Y-77483D01*
X82377Y-77692D01*
X82649Y-77805D01*
X82943Y-77805D01*
X83216Y-77693D01*
X83424Y-77484D01*
X83537Y-77212D01*
X83537Y-76918D01*
X83537Y-84200D01*
X82823Y-84200D01*
X82823Y-83384D01*
X82823Y-83115D01*
X82817Y-83087D01*
X82715Y-82899D01*
X82549Y-82765D01*
X82345Y-82705D01*
X82197Y-82705D01*
X82197Y-83200D01*
X82774Y-83200D01*
X82823Y-83115D01*
X82823Y-83384D01*
X82774Y-83300D01*
X82197Y-83300D01*
X82197Y-83795D01*
X82345Y-83795D01*
X82549Y-83734D01*
X82715Y-83600D01*
X82817Y-83412D01*
X82823Y-83384D01*
X82823Y-84200D01*
X82097Y-84200D01*
X82097Y-83795D01*
X82097Y-83300D01*
X82097Y-83200D01*
X82097Y-82705D01*
X81963Y-82705D01*
X81963Y-76918D01*
X81850Y-76646D01*
X81642Y-76437D01*
X81370Y-76324D01*
X81075Y-76324D01*
X81030Y-76343D01*
X81030Y-65845D01*
X80911Y-65558D01*
X80692Y-65339D01*
X80405Y-65220D01*
X80195Y-65220D01*
X80195Y-55761D01*
X80195Y-55443D01*
X80195Y-52056D01*
X80195Y-51738D01*
X80161Y-51568D01*
X80064Y-51423D01*
X79920Y-51327D01*
X79750Y-51293D01*
X79579Y-51327D01*
X79435Y-51423D01*
X79338Y-51568D01*
X79305Y-51738D01*
X79305Y-52056D01*
X79338Y-52226D01*
X79435Y-52371D01*
X79579Y-52467D01*
X79750Y-52501D01*
X79920Y-52467D01*
X80064Y-52371D01*
X80161Y-52226D01*
X80195Y-52056D01*
X80195Y-55443D01*
X80161Y-55273D01*
X80064Y-55128D01*
X79920Y-55032D01*
X79750Y-54998D01*
X79579Y-55032D01*
X79435Y-55128D01*
X79338Y-55273D01*
X79305Y-55443D01*
X79305Y-55761D01*
X79338Y-55931D01*
X79435Y-56076D01*
X79579Y-56172D01*
X79750Y-56206D01*
X79920Y-56172D01*
X80064Y-56076D01*
X80161Y-55931D01*
X80195Y-55761D01*
X80195Y-65220D01*
X80095Y-65219D01*
X79808Y-65338D01*
X79589Y-65557D01*
X79470Y-65844D01*
X79469Y-66154D01*
X79588Y-66441D01*
X79807Y-66660D01*
X80094Y-66779D01*
X80404Y-66780D01*
X80691Y-66661D01*
X80910Y-66442D01*
X81029Y-66155D01*
X81030Y-65845D01*
X81030Y-76343D01*
X80821Y-76429D01*
X80821Y-71595D01*
X80702Y-71308D01*
X80483Y-71089D01*
X80197Y-70970D01*
X80073Y-70970D01*
X80073Y-69134D01*
X80073Y-68865D01*
X80067Y-68837D01*
X79965Y-68649D01*
X79799Y-68515D01*
X79595Y-68455D01*
X79447Y-68455D01*
X79447Y-68950D01*
X80024Y-68950D01*
X80073Y-68865D01*
X80073Y-69134D01*
X80024Y-69050D01*
X79447Y-69050D01*
X79447Y-69545D01*
X79595Y-69545D01*
X79799Y-69484D01*
X79965Y-69350D01*
X80067Y-69162D01*
X80073Y-69134D01*
X80073Y-70970D01*
X79886Y-70969D01*
X79600Y-71088D01*
X79380Y-71307D01*
X79347Y-71387D01*
X79347Y-69545D01*
X79347Y-69050D01*
X79347Y-68950D01*
X79347Y-68455D01*
X79200Y-68455D01*
X79195Y-68456D01*
X79195Y-52515D01*
X79195Y-51630D01*
X79172Y-51575D01*
X79130Y-51532D01*
X79074Y-51510D01*
X79015Y-51509D01*
X78425Y-51509D01*
X78370Y-51532D01*
X78327Y-51574D01*
X78305Y-51630D01*
X78304Y-51689D01*
X78304Y-52574D01*
X78327Y-52629D01*
X78369Y-52672D01*
X78425Y-52694D01*
X78484Y-52695D01*
X79074Y-52695D01*
X79129Y-52672D01*
X79172Y-52630D01*
X79194Y-52574D01*
X79195Y-52515D01*
X79195Y-68456D01*
X79195Y-68456D01*
X79195Y-55556D01*
X79195Y-55238D01*
X79161Y-55068D01*
X79064Y-54923D01*
X78920Y-54827D01*
X78750Y-54793D01*
X78579Y-54827D01*
X78435Y-54923D01*
X78338Y-55068D01*
X78305Y-55238D01*
X78305Y-55556D01*
X78338Y-55726D01*
X78435Y-55871D01*
X78579Y-55967D01*
X78750Y-56001D01*
X78920Y-55967D01*
X79064Y-55871D01*
X79161Y-55726D01*
X79195Y-55556D01*
X79195Y-68456D01*
X78995Y-68515D01*
X78829Y-68649D01*
X78727Y-68837D01*
X78721Y-68865D01*
X78770Y-68950D01*
X79347Y-68950D01*
X79347Y-69050D01*
X78770Y-69050D01*
X78721Y-69134D01*
X78727Y-69162D01*
X78829Y-69350D01*
X78995Y-69484D01*
X79200Y-69545D01*
X79347Y-69545D01*
X79347Y-71387D01*
X79261Y-71594D01*
X79261Y-71904D01*
X79379Y-72191D01*
X79598Y-72410D01*
X79885Y-72529D01*
X80195Y-72530D01*
X80482Y-72411D01*
X80702Y-72192D01*
X80821Y-71905D01*
X80821Y-71595D01*
X80821Y-76429D01*
X80803Y-76436D01*
X80594Y-76644D01*
X80482Y-76917D01*
X80481Y-77211D01*
X80594Y-77483D01*
X80802Y-77692D01*
X81074Y-77805D01*
X81369Y-77805D01*
X81641Y-77693D01*
X81849Y-77484D01*
X81962Y-77212D01*
X81963Y-76918D01*
X81963Y-82705D01*
X81950Y-82705D01*
X81745Y-82765D01*
X81579Y-82899D01*
X81477Y-83087D01*
X81471Y-83115D01*
X81520Y-83200D01*
X82097Y-83200D01*
X82097Y-83300D01*
X81520Y-83300D01*
X81471Y-83384D01*
X81477Y-83412D01*
X81579Y-83600D01*
X81745Y-83734D01*
X81950Y-83795D01*
X82097Y-83795D01*
X82097Y-84200D01*
X77386Y-84200D01*
X78103Y-83904D01*
X78652Y-83356D01*
X78949Y-82639D01*
X78950Y-81863D01*
X78695Y-81245D01*
X78695Y-69265D01*
X78695Y-68675D01*
X78672Y-68620D01*
X78630Y-68577D01*
X78574Y-68555D01*
X78515Y-68554D01*
X78195Y-68554D01*
X78195Y-52515D01*
X78195Y-51630D01*
X78172Y-51575D01*
X78130Y-51532D01*
X78074Y-51510D01*
X78015Y-51509D01*
X77425Y-51509D01*
X77370Y-51532D01*
X77327Y-51574D01*
X77305Y-51630D01*
X77304Y-51689D01*
X77304Y-52574D01*
X77327Y-52629D01*
X77369Y-52672D01*
X77425Y-52694D01*
X77484Y-52695D01*
X78074Y-52695D01*
X78129Y-52672D01*
X78172Y-52630D01*
X78194Y-52574D01*
X78195Y-52515D01*
X78195Y-68554D01*
X78195Y-68554D01*
X78195Y-55556D01*
X78195Y-55238D01*
X78161Y-55068D01*
X78064Y-54923D01*
X77920Y-54827D01*
X77750Y-54793D01*
X77579Y-54827D01*
X77435Y-54923D01*
X77384Y-55000D01*
X76853Y-55000D01*
X76426Y-54573D01*
X76345Y-54519D01*
X76250Y-54500D01*
X75603Y-54500D01*
X75603Y-53750D01*
X75603Y-52750D01*
X75565Y-52560D01*
X75458Y-52399D01*
X75297Y-52292D01*
X75108Y-52255D01*
X74736Y-52255D01*
X74547Y-52292D01*
X74386Y-52399D01*
X74279Y-52560D01*
X74241Y-52750D01*
X74279Y-52939D01*
X74386Y-53100D01*
X74547Y-53207D01*
X74736Y-53245D01*
X75108Y-53245D01*
X75297Y-53207D01*
X75458Y-53100D01*
X75565Y-52939D01*
X75603Y-52750D01*
X75603Y-53750D01*
X75565Y-53560D01*
X75458Y-53399D01*
X75297Y-53292D01*
X75108Y-53255D01*
X74736Y-53255D01*
X74547Y-53292D01*
X74386Y-53399D01*
X74279Y-53560D01*
X74241Y-53750D01*
X74279Y-53939D01*
X74386Y-54100D01*
X74547Y-54207D01*
X74736Y-54245D01*
X75108Y-54245D01*
X75297Y-54207D01*
X75458Y-54100D01*
X75565Y-53939D01*
X75603Y-53750D01*
X75603Y-54500D01*
X75590Y-54500D01*
X75590Y-54375D01*
X75567Y-54320D01*
X75525Y-54277D01*
X75469Y-54255D01*
X75410Y-54254D01*
X74375Y-54254D01*
X74320Y-54277D01*
X74277Y-54319D01*
X74255Y-54375D01*
X74254Y-54434D01*
X74254Y-55124D01*
X74277Y-55179D01*
X74319Y-55222D01*
X74375Y-55244D01*
X74434Y-55245D01*
X75469Y-55245D01*
X75524Y-55222D01*
X75567Y-55180D01*
X75589Y-55124D01*
X75590Y-55065D01*
X75590Y-55000D01*
X76146Y-55000D01*
X76573Y-55426D01*
X76654Y-55480D01*
X76750Y-55500D01*
X77305Y-55500D01*
X77305Y-55556D01*
X77338Y-55726D01*
X77435Y-55871D01*
X77579Y-55967D01*
X77750Y-56001D01*
X77920Y-55967D01*
X78064Y-55871D01*
X78161Y-55726D01*
X78195Y-55556D01*
X78195Y-68554D01*
X77630Y-68554D01*
X77575Y-68577D01*
X77532Y-68619D01*
X77510Y-68675D01*
X77509Y-68734D01*
X77509Y-69324D01*
X77532Y-69379D01*
X77574Y-69422D01*
X77630Y-69444D01*
X77689Y-69445D01*
X78574Y-69445D01*
X78629Y-69422D01*
X78672Y-69380D01*
X78694Y-69324D01*
X78695Y-69265D01*
X78695Y-81245D01*
X78654Y-81146D01*
X78106Y-80597D01*
X77839Y-80487D01*
X77839Y-72833D01*
X77839Y-70963D01*
X77711Y-70655D01*
X77475Y-70419D01*
X77167Y-70291D01*
X76833Y-70290D01*
X76525Y-70418D01*
X76289Y-70654D01*
X76161Y-70962D01*
X76160Y-71296D01*
X76288Y-71604D01*
X76524Y-71840D01*
X76832Y-71968D01*
X77166Y-71969D01*
X77474Y-71841D01*
X77710Y-71605D01*
X77838Y-71297D01*
X77839Y-70963D01*
X77839Y-72833D01*
X77711Y-72525D01*
X77475Y-72289D01*
X77167Y-72161D01*
X76833Y-72160D01*
X76525Y-72288D01*
X76289Y-72524D01*
X76161Y-72832D01*
X76160Y-73166D01*
X76288Y-73474D01*
X76524Y-73710D01*
X76832Y-73838D01*
X77166Y-73839D01*
X77474Y-73711D01*
X77710Y-73475D01*
X77838Y-73167D01*
X77839Y-72833D01*
X77839Y-80487D01*
X77839Y-80486D01*
X77839Y-75529D01*
X77839Y-74151D01*
X77816Y-74096D01*
X77774Y-74054D01*
X77718Y-74031D01*
X77659Y-74031D01*
X76281Y-74031D01*
X76226Y-74053D01*
X76183Y-74096D01*
X76161Y-74151D01*
X76160Y-74210D01*
X76160Y-75588D01*
X76183Y-75643D01*
X76225Y-75686D01*
X76281Y-75709D01*
X76340Y-75709D01*
X77718Y-75709D01*
X77773Y-75686D01*
X77816Y-75644D01*
X77838Y-75589D01*
X77839Y-75529D01*
X77839Y-80486D01*
X77389Y-80300D01*
X76613Y-80299D01*
X75896Y-80595D01*
X75347Y-81143D01*
X75050Y-81860D01*
X75049Y-82636D01*
X75345Y-83353D01*
X75893Y-83902D01*
X76610Y-84199D01*
X76999Y-84200D01*
X74200Y-84200D01*
X74200Y-58561D01*
X74200Y-48561D01*
X74055Y-48212D01*
X73788Y-47945D01*
X73439Y-47800D01*
X73061Y-47799D01*
X72712Y-47944D01*
X72445Y-48211D01*
X72300Y-48560D01*
X72299Y-48938D01*
X72444Y-49287D01*
X72711Y-49554D01*
X73060Y-49699D01*
X73438Y-49700D01*
X73787Y-49555D01*
X74054Y-49288D01*
X74199Y-48939D01*
X74200Y-48561D01*
X74200Y-58561D01*
X74055Y-58212D01*
X73788Y-57945D01*
X73439Y-57800D01*
X73061Y-57799D01*
X72712Y-57944D01*
X72445Y-58211D01*
X72300Y-58560D01*
X72299Y-58938D01*
X72444Y-59287D01*
X72711Y-59554D01*
X73060Y-59699D01*
X73438Y-59700D01*
X73787Y-59555D01*
X74054Y-59288D01*
X74199Y-58939D01*
X74200Y-58561D01*
X74200Y-84200D01*
X72508Y-84200D01*
X72508Y-77250D01*
X72508Y-75750D01*
X72508Y-74250D01*
X72508Y-72750D01*
X72470Y-72560D01*
X72363Y-72399D01*
X72258Y-72329D01*
X72258Y-54750D01*
X72220Y-54560D01*
X72113Y-54399D01*
X71952Y-54292D01*
X71763Y-54255D01*
X71391Y-54255D01*
X71202Y-54292D01*
X71041Y-54399D01*
X70934Y-54560D01*
X70896Y-54750D01*
X70934Y-54939D01*
X71041Y-55100D01*
X71202Y-55207D01*
X71391Y-55245D01*
X71763Y-55245D01*
X71952Y-55207D01*
X72113Y-55100D01*
X72220Y-54939D01*
X72258Y-54750D01*
X72258Y-72329D01*
X72202Y-72292D01*
X72013Y-72255D01*
X71641Y-72255D01*
X71452Y-72292D01*
X71291Y-72399D01*
X71184Y-72560D01*
X71146Y-72750D01*
X71184Y-72939D01*
X71291Y-73100D01*
X71452Y-73207D01*
X71641Y-73245D01*
X72013Y-73245D01*
X72202Y-73207D01*
X72363Y-73100D01*
X72470Y-72939D01*
X72508Y-72750D01*
X72508Y-74250D01*
X72470Y-74060D01*
X72363Y-73899D01*
X72202Y-73792D01*
X72013Y-73755D01*
X71641Y-73755D01*
X71452Y-73792D01*
X71291Y-73899D01*
X71184Y-74060D01*
X71146Y-74250D01*
X71184Y-74439D01*
X71291Y-74600D01*
X71452Y-74707D01*
X71641Y-74745D01*
X72013Y-74745D01*
X72202Y-74707D01*
X72363Y-74600D01*
X72470Y-74439D01*
X72508Y-74250D01*
X72508Y-75750D01*
X72470Y-75560D01*
X72363Y-75399D01*
X72202Y-75292D01*
X72013Y-75255D01*
X71641Y-75255D01*
X71452Y-75292D01*
X71291Y-75399D01*
X71184Y-75560D01*
X71146Y-75750D01*
X71184Y-75939D01*
X71291Y-76100D01*
X71452Y-76207D01*
X71641Y-76245D01*
X72013Y-76245D01*
X72202Y-76207D01*
X72363Y-76100D01*
X72470Y-75939D01*
X72508Y-75750D01*
X72508Y-77250D01*
X72470Y-77060D01*
X72363Y-76899D01*
X72202Y-76792D01*
X72013Y-76755D01*
X71641Y-76755D01*
X71452Y-76792D01*
X71291Y-76899D01*
X71184Y-77060D01*
X71146Y-77250D01*
X71184Y-77439D01*
X71291Y-77600D01*
X71452Y-77707D01*
X71641Y-77745D01*
X72013Y-77745D01*
X72202Y-77707D01*
X72363Y-77600D01*
X72470Y-77439D01*
X72508Y-77250D01*
X72508Y-84200D01*
X69886Y-84200D01*
X70603Y-83904D01*
X71152Y-83356D01*
X71449Y-82639D01*
X71450Y-81863D01*
X71154Y-81146D01*
X70990Y-80982D01*
X70990Y-70515D01*
X70990Y-69925D01*
X70967Y-69870D01*
X70925Y-69827D01*
X70869Y-69805D01*
X70810Y-69804D01*
X70175Y-69804D01*
X70175Y-56165D01*
X70110Y-56009D01*
X69991Y-55889D01*
X69834Y-55825D01*
X69665Y-55824D01*
X69509Y-55889D01*
X69389Y-56008D01*
X69325Y-56165D01*
X69324Y-56334D01*
X69389Y-56490D01*
X69508Y-56610D01*
X69665Y-56674D01*
X69834Y-56675D01*
X69990Y-56610D01*
X70110Y-56491D01*
X70174Y-56334D01*
X70175Y-56165D01*
X70175Y-69804D01*
X69925Y-69804D01*
X69870Y-69827D01*
X69827Y-69869D01*
X69805Y-69925D01*
X69804Y-69984D01*
X69804Y-70574D01*
X69827Y-70629D01*
X69869Y-70672D01*
X69925Y-70694D01*
X69984Y-70695D01*
X70869Y-70695D01*
X70924Y-70672D01*
X70967Y-70630D01*
X70989Y-70574D01*
X70990Y-70515D01*
X70990Y-80982D01*
X70606Y-80597D01*
X69889Y-80300D01*
X69778Y-80300D01*
X69778Y-70384D01*
X69778Y-70115D01*
X69772Y-70087D01*
X69670Y-69899D01*
X69504Y-69765D01*
X69300Y-69705D01*
X69152Y-69705D01*
X69152Y-70200D01*
X69729Y-70200D01*
X69778Y-70115D01*
X69778Y-70384D01*
X69729Y-70300D01*
X69152Y-70300D01*
X69152Y-70795D01*
X69300Y-70795D01*
X69504Y-70734D01*
X69670Y-70600D01*
X69772Y-70412D01*
X69778Y-70384D01*
X69778Y-80300D01*
X69113Y-80299D01*
X69052Y-80325D01*
X69052Y-70795D01*
X69052Y-70300D01*
X69052Y-70200D01*
X69052Y-69705D01*
X68905Y-69705D01*
X68700Y-69765D01*
X68534Y-69899D01*
X68432Y-70087D01*
X68426Y-70115D01*
X68475Y-70200D01*
X69052Y-70200D01*
X69052Y-70300D01*
X68475Y-70300D01*
X68426Y-70384D01*
X68432Y-70412D01*
X68534Y-70600D01*
X68700Y-70734D01*
X68905Y-70795D01*
X69052Y-70795D01*
X69052Y-80325D01*
X68396Y-80595D01*
X68279Y-80712D01*
X68279Y-56325D01*
X68268Y-56117D01*
X68210Y-55977D01*
X68117Y-55952D01*
X67820Y-56250D01*
X68117Y-56547D01*
X68210Y-56522D01*
X68279Y-56325D01*
X68279Y-80712D01*
X68047Y-80945D01*
X68047Y-56617D01*
X67750Y-56320D01*
X67452Y-56617D01*
X67477Y-56710D01*
X67674Y-56779D01*
X67882Y-56768D01*
X68022Y-56710D01*
X68047Y-56617D01*
X68047Y-80945D01*
X67853Y-81138D01*
X67853Y-77250D01*
X67853Y-75750D01*
X67853Y-74250D01*
X67853Y-72750D01*
X67815Y-72560D01*
X67708Y-72399D01*
X67547Y-72292D01*
X67358Y-72255D01*
X66986Y-72255D01*
X66797Y-72292D01*
X66636Y-72399D01*
X66529Y-72560D01*
X66491Y-72750D01*
X66529Y-72939D01*
X66636Y-73100D01*
X66797Y-73207D01*
X66986Y-73245D01*
X67358Y-73245D01*
X67547Y-73207D01*
X67708Y-73100D01*
X67815Y-72939D01*
X67853Y-72750D01*
X67853Y-74250D01*
X67815Y-74060D01*
X67708Y-73899D01*
X67547Y-73792D01*
X67358Y-73755D01*
X66986Y-73755D01*
X66797Y-73792D01*
X66636Y-73899D01*
X66529Y-74060D01*
X66491Y-74250D01*
X66529Y-74439D01*
X66636Y-74600D01*
X66797Y-74707D01*
X66986Y-74745D01*
X67358Y-74745D01*
X67547Y-74707D01*
X67708Y-74600D01*
X67815Y-74439D01*
X67853Y-74250D01*
X67853Y-75750D01*
X67815Y-75560D01*
X67708Y-75399D01*
X67547Y-75292D01*
X67358Y-75255D01*
X66986Y-75255D01*
X66797Y-75292D01*
X66636Y-75399D01*
X66529Y-75560D01*
X66491Y-75750D01*
X66529Y-75939D01*
X66636Y-76100D01*
X66797Y-76207D01*
X66986Y-76245D01*
X67358Y-76245D01*
X67547Y-76207D01*
X67708Y-76100D01*
X67815Y-75939D01*
X67853Y-75750D01*
X67853Y-77250D01*
X67815Y-77060D01*
X67708Y-76899D01*
X67547Y-76792D01*
X67358Y-76755D01*
X66986Y-76755D01*
X66797Y-76792D01*
X66636Y-76899D01*
X66529Y-77060D01*
X66491Y-77250D01*
X66529Y-77439D01*
X66636Y-77600D01*
X66797Y-77707D01*
X66986Y-77745D01*
X67358Y-77745D01*
X67547Y-77707D01*
X67708Y-77600D01*
X67815Y-77439D01*
X67853Y-77250D01*
X67853Y-81138D01*
X67847Y-81143D01*
X67550Y-81860D01*
X67549Y-82636D01*
X67845Y-83353D01*
X68393Y-83902D01*
X69110Y-84199D01*
X69499Y-84200D01*
X65550Y-84200D01*
X65550Y-71963D01*
X65649Y-72113D01*
X65810Y-72220D01*
X66000Y-72258D01*
X66189Y-72220D01*
X66350Y-72113D01*
X66457Y-71952D01*
X66495Y-71763D01*
X66495Y-71391D01*
X66495Y-67108D01*
X66495Y-66736D01*
X66457Y-66547D01*
X66350Y-66386D01*
X66189Y-66279D01*
X66000Y-66241D01*
X65810Y-66279D01*
X65649Y-66386D01*
X65542Y-66547D01*
X65505Y-66736D01*
X65505Y-67108D01*
X65542Y-67297D01*
X65649Y-67458D01*
X65810Y-67565D01*
X66000Y-67603D01*
X66189Y-67565D01*
X66350Y-67458D01*
X66457Y-67297D01*
X66495Y-67108D01*
X66495Y-71391D01*
X66457Y-71202D01*
X66350Y-71041D01*
X66189Y-70934D01*
X66000Y-70896D01*
X65810Y-70934D01*
X65649Y-71041D01*
X65542Y-71202D01*
X65505Y-71391D01*
X65505Y-71763D01*
X65542Y-71950D01*
X64957Y-71950D01*
X64995Y-71763D01*
X64995Y-71391D01*
X64995Y-67108D01*
X64995Y-66736D01*
X64957Y-66547D01*
X64850Y-66386D01*
X64689Y-66279D01*
X64500Y-66241D01*
X64310Y-66279D01*
X64149Y-66386D01*
X64042Y-66547D01*
X64005Y-66736D01*
X64005Y-67108D01*
X64042Y-67297D01*
X64149Y-67458D01*
X64310Y-67565D01*
X64500Y-67603D01*
X64689Y-67565D01*
X64850Y-67458D01*
X64957Y-67297D01*
X64995Y-67108D01*
X64995Y-71391D01*
X64957Y-71202D01*
X64850Y-71041D01*
X64689Y-70934D01*
X64500Y-70896D01*
X64310Y-70934D01*
X64149Y-71041D01*
X64042Y-71202D01*
X64005Y-71391D01*
X64005Y-71763D01*
X64042Y-71950D01*
X63457Y-71950D01*
X63495Y-71763D01*
X63495Y-71391D01*
X63495Y-67108D01*
X63495Y-66736D01*
X63457Y-66547D01*
X63350Y-66386D01*
X63189Y-66279D01*
X63000Y-66241D01*
X62810Y-66279D01*
X62649Y-66386D01*
X62542Y-66547D01*
X62505Y-66736D01*
X62505Y-67108D01*
X62542Y-67297D01*
X62649Y-67458D01*
X62810Y-67565D01*
X63000Y-67603D01*
X63189Y-67565D01*
X63350Y-67458D01*
X63457Y-67297D01*
X63495Y-67108D01*
X63495Y-71391D01*
X63457Y-71202D01*
X63350Y-71041D01*
X63189Y-70934D01*
X63000Y-70896D01*
X62810Y-70934D01*
X62649Y-71041D01*
X62542Y-71202D01*
X62505Y-71391D01*
X62505Y-71763D01*
X62542Y-71950D01*
X61957Y-71950D01*
X61995Y-71763D01*
X61995Y-71391D01*
X61995Y-67108D01*
X61995Y-66736D01*
X61957Y-66547D01*
X61850Y-66386D01*
X61689Y-66279D01*
X61500Y-66241D01*
X61310Y-66279D01*
X61149Y-66386D01*
X61042Y-66547D01*
X61005Y-66736D01*
X61005Y-67108D01*
X61042Y-67297D01*
X61149Y-67458D01*
X61310Y-67565D01*
X61500Y-67603D01*
X61689Y-67565D01*
X61850Y-67458D01*
X61957Y-67297D01*
X61995Y-67108D01*
X61995Y-71391D01*
X61957Y-71202D01*
X61850Y-71041D01*
X61689Y-70934D01*
X61500Y-70896D01*
X61310Y-70934D01*
X61149Y-71041D01*
X61042Y-71202D01*
X61005Y-71391D01*
X61005Y-71763D01*
X61042Y-71950D01*
X60457Y-71950D01*
X60495Y-71763D01*
X60495Y-71391D01*
X60495Y-67108D01*
X60495Y-66736D01*
X60457Y-66547D01*
X60350Y-66386D01*
X60189Y-66279D01*
X60000Y-66241D01*
X59810Y-66279D01*
X59649Y-66386D01*
X59542Y-66547D01*
X59505Y-66736D01*
X59505Y-67108D01*
X59542Y-67297D01*
X59649Y-67458D01*
X59810Y-67565D01*
X60000Y-67603D01*
X60189Y-67565D01*
X60350Y-67458D01*
X60457Y-67297D01*
X60495Y-67108D01*
X60495Y-71391D01*
X60457Y-71202D01*
X60350Y-71041D01*
X60189Y-70934D01*
X60000Y-70896D01*
X59810Y-70934D01*
X59649Y-71041D01*
X59542Y-71202D01*
X59505Y-71391D01*
X59505Y-71763D01*
X59542Y-71950D01*
X58899Y-71950D01*
X58911Y-71931D01*
X58945Y-71761D01*
X58945Y-71443D01*
X58945Y-68056D01*
X58945Y-67738D01*
X58911Y-67568D01*
X58814Y-67423D01*
X58670Y-67327D01*
X58500Y-67293D01*
X58329Y-67327D01*
X58185Y-67423D01*
X58088Y-67568D01*
X58055Y-67738D01*
X58055Y-68056D01*
X58088Y-68226D01*
X58185Y-68371D01*
X58329Y-68467D01*
X58500Y-68501D01*
X58670Y-68467D01*
X58814Y-68371D01*
X58911Y-68226D01*
X58945Y-68056D01*
X58945Y-71443D01*
X58911Y-71273D01*
X58814Y-71128D01*
X58670Y-71032D01*
X58500Y-70998D01*
X58329Y-71032D01*
X58185Y-71128D01*
X58088Y-71273D01*
X58055Y-71443D01*
X58055Y-71761D01*
X58088Y-71931D01*
X58100Y-71950D01*
X57899Y-71950D01*
X57911Y-71931D01*
X57945Y-71761D01*
X57945Y-71443D01*
X57945Y-68056D01*
X57945Y-67738D01*
X57911Y-67568D01*
X57814Y-67423D01*
X57670Y-67327D01*
X57500Y-67293D01*
X57329Y-67327D01*
X57185Y-67423D01*
X57088Y-67568D01*
X57055Y-67738D01*
X57055Y-68056D01*
X57088Y-68226D01*
X57185Y-68371D01*
X57329Y-68467D01*
X57500Y-68501D01*
X57670Y-68467D01*
X57814Y-68371D01*
X57911Y-68226D01*
X57945Y-68056D01*
X57945Y-71443D01*
X57911Y-71273D01*
X57814Y-71128D01*
X57670Y-71032D01*
X57500Y-70998D01*
X57329Y-71032D01*
X57185Y-71128D01*
X57088Y-71273D01*
X57055Y-71443D01*
X57055Y-71761D01*
X57088Y-71931D01*
X57100Y-71950D01*
X56899Y-71950D01*
X56911Y-71931D01*
X56945Y-71761D01*
X56945Y-71443D01*
X56945Y-68056D01*
X56945Y-67738D01*
X56911Y-67568D01*
X56814Y-67423D01*
X56670Y-67327D01*
X56500Y-67293D01*
X56329Y-67327D01*
X56185Y-67423D01*
X56088Y-67568D01*
X56055Y-67738D01*
X56055Y-68056D01*
X56088Y-68226D01*
X56185Y-68371D01*
X56329Y-68467D01*
X56500Y-68501D01*
X56670Y-68467D01*
X56814Y-68371D01*
X56911Y-68226D01*
X56945Y-68056D01*
X56945Y-71443D01*
X56911Y-71273D01*
X56814Y-71128D01*
X56670Y-71032D01*
X56500Y-70998D01*
X56329Y-71032D01*
X56185Y-71128D01*
X56088Y-71273D01*
X56055Y-71443D01*
X56055Y-71761D01*
X56088Y-71931D01*
X56100Y-71950D01*
X55900Y-71950D01*
X55900Y-67372D01*
X67286Y-55986D01*
X67220Y-56174D01*
X67231Y-56382D01*
X67289Y-56522D01*
X67382Y-56547D01*
X67679Y-56250D01*
X67673Y-56244D01*
X67744Y-56173D01*
X67750Y-56179D01*
X68047Y-55882D01*
X68022Y-55789D01*
X67825Y-55720D01*
X67617Y-55731D01*
X67487Y-55785D01*
X68511Y-54761D01*
X68622Y-54650D01*
X70000Y-54650D01*
X70344Y-54581D01*
X70636Y-54386D01*
X70827Y-54100D01*
X71041Y-54100D01*
X71041Y-54100D01*
X71202Y-54207D01*
X71391Y-54245D01*
X71763Y-54245D01*
X71952Y-54207D01*
X72113Y-54100D01*
X72220Y-53939D01*
X72258Y-53750D01*
X72245Y-53684D01*
X72245Y-53065D01*
X72245Y-52375D01*
X72222Y-52320D01*
X72180Y-52277D01*
X72124Y-52255D01*
X72065Y-52254D01*
X71030Y-52254D01*
X70975Y-52277D01*
X70932Y-52319D01*
X70910Y-52375D01*
X70909Y-52434D01*
X70909Y-53124D01*
X70932Y-53179D01*
X70974Y-53222D01*
X71030Y-53244D01*
X71089Y-53245D01*
X72124Y-53245D01*
X72179Y-53222D01*
X72222Y-53180D01*
X72244Y-53124D01*
X72245Y-53065D01*
X72245Y-53684D01*
X72220Y-53560D01*
X72113Y-53399D01*
X71952Y-53292D01*
X71763Y-53255D01*
X71391Y-53255D01*
X71202Y-53292D01*
X71041Y-53399D01*
X71041Y-53400D01*
X70827Y-53400D01*
X70751Y-53286D01*
X70751Y-52000D01*
X70717Y-51829D01*
X70621Y-51685D01*
X70476Y-51588D01*
X70306Y-51555D01*
X69988Y-51555D01*
X69818Y-51588D01*
X69673Y-51685D01*
X69577Y-51829D01*
X69543Y-52000D01*
X69577Y-52170D01*
X69673Y-52314D01*
X69818Y-52411D01*
X69988Y-52445D01*
X70306Y-52445D01*
X70476Y-52411D01*
X70621Y-52314D01*
X70717Y-52170D01*
X70751Y-52000D01*
X70751Y-53286D01*
X70636Y-53113D01*
X70344Y-52918D01*
X70000Y-52850D01*
X68250Y-52850D01*
X67905Y-52918D01*
X67775Y-53005D01*
X67750Y-53000D01*
X67445Y-53000D01*
X67445Y-52265D01*
X67445Y-51675D01*
X67422Y-51620D01*
X67380Y-51577D01*
X67324Y-51555D01*
X67265Y-51554D01*
X66380Y-51554D01*
X66325Y-51577D01*
X66282Y-51619D01*
X66260Y-51675D01*
X66259Y-51734D01*
X66259Y-52324D01*
X66282Y-52379D01*
X66324Y-52422D01*
X66380Y-52444D01*
X66439Y-52445D01*
X67324Y-52445D01*
X67379Y-52422D01*
X67422Y-52380D01*
X67444Y-52324D01*
X67445Y-52265D01*
X67445Y-53000D01*
X67414Y-53000D01*
X67371Y-52935D01*
X67226Y-52838D01*
X67056Y-52805D01*
X66738Y-52805D01*
X66568Y-52838D01*
X66423Y-52935D01*
X66327Y-53079D01*
X66293Y-53250D01*
X66327Y-53420D01*
X66423Y-53564D01*
X66568Y-53661D01*
X66738Y-53695D01*
X67032Y-53695D01*
X65801Y-54925D01*
X65801Y-48351D01*
X65798Y-47933D01*
X65644Y-47561D01*
X65497Y-47473D01*
X65426Y-47544D01*
X65426Y-47402D01*
X65338Y-47255D01*
X64951Y-47098D01*
X64533Y-47101D01*
X64161Y-47255D01*
X64073Y-47402D01*
X64750Y-48079D01*
X65426Y-47402D01*
X65426Y-47544D01*
X64820Y-48150D01*
X65497Y-48826D01*
X65644Y-48738D01*
X65801Y-48351D01*
X65801Y-54925D01*
X65700Y-55027D01*
X65700Y-51270D01*
X65700Y-49670D01*
X65677Y-49615D01*
X65635Y-49572D01*
X65579Y-49550D01*
X65520Y-49549D01*
X65426Y-49549D01*
X65426Y-48897D01*
X64750Y-48220D01*
X64679Y-48291D01*
X64679Y-48150D01*
X64002Y-47473D01*
X63855Y-47561D01*
X63698Y-47948D01*
X63701Y-48366D01*
X63855Y-48738D01*
X64002Y-48826D01*
X64679Y-48150D01*
X64679Y-48291D01*
X64073Y-48897D01*
X64161Y-49044D01*
X64548Y-49201D01*
X64966Y-49198D01*
X65338Y-49044D01*
X65426Y-48897D01*
X65426Y-49549D01*
X63931Y-49549D01*
X63951Y-49501D01*
X63948Y-49083D01*
X63794Y-48711D01*
X63647Y-48623D01*
X63576Y-48694D01*
X63576Y-48552D01*
X63488Y-48405D01*
X63101Y-48248D01*
X62683Y-48251D01*
X62311Y-48405D01*
X62223Y-48552D01*
X62900Y-49229D01*
X63576Y-48552D01*
X63576Y-48694D01*
X62970Y-49300D01*
X63647Y-49976D01*
X63794Y-49888D01*
X63799Y-49874D01*
X63799Y-51329D01*
X63822Y-51384D01*
X63864Y-51427D01*
X63920Y-51449D01*
X63979Y-51450D01*
X65579Y-51450D01*
X65634Y-51427D01*
X65677Y-51385D01*
X65699Y-51329D01*
X65700Y-51270D01*
X65700Y-55027D01*
X64195Y-56532D01*
X64195Y-53515D01*
X64195Y-52925D01*
X64172Y-52870D01*
X64130Y-52827D01*
X64074Y-52805D01*
X64015Y-52804D01*
X63576Y-52804D01*
X63576Y-50047D01*
X62900Y-49370D01*
X62829Y-49441D01*
X62829Y-49300D01*
X62152Y-48623D01*
X62005Y-48711D01*
X61848Y-49098D01*
X61851Y-49516D01*
X62005Y-49888D01*
X62152Y-49976D01*
X62829Y-49300D01*
X62829Y-49441D01*
X62223Y-50047D01*
X62311Y-50194D01*
X62698Y-50351D01*
X63116Y-50348D01*
X63488Y-50194D01*
X63576Y-50047D01*
X63576Y-52804D01*
X63130Y-52804D01*
X63075Y-52827D01*
X63032Y-52869D01*
X63010Y-52925D01*
X63009Y-52984D01*
X63009Y-53574D01*
X63032Y-53629D01*
X63074Y-53672D01*
X63130Y-53694D01*
X63189Y-53695D01*
X64074Y-53695D01*
X64129Y-53672D01*
X64172Y-53630D01*
X64194Y-53574D01*
X64195Y-53515D01*
X64195Y-56532D01*
X61345Y-59382D01*
X61345Y-58895D01*
X61345Y-58722D01*
X61345Y-58622D01*
X61345Y-58450D01*
X61280Y-58226D01*
X61245Y-58181D01*
X61245Y-56815D01*
X61245Y-55780D01*
X61222Y-55725D01*
X61180Y-55682D01*
X61124Y-55660D01*
X61065Y-55659D01*
X60801Y-55659D01*
X60801Y-48351D01*
X60798Y-47933D01*
X60644Y-47561D01*
X60497Y-47473D01*
X60426Y-47544D01*
X60426Y-47402D01*
X60338Y-47255D01*
X59951Y-47098D01*
X59533Y-47101D01*
X59161Y-47255D01*
X59073Y-47402D01*
X59750Y-48079D01*
X60426Y-47402D01*
X60426Y-47544D01*
X59820Y-48150D01*
X60497Y-48826D01*
X60644Y-48738D01*
X60801Y-48351D01*
X60801Y-55659D01*
X60700Y-55659D01*
X60700Y-51270D01*
X60700Y-49670D01*
X60677Y-49615D01*
X60635Y-49572D01*
X60579Y-49550D01*
X60520Y-49549D01*
X60426Y-49549D01*
X60426Y-48897D01*
X59750Y-48220D01*
X59679Y-48291D01*
X59679Y-48150D01*
X59002Y-47473D01*
X58855Y-47561D01*
X58698Y-47948D01*
X58701Y-48366D01*
X58855Y-48738D01*
X59002Y-48826D01*
X59679Y-48150D01*
X59679Y-48291D01*
X59073Y-48897D01*
X59161Y-49044D01*
X59548Y-49201D01*
X59966Y-49198D01*
X60338Y-49044D01*
X60426Y-48897D01*
X60426Y-49549D01*
X58931Y-49549D01*
X58951Y-49501D01*
X58948Y-49083D01*
X58794Y-48711D01*
X58647Y-48623D01*
X58576Y-48694D01*
X58576Y-48552D01*
X58488Y-48405D01*
X58101Y-48248D01*
X57683Y-48251D01*
X57311Y-48405D01*
X57223Y-48552D01*
X57900Y-49229D01*
X58576Y-48552D01*
X58576Y-48694D01*
X57970Y-49300D01*
X58647Y-49976D01*
X58794Y-49888D01*
X58799Y-49874D01*
X58799Y-51329D01*
X58822Y-51384D01*
X58864Y-51427D01*
X58920Y-51449D01*
X58979Y-51450D01*
X60579Y-51450D01*
X60634Y-51427D01*
X60677Y-51385D01*
X60699Y-51329D01*
X60700Y-51270D01*
X60700Y-55659D01*
X60375Y-55659D01*
X60320Y-55682D01*
X60277Y-55724D01*
X60255Y-55780D01*
X60254Y-55839D01*
X60254Y-56874D01*
X60277Y-56929D01*
X60319Y-56972D01*
X60375Y-56994D01*
X60434Y-56995D01*
X61124Y-56995D01*
X61179Y-56972D01*
X61222Y-56930D01*
X61244Y-56874D01*
X61245Y-56815D01*
X61245Y-58181D01*
X61135Y-58043D01*
X60931Y-57931D01*
X60892Y-57922D01*
X60800Y-57969D01*
X60800Y-58622D01*
X61345Y-58622D01*
X61345Y-58722D01*
X60800Y-58722D01*
X60800Y-59375D01*
X60892Y-59422D01*
X60931Y-59413D01*
X61135Y-59301D01*
X61280Y-59118D01*
X61345Y-58895D01*
X61345Y-59382D01*
X60700Y-60027D01*
X60700Y-59375D01*
X60700Y-58722D01*
X60700Y-58622D01*
X60700Y-57969D01*
X60607Y-57922D01*
X60568Y-57931D01*
X60364Y-58043D01*
X60219Y-58226D01*
X60155Y-58450D01*
X60155Y-58622D01*
X60700Y-58622D01*
X60700Y-58722D01*
X60155Y-58722D01*
X60155Y-58895D01*
X60219Y-59118D01*
X60364Y-59301D01*
X60568Y-59413D01*
X60607Y-59422D01*
X60700Y-59375D01*
X60700Y-60027D01*
X58576Y-62150D01*
X58576Y-50047D01*
X57900Y-49370D01*
X57829Y-49441D01*
X57829Y-49300D01*
X57152Y-48623D01*
X57005Y-48711D01*
X56848Y-49098D01*
X56851Y-49516D01*
X57005Y-49888D01*
X57152Y-49976D01*
X57829Y-49300D01*
X57829Y-49441D01*
X57223Y-50047D01*
X57311Y-50194D01*
X57698Y-50351D01*
X58116Y-50348D01*
X58488Y-50194D01*
X58576Y-50047D01*
X58576Y-62150D01*
X56089Y-64638D01*
X56089Y-60583D01*
X56089Y-58713D01*
X56089Y-51083D01*
X56089Y-49213D01*
X55961Y-48905D01*
X55725Y-48669D01*
X55417Y-48541D01*
X55083Y-48540D01*
X54775Y-48668D01*
X54539Y-48904D01*
X54411Y-49212D01*
X54410Y-49546D01*
X54538Y-49854D01*
X54774Y-50090D01*
X55082Y-50218D01*
X55416Y-50219D01*
X55724Y-50091D01*
X55960Y-49855D01*
X56088Y-49547D01*
X56089Y-49213D01*
X56089Y-51083D01*
X55961Y-50775D01*
X55725Y-50539D01*
X55417Y-50411D01*
X55083Y-50410D01*
X54775Y-50538D01*
X54539Y-50774D01*
X54411Y-51082D01*
X54410Y-51416D01*
X54538Y-51724D01*
X54774Y-51960D01*
X55082Y-52088D01*
X55416Y-52089D01*
X55724Y-51961D01*
X55960Y-51725D01*
X56088Y-51417D01*
X56089Y-51083D01*
X56089Y-58713D01*
X56089Y-58713D01*
X56089Y-53779D01*
X56089Y-52401D01*
X56066Y-52346D01*
X56024Y-52304D01*
X55968Y-52281D01*
X55909Y-52281D01*
X54531Y-52281D01*
X54476Y-52303D01*
X54433Y-52346D01*
X54411Y-52401D01*
X54410Y-52460D01*
X54410Y-53838D01*
X54433Y-53893D01*
X54475Y-53936D01*
X54531Y-53959D01*
X54590Y-53959D01*
X55968Y-53959D01*
X56023Y-53936D01*
X56066Y-53894D01*
X56088Y-53839D01*
X56089Y-53779D01*
X56089Y-58713D01*
X55961Y-58405D01*
X55725Y-58169D01*
X55417Y-58041D01*
X55083Y-58040D01*
X54775Y-58168D01*
X54539Y-58404D01*
X54411Y-58712D01*
X54410Y-59046D01*
X54538Y-59354D01*
X54774Y-59590D01*
X55082Y-59718D01*
X55416Y-59719D01*
X55724Y-59591D01*
X55960Y-59355D01*
X56088Y-59047D01*
X56089Y-58713D01*
X56089Y-60583D01*
X55961Y-60275D01*
X55725Y-60039D01*
X55417Y-59911D01*
X55083Y-59910D01*
X54775Y-60038D01*
X54539Y-60274D01*
X54411Y-60582D01*
X54410Y-60916D01*
X54538Y-61224D01*
X54774Y-61460D01*
X55082Y-61588D01*
X55416Y-61589D01*
X55724Y-61461D01*
X55960Y-61225D01*
X56088Y-60917D01*
X56089Y-60583D01*
X56089Y-64638D01*
X56089Y-64638D01*
X56089Y-63279D01*
X56089Y-61901D01*
X56066Y-61846D01*
X56024Y-61804D01*
X55968Y-61781D01*
X55909Y-61781D01*
X54531Y-61781D01*
X54476Y-61803D01*
X54433Y-61846D01*
X54411Y-61901D01*
X54410Y-61960D01*
X54410Y-63338D01*
X54433Y-63393D01*
X54475Y-63436D01*
X54531Y-63459D01*
X54590Y-63459D01*
X55968Y-63459D01*
X56023Y-63436D01*
X56066Y-63394D01*
X56088Y-63339D01*
X56089Y-63279D01*
X56089Y-64638D01*
X54363Y-66363D01*
X54168Y-66655D01*
X54100Y-67000D01*
X54100Y-71950D01*
X54050Y-71950D01*
X54050Y-47432D01*
X54245Y-47627D01*
X54734Y-47830D01*
X55263Y-47831D01*
X55753Y-47629D01*
X56127Y-47254D01*
X56330Y-46765D01*
X56331Y-46236D01*
X56129Y-45746D01*
X55932Y-45550D01*
X90567Y-45550D01*
X90372Y-45745D01*
X90169Y-46234D01*
X90168Y-46763D01*
X90370Y-47253D01*
X90745Y-47627D01*
X91234Y-47830D01*
X91763Y-47831D01*
X92253Y-47629D01*
X92450Y-47432D01*
X92450Y-76974D01*
X92425Y-76967D01*
X92425Y-75165D01*
X92360Y-75009D01*
X92241Y-74889D01*
X92238Y-74888D01*
X92238Y-71595D01*
X92120Y-71308D01*
X92030Y-71218D01*
X92030Y-65845D01*
X91911Y-65558D01*
X91692Y-65339D01*
X91405Y-65220D01*
X91095Y-65219D01*
X90808Y-65338D01*
X90589Y-65557D01*
X90470Y-65844D01*
X90469Y-66154D01*
X90588Y-66441D01*
X90807Y-66660D01*
X91094Y-66779D01*
X91404Y-66780D01*
X91691Y-66661D01*
X91910Y-66442D01*
X92029Y-66155D01*
X92030Y-65845D01*
X92030Y-71218D01*
X91901Y-71089D01*
X91614Y-70970D01*
X91304Y-70969D01*
X91017Y-71088D01*
X90797Y-71307D01*
X90678Y-71594D01*
X90678Y-71904D01*
X90797Y-72191D01*
X91016Y-72410D01*
X91302Y-72529D01*
X91613Y-72530D01*
X91899Y-72411D01*
X92119Y-72192D01*
X92238Y-71905D01*
X92238Y-71595D01*
X92238Y-74888D01*
X92084Y-74825D01*
X91915Y-74824D01*
X91759Y-74889D01*
X91639Y-75008D01*
X91575Y-75165D01*
X91574Y-75334D01*
X91639Y-75490D01*
X91758Y-75610D01*
X91915Y-75674D01*
X92084Y-75675D01*
X92240Y-75610D01*
X92360Y-75491D01*
X92424Y-75334D01*
X92425Y-75165D01*
X92425Y-76967D01*
X92367Y-76952D01*
X92297Y-77023D01*
X92297Y-76882D01*
X92272Y-76789D01*
X92075Y-76720D01*
X91867Y-76731D01*
X91727Y-76789D01*
X91702Y-76882D01*
X92000Y-77179D01*
X92297Y-76882D01*
X92297Y-77023D01*
X92070Y-77250D01*
X92367Y-77547D01*
X92450Y-77525D01*
X92450Y-82317D01*
G54D10*
G36*
X65200Y-76950D02*
X64557Y-76950D01*
X64519Y-76856D01*
X64266Y-76603D01*
X63935Y-76466D01*
X63632Y-76466D01*
X63632Y-75376D01*
X63495Y-75045D01*
X63242Y-74792D01*
X62912Y-74655D01*
X62554Y-74654D01*
X62223Y-74791D01*
X61969Y-75044D01*
X61832Y-75375D01*
X61832Y-75733D01*
X61968Y-76064D01*
X62221Y-76317D01*
X62552Y-76454D01*
X62910Y-76455D01*
X63241Y-76318D01*
X63494Y-76065D01*
X63632Y-75734D01*
X63632Y-75376D01*
X63632Y-76466D01*
X63577Y-76465D01*
X63246Y-76602D01*
X62993Y-76855D01*
X62954Y-76950D01*
X62200Y-76950D01*
X62200Y-80405D01*
X62001Y-80603D01*
X62001Y-76689D01*
X61998Y-76291D01*
X61853Y-75941D01*
X61821Y-75923D01*
X61821Y-74353D01*
X61684Y-74022D01*
X61431Y-73768D01*
X61101Y-73631D01*
X60743Y-73631D01*
X60412Y-73768D01*
X60158Y-74021D01*
X60021Y-74351D01*
X60021Y-74709D01*
X60157Y-75040D01*
X60410Y-75294D01*
X60741Y-75431D01*
X61099Y-75431D01*
X61430Y-75294D01*
X61683Y-75041D01*
X61821Y-74711D01*
X61821Y-74353D01*
X61821Y-75923D01*
X61711Y-75859D01*
X61640Y-75930D01*
X61640Y-75788D01*
X61558Y-75646D01*
X61189Y-75498D01*
X60791Y-75501D01*
X60441Y-75646D01*
X60359Y-75788D01*
X61000Y-76429D01*
X61640Y-75788D01*
X61640Y-75930D01*
X61070Y-76500D01*
X61711Y-77140D01*
X61853Y-77058D01*
X62001Y-76689D01*
X62001Y-80603D01*
X61969Y-80635D01*
X61832Y-80965D01*
X61832Y-81323D01*
X61968Y-81654D01*
X62013Y-81700D01*
X61740Y-81700D01*
X61724Y-81660D01*
X61640Y-81576D01*
X61640Y-77211D01*
X61000Y-76570D01*
X60929Y-76641D01*
X60929Y-76500D01*
X60288Y-75859D01*
X60146Y-75941D01*
X59998Y-76310D01*
X60001Y-76708D01*
X60146Y-77058D01*
X60288Y-77140D01*
X60929Y-76500D01*
X60929Y-76641D01*
X60359Y-77211D01*
X60441Y-77353D01*
X60810Y-77501D01*
X61208Y-77498D01*
X61558Y-77353D01*
X61640Y-77211D01*
X61640Y-81576D01*
X61471Y-81406D01*
X61140Y-81269D01*
X60782Y-81269D01*
X60451Y-81405D01*
X60198Y-81658D01*
X60180Y-81700D01*
X59875Y-81700D01*
X59875Y-80389D01*
X59872Y-79992D01*
X59852Y-79945D01*
X59852Y-74353D01*
X59716Y-74022D01*
X59463Y-73768D01*
X59132Y-73631D01*
X58774Y-73631D01*
X58443Y-73768D01*
X58190Y-74021D01*
X58052Y-74351D01*
X58052Y-74709D01*
X58189Y-75040D01*
X58442Y-75294D01*
X58772Y-75431D01*
X59130Y-75431D01*
X59461Y-75294D01*
X59715Y-75041D01*
X59852Y-74711D01*
X59852Y-74353D01*
X59852Y-79945D01*
X59727Y-79642D01*
X59585Y-79560D01*
X59514Y-79631D01*
X59514Y-79489D01*
X59432Y-79347D01*
X59063Y-79198D01*
X58665Y-79202D01*
X58315Y-79347D01*
X58233Y-79489D01*
X58874Y-80130D01*
X59514Y-79489D01*
X59514Y-79631D01*
X58944Y-80200D01*
X59585Y-80841D01*
X59727Y-80758D01*
X59875Y-80389D01*
X59875Y-81700D01*
X59732Y-81700D01*
X59716Y-81660D01*
X59514Y-81458D01*
X59514Y-80911D01*
X58874Y-80271D01*
X58803Y-80342D01*
X58803Y-80200D01*
X58162Y-79560D01*
X58041Y-79630D01*
X58041Y-75376D01*
X57905Y-75045D01*
X57652Y-74792D01*
X57321Y-74655D01*
X56963Y-74654D01*
X56632Y-74791D01*
X56379Y-75044D01*
X56241Y-75375D01*
X56241Y-75733D01*
X56378Y-76064D01*
X56631Y-76317D01*
X56961Y-76454D01*
X57319Y-76455D01*
X57650Y-76318D01*
X57904Y-76065D01*
X58041Y-75734D01*
X58041Y-75376D01*
X58041Y-79630D01*
X58020Y-79642D01*
X57872Y-80011D01*
X57876Y-80409D01*
X58020Y-80758D01*
X58162Y-80841D01*
X58803Y-80200D01*
X58803Y-80342D01*
X58233Y-80911D01*
X58315Y-81054D01*
X58684Y-81202D01*
X59082Y-81198D01*
X59432Y-81054D01*
X59514Y-80911D01*
X59514Y-81458D01*
X59463Y-81406D01*
X59132Y-81269D01*
X58774Y-81269D01*
X58443Y-81405D01*
X58190Y-81658D01*
X58173Y-81700D01*
X57860Y-81700D01*
X57904Y-81656D01*
X58041Y-81325D01*
X58041Y-80967D01*
X57905Y-80636D01*
X57652Y-80383D01*
X57321Y-80245D01*
X57300Y-80245D01*
X57300Y-78950D01*
X57018Y-78950D01*
X57018Y-77187D01*
X56881Y-76856D01*
X56628Y-76603D01*
X56297Y-76466D01*
X55939Y-76465D01*
X55608Y-76602D01*
X55355Y-76855D01*
X55218Y-77186D01*
X55217Y-77544D01*
X55354Y-77875D01*
X55607Y-78128D01*
X55938Y-78265D01*
X56296Y-78266D01*
X56627Y-78129D01*
X56880Y-77876D01*
X57017Y-77545D01*
X57018Y-77187D01*
X57018Y-78950D01*
X56932Y-78950D01*
X56881Y-78825D01*
X56628Y-78572D01*
X56297Y-78434D01*
X55939Y-78434D01*
X55608Y-78571D01*
X55355Y-78824D01*
X55303Y-78950D01*
X54050Y-78950D01*
X54050Y-72300D01*
X65200Y-72300D01*
X65200Y-76950D01*
X65200Y-76950D01*
G37*
G54D31*
X65200Y-76950D02*
X64557Y-76950D01*
X64519Y-76856D01*
X64266Y-76603D01*
X63935Y-76466D01*
X63632Y-76466D01*
X63632Y-75376D01*
X63495Y-75045D01*
X63242Y-74792D01*
X62912Y-74655D01*
X62554Y-74654D01*
X62223Y-74791D01*
X61969Y-75044D01*
X61832Y-75375D01*
X61832Y-75733D01*
X61968Y-76064D01*
X62221Y-76317D01*
X62552Y-76454D01*
X62910Y-76455D01*
X63241Y-76318D01*
X63494Y-76065D01*
X63632Y-75734D01*
X63632Y-75376D01*
X63632Y-76466D01*
X63577Y-76465D01*
X63246Y-76602D01*
X62993Y-76855D01*
X62954Y-76950D01*
X62200Y-76950D01*
X62200Y-80405D01*
X62001Y-80603D01*
X62001Y-76689D01*
X61998Y-76291D01*
X61853Y-75941D01*
X61821Y-75923D01*
X61821Y-74353D01*
X61684Y-74022D01*
X61431Y-73768D01*
X61101Y-73631D01*
X60743Y-73631D01*
X60412Y-73768D01*
X60158Y-74021D01*
X60021Y-74351D01*
X60021Y-74709D01*
X60157Y-75040D01*
X60410Y-75294D01*
X60741Y-75431D01*
X61099Y-75431D01*
X61430Y-75294D01*
X61683Y-75041D01*
X61821Y-74711D01*
X61821Y-74353D01*
X61821Y-75923D01*
X61711Y-75859D01*
X61640Y-75930D01*
X61640Y-75788D01*
X61558Y-75646D01*
X61189Y-75498D01*
X60791Y-75501D01*
X60441Y-75646D01*
X60359Y-75788D01*
X61000Y-76429D01*
X61640Y-75788D01*
X61640Y-75930D01*
X61070Y-76500D01*
X61711Y-77140D01*
X61853Y-77058D01*
X62001Y-76689D01*
X62001Y-80603D01*
X61969Y-80635D01*
X61832Y-80965D01*
X61832Y-81323D01*
X61968Y-81654D01*
X62013Y-81700D01*
X61740Y-81700D01*
X61724Y-81660D01*
X61640Y-81576D01*
X61640Y-77211D01*
X61000Y-76570D01*
X60929Y-76641D01*
X60929Y-76500D01*
X60288Y-75859D01*
X60146Y-75941D01*
X59998Y-76310D01*
X60001Y-76708D01*
X60146Y-77058D01*
X60288Y-77140D01*
X60929Y-76500D01*
X60929Y-76641D01*
X60359Y-77211D01*
X60441Y-77353D01*
X60810Y-77501D01*
X61208Y-77498D01*
X61558Y-77353D01*
X61640Y-77211D01*
X61640Y-81576D01*
X61471Y-81406D01*
X61140Y-81269D01*
X60782Y-81269D01*
X60451Y-81405D01*
X60198Y-81658D01*
X60180Y-81700D01*
X59875Y-81700D01*
X59875Y-80389D01*
X59872Y-79992D01*
X59852Y-79945D01*
X59852Y-74353D01*
X59716Y-74022D01*
X59463Y-73768D01*
X59132Y-73631D01*
X58774Y-73631D01*
X58443Y-73768D01*
X58190Y-74021D01*
X58052Y-74351D01*
X58052Y-74709D01*
X58189Y-75040D01*
X58442Y-75294D01*
X58772Y-75431D01*
X59130Y-75431D01*
X59461Y-75294D01*
X59715Y-75041D01*
X59852Y-74711D01*
X59852Y-74353D01*
X59852Y-79945D01*
X59727Y-79642D01*
X59585Y-79560D01*
X59514Y-79631D01*
X59514Y-79489D01*
X59432Y-79347D01*
X59063Y-79198D01*
X58665Y-79202D01*
X58315Y-79347D01*
X58233Y-79489D01*
X58874Y-80130D01*
X59514Y-79489D01*
X59514Y-79631D01*
X58944Y-80200D01*
X59585Y-80841D01*
X59727Y-80758D01*
X59875Y-80389D01*
X59875Y-81700D01*
X59732Y-81700D01*
X59716Y-81660D01*
X59514Y-81458D01*
X59514Y-80911D01*
X58874Y-80271D01*
X58803Y-80342D01*
X58803Y-80200D01*
X58162Y-79560D01*
X58041Y-79630D01*
X58041Y-75376D01*
X57905Y-75045D01*
X57652Y-74792D01*
X57321Y-74655D01*
X56963Y-74654D01*
X56632Y-74791D01*
X56379Y-75044D01*
X56241Y-75375D01*
X56241Y-75733D01*
X56378Y-76064D01*
X56631Y-76317D01*
X56961Y-76454D01*
X57319Y-76455D01*
X57650Y-76318D01*
X57904Y-76065D01*
X58041Y-75734D01*
X58041Y-75376D01*
X58041Y-79630D01*
X58020Y-79642D01*
X57872Y-80011D01*
X57876Y-80409D01*
X58020Y-80758D01*
X58162Y-80841D01*
X58803Y-80200D01*
X58803Y-80342D01*
X58233Y-80911D01*
X58315Y-81054D01*
X58684Y-81202D01*
X59082Y-81198D01*
X59432Y-81054D01*
X59514Y-80911D01*
X59514Y-81458D01*
X59463Y-81406D01*
X59132Y-81269D01*
X58774Y-81269D01*
X58443Y-81405D01*
X58190Y-81658D01*
X58173Y-81700D01*
X57860Y-81700D01*
X57904Y-81656D01*
X58041Y-81325D01*
X58041Y-80967D01*
X57905Y-80636D01*
X57652Y-80383D01*
X57321Y-80245D01*
X57300Y-80245D01*
X57300Y-78950D01*
X57018Y-78950D01*
X57018Y-77187D01*
X56881Y-76856D01*
X56628Y-76603D01*
X56297Y-76466D01*
X55939Y-76465D01*
X55608Y-76602D01*
X55355Y-76855D01*
X55218Y-77186D01*
X55217Y-77544D01*
X55354Y-77875D01*
X55607Y-78128D01*
X55938Y-78265D01*
X56296Y-78266D01*
X56627Y-78129D01*
X56880Y-77876D01*
X57017Y-77545D01*
X57018Y-77187D01*
X57018Y-78950D01*
X56932Y-78950D01*
X56881Y-78825D01*
X56628Y-78572D01*
X56297Y-78434D01*
X55939Y-78434D01*
X55608Y-78571D01*
X55355Y-78824D01*
X55303Y-78950D01*
X54050Y-78950D01*
X54050Y-72300D01*
X65200Y-72300D01*
X65200Y-76950D01*
G54D10*
G36*
X65200Y-84200D02*
X64656Y-84200D01*
X64656Y-79156D01*
X64519Y-78825D01*
X64396Y-78702D01*
X64396Y-78077D01*
X63755Y-77436D01*
X63115Y-78077D01*
X63197Y-78219D01*
X63566Y-78368D01*
X63964Y-78364D01*
X64314Y-78219D01*
X64396Y-78077D01*
X64396Y-78702D01*
X64266Y-78572D01*
X63935Y-78434D01*
X63577Y-78434D01*
X63246Y-78571D01*
X62993Y-78824D01*
X62856Y-79154D01*
X62855Y-79512D01*
X62992Y-79843D01*
X63245Y-80097D01*
X63576Y-80234D01*
X63934Y-80234D01*
X64265Y-80098D01*
X64518Y-79845D01*
X64655Y-79514D01*
X64656Y-79156D01*
X64656Y-84200D01*
X55932Y-84200D01*
X56127Y-84004D01*
X56330Y-83515D01*
X56331Y-82986D01*
X56129Y-82496D01*
X55754Y-82122D01*
X55265Y-81919D01*
X54736Y-81918D01*
X54246Y-82120D01*
X54050Y-82317D01*
X54050Y-79300D01*
X55117Y-79300D01*
X55120Y-79543D01*
X55264Y-79892D01*
X55406Y-79975D01*
X56047Y-79334D01*
X56041Y-79329D01*
X56070Y-79300D01*
X56165Y-79300D01*
X56194Y-79329D01*
X56188Y-79334D01*
X56829Y-79975D01*
X56950Y-79905D01*
X56950Y-80251D01*
X56758Y-80330D01*
X56758Y-80045D01*
X56118Y-79405D01*
X55477Y-80045D01*
X55559Y-80187D01*
X55928Y-80336D01*
X56326Y-80332D01*
X56676Y-80187D01*
X56758Y-80045D01*
X56758Y-80330D01*
X56632Y-80382D01*
X56379Y-80635D01*
X56241Y-80965D01*
X56241Y-81323D01*
X56378Y-81654D01*
X56631Y-81908D01*
X56950Y-82040D01*
X56950Y-82050D01*
X58052Y-82050D01*
X58052Y-82347D01*
X58189Y-82678D01*
X58442Y-82931D01*
X58772Y-83069D01*
X59130Y-83069D01*
X59461Y-82932D01*
X59715Y-82679D01*
X59852Y-82349D01*
X59852Y-82050D01*
X60060Y-82050D01*
X60060Y-82347D01*
X60197Y-82678D01*
X60450Y-82931D01*
X60780Y-83069D01*
X61138Y-83069D01*
X61469Y-82932D01*
X61723Y-82679D01*
X61860Y-82349D01*
X61860Y-82050D01*
X62550Y-82050D01*
X62550Y-82044D01*
X62552Y-82045D01*
X62910Y-82045D01*
X63241Y-81909D01*
X63494Y-81656D01*
X63632Y-81325D01*
X63632Y-80967D01*
X63495Y-80636D01*
X63242Y-80383D01*
X62912Y-80245D01*
X62554Y-80245D01*
X62550Y-80247D01*
X62550Y-77300D01*
X62755Y-77300D01*
X62757Y-77574D01*
X62902Y-77924D01*
X63044Y-78006D01*
X63685Y-77366D01*
X63679Y-77360D01*
X63740Y-77300D01*
X63771Y-77300D01*
X63832Y-77360D01*
X63826Y-77366D01*
X64467Y-78006D01*
X64609Y-77924D01*
X64757Y-77555D01*
X64755Y-77300D01*
X65200Y-77300D01*
X65200Y-84200D01*
X65200Y-84200D01*
G37*
G54D31*
X65200Y-84200D02*
X64656Y-84200D01*
X64656Y-79156D01*
X64519Y-78825D01*
X64396Y-78702D01*
X64396Y-78077D01*
X63755Y-77436D01*
X63115Y-78077D01*
X63197Y-78219D01*
X63566Y-78368D01*
X63964Y-78364D01*
X64314Y-78219D01*
X64396Y-78077D01*
X64396Y-78702D01*
X64266Y-78572D01*
X63935Y-78434D01*
X63577Y-78434D01*
X63246Y-78571D01*
X62993Y-78824D01*
X62856Y-79154D01*
X62855Y-79512D01*
X62992Y-79843D01*
X63245Y-80097D01*
X63576Y-80234D01*
X63934Y-80234D01*
X64265Y-80098D01*
X64518Y-79845D01*
X64655Y-79514D01*
X64656Y-79156D01*
X64656Y-84200D01*
X55932Y-84200D01*
X56127Y-84004D01*
X56330Y-83515D01*
X56331Y-82986D01*
X56129Y-82496D01*
X55754Y-82122D01*
X55265Y-81919D01*
X54736Y-81918D01*
X54246Y-82120D01*
X54050Y-82317D01*
X54050Y-79300D01*
X55117Y-79300D01*
X55120Y-79543D01*
X55264Y-79892D01*
X55406Y-79975D01*
X56047Y-79334D01*
X56041Y-79329D01*
X56070Y-79300D01*
X56165Y-79300D01*
X56194Y-79329D01*
X56188Y-79334D01*
X56829Y-79975D01*
X56950Y-79905D01*
X56950Y-80251D01*
X56758Y-80330D01*
X56758Y-80045D01*
X56118Y-79405D01*
X55477Y-80045D01*
X55559Y-80187D01*
X55928Y-80336D01*
X56326Y-80332D01*
X56676Y-80187D01*
X56758Y-80045D01*
X56758Y-80330D01*
X56632Y-80382D01*
X56379Y-80635D01*
X56241Y-80965D01*
X56241Y-81323D01*
X56378Y-81654D01*
X56631Y-81908D01*
X56950Y-82040D01*
X56950Y-82050D01*
X58052Y-82050D01*
X58052Y-82347D01*
X58189Y-82678D01*
X58442Y-82931D01*
X58772Y-83069D01*
X59130Y-83069D01*
X59461Y-82932D01*
X59715Y-82679D01*
X59852Y-82349D01*
X59852Y-82050D01*
X60060Y-82050D01*
X60060Y-82347D01*
X60197Y-82678D01*
X60450Y-82931D01*
X60780Y-83069D01*
X61138Y-83069D01*
X61469Y-82932D01*
X61723Y-82679D01*
X61860Y-82349D01*
X61860Y-82050D01*
X62550Y-82050D01*
X62550Y-82044D01*
X62552Y-82045D01*
X62910Y-82045D01*
X63241Y-81909D01*
X63494Y-81656D01*
X63632Y-81325D01*
X63632Y-80967D01*
X63495Y-80636D01*
X63242Y-80383D01*
X62912Y-80245D01*
X62554Y-80245D01*
X62550Y-80247D01*
X62550Y-77300D01*
X62755Y-77300D01*
X62757Y-77574D01*
X62902Y-77924D01*
X63044Y-78006D01*
X63685Y-77366D01*
X63679Y-77360D01*
X63740Y-77300D01*
X63771Y-77300D01*
X63832Y-77360D01*
X63826Y-77366D01*
X64467Y-78006D01*
X64609Y-77924D01*
X64757Y-77555D01*
X64755Y-77300D01*
X65200Y-77300D01*
X65200Y-84200D01*
M02*
