G04 (created by PCBNEW (2013-07-07 BZR 4022)-stable) date 4/20/2014 11:00:22 PM*
%MOIN*%
G04 Gerber Fmt 3.4, Leading zero omitted, Abs format*
%FSLAX34Y34*%
G01*
G70*
G90*
G04 APERTURE LIST*
%ADD10C,0.00590551*%
%ADD11C,0.006*%
%ADD12C,0.008*%
%ADD13C,0.012*%
%ADD14C,0.015*%
%ADD15C,0.000393701*%
%ADD16C,0.01*%
%ADD17C,0.0001*%
%ADD18C,0.005*%
G04 APERTURE END LIST*
G54D10*
G54D11*
X64864Y-81371D02*
X64835Y-81357D01*
X64821Y-81328D01*
X64821Y-81071D01*
X64978Y-81371D02*
X64978Y-81171D01*
X64978Y-81071D02*
X64964Y-81085D01*
X64978Y-81100D01*
X64992Y-81085D01*
X64978Y-81071D01*
X64978Y-81100D01*
X65121Y-81371D02*
X65121Y-81171D01*
X65121Y-81200D02*
X65135Y-81185D01*
X65164Y-81171D01*
X65207Y-81171D01*
X65235Y-81185D01*
X65250Y-81214D01*
X65250Y-81371D01*
X65250Y-81214D02*
X65264Y-81185D01*
X65292Y-81171D01*
X65335Y-81171D01*
X65364Y-81185D01*
X65378Y-81214D01*
X65378Y-81371D01*
X65521Y-81371D02*
X65521Y-81171D01*
X65521Y-81071D02*
X65507Y-81085D01*
X65521Y-81100D01*
X65535Y-81085D01*
X65521Y-81071D01*
X65521Y-81100D01*
X65621Y-81171D02*
X65735Y-81171D01*
X65664Y-81071D02*
X65664Y-81328D01*
X65678Y-81357D01*
X65707Y-81371D01*
X65735Y-81371D01*
X65821Y-81357D02*
X65850Y-81371D01*
X65907Y-81371D01*
X65935Y-81357D01*
X65950Y-81328D01*
X65950Y-81314D01*
X65935Y-81285D01*
X65907Y-81271D01*
X65864Y-81271D01*
X65835Y-81257D01*
X65821Y-81228D01*
X65821Y-81214D01*
X65835Y-81185D01*
X65864Y-81171D01*
X65907Y-81171D01*
X65935Y-81185D01*
X66078Y-81342D02*
X66092Y-81357D01*
X66078Y-81371D01*
X66064Y-81357D01*
X66078Y-81342D01*
X66078Y-81371D01*
X66078Y-81185D02*
X66092Y-81200D01*
X66078Y-81214D01*
X66064Y-81200D01*
X66078Y-81185D01*
X66078Y-81214D01*
X64978Y-81851D02*
X64807Y-81851D01*
X64892Y-81851D02*
X64892Y-81551D01*
X64864Y-81594D01*
X64835Y-81622D01*
X64807Y-81637D01*
X65107Y-81822D02*
X65121Y-81837D01*
X65107Y-81851D01*
X65092Y-81837D01*
X65107Y-81822D01*
X65107Y-81851D01*
X65107Y-81665D02*
X65121Y-81680D01*
X65107Y-81694D01*
X65092Y-81680D01*
X65107Y-81665D01*
X65107Y-81694D01*
X65635Y-81851D02*
X65464Y-81851D01*
X65549Y-81851D02*
X65549Y-81551D01*
X65521Y-81594D01*
X65492Y-81622D01*
X65464Y-81637D01*
X65735Y-81551D02*
X65921Y-81551D01*
X65821Y-81665D01*
X65864Y-81665D01*
X65892Y-81680D01*
X65907Y-81694D01*
X65921Y-81722D01*
X65921Y-81794D01*
X65907Y-81822D01*
X65892Y-81837D01*
X65864Y-81851D01*
X65778Y-81851D01*
X65749Y-81837D01*
X65735Y-81822D01*
X66049Y-81851D02*
X66049Y-81651D01*
X66049Y-81680D02*
X66064Y-81665D01*
X66092Y-81651D01*
X66135Y-81651D01*
X66164Y-81665D01*
X66178Y-81694D01*
X66178Y-81851D01*
X66178Y-81694D02*
X66192Y-81665D01*
X66221Y-81651D01*
X66264Y-81651D01*
X66292Y-81665D01*
X66307Y-81694D01*
X66307Y-81851D01*
X66435Y-81765D02*
X66578Y-81765D01*
X66407Y-81851D02*
X66507Y-81551D01*
X66607Y-81851D01*
X64807Y-82060D02*
X64821Y-82045D01*
X64850Y-82031D01*
X64921Y-82031D01*
X64950Y-82045D01*
X64964Y-82060D01*
X64978Y-82088D01*
X64978Y-82117D01*
X64964Y-82160D01*
X64792Y-82331D01*
X64978Y-82331D01*
X65107Y-82302D02*
X65121Y-82317D01*
X65107Y-82331D01*
X65092Y-82317D01*
X65107Y-82302D01*
X65107Y-82331D01*
X65107Y-82145D02*
X65121Y-82160D01*
X65107Y-82174D01*
X65092Y-82160D01*
X65107Y-82145D01*
X65107Y-82174D01*
X65464Y-82060D02*
X65478Y-82045D01*
X65507Y-82031D01*
X65578Y-82031D01*
X65607Y-82045D01*
X65621Y-82060D01*
X65635Y-82088D01*
X65635Y-82117D01*
X65621Y-82160D01*
X65449Y-82331D01*
X65635Y-82331D01*
X65907Y-82031D02*
X65764Y-82031D01*
X65749Y-82174D01*
X65764Y-82160D01*
X65792Y-82145D01*
X65864Y-82145D01*
X65892Y-82160D01*
X65907Y-82174D01*
X65921Y-82202D01*
X65921Y-82274D01*
X65907Y-82302D01*
X65892Y-82317D01*
X65864Y-82331D01*
X65792Y-82331D01*
X65764Y-82317D01*
X65749Y-82302D01*
X66049Y-82331D02*
X66049Y-82131D01*
X66049Y-82160D02*
X66064Y-82145D01*
X66092Y-82131D01*
X66135Y-82131D01*
X66164Y-82145D01*
X66178Y-82174D01*
X66178Y-82331D01*
X66178Y-82174D02*
X66192Y-82145D01*
X66221Y-82131D01*
X66264Y-82131D01*
X66292Y-82145D01*
X66307Y-82174D01*
X66307Y-82331D01*
X66435Y-82245D02*
X66578Y-82245D01*
X66407Y-82331D02*
X66507Y-82031D01*
X66607Y-82331D01*
X64792Y-82511D02*
X64978Y-82511D01*
X64878Y-82625D01*
X64921Y-82625D01*
X64950Y-82640D01*
X64964Y-82654D01*
X64978Y-82682D01*
X64978Y-82754D01*
X64964Y-82782D01*
X64950Y-82797D01*
X64921Y-82811D01*
X64835Y-82811D01*
X64807Y-82797D01*
X64792Y-82782D01*
X65107Y-82782D02*
X65121Y-82797D01*
X65107Y-82811D01*
X65092Y-82797D01*
X65107Y-82782D01*
X65107Y-82811D01*
X65107Y-82625D02*
X65121Y-82640D01*
X65107Y-82654D01*
X65092Y-82640D01*
X65107Y-82625D01*
X65107Y-82654D01*
X65607Y-82511D02*
X65549Y-82511D01*
X65521Y-82525D01*
X65507Y-82540D01*
X65478Y-82582D01*
X65464Y-82640D01*
X65464Y-82754D01*
X65478Y-82782D01*
X65492Y-82797D01*
X65521Y-82811D01*
X65578Y-82811D01*
X65607Y-82797D01*
X65621Y-82782D01*
X65635Y-82754D01*
X65635Y-82682D01*
X65621Y-82654D01*
X65607Y-82640D01*
X65578Y-82625D01*
X65521Y-82625D01*
X65492Y-82640D01*
X65478Y-82654D01*
X65464Y-82682D01*
X65735Y-82511D02*
X65921Y-82511D01*
X65821Y-82625D01*
X65864Y-82625D01*
X65892Y-82640D01*
X65907Y-82654D01*
X65921Y-82682D01*
X65921Y-82754D01*
X65907Y-82782D01*
X65892Y-82797D01*
X65864Y-82811D01*
X65778Y-82811D01*
X65749Y-82797D01*
X65735Y-82782D01*
X66049Y-82811D02*
X66049Y-82611D01*
X66049Y-82640D02*
X66064Y-82625D01*
X66092Y-82611D01*
X66135Y-82611D01*
X66164Y-82625D01*
X66178Y-82654D01*
X66178Y-82811D01*
X66178Y-82654D02*
X66192Y-82625D01*
X66221Y-82611D01*
X66264Y-82611D01*
X66292Y-82625D01*
X66307Y-82654D01*
X66307Y-82811D01*
X66435Y-82725D02*
X66578Y-82725D01*
X66407Y-82811D02*
X66507Y-82511D01*
X66607Y-82811D01*
X64950Y-83091D02*
X64950Y-83291D01*
X64878Y-82977D02*
X64807Y-83191D01*
X64992Y-83191D01*
X65107Y-83262D02*
X65121Y-83277D01*
X65107Y-83291D01*
X65092Y-83277D01*
X65107Y-83262D01*
X65107Y-83291D01*
X65107Y-83105D02*
X65121Y-83120D01*
X65107Y-83134D01*
X65092Y-83120D01*
X65107Y-83105D01*
X65107Y-83134D01*
X65635Y-83291D02*
X65464Y-83291D01*
X65549Y-83291D02*
X65549Y-82991D01*
X65521Y-83034D01*
X65492Y-83062D01*
X65464Y-83077D01*
X65749Y-83020D02*
X65764Y-83005D01*
X65792Y-82991D01*
X65864Y-82991D01*
X65892Y-83005D01*
X65907Y-83020D01*
X65921Y-83048D01*
X65921Y-83077D01*
X65907Y-83120D01*
X65735Y-83291D01*
X65921Y-83291D01*
X66192Y-82991D02*
X66049Y-82991D01*
X66035Y-83134D01*
X66049Y-83120D01*
X66078Y-83105D01*
X66149Y-83105D01*
X66178Y-83120D01*
X66192Y-83134D01*
X66207Y-83162D01*
X66207Y-83234D01*
X66192Y-83262D01*
X66178Y-83277D01*
X66149Y-83291D01*
X66078Y-83291D01*
X66049Y-83277D01*
X66035Y-83262D01*
X66335Y-83291D02*
X66335Y-83091D01*
X66335Y-83120D02*
X66349Y-83105D01*
X66378Y-83091D01*
X66421Y-83091D01*
X66449Y-83105D01*
X66464Y-83134D01*
X66464Y-83291D01*
X66464Y-83134D02*
X66478Y-83105D01*
X66507Y-83091D01*
X66549Y-83091D01*
X66578Y-83105D01*
X66592Y-83134D01*
X66592Y-83291D01*
X66721Y-83205D02*
X66864Y-83205D01*
X66692Y-83291D02*
X66792Y-82991D01*
X66892Y-83291D01*
X64964Y-83471D02*
X64821Y-83471D01*
X64807Y-83614D01*
X64821Y-83600D01*
X64850Y-83585D01*
X64921Y-83585D01*
X64950Y-83600D01*
X64964Y-83614D01*
X64978Y-83642D01*
X64978Y-83714D01*
X64964Y-83742D01*
X64950Y-83757D01*
X64921Y-83771D01*
X64850Y-83771D01*
X64821Y-83757D01*
X64807Y-83742D01*
X65107Y-83742D02*
X65121Y-83757D01*
X65107Y-83771D01*
X65092Y-83757D01*
X65107Y-83742D01*
X65107Y-83771D01*
X65107Y-83585D02*
X65121Y-83600D01*
X65107Y-83614D01*
X65092Y-83600D01*
X65107Y-83585D01*
X65107Y-83614D01*
X65464Y-83500D02*
X65478Y-83485D01*
X65507Y-83471D01*
X65578Y-83471D01*
X65607Y-83485D01*
X65621Y-83500D01*
X65635Y-83528D01*
X65635Y-83557D01*
X65621Y-83600D01*
X65449Y-83771D01*
X65635Y-83771D01*
X65907Y-83471D02*
X65764Y-83471D01*
X65749Y-83614D01*
X65764Y-83600D01*
X65792Y-83585D01*
X65864Y-83585D01*
X65892Y-83600D01*
X65907Y-83614D01*
X65921Y-83642D01*
X65921Y-83714D01*
X65907Y-83742D01*
X65892Y-83757D01*
X65864Y-83771D01*
X65792Y-83771D01*
X65764Y-83757D01*
X65749Y-83742D01*
X66107Y-83471D02*
X66135Y-83471D01*
X66164Y-83485D01*
X66178Y-83500D01*
X66192Y-83528D01*
X66207Y-83585D01*
X66207Y-83657D01*
X66192Y-83714D01*
X66178Y-83742D01*
X66164Y-83757D01*
X66135Y-83771D01*
X66107Y-83771D01*
X66078Y-83757D01*
X66064Y-83742D01*
X66049Y-83714D01*
X66035Y-83657D01*
X66035Y-83585D01*
X66049Y-83528D01*
X66064Y-83500D01*
X66078Y-83485D01*
X66107Y-83471D01*
X66335Y-83771D02*
X66335Y-83571D01*
X66335Y-83600D02*
X66349Y-83585D01*
X66378Y-83571D01*
X66421Y-83571D01*
X66449Y-83585D01*
X66464Y-83614D01*
X66464Y-83771D01*
X66464Y-83614D02*
X66478Y-83585D01*
X66507Y-83571D01*
X66549Y-83571D01*
X66578Y-83585D01*
X66592Y-83614D01*
X66592Y-83771D01*
X66721Y-83685D02*
X66864Y-83685D01*
X66692Y-83771D02*
X66792Y-83471D01*
X66892Y-83771D01*
X64950Y-83951D02*
X64892Y-83951D01*
X64864Y-83965D01*
X64850Y-83980D01*
X64821Y-84022D01*
X64807Y-84080D01*
X64807Y-84194D01*
X64821Y-84222D01*
X64835Y-84237D01*
X64864Y-84251D01*
X64921Y-84251D01*
X64950Y-84237D01*
X64964Y-84222D01*
X64978Y-84194D01*
X64978Y-84122D01*
X64964Y-84094D01*
X64950Y-84080D01*
X64921Y-84065D01*
X64864Y-84065D01*
X64835Y-84080D01*
X64821Y-84094D01*
X64807Y-84122D01*
X65107Y-84222D02*
X65121Y-84237D01*
X65107Y-84251D01*
X65092Y-84237D01*
X65107Y-84222D01*
X65107Y-84251D01*
X65107Y-84065D02*
X65121Y-84080D01*
X65107Y-84094D01*
X65092Y-84080D01*
X65107Y-84065D01*
X65107Y-84094D01*
X65621Y-83951D02*
X65478Y-83951D01*
X65464Y-84094D01*
X65478Y-84080D01*
X65507Y-84065D01*
X65578Y-84065D01*
X65607Y-84080D01*
X65621Y-84094D01*
X65635Y-84122D01*
X65635Y-84194D01*
X65621Y-84222D01*
X65607Y-84237D01*
X65578Y-84251D01*
X65507Y-84251D01*
X65478Y-84237D01*
X65464Y-84222D01*
X65821Y-83951D02*
X65849Y-83951D01*
X65878Y-83965D01*
X65892Y-83980D01*
X65907Y-84008D01*
X65921Y-84065D01*
X65921Y-84137D01*
X65907Y-84194D01*
X65892Y-84222D01*
X65878Y-84237D01*
X65849Y-84251D01*
X65821Y-84251D01*
X65792Y-84237D01*
X65778Y-84222D01*
X65764Y-84194D01*
X65749Y-84137D01*
X65749Y-84065D01*
X65764Y-84008D01*
X65778Y-83980D01*
X65792Y-83965D01*
X65821Y-83951D01*
X66107Y-83951D02*
X66135Y-83951D01*
X66164Y-83965D01*
X66178Y-83980D01*
X66192Y-84008D01*
X66207Y-84065D01*
X66207Y-84137D01*
X66192Y-84194D01*
X66178Y-84222D01*
X66164Y-84237D01*
X66135Y-84251D01*
X66107Y-84251D01*
X66078Y-84237D01*
X66064Y-84222D01*
X66049Y-84194D01*
X66035Y-84137D01*
X66035Y-84065D01*
X66049Y-84008D01*
X66064Y-83980D01*
X66078Y-83965D01*
X66107Y-83951D01*
X66335Y-84251D02*
X66335Y-84051D01*
X66335Y-84080D02*
X66349Y-84065D01*
X66378Y-84051D01*
X66421Y-84051D01*
X66449Y-84065D01*
X66464Y-84094D01*
X66464Y-84251D01*
X66464Y-84094D02*
X66478Y-84065D01*
X66507Y-84051D01*
X66549Y-84051D01*
X66578Y-84065D01*
X66592Y-84094D01*
X66592Y-84251D01*
X66721Y-84165D02*
X66864Y-84165D01*
X66692Y-84251D02*
X66792Y-83951D01*
X66892Y-84251D01*
X57057Y-53121D02*
X57028Y-53107D01*
X57014Y-53092D01*
X57000Y-53064D01*
X57000Y-52978D01*
X57014Y-52950D01*
X57028Y-52935D01*
X57057Y-52921D01*
X57100Y-52921D01*
X57128Y-52935D01*
X57142Y-52950D01*
X57157Y-52978D01*
X57157Y-53064D01*
X57142Y-53092D01*
X57128Y-53107D01*
X57100Y-53121D01*
X57057Y-53121D01*
X57242Y-52921D02*
X57357Y-52921D01*
X57285Y-53121D02*
X57285Y-52864D01*
X57300Y-52835D01*
X57328Y-52821D01*
X57357Y-52821D01*
X57414Y-52921D02*
X57528Y-52921D01*
X57457Y-53121D02*
X57457Y-52864D01*
X57471Y-52835D01*
X57500Y-52821D01*
X57528Y-52821D01*
X57092Y-50621D02*
X57064Y-50607D01*
X57050Y-50592D01*
X57035Y-50564D01*
X57035Y-50478D01*
X57050Y-50450D01*
X57064Y-50435D01*
X57092Y-50421D01*
X57135Y-50421D01*
X57164Y-50435D01*
X57178Y-50450D01*
X57192Y-50478D01*
X57192Y-50564D01*
X57178Y-50592D01*
X57164Y-50607D01*
X57135Y-50621D01*
X57092Y-50621D01*
X57321Y-50421D02*
X57321Y-50621D01*
X57321Y-50450D02*
X57335Y-50435D01*
X57364Y-50421D01*
X57407Y-50421D01*
X57435Y-50435D01*
X57450Y-50464D01*
X57450Y-50621D01*
X74842Y-71371D02*
X74814Y-71357D01*
X74800Y-71342D01*
X74785Y-71314D01*
X74785Y-71228D01*
X74800Y-71200D01*
X74814Y-71185D01*
X74842Y-71171D01*
X74885Y-71171D01*
X74914Y-71185D01*
X74928Y-71200D01*
X74942Y-71228D01*
X74942Y-71314D01*
X74928Y-71342D01*
X74914Y-71357D01*
X74885Y-71371D01*
X74842Y-71371D01*
X75071Y-71171D02*
X75071Y-71371D01*
X75071Y-71200D02*
X75085Y-71185D01*
X75114Y-71171D01*
X75157Y-71171D01*
X75185Y-71185D01*
X75200Y-71214D01*
X75200Y-71371D01*
X74807Y-74871D02*
X74778Y-74857D01*
X74764Y-74842D01*
X74750Y-74814D01*
X74750Y-74728D01*
X74764Y-74700D01*
X74778Y-74685D01*
X74807Y-74671D01*
X74850Y-74671D01*
X74878Y-74685D01*
X74892Y-74700D01*
X74907Y-74728D01*
X74907Y-74814D01*
X74892Y-74842D01*
X74878Y-74857D01*
X74850Y-74871D01*
X74807Y-74871D01*
X74992Y-74671D02*
X75107Y-74671D01*
X75035Y-74871D02*
X75035Y-74614D01*
X75050Y-74585D01*
X75078Y-74571D01*
X75107Y-74571D01*
X75164Y-74671D02*
X75278Y-74671D01*
X75207Y-74871D02*
X75207Y-74614D01*
X75221Y-74585D01*
X75250Y-74571D01*
X75278Y-74571D01*
G54D12*
X76200Y-76161D02*
X76161Y-76142D01*
X76142Y-76123D01*
X76123Y-76085D01*
X76123Y-75971D01*
X76142Y-75933D01*
X76161Y-75914D01*
X76200Y-75895D01*
X76257Y-75895D01*
X76295Y-75914D01*
X76314Y-75933D01*
X76333Y-75971D01*
X76333Y-76085D01*
X76314Y-76123D01*
X76295Y-76142D01*
X76257Y-76161D01*
X76200Y-76161D01*
X76676Y-75895D02*
X76676Y-76161D01*
X76504Y-75895D02*
X76504Y-76104D01*
X76523Y-76142D01*
X76561Y-76161D01*
X76619Y-76161D01*
X76657Y-76142D01*
X76676Y-76123D01*
X76809Y-75895D02*
X76961Y-75895D01*
X76866Y-75761D02*
X76866Y-76104D01*
X76885Y-76142D01*
X76923Y-76161D01*
X76961Y-76161D01*
X77095Y-75895D02*
X77095Y-76295D01*
X77095Y-75914D02*
X77133Y-75895D01*
X77209Y-75895D01*
X77247Y-75914D01*
X77266Y-75933D01*
X77285Y-75971D01*
X77285Y-76085D01*
X77266Y-76123D01*
X77247Y-76142D01*
X77209Y-76161D01*
X77133Y-76161D01*
X77095Y-76142D01*
X77628Y-75895D02*
X77628Y-76161D01*
X77457Y-75895D02*
X77457Y-76104D01*
X77476Y-76142D01*
X77514Y-76161D01*
X77571Y-76161D01*
X77609Y-76142D01*
X77628Y-76123D01*
X77761Y-75895D02*
X77914Y-75895D01*
X77819Y-75761D02*
X77819Y-76104D01*
X77838Y-76142D01*
X77876Y-76161D01*
X77914Y-76161D01*
X76257Y-76782D02*
X76219Y-76801D01*
X76142Y-76801D01*
X76104Y-76782D01*
X76085Y-76744D01*
X76085Y-76592D01*
X76104Y-76554D01*
X76142Y-76535D01*
X76219Y-76535D01*
X76257Y-76554D01*
X76276Y-76592D01*
X76276Y-76630D01*
X76085Y-76668D01*
X76447Y-76535D02*
X76447Y-76801D01*
X76447Y-76573D02*
X76466Y-76554D01*
X76504Y-76535D01*
X76561Y-76535D01*
X76600Y-76554D01*
X76619Y-76592D01*
X76619Y-76801D01*
X76980Y-76801D02*
X76980Y-76592D01*
X76961Y-76554D01*
X76923Y-76535D01*
X76847Y-76535D01*
X76809Y-76554D01*
X76980Y-76782D02*
X76942Y-76801D01*
X76847Y-76801D01*
X76809Y-76782D01*
X76790Y-76744D01*
X76790Y-76706D01*
X76809Y-76668D01*
X76847Y-76649D01*
X76942Y-76649D01*
X76980Y-76630D01*
X77171Y-76801D02*
X77171Y-76401D01*
X77171Y-76554D02*
X77209Y-76535D01*
X77285Y-76535D01*
X77323Y-76554D01*
X77342Y-76573D01*
X77361Y-76611D01*
X77361Y-76725D01*
X77342Y-76763D01*
X77323Y-76782D01*
X77285Y-76801D01*
X77209Y-76801D01*
X77171Y-76782D01*
X77590Y-76801D02*
X77552Y-76782D01*
X77533Y-76744D01*
X77533Y-76401D01*
X77895Y-76782D02*
X77857Y-76801D01*
X77780Y-76801D01*
X77742Y-76782D01*
X77723Y-76744D01*
X77723Y-76592D01*
X77742Y-76554D01*
X77780Y-76535D01*
X77857Y-76535D01*
X77895Y-76554D01*
X77914Y-76592D01*
X77914Y-76630D01*
X77723Y-76668D01*
G54D11*
X57128Y-61842D02*
X57142Y-61814D01*
X57171Y-61800D01*
X57428Y-61800D01*
X57128Y-61957D02*
X57328Y-61957D01*
X57428Y-61957D02*
X57414Y-61942D01*
X57400Y-61957D01*
X57414Y-61971D01*
X57428Y-61957D01*
X57400Y-61957D01*
X57128Y-62100D02*
X57328Y-62100D01*
X57300Y-62100D02*
X57314Y-62114D01*
X57328Y-62142D01*
X57328Y-62185D01*
X57314Y-62214D01*
X57285Y-62228D01*
X57128Y-62228D01*
X57285Y-62228D02*
X57314Y-62242D01*
X57328Y-62271D01*
X57328Y-62314D01*
X57314Y-62342D01*
X57285Y-62357D01*
X57128Y-62357D01*
X57128Y-62500D02*
X57328Y-62500D01*
X57428Y-62500D02*
X57414Y-62485D01*
X57400Y-62500D01*
X57414Y-62514D01*
X57428Y-62500D01*
X57400Y-62500D01*
X57328Y-62599D02*
X57328Y-62714D01*
X57428Y-62642D02*
X57171Y-62642D01*
X57142Y-62657D01*
X57128Y-62685D01*
X57128Y-62714D01*
X57142Y-62928D02*
X57128Y-62900D01*
X57128Y-62842D01*
X57142Y-62814D01*
X57171Y-62800D01*
X57285Y-62800D01*
X57314Y-62814D01*
X57328Y-62842D01*
X57328Y-62900D01*
X57314Y-62928D01*
X57285Y-62942D01*
X57257Y-62942D01*
X57228Y-62800D01*
X57128Y-63200D02*
X57428Y-63200D01*
X57142Y-63200D02*
X57128Y-63171D01*
X57128Y-63114D01*
X57142Y-63085D01*
X57157Y-63071D01*
X57185Y-63057D01*
X57271Y-63057D01*
X57300Y-63071D01*
X57314Y-63085D01*
X57328Y-63114D01*
X57328Y-63171D01*
X57314Y-63200D01*
X57128Y-58042D02*
X57428Y-58042D01*
X57314Y-58042D02*
X57328Y-58071D01*
X57328Y-58128D01*
X57314Y-58157D01*
X57300Y-58171D01*
X57271Y-58185D01*
X57185Y-58185D01*
X57157Y-58171D01*
X57142Y-58157D01*
X57128Y-58128D01*
X57128Y-58071D01*
X57142Y-58042D01*
X57328Y-58285D02*
X57128Y-58357D01*
X57328Y-58428D02*
X57128Y-58357D01*
X57057Y-58328D01*
X57042Y-58314D01*
X57028Y-58285D01*
X57328Y-58542D02*
X57028Y-58542D01*
X57314Y-58542D02*
X57328Y-58571D01*
X57328Y-58628D01*
X57314Y-58657D01*
X57300Y-58671D01*
X57271Y-58685D01*
X57185Y-58685D01*
X57157Y-58671D01*
X57142Y-58657D01*
X57128Y-58628D01*
X57128Y-58571D01*
X57142Y-58542D01*
X57128Y-58942D02*
X57285Y-58942D01*
X57314Y-58928D01*
X57328Y-58900D01*
X57328Y-58842D01*
X57314Y-58814D01*
X57142Y-58942D02*
X57128Y-58914D01*
X57128Y-58842D01*
X57142Y-58814D01*
X57171Y-58800D01*
X57200Y-58800D01*
X57228Y-58814D01*
X57242Y-58842D01*
X57242Y-58914D01*
X57257Y-58942D01*
X57142Y-59071D02*
X57128Y-59100D01*
X57128Y-59157D01*
X57142Y-59185D01*
X57171Y-59200D01*
X57185Y-59200D01*
X57214Y-59185D01*
X57228Y-59157D01*
X57228Y-59114D01*
X57242Y-59085D01*
X57271Y-59071D01*
X57285Y-59071D01*
X57314Y-59085D01*
X57328Y-59114D01*
X57328Y-59157D01*
X57314Y-59185D01*
X57142Y-59314D02*
X57128Y-59342D01*
X57128Y-59400D01*
X57142Y-59428D01*
X57171Y-59442D01*
X57185Y-59442D01*
X57214Y-59428D01*
X57228Y-59400D01*
X57228Y-59357D01*
X57242Y-59328D01*
X57271Y-59314D01*
X57285Y-59314D01*
X57314Y-59328D01*
X57328Y-59357D01*
X57328Y-59400D01*
X57314Y-59428D01*
X57142Y-59685D02*
X57128Y-59657D01*
X57128Y-59600D01*
X57142Y-59571D01*
X57171Y-59557D01*
X57285Y-59557D01*
X57314Y-59571D01*
X57328Y-59600D01*
X57328Y-59657D01*
X57314Y-59685D01*
X57285Y-59700D01*
X57257Y-59700D01*
X57228Y-59557D01*
X57128Y-59957D02*
X57428Y-59957D01*
X57142Y-59957D02*
X57128Y-59928D01*
X57128Y-59871D01*
X57142Y-59842D01*
X57157Y-59828D01*
X57185Y-59814D01*
X57271Y-59814D01*
X57300Y-59828D01*
X57314Y-59842D01*
X57328Y-59871D01*
X57328Y-59928D01*
X57314Y-59957D01*
G54D12*
X54450Y-63892D02*
X54411Y-63911D01*
X54335Y-63911D01*
X54297Y-63892D01*
X54278Y-63873D01*
X54259Y-63835D01*
X54259Y-63721D01*
X54278Y-63683D01*
X54297Y-63664D01*
X54335Y-63645D01*
X54411Y-63645D01*
X54450Y-63664D01*
X54792Y-63645D02*
X54792Y-63911D01*
X54621Y-63645D02*
X54621Y-63854D01*
X54640Y-63892D01*
X54678Y-63911D01*
X54735Y-63911D01*
X54773Y-63892D01*
X54792Y-63873D01*
X54983Y-63911D02*
X54983Y-63645D01*
X54983Y-63721D02*
X55002Y-63683D01*
X55021Y-63664D01*
X55059Y-63645D01*
X55097Y-63645D01*
X55230Y-63911D02*
X55230Y-63645D01*
X55230Y-63721D02*
X55250Y-63683D01*
X55269Y-63664D01*
X55307Y-63645D01*
X55345Y-63645D01*
X55630Y-63892D02*
X55592Y-63911D01*
X55516Y-63911D01*
X55478Y-63892D01*
X55459Y-63854D01*
X55459Y-63702D01*
X55478Y-63664D01*
X55516Y-63645D01*
X55592Y-63645D01*
X55630Y-63664D01*
X55650Y-63702D01*
X55650Y-63740D01*
X55459Y-63778D01*
X55821Y-63645D02*
X55821Y-63911D01*
X55821Y-63683D02*
X55840Y-63664D01*
X55878Y-63645D01*
X55935Y-63645D01*
X55973Y-63664D01*
X55992Y-63702D01*
X55992Y-63911D01*
X56126Y-63645D02*
X56278Y-63645D01*
X56183Y-63511D02*
X56183Y-63854D01*
X56202Y-63892D01*
X56240Y-63911D01*
X56278Y-63911D01*
X54726Y-64551D02*
X54688Y-64532D01*
X54669Y-64494D01*
X54669Y-64151D01*
X54878Y-64551D02*
X54878Y-64285D01*
X54878Y-64151D02*
X54859Y-64170D01*
X54878Y-64190D01*
X54897Y-64170D01*
X54878Y-64151D01*
X54878Y-64190D01*
X55069Y-64551D02*
X55069Y-64285D01*
X55069Y-64323D02*
X55088Y-64304D01*
X55126Y-64285D01*
X55183Y-64285D01*
X55221Y-64304D01*
X55240Y-64342D01*
X55240Y-64551D01*
X55240Y-64342D02*
X55259Y-64304D01*
X55297Y-64285D01*
X55354Y-64285D01*
X55392Y-64304D01*
X55411Y-64342D01*
X55411Y-64551D01*
X55602Y-64551D02*
X55602Y-64285D01*
X55602Y-64151D02*
X55583Y-64170D01*
X55602Y-64190D01*
X55621Y-64170D01*
X55602Y-64151D01*
X55602Y-64190D01*
X55735Y-64285D02*
X55888Y-64285D01*
X55792Y-64151D02*
X55792Y-64494D01*
X55811Y-64532D01*
X55850Y-64551D01*
X55888Y-64551D01*
X54326Y-65191D02*
X54326Y-64791D01*
X54326Y-64944D02*
X54364Y-64925D01*
X54440Y-64925D01*
X54478Y-64944D01*
X54497Y-64963D01*
X54516Y-65001D01*
X54516Y-65115D01*
X54497Y-65153D01*
X54478Y-65172D01*
X54440Y-65191D01*
X54364Y-65191D01*
X54326Y-65172D01*
X54650Y-64925D02*
X54745Y-65191D01*
X54840Y-64925D02*
X54745Y-65191D01*
X54707Y-65287D01*
X54688Y-65306D01*
X54650Y-65325D01*
X54992Y-64925D02*
X54992Y-65325D01*
X54992Y-64944D02*
X55030Y-64925D01*
X55107Y-64925D01*
X55145Y-64944D01*
X55164Y-64963D01*
X55183Y-65001D01*
X55183Y-65115D01*
X55164Y-65153D01*
X55145Y-65172D01*
X55107Y-65191D01*
X55030Y-65191D01*
X54992Y-65172D01*
X55526Y-65191D02*
X55526Y-64982D01*
X55507Y-64944D01*
X55469Y-64925D01*
X55392Y-64925D01*
X55354Y-64944D01*
X55526Y-65172D02*
X55488Y-65191D01*
X55392Y-65191D01*
X55354Y-65172D01*
X55335Y-65134D01*
X55335Y-65096D01*
X55354Y-65058D01*
X55392Y-65039D01*
X55488Y-65039D01*
X55526Y-65020D01*
X55697Y-65172D02*
X55735Y-65191D01*
X55811Y-65191D01*
X55850Y-65172D01*
X55869Y-65134D01*
X55869Y-65115D01*
X55850Y-65077D01*
X55811Y-65058D01*
X55754Y-65058D01*
X55716Y-65039D01*
X55697Y-65001D01*
X55697Y-64982D01*
X55716Y-64944D01*
X55754Y-64925D01*
X55811Y-64925D01*
X55850Y-64944D01*
X56021Y-65172D02*
X56059Y-65191D01*
X56135Y-65191D01*
X56173Y-65172D01*
X56192Y-65134D01*
X56192Y-65115D01*
X56173Y-65077D01*
X56135Y-65058D01*
X56078Y-65058D01*
X56040Y-65039D01*
X56021Y-65001D01*
X56021Y-64982D01*
X56040Y-64944D01*
X56078Y-64925D01*
X56135Y-64925D01*
X56173Y-64944D01*
X54478Y-54145D02*
X54478Y-54545D01*
X54478Y-54164D02*
X54516Y-54145D01*
X54592Y-54145D01*
X54630Y-54164D01*
X54650Y-54183D01*
X54669Y-54221D01*
X54669Y-54335D01*
X54650Y-54373D01*
X54630Y-54392D01*
X54592Y-54411D01*
X54516Y-54411D01*
X54478Y-54392D01*
X54897Y-54411D02*
X54859Y-54392D01*
X54840Y-54373D01*
X54821Y-54335D01*
X54821Y-54221D01*
X54840Y-54183D01*
X54859Y-54164D01*
X54897Y-54145D01*
X54954Y-54145D01*
X54992Y-54164D01*
X55011Y-54183D01*
X55030Y-54221D01*
X55030Y-54335D01*
X55011Y-54373D01*
X54992Y-54392D01*
X54954Y-54411D01*
X54897Y-54411D01*
X55164Y-54145D02*
X55240Y-54411D01*
X55316Y-54221D01*
X55392Y-54411D01*
X55469Y-54145D01*
X55773Y-54392D02*
X55735Y-54411D01*
X55659Y-54411D01*
X55621Y-54392D01*
X55602Y-54354D01*
X55602Y-54202D01*
X55621Y-54164D01*
X55659Y-54145D01*
X55735Y-54145D01*
X55773Y-54164D01*
X55792Y-54202D01*
X55792Y-54240D01*
X55602Y-54278D01*
X55964Y-54411D02*
X55964Y-54145D01*
X55964Y-54221D02*
X55983Y-54183D01*
X56002Y-54164D01*
X56040Y-54145D01*
X56078Y-54145D01*
X54421Y-55051D02*
X54383Y-55032D01*
X54364Y-55013D01*
X54345Y-54975D01*
X54345Y-54861D01*
X54364Y-54823D01*
X54383Y-54804D01*
X54421Y-54785D01*
X54478Y-54785D01*
X54516Y-54804D01*
X54535Y-54823D01*
X54554Y-54861D01*
X54554Y-54975D01*
X54535Y-55013D01*
X54516Y-55032D01*
X54478Y-55051D01*
X54421Y-55051D01*
X54726Y-54785D02*
X54726Y-55051D01*
X54726Y-54823D02*
X54745Y-54804D01*
X54783Y-54785D01*
X54840Y-54785D01*
X54878Y-54804D01*
X54897Y-54842D01*
X54897Y-55051D01*
X55373Y-54632D02*
X55030Y-55147D01*
X55564Y-55051D02*
X55526Y-55032D01*
X55507Y-55013D01*
X55488Y-54975D01*
X55488Y-54861D01*
X55507Y-54823D01*
X55526Y-54804D01*
X55564Y-54785D01*
X55621Y-54785D01*
X55659Y-54804D01*
X55678Y-54823D01*
X55697Y-54861D01*
X55697Y-54975D01*
X55678Y-55013D01*
X55659Y-55032D01*
X55621Y-55051D01*
X55564Y-55051D01*
X55811Y-54785D02*
X55964Y-54785D01*
X55869Y-55051D02*
X55869Y-54709D01*
X55888Y-54670D01*
X55926Y-54651D01*
X55964Y-54651D01*
X56040Y-54785D02*
X56192Y-54785D01*
X56097Y-55051D02*
X56097Y-54709D01*
X56116Y-54670D01*
X56154Y-54651D01*
X56192Y-54651D01*
G54D11*
X84178Y-82621D02*
X84178Y-82464D01*
X84164Y-82435D01*
X84135Y-82421D01*
X84078Y-82421D01*
X84050Y-82435D01*
X84178Y-82607D02*
X84150Y-82621D01*
X84078Y-82621D01*
X84050Y-82607D01*
X84035Y-82578D01*
X84035Y-82550D01*
X84050Y-82521D01*
X84078Y-82507D01*
X84150Y-82507D01*
X84178Y-82492D01*
X84321Y-82621D02*
X84321Y-82421D01*
X84321Y-82450D02*
X84335Y-82435D01*
X84364Y-82421D01*
X84407Y-82421D01*
X84435Y-82435D01*
X84450Y-82464D01*
X84450Y-82621D01*
X84450Y-82464D02*
X84464Y-82435D01*
X84492Y-82421D01*
X84535Y-82421D01*
X84564Y-82435D01*
X84578Y-82464D01*
X84578Y-82621D01*
X84721Y-82621D02*
X84721Y-82421D01*
X84721Y-82450D02*
X84735Y-82435D01*
X84764Y-82421D01*
X84807Y-82421D01*
X84835Y-82435D01*
X84850Y-82464D01*
X84850Y-82621D01*
X84850Y-82464D02*
X84864Y-82435D01*
X84892Y-82421D01*
X84935Y-82421D01*
X84964Y-82435D01*
X84978Y-82464D01*
X84978Y-82621D01*
X85235Y-82607D02*
X85207Y-82621D01*
X85150Y-82621D01*
X85121Y-82607D01*
X85107Y-82578D01*
X85107Y-82464D01*
X85121Y-82435D01*
X85150Y-82421D01*
X85207Y-82421D01*
X85235Y-82435D01*
X85250Y-82464D01*
X85250Y-82492D01*
X85107Y-82521D01*
X85335Y-82421D02*
X85450Y-82421D01*
X85378Y-82321D02*
X85378Y-82578D01*
X85392Y-82607D01*
X85421Y-82621D01*
X85450Y-82621D01*
X85664Y-82607D02*
X85635Y-82621D01*
X85578Y-82621D01*
X85550Y-82607D01*
X85535Y-82578D01*
X85535Y-82464D01*
X85550Y-82435D01*
X85578Y-82421D01*
X85635Y-82421D01*
X85664Y-82435D01*
X85678Y-82464D01*
X85678Y-82492D01*
X85535Y-82521D01*
X85807Y-82621D02*
X85807Y-82421D01*
X85807Y-82478D02*
X85821Y-82450D01*
X85835Y-82435D01*
X85864Y-82421D01*
X85892Y-82421D01*
X86350Y-82621D02*
X86350Y-82464D01*
X86335Y-82435D01*
X86307Y-82421D01*
X86250Y-82421D01*
X86221Y-82435D01*
X86350Y-82607D02*
X86321Y-82621D01*
X86250Y-82621D01*
X86221Y-82607D01*
X86207Y-82578D01*
X86207Y-82550D01*
X86221Y-82521D01*
X86250Y-82507D01*
X86321Y-82507D01*
X86350Y-82492D01*
X86621Y-82621D02*
X86621Y-82321D01*
X86621Y-82607D02*
X86592Y-82621D01*
X86535Y-82621D01*
X86507Y-82607D01*
X86492Y-82592D01*
X86478Y-82564D01*
X86478Y-82478D01*
X86492Y-82450D01*
X86507Y-82435D01*
X86535Y-82421D01*
X86592Y-82421D01*
X86621Y-82435D01*
X86764Y-82421D02*
X86764Y-82678D01*
X86750Y-82707D01*
X86721Y-82721D01*
X86707Y-82721D01*
X86764Y-82321D02*
X86750Y-82335D01*
X86764Y-82350D01*
X86778Y-82335D01*
X86764Y-82321D01*
X86764Y-82350D01*
X87035Y-82421D02*
X87035Y-82621D01*
X86907Y-82421D02*
X86907Y-82578D01*
X86921Y-82607D01*
X86950Y-82621D01*
X86992Y-82621D01*
X87021Y-82607D01*
X87035Y-82592D01*
X87164Y-82607D02*
X87192Y-82621D01*
X87250Y-82621D01*
X87278Y-82607D01*
X87292Y-82578D01*
X87292Y-82564D01*
X87278Y-82535D01*
X87250Y-82521D01*
X87207Y-82521D01*
X87178Y-82507D01*
X87164Y-82478D01*
X87164Y-82464D01*
X87178Y-82435D01*
X87207Y-82421D01*
X87250Y-82421D01*
X87278Y-82435D01*
X87378Y-82421D02*
X87492Y-82421D01*
X87421Y-82321D02*
X87421Y-82578D01*
X87435Y-82607D01*
X87464Y-82621D01*
X87492Y-82621D01*
G54D12*
X79600Y-63814D02*
X79580Y-63795D01*
X79542Y-63738D01*
X79523Y-63700D01*
X79504Y-63642D01*
X79485Y-63547D01*
X79485Y-63471D01*
X79504Y-63376D01*
X79523Y-63319D01*
X79542Y-63280D01*
X79580Y-63223D01*
X79600Y-63204D01*
X79714Y-63395D02*
X79809Y-63661D01*
X79904Y-63395D01*
X80038Y-63300D02*
X80057Y-63280D01*
X80095Y-63261D01*
X80190Y-63261D01*
X80228Y-63280D01*
X80247Y-63300D01*
X80266Y-63338D01*
X80266Y-63376D01*
X80247Y-63433D01*
X80019Y-63661D01*
X80266Y-63661D01*
X80400Y-63814D02*
X80419Y-63795D01*
X80457Y-63738D01*
X80476Y-63700D01*
X80495Y-63642D01*
X80514Y-63547D01*
X80514Y-63471D01*
X80495Y-63376D01*
X80476Y-63319D01*
X80457Y-63280D01*
X80419Y-63223D01*
X80400Y-63204D01*
G54D11*
X58657Y-84371D02*
X58485Y-84371D01*
X58571Y-84371D02*
X58571Y-84071D01*
X58542Y-84114D01*
X58514Y-84142D01*
X58485Y-84157D01*
X58757Y-84071D02*
X58942Y-84071D01*
X58842Y-84185D01*
X58885Y-84185D01*
X58914Y-84200D01*
X58928Y-84214D01*
X58942Y-84242D01*
X58942Y-84314D01*
X58928Y-84342D01*
X58914Y-84357D01*
X58885Y-84371D01*
X58800Y-84371D01*
X58771Y-84357D01*
X58757Y-84342D01*
X59300Y-84257D02*
X59528Y-84257D01*
X60042Y-84071D02*
X59900Y-84071D01*
X59885Y-84214D01*
X59900Y-84200D01*
X59928Y-84185D01*
X60000Y-84185D01*
X60028Y-84200D01*
X60042Y-84214D01*
X60057Y-84242D01*
X60057Y-84314D01*
X60042Y-84342D01*
X60028Y-84357D01*
X60000Y-84371D01*
X59928Y-84371D01*
X59900Y-84357D01*
X59885Y-84342D01*
X60242Y-84071D02*
X60271Y-84071D01*
X60300Y-84085D01*
X60314Y-84100D01*
X60328Y-84128D01*
X60342Y-84185D01*
X60342Y-84257D01*
X60328Y-84314D01*
X60314Y-84342D01*
X60300Y-84357D01*
X60271Y-84371D01*
X60242Y-84371D01*
X60214Y-84357D01*
X60200Y-84342D01*
X60185Y-84314D01*
X60171Y-84257D01*
X60171Y-84185D01*
X60185Y-84128D01*
X60200Y-84100D01*
X60214Y-84085D01*
X60242Y-84071D01*
X60528Y-84071D02*
X60557Y-84071D01*
X60585Y-84085D01*
X60600Y-84100D01*
X60614Y-84128D01*
X60628Y-84185D01*
X60628Y-84257D01*
X60614Y-84314D01*
X60600Y-84342D01*
X60585Y-84357D01*
X60557Y-84371D01*
X60528Y-84371D01*
X60500Y-84357D01*
X60485Y-84342D01*
X60471Y-84314D01*
X60457Y-84257D01*
X60457Y-84185D01*
X60471Y-84128D01*
X60485Y-84100D01*
X60500Y-84085D01*
X60528Y-84071D01*
X60985Y-84371D02*
X60985Y-84171D01*
X60985Y-84200D02*
X60999Y-84185D01*
X61028Y-84171D01*
X61071Y-84171D01*
X61099Y-84185D01*
X61114Y-84214D01*
X61114Y-84371D01*
X61114Y-84214D02*
X61128Y-84185D01*
X61157Y-84171D01*
X61199Y-84171D01*
X61228Y-84185D01*
X61242Y-84214D01*
X61242Y-84371D01*
X61371Y-84285D02*
X61514Y-84285D01*
X61342Y-84371D02*
X61442Y-84071D01*
X61542Y-84371D01*
X88735Y-59621D02*
X88564Y-59621D01*
X88650Y-59621D02*
X88650Y-59321D01*
X88621Y-59364D01*
X88592Y-59392D01*
X88564Y-59407D01*
X88864Y-59592D02*
X88878Y-59607D01*
X88864Y-59621D01*
X88850Y-59607D01*
X88864Y-59592D01*
X88864Y-59621D01*
X88992Y-59350D02*
X89007Y-59335D01*
X89035Y-59321D01*
X89107Y-59321D01*
X89135Y-59335D01*
X89150Y-59350D01*
X89164Y-59378D01*
X89164Y-59407D01*
X89150Y-59450D01*
X88978Y-59621D01*
X89164Y-59621D01*
X89435Y-59321D02*
X89292Y-59321D01*
X89278Y-59464D01*
X89292Y-59450D01*
X89321Y-59435D01*
X89392Y-59435D01*
X89421Y-59450D01*
X89435Y-59464D01*
X89450Y-59492D01*
X89450Y-59564D01*
X89435Y-59592D01*
X89421Y-59607D01*
X89392Y-59621D01*
X89321Y-59621D01*
X89292Y-59607D01*
X89278Y-59592D01*
X89807Y-59507D02*
X90035Y-59507D01*
X90392Y-59350D02*
X90407Y-59335D01*
X90435Y-59321D01*
X90507Y-59321D01*
X90535Y-59335D01*
X90550Y-59350D01*
X90564Y-59378D01*
X90564Y-59407D01*
X90550Y-59450D01*
X90378Y-59621D01*
X90564Y-59621D01*
X90749Y-59321D02*
X90778Y-59321D01*
X90807Y-59335D01*
X90821Y-59350D01*
X90835Y-59378D01*
X90849Y-59435D01*
X90849Y-59507D01*
X90835Y-59564D01*
X90821Y-59592D01*
X90807Y-59607D01*
X90778Y-59621D01*
X90749Y-59621D01*
X90721Y-59607D01*
X90707Y-59592D01*
X90692Y-59564D01*
X90678Y-59507D01*
X90678Y-59435D01*
X90692Y-59378D01*
X90707Y-59350D01*
X90721Y-59335D01*
X90749Y-59321D01*
X90935Y-59321D02*
X91035Y-59621D01*
X91135Y-59321D01*
X91464Y-59621D02*
X91464Y-59321D01*
X91535Y-59321D01*
X91578Y-59335D01*
X91607Y-59364D01*
X91621Y-59392D01*
X91635Y-59450D01*
X91635Y-59492D01*
X91621Y-59550D01*
X91607Y-59578D01*
X91578Y-59607D01*
X91535Y-59621D01*
X91464Y-59621D01*
X91935Y-59592D02*
X91921Y-59607D01*
X91878Y-59621D01*
X91849Y-59621D01*
X91807Y-59607D01*
X91778Y-59578D01*
X91764Y-59550D01*
X91749Y-59492D01*
X91749Y-59450D01*
X91764Y-59392D01*
X91778Y-59364D01*
X91807Y-59335D01*
X91849Y-59321D01*
X91878Y-59321D01*
X91921Y-59335D01*
X91935Y-59350D01*
G54D12*
X88392Y-58645D02*
X88488Y-58911D01*
X88583Y-58645D01*
X88792Y-58911D02*
X88754Y-58892D01*
X88735Y-58873D01*
X88716Y-58835D01*
X88716Y-58721D01*
X88735Y-58683D01*
X88754Y-58664D01*
X88792Y-58645D01*
X88850Y-58645D01*
X88888Y-58664D01*
X88907Y-58683D01*
X88926Y-58721D01*
X88926Y-58835D01*
X88907Y-58873D01*
X88888Y-58892D01*
X88850Y-58911D01*
X88792Y-58911D01*
X89154Y-58911D02*
X89116Y-58892D01*
X89097Y-58854D01*
X89097Y-58511D01*
X89250Y-58645D02*
X89402Y-58645D01*
X89307Y-58511D02*
X89307Y-58854D01*
X89326Y-58892D01*
X89364Y-58911D01*
X89402Y-58911D01*
X89707Y-58911D02*
X89707Y-58702D01*
X89688Y-58664D01*
X89649Y-58645D01*
X89573Y-58645D01*
X89535Y-58664D01*
X89707Y-58892D02*
X89669Y-58911D01*
X89573Y-58911D01*
X89535Y-58892D01*
X89516Y-58854D01*
X89516Y-58816D01*
X89535Y-58778D01*
X89573Y-58759D01*
X89669Y-58759D01*
X89707Y-58740D01*
X90069Y-58645D02*
X90069Y-58969D01*
X90049Y-59007D01*
X90030Y-59026D01*
X89992Y-59045D01*
X89935Y-59045D01*
X89897Y-59026D01*
X90069Y-58892D02*
X90030Y-58911D01*
X89954Y-58911D01*
X89916Y-58892D01*
X89897Y-58873D01*
X89878Y-58835D01*
X89878Y-58721D01*
X89897Y-58683D01*
X89916Y-58664D01*
X89954Y-58645D01*
X90030Y-58645D01*
X90069Y-58664D01*
X90411Y-58892D02*
X90373Y-58911D01*
X90297Y-58911D01*
X90259Y-58892D01*
X90240Y-58854D01*
X90240Y-58702D01*
X90259Y-58664D01*
X90297Y-58645D01*
X90373Y-58645D01*
X90411Y-58664D01*
X90430Y-58702D01*
X90430Y-58740D01*
X90240Y-58778D01*
X90964Y-58911D02*
X90926Y-58892D01*
X90907Y-58854D01*
X90907Y-58511D01*
X91116Y-58911D02*
X91116Y-58645D01*
X91116Y-58511D02*
X91097Y-58530D01*
X91116Y-58550D01*
X91135Y-58530D01*
X91116Y-58511D01*
X91116Y-58550D01*
X91307Y-58911D02*
X91307Y-58645D01*
X91307Y-58683D02*
X91326Y-58664D01*
X91364Y-58645D01*
X91421Y-58645D01*
X91459Y-58664D01*
X91478Y-58702D01*
X91478Y-58911D01*
X91478Y-58702D02*
X91497Y-58664D01*
X91535Y-58645D01*
X91592Y-58645D01*
X91630Y-58664D01*
X91649Y-58702D01*
X91649Y-58911D01*
X91840Y-58911D02*
X91840Y-58645D01*
X91840Y-58511D02*
X91821Y-58530D01*
X91840Y-58550D01*
X91859Y-58530D01*
X91840Y-58511D01*
X91840Y-58550D01*
X91973Y-58645D02*
X92126Y-58645D01*
X92030Y-58511D02*
X92030Y-58854D01*
X92050Y-58892D01*
X92088Y-58911D01*
X92126Y-58911D01*
X58371Y-83892D02*
X58333Y-83911D01*
X58257Y-83911D01*
X58219Y-83892D01*
X58200Y-83873D01*
X58180Y-83835D01*
X58180Y-83721D01*
X58200Y-83683D01*
X58219Y-83664D01*
X58257Y-83645D01*
X58333Y-83645D01*
X58371Y-83664D01*
X58714Y-83645D02*
X58714Y-83911D01*
X58542Y-83645D02*
X58542Y-83854D01*
X58561Y-83892D01*
X58600Y-83911D01*
X58657Y-83911D01*
X58695Y-83892D01*
X58714Y-83873D01*
X58904Y-83911D02*
X58904Y-83645D01*
X58904Y-83721D02*
X58923Y-83683D01*
X58942Y-83664D01*
X58980Y-83645D01*
X59019Y-83645D01*
X59152Y-83911D02*
X59152Y-83645D01*
X59152Y-83721D02*
X59171Y-83683D01*
X59190Y-83664D01*
X59228Y-83645D01*
X59266Y-83645D01*
X59552Y-83892D02*
X59514Y-83911D01*
X59438Y-83911D01*
X59400Y-83892D01*
X59380Y-83854D01*
X59380Y-83702D01*
X59400Y-83664D01*
X59438Y-83645D01*
X59514Y-83645D01*
X59552Y-83664D01*
X59571Y-83702D01*
X59571Y-83740D01*
X59380Y-83778D01*
X59742Y-83645D02*
X59742Y-83911D01*
X59742Y-83683D02*
X59761Y-83664D01*
X59800Y-83645D01*
X59857Y-83645D01*
X59895Y-83664D01*
X59914Y-83702D01*
X59914Y-83911D01*
X60047Y-83645D02*
X60200Y-83645D01*
X60104Y-83511D02*
X60104Y-83854D01*
X60123Y-83892D01*
X60161Y-83911D01*
X60200Y-83911D01*
X60695Y-83911D02*
X60657Y-83892D01*
X60638Y-83854D01*
X60638Y-83511D01*
X60847Y-83911D02*
X60847Y-83645D01*
X60847Y-83511D02*
X60828Y-83530D01*
X60847Y-83550D01*
X60866Y-83530D01*
X60847Y-83511D01*
X60847Y-83550D01*
X61038Y-83911D02*
X61038Y-83645D01*
X61038Y-83683D02*
X61057Y-83664D01*
X61095Y-83645D01*
X61152Y-83645D01*
X61190Y-83664D01*
X61209Y-83702D01*
X61209Y-83911D01*
X61209Y-83702D02*
X61228Y-83664D01*
X61266Y-83645D01*
X61323Y-83645D01*
X61361Y-83664D01*
X61380Y-83702D01*
X61380Y-83911D01*
X61571Y-83911D02*
X61571Y-83645D01*
X61571Y-83511D02*
X61552Y-83530D01*
X61571Y-83550D01*
X61590Y-83530D01*
X61571Y-83511D01*
X61571Y-83550D01*
X61704Y-83645D02*
X61857Y-83645D01*
X61761Y-83511D02*
X61761Y-83854D01*
X61780Y-83892D01*
X61819Y-83911D01*
X61857Y-83911D01*
X60488Y-52261D02*
X60621Y-52661D01*
X60754Y-52261D01*
X60888Y-52661D02*
X60888Y-52395D01*
X60888Y-52261D02*
X60869Y-52280D01*
X60888Y-52300D01*
X60907Y-52280D01*
X60888Y-52261D01*
X60888Y-52300D01*
X61078Y-52395D02*
X61078Y-52661D01*
X61078Y-52433D02*
X61097Y-52414D01*
X61135Y-52395D01*
X61192Y-52395D01*
X61230Y-52414D01*
X61250Y-52452D01*
X61250Y-52661D01*
X61440Y-52623D02*
X61459Y-52642D01*
X61440Y-52661D01*
X61421Y-52642D01*
X61440Y-52623D01*
X61440Y-52661D01*
X61440Y-52414D02*
X61459Y-52433D01*
X61440Y-52452D01*
X61421Y-52433D01*
X61440Y-52414D01*
X61440Y-52452D01*
X61916Y-52300D02*
X61935Y-52280D01*
X61973Y-52261D01*
X62069Y-52261D01*
X62107Y-52280D01*
X62126Y-52300D01*
X62145Y-52338D01*
X62145Y-52376D01*
X62126Y-52433D01*
X61897Y-52661D01*
X62145Y-52661D01*
X62488Y-52395D02*
X62488Y-52661D01*
X62392Y-52242D02*
X62297Y-52528D01*
X62545Y-52528D01*
X62640Y-52261D02*
X62773Y-52661D01*
X62907Y-52261D01*
X63345Y-52661D02*
X63345Y-52261D01*
X63440Y-52261D01*
X63497Y-52280D01*
X63535Y-52319D01*
X63554Y-52357D01*
X63573Y-52433D01*
X63573Y-52490D01*
X63554Y-52566D01*
X63535Y-52604D01*
X63497Y-52642D01*
X63440Y-52661D01*
X63345Y-52661D01*
X63973Y-52623D02*
X63954Y-52642D01*
X63897Y-52661D01*
X63859Y-52661D01*
X63802Y-52642D01*
X63764Y-52604D01*
X63745Y-52566D01*
X63726Y-52490D01*
X63726Y-52433D01*
X63745Y-52357D01*
X63764Y-52319D01*
X63802Y-52280D01*
X63859Y-52261D01*
X63897Y-52261D01*
X63954Y-52280D01*
X63973Y-52300D01*
X70154Y-64395D02*
X70154Y-64719D01*
X70135Y-64757D01*
X70116Y-64776D01*
X70078Y-64795D01*
X70021Y-64795D01*
X69983Y-64776D01*
X70154Y-64642D02*
X70116Y-64661D01*
X70040Y-64661D01*
X70002Y-64642D01*
X69983Y-64623D01*
X69964Y-64585D01*
X69964Y-64471D01*
X69983Y-64433D01*
X70002Y-64414D01*
X70040Y-64395D01*
X70116Y-64395D01*
X70154Y-64414D01*
X70345Y-64661D02*
X70345Y-64395D01*
X70345Y-64261D02*
X70326Y-64280D01*
X70345Y-64300D01*
X70364Y-64280D01*
X70345Y-64261D01*
X70345Y-64300D01*
X70478Y-64395D02*
X70630Y-64395D01*
X70535Y-64261D02*
X70535Y-64604D01*
X70554Y-64642D01*
X70592Y-64661D01*
X70630Y-64661D01*
X70764Y-64661D02*
X70764Y-64261D01*
X70935Y-64661D02*
X70935Y-64452D01*
X70916Y-64414D01*
X70878Y-64395D01*
X70821Y-64395D01*
X70783Y-64414D01*
X70764Y-64433D01*
X71297Y-64395D02*
X71297Y-64661D01*
X71126Y-64395D02*
X71126Y-64604D01*
X71145Y-64642D01*
X71183Y-64661D01*
X71240Y-64661D01*
X71278Y-64642D01*
X71297Y-64623D01*
X71488Y-64661D02*
X71488Y-64261D01*
X71488Y-64414D02*
X71526Y-64395D01*
X71602Y-64395D01*
X71640Y-64414D01*
X71659Y-64433D01*
X71678Y-64471D01*
X71678Y-64585D01*
X71659Y-64623D01*
X71640Y-64642D01*
X71602Y-64661D01*
X71526Y-64661D01*
X71488Y-64642D01*
X71850Y-64623D02*
X71869Y-64642D01*
X71850Y-64661D01*
X71830Y-64642D01*
X71850Y-64623D01*
X71850Y-64661D01*
X72211Y-64642D02*
X72173Y-64661D01*
X72097Y-64661D01*
X72059Y-64642D01*
X72040Y-64623D01*
X72021Y-64585D01*
X72021Y-64471D01*
X72040Y-64433D01*
X72059Y-64414D01*
X72097Y-64395D01*
X72173Y-64395D01*
X72211Y-64414D01*
X72440Y-64661D02*
X72402Y-64642D01*
X72383Y-64623D01*
X72364Y-64585D01*
X72364Y-64471D01*
X72383Y-64433D01*
X72402Y-64414D01*
X72440Y-64395D01*
X72497Y-64395D01*
X72535Y-64414D01*
X72554Y-64433D01*
X72573Y-64471D01*
X72573Y-64585D01*
X72554Y-64623D01*
X72535Y-64642D01*
X72497Y-64661D01*
X72440Y-64661D01*
X72745Y-64661D02*
X72745Y-64395D01*
X72745Y-64433D02*
X72764Y-64414D01*
X72802Y-64395D01*
X72859Y-64395D01*
X72897Y-64414D01*
X72916Y-64452D01*
X72916Y-64661D01*
X72916Y-64452D02*
X72935Y-64414D01*
X72973Y-64395D01*
X73030Y-64395D01*
X73069Y-64414D01*
X73088Y-64452D01*
X73088Y-64661D01*
X73564Y-64242D02*
X73221Y-64757D01*
X73697Y-64395D02*
X73697Y-64795D01*
X73697Y-64414D02*
X73735Y-64395D01*
X73811Y-64395D01*
X73850Y-64414D01*
X73869Y-64433D01*
X73888Y-64471D01*
X73888Y-64585D01*
X73869Y-64623D01*
X73850Y-64642D01*
X73811Y-64661D01*
X73735Y-64661D01*
X73697Y-64642D01*
X74211Y-64642D02*
X74173Y-64661D01*
X74097Y-64661D01*
X74059Y-64642D01*
X74040Y-64604D01*
X74040Y-64452D01*
X74059Y-64414D01*
X74097Y-64395D01*
X74173Y-64395D01*
X74211Y-64414D01*
X74230Y-64452D01*
X74230Y-64490D01*
X74040Y-64528D01*
X74402Y-64395D02*
X74402Y-64795D01*
X74402Y-64414D02*
X74440Y-64395D01*
X74516Y-64395D01*
X74554Y-64414D01*
X74573Y-64433D01*
X74592Y-64471D01*
X74592Y-64585D01*
X74573Y-64623D01*
X74554Y-64642D01*
X74516Y-64661D01*
X74440Y-64661D01*
X74402Y-64642D01*
X74935Y-64661D02*
X74935Y-64452D01*
X74916Y-64414D01*
X74878Y-64395D01*
X74802Y-64395D01*
X74764Y-64414D01*
X74935Y-64642D02*
X74897Y-64661D01*
X74802Y-64661D01*
X74764Y-64642D01*
X74745Y-64604D01*
X74745Y-64566D01*
X74764Y-64528D01*
X74802Y-64509D01*
X74897Y-64509D01*
X74935Y-64490D01*
X75107Y-64642D02*
X75145Y-64661D01*
X75221Y-64661D01*
X75259Y-64642D01*
X75278Y-64604D01*
X75278Y-64585D01*
X75259Y-64547D01*
X75221Y-64528D01*
X75164Y-64528D01*
X75126Y-64509D01*
X75107Y-64471D01*
X75107Y-64452D01*
X75126Y-64414D01*
X75164Y-64395D01*
X75221Y-64395D01*
X75259Y-64414D01*
X75507Y-64661D02*
X75469Y-64642D01*
X75450Y-64604D01*
X75450Y-64261D01*
X75830Y-64661D02*
X75830Y-64452D01*
X75811Y-64414D01*
X75773Y-64395D01*
X75697Y-64395D01*
X75659Y-64414D01*
X75830Y-64642D02*
X75792Y-64661D01*
X75697Y-64661D01*
X75659Y-64642D01*
X75640Y-64604D01*
X75640Y-64566D01*
X75659Y-64528D01*
X75697Y-64509D01*
X75792Y-64509D01*
X75830Y-64490D01*
X76021Y-64661D02*
X76021Y-64261D01*
X76021Y-64414D02*
X76059Y-64395D01*
X76135Y-64395D01*
X76173Y-64414D01*
X76192Y-64433D01*
X76211Y-64471D01*
X76211Y-64585D01*
X76192Y-64623D01*
X76173Y-64642D01*
X76135Y-64661D01*
X76059Y-64661D01*
X76021Y-64642D01*
X76364Y-64642D02*
X76402Y-64661D01*
X76478Y-64661D01*
X76516Y-64642D01*
X76535Y-64604D01*
X76535Y-64585D01*
X76516Y-64547D01*
X76478Y-64528D01*
X76421Y-64528D01*
X76383Y-64509D01*
X76364Y-64471D01*
X76364Y-64452D01*
X76383Y-64414D01*
X76421Y-64395D01*
X76478Y-64395D01*
X76516Y-64414D01*
G54D13*
X67421Y-63742D02*
X67421Y-63142D01*
X67564Y-63142D01*
X67650Y-63171D01*
X67707Y-63228D01*
X67735Y-63285D01*
X67764Y-63400D01*
X67764Y-63485D01*
X67735Y-63600D01*
X67707Y-63657D01*
X67650Y-63714D01*
X67564Y-63742D01*
X67421Y-63742D01*
X68278Y-63342D02*
X68278Y-63742D01*
X68021Y-63342D02*
X68021Y-63657D01*
X68050Y-63714D01*
X68107Y-63742D01*
X68192Y-63742D01*
X68250Y-63714D01*
X68278Y-63685D01*
X68821Y-63742D02*
X68821Y-63428D01*
X68792Y-63371D01*
X68735Y-63342D01*
X68621Y-63342D01*
X68564Y-63371D01*
X68821Y-63714D02*
X68764Y-63742D01*
X68621Y-63742D01*
X68564Y-63714D01*
X68535Y-63657D01*
X68535Y-63600D01*
X68564Y-63542D01*
X68621Y-63514D01*
X68764Y-63514D01*
X68821Y-63485D01*
X69192Y-63742D02*
X69135Y-63714D01*
X69107Y-63657D01*
X69107Y-63142D01*
X70164Y-63742D02*
X69878Y-63742D01*
X69878Y-63142D01*
X70364Y-63742D02*
X70364Y-63142D01*
X70564Y-63571D01*
X70764Y-63142D01*
X70764Y-63742D01*
X70992Y-63142D02*
X71364Y-63142D01*
X71164Y-63371D01*
X71249Y-63371D01*
X71307Y-63400D01*
X71335Y-63428D01*
X71364Y-63485D01*
X71364Y-63628D01*
X71335Y-63685D01*
X71307Y-63714D01*
X71249Y-63742D01*
X71078Y-63742D01*
X71021Y-63714D01*
X70992Y-63685D01*
X71935Y-63742D02*
X71592Y-63742D01*
X71764Y-63742D02*
X71764Y-63142D01*
X71707Y-63228D01*
X71650Y-63285D01*
X71592Y-63314D01*
X72135Y-63142D02*
X72535Y-63142D01*
X72278Y-63742D01*
X73421Y-63428D02*
X73507Y-63457D01*
X73535Y-63485D01*
X73564Y-63542D01*
X73564Y-63628D01*
X73535Y-63685D01*
X73507Y-63714D01*
X73450Y-63742D01*
X73221Y-63742D01*
X73221Y-63142D01*
X73421Y-63142D01*
X73478Y-63171D01*
X73507Y-63200D01*
X73535Y-63257D01*
X73535Y-63314D01*
X73507Y-63371D01*
X73478Y-63400D01*
X73421Y-63428D01*
X73221Y-63428D01*
X74050Y-63714D02*
X73992Y-63742D01*
X73878Y-63742D01*
X73821Y-63714D01*
X73792Y-63657D01*
X73792Y-63428D01*
X73821Y-63371D01*
X73878Y-63342D01*
X73992Y-63342D01*
X74050Y-63371D01*
X74078Y-63428D01*
X74078Y-63485D01*
X73792Y-63542D01*
X74335Y-63342D02*
X74335Y-63742D01*
X74335Y-63400D02*
X74364Y-63371D01*
X74421Y-63342D01*
X74507Y-63342D01*
X74564Y-63371D01*
X74592Y-63428D01*
X74592Y-63742D01*
X75135Y-63714D02*
X75078Y-63742D01*
X74964Y-63742D01*
X74907Y-63714D01*
X74878Y-63685D01*
X74850Y-63628D01*
X74850Y-63457D01*
X74878Y-63400D01*
X74907Y-63371D01*
X74964Y-63342D01*
X75078Y-63342D01*
X75135Y-63371D01*
X75392Y-63742D02*
X75392Y-63142D01*
X75650Y-63742D02*
X75650Y-63428D01*
X75621Y-63371D01*
X75564Y-63342D01*
X75478Y-63342D01*
X75421Y-63371D01*
X75392Y-63400D01*
X76364Y-63714D02*
X76450Y-63742D01*
X76592Y-63742D01*
X76650Y-63714D01*
X76678Y-63685D01*
X76707Y-63628D01*
X76707Y-63571D01*
X76678Y-63514D01*
X76650Y-63485D01*
X76592Y-63457D01*
X76478Y-63428D01*
X76421Y-63400D01*
X76392Y-63371D01*
X76364Y-63314D01*
X76364Y-63257D01*
X76392Y-63200D01*
X76421Y-63171D01*
X76478Y-63142D01*
X76621Y-63142D01*
X76707Y-63171D01*
X77221Y-63342D02*
X77221Y-63742D01*
X76964Y-63342D02*
X76964Y-63657D01*
X76992Y-63714D01*
X77050Y-63742D01*
X77135Y-63742D01*
X77192Y-63714D01*
X77221Y-63685D01*
X77507Y-63342D02*
X77507Y-63942D01*
X77507Y-63371D02*
X77564Y-63342D01*
X77678Y-63342D01*
X77735Y-63371D01*
X77764Y-63400D01*
X77792Y-63457D01*
X77792Y-63628D01*
X77764Y-63685D01*
X77735Y-63714D01*
X77678Y-63742D01*
X77564Y-63742D01*
X77507Y-63714D01*
X78050Y-63342D02*
X78050Y-63942D01*
X78050Y-63371D02*
X78107Y-63342D01*
X78221Y-63342D01*
X78278Y-63371D01*
X78307Y-63400D01*
X78335Y-63457D01*
X78335Y-63628D01*
X78307Y-63685D01*
X78278Y-63714D01*
X78221Y-63742D01*
X78107Y-63742D01*
X78050Y-63714D01*
X78678Y-63742D02*
X78621Y-63714D01*
X78592Y-63657D01*
X78592Y-63142D01*
X78850Y-63342D02*
X78992Y-63742D01*
X79135Y-63342D02*
X78992Y-63742D01*
X78935Y-63885D01*
X78907Y-63914D01*
X78850Y-63942D01*
G54D14*
X74000Y-55750D02*
X73750Y-55750D01*
X73750Y-55750D02*
X73750Y-51750D01*
X73750Y-51750D02*
X74000Y-51750D01*
X75500Y-55750D02*
X74000Y-55750D01*
X74000Y-55750D02*
X74000Y-51750D01*
X74000Y-51750D02*
X75500Y-51750D01*
X75500Y-51750D02*
X75500Y-55750D01*
X72500Y-51750D02*
X72750Y-51750D01*
X72750Y-51750D02*
X72750Y-55750D01*
X72750Y-55750D02*
X72500Y-55750D01*
X71000Y-51750D02*
X72500Y-51750D01*
X72500Y-51750D02*
X72500Y-55750D01*
X72500Y-55750D02*
X71000Y-55750D01*
X71000Y-55750D02*
X71000Y-51750D01*
G54D13*
X83750Y-83750D02*
X84150Y-83750D01*
X84150Y-83750D02*
X84150Y-83350D01*
X84150Y-83350D02*
X87350Y-83350D01*
X87350Y-83350D02*
X87350Y-84150D01*
X87350Y-84150D02*
X84150Y-84150D01*
X84150Y-84150D02*
X84150Y-83750D01*
X87750Y-83750D02*
X87350Y-83750D01*
X79750Y-55750D02*
X79750Y-55350D01*
X79750Y-55350D02*
X79350Y-55350D01*
X79350Y-55350D02*
X79350Y-52150D01*
X79350Y-52150D02*
X80150Y-52150D01*
X80150Y-52150D02*
X80150Y-55350D01*
X80150Y-55350D02*
X79750Y-55350D01*
X79750Y-51750D02*
X79750Y-52150D01*
X60000Y-66750D02*
X60000Y-67250D01*
X60650Y-71350D02*
X60650Y-67250D01*
X59350Y-67250D02*
X59350Y-71350D01*
X59350Y-67250D02*
X60650Y-67250D01*
X60000Y-71350D02*
X60650Y-71350D01*
X60000Y-71350D02*
X59350Y-71350D01*
X60000Y-71750D02*
X60000Y-71350D01*
X61500Y-66750D02*
X61500Y-67250D01*
X62150Y-71350D02*
X62150Y-67250D01*
X60850Y-67250D02*
X60850Y-71350D01*
X60850Y-67250D02*
X62150Y-67250D01*
X61500Y-71350D02*
X62150Y-71350D01*
X61500Y-71350D02*
X60850Y-71350D01*
X61500Y-71750D02*
X61500Y-71350D01*
X63000Y-66750D02*
X63000Y-67250D01*
X63650Y-71350D02*
X63650Y-67250D01*
X62350Y-67250D02*
X62350Y-71350D01*
X62350Y-67250D02*
X63650Y-67250D01*
X63000Y-71350D02*
X63650Y-71350D01*
X63000Y-71350D02*
X62350Y-71350D01*
X63000Y-71750D02*
X63000Y-71350D01*
X66000Y-66750D02*
X66000Y-67250D01*
X66650Y-71350D02*
X66650Y-67250D01*
X65350Y-67250D02*
X65350Y-71350D01*
X65350Y-67250D02*
X66650Y-67250D01*
X66000Y-71350D02*
X66650Y-71350D01*
X66000Y-71350D02*
X65350Y-71350D01*
X66000Y-71750D02*
X66000Y-71350D01*
X64500Y-66750D02*
X64500Y-67250D01*
X65150Y-71350D02*
X65150Y-67250D01*
X63850Y-67250D02*
X63850Y-71350D01*
X63850Y-67250D02*
X65150Y-67250D01*
X64500Y-71350D02*
X65150Y-71350D01*
X64500Y-71350D02*
X63850Y-71350D01*
X64500Y-71750D02*
X64500Y-71350D01*
X72000Y-77250D02*
X71500Y-77250D01*
X67400Y-77900D02*
X71500Y-77900D01*
X71500Y-76600D02*
X67400Y-76600D01*
X71500Y-76600D02*
X71500Y-77900D01*
X67400Y-77250D02*
X67400Y-77900D01*
X67400Y-77250D02*
X67400Y-76600D01*
X67000Y-77250D02*
X67400Y-77250D01*
X72000Y-75750D02*
X71500Y-75750D01*
X67400Y-76400D02*
X71500Y-76400D01*
X71500Y-75100D02*
X67400Y-75100D01*
X71500Y-75100D02*
X71500Y-76400D01*
X67400Y-75750D02*
X67400Y-76400D01*
X67400Y-75750D02*
X67400Y-75100D01*
X67000Y-75750D02*
X67400Y-75750D01*
X72000Y-74250D02*
X71500Y-74250D01*
X67400Y-74900D02*
X71500Y-74900D01*
X71500Y-73600D02*
X67400Y-73600D01*
X71500Y-73600D02*
X71500Y-74900D01*
X67400Y-74250D02*
X67400Y-74900D01*
X67400Y-74250D02*
X67400Y-73600D01*
X67000Y-74250D02*
X67400Y-74250D01*
X72000Y-72750D02*
X71500Y-72750D01*
X67400Y-73400D02*
X71500Y-73400D01*
X71500Y-72100D02*
X67400Y-72100D01*
X71500Y-72100D02*
X71500Y-73400D01*
X67400Y-72750D02*
X67400Y-73400D01*
X67400Y-72750D02*
X67400Y-72100D01*
X67000Y-72750D02*
X67400Y-72750D01*
X56500Y-71750D02*
X56500Y-71350D01*
X56500Y-71350D02*
X56100Y-71350D01*
X56100Y-71350D02*
X56100Y-68150D01*
X56100Y-68150D02*
X56900Y-68150D01*
X56900Y-68150D02*
X56900Y-71350D01*
X56900Y-71350D02*
X56500Y-71350D01*
X56500Y-67750D02*
X56500Y-68150D01*
X58500Y-71750D02*
X58500Y-71350D01*
X58500Y-71350D02*
X58100Y-71350D01*
X58100Y-71350D02*
X58100Y-68150D01*
X58100Y-68150D02*
X58900Y-68150D01*
X58900Y-68150D02*
X58900Y-71350D01*
X58900Y-71350D02*
X58500Y-71350D01*
X58500Y-67750D02*
X58500Y-68150D01*
X57500Y-71750D02*
X57500Y-71350D01*
X57500Y-71350D02*
X57100Y-71350D01*
X57100Y-71350D02*
X57100Y-68150D01*
X57100Y-68150D02*
X57900Y-68150D01*
X57900Y-68150D02*
X57900Y-71350D01*
X57900Y-71350D02*
X57500Y-71350D01*
X57500Y-67750D02*
X57500Y-68150D01*
G54D10*
X56771Y-83250D02*
G75*
G03X56771Y-83250I-1771J0D01*
G74*
G01*
X56771Y-46500D02*
G75*
G03X56771Y-46500I-1771J0D01*
G74*
G01*
X93271Y-46500D02*
G75*
G03X93271Y-46500I-1771J0D01*
G74*
G01*
X93271Y-83250D02*
G75*
G03X93271Y-83250I-1771J0D01*
G74*
G01*
G54D13*
X70150Y-56650D02*
X67350Y-56650D01*
X67350Y-56650D02*
X67350Y-55850D01*
X67350Y-55850D02*
X70150Y-55850D01*
X70150Y-55850D02*
X70150Y-56650D01*
X70150Y-56450D02*
X69950Y-56650D01*
X63350Y-57500D02*
G75*
G03X63350Y-57500I-2600J0D01*
G74*
G01*
X74250Y-71000D02*
G75*
G03X74250Y-71000I-1000J0D01*
G74*
G01*
X82500Y-53750D02*
G75*
G03X82500Y-53750I-1000J0D01*
G74*
G01*
X74250Y-68750D02*
G75*
G03X74250Y-68750I-1000J0D01*
G74*
G01*
G54D10*
X78320Y-50250D02*
X78200Y-50400D01*
X73560Y-50400D02*
X78200Y-50400D01*
X68180Y-50260D02*
X68300Y-50400D01*
X72940Y-50400D02*
X68300Y-50400D01*
X78290Y-57180D02*
X78200Y-57100D01*
X73560Y-57100D02*
X78200Y-57100D01*
X68350Y-57100D02*
X68220Y-57200D01*
X72940Y-57100D02*
X68350Y-57100D01*
X73078Y-59190D02*
X71388Y-62050D01*
X71388Y-62050D02*
X71208Y-62090D01*
X71208Y-62090D02*
X71028Y-61970D01*
X71028Y-61970D02*
X70978Y-61820D01*
X70978Y-61820D02*
X71018Y-61680D01*
X71018Y-61680D02*
X71968Y-60030D01*
X71968Y-60030D02*
X71948Y-59700D01*
X71948Y-59700D02*
X71728Y-59460D01*
X71728Y-59460D02*
X71358Y-59390D01*
X71358Y-59390D02*
X71158Y-59490D01*
X71158Y-59490D02*
X68488Y-62100D01*
X68488Y-62100D02*
X68318Y-62080D01*
X68318Y-62080D02*
X68188Y-61920D01*
X68188Y-61920D02*
X68178Y-61780D01*
X68178Y-61780D02*
X68258Y-61660D01*
X68258Y-61660D02*
X69948Y-59910D01*
X69948Y-59910D02*
X69958Y-59790D01*
X69958Y-59790D02*
X69898Y-59640D01*
X69898Y-59640D02*
X69678Y-59580D01*
X69678Y-59580D02*
X68488Y-60230D01*
X68488Y-60230D02*
X68358Y-60230D01*
X68358Y-60230D02*
X68218Y-60120D01*
X68218Y-60120D02*
X68178Y-59960D01*
X68178Y-59960D02*
X68218Y-59810D01*
X68218Y-59810D02*
X70518Y-58130D01*
X70518Y-58130D02*
X70568Y-57880D01*
X70568Y-57880D02*
X70488Y-57670D01*
X70488Y-57670D02*
X70358Y-57600D01*
X70358Y-57600D02*
X68398Y-57600D01*
X68398Y-57600D02*
X68218Y-57440D01*
X68218Y-57440D02*
X68188Y-57320D01*
X68188Y-57320D02*
X68218Y-57200D01*
X78290Y-57180D02*
X78328Y-57350D01*
X78328Y-57350D02*
X78268Y-57490D01*
X78268Y-57490D02*
X78068Y-57590D01*
X78068Y-57590D02*
X76138Y-57620D01*
X76138Y-57620D02*
X75988Y-57740D01*
X75988Y-57740D02*
X75908Y-57940D01*
X75908Y-57940D02*
X76008Y-58140D01*
X76008Y-58140D02*
X78298Y-59830D01*
X78298Y-59830D02*
X78328Y-60000D01*
X78328Y-60000D02*
X78248Y-60170D01*
X78248Y-60170D02*
X78068Y-60240D01*
X78068Y-60240D02*
X76958Y-59630D01*
X76958Y-59630D02*
X76678Y-59600D01*
X76678Y-59600D02*
X76558Y-59730D01*
X76558Y-59730D02*
X76558Y-59880D01*
X76558Y-59880D02*
X76628Y-59980D01*
X76628Y-59980D02*
X78278Y-61700D01*
X78278Y-61700D02*
X78328Y-61880D01*
X78328Y-61880D02*
X78248Y-62020D01*
X78248Y-62020D02*
X78088Y-62100D01*
X78088Y-62100D02*
X77938Y-62030D01*
X77938Y-62030D02*
X75268Y-59410D01*
X75268Y-59410D02*
X74818Y-59440D01*
X74818Y-59440D02*
X74598Y-59670D01*
X74598Y-59670D02*
X74558Y-59970D01*
X74558Y-59970D02*
X74608Y-60170D01*
X74608Y-60170D02*
X75538Y-61800D01*
X75538Y-61800D02*
X75488Y-61960D01*
X75488Y-61960D02*
X75348Y-62080D01*
X75348Y-62080D02*
X75178Y-62070D01*
X75178Y-62070D02*
X75028Y-61930D01*
X75028Y-61930D02*
X73468Y-59190D01*
X73478Y-48310D02*
X75138Y-45460D01*
X75138Y-45460D02*
X75338Y-45430D01*
X75338Y-45430D02*
X75468Y-45520D01*
X75468Y-45520D02*
X75518Y-45750D01*
X75518Y-45750D02*
X74528Y-47480D01*
X74528Y-47480D02*
X74588Y-47850D01*
X74588Y-47850D02*
X74908Y-48130D01*
X74908Y-48130D02*
X75168Y-48130D01*
X75168Y-48130D02*
X75348Y-48040D01*
X75348Y-48040D02*
X78018Y-45420D01*
X78018Y-45420D02*
X78208Y-45440D01*
X78208Y-45440D02*
X78308Y-45540D01*
X78308Y-45540D02*
X78338Y-45710D01*
X78338Y-45710D02*
X78268Y-45820D01*
X78268Y-45820D02*
X76598Y-47540D01*
X76598Y-47540D02*
X76548Y-47720D01*
X76548Y-47720D02*
X76618Y-47870D01*
X76618Y-47870D02*
X76778Y-47930D01*
X76778Y-47930D02*
X76948Y-47890D01*
X76948Y-47890D02*
X77998Y-47300D01*
X77998Y-47300D02*
X78158Y-47300D01*
X78158Y-47300D02*
X78288Y-47390D01*
X78288Y-47390D02*
X78338Y-47570D01*
X78338Y-47570D02*
X78268Y-47710D01*
X78268Y-47710D02*
X76068Y-49310D01*
X76068Y-49310D02*
X75898Y-49570D01*
X75898Y-49570D02*
X75948Y-49730D01*
X75948Y-49730D02*
X76158Y-49910D01*
X76158Y-49910D02*
X78188Y-49940D01*
X78188Y-49940D02*
X78308Y-50120D01*
X78308Y-50120D02*
X78318Y-50250D01*
X68178Y-50110D02*
X68308Y-49950D01*
X68308Y-49950D02*
X70338Y-49910D01*
X70338Y-49910D02*
X70538Y-49780D01*
X70538Y-49780D02*
X70568Y-49490D01*
X70568Y-49490D02*
X70458Y-49330D01*
X70458Y-49330D02*
X68228Y-47700D01*
X68228Y-47700D02*
X68178Y-47450D01*
X68178Y-47450D02*
X68288Y-47310D01*
X68288Y-47310D02*
X68508Y-47290D01*
X68508Y-47290D02*
X69638Y-47930D01*
X69638Y-47930D02*
X69848Y-47910D01*
X69848Y-47910D02*
X69948Y-47780D01*
X69948Y-47780D02*
X69938Y-47590D01*
X69938Y-47590D02*
X68188Y-45770D01*
X68188Y-45770D02*
X68188Y-45560D01*
X68188Y-45560D02*
X68278Y-45460D01*
X68278Y-45460D02*
X68528Y-45440D01*
X68528Y-45440D02*
X71278Y-48100D01*
X71278Y-48100D02*
X71548Y-48130D01*
X71548Y-48130D02*
X71928Y-47840D01*
X71928Y-47840D02*
X71978Y-47510D01*
X71978Y-47510D02*
X70978Y-45710D01*
X70978Y-45710D02*
X71018Y-45540D01*
X71018Y-45540D02*
X71158Y-45440D01*
X71158Y-45440D02*
X71438Y-45510D01*
X71438Y-45510D02*
X73058Y-48300D01*
X68178Y-50260D02*
X68178Y-50110D01*
X73560Y-57100D02*
X73560Y-50400D01*
X72940Y-57100D02*
X72940Y-50400D01*
G54D13*
X53773Y-53710D02*
X53773Y-48789D01*
X53773Y-48789D02*
X56726Y-48789D01*
X56726Y-48789D02*
X56726Y-53710D01*
X56726Y-53710D02*
X53773Y-53710D01*
G54D15*
X54856Y-51092D02*
X54856Y-51407D01*
X54856Y-51407D02*
X55643Y-51407D01*
X55643Y-51407D02*
X55643Y-51092D01*
X55643Y-51092D02*
X54856Y-51092D01*
G54D13*
X53773Y-63210D02*
X53773Y-58289D01*
X53773Y-58289D02*
X56726Y-58289D01*
X56726Y-58289D02*
X56726Y-63210D01*
X56726Y-63210D02*
X53773Y-63210D01*
G54D15*
X54856Y-60592D02*
X54856Y-60907D01*
X54856Y-60907D02*
X55643Y-60907D01*
X55643Y-60907D02*
X55643Y-60592D01*
X55643Y-60592D02*
X54856Y-60592D01*
G54D13*
X75523Y-75460D02*
X75523Y-70539D01*
X75523Y-70539D02*
X78476Y-70539D01*
X78476Y-70539D02*
X78476Y-75460D01*
X78476Y-75460D02*
X75523Y-75460D01*
G54D15*
X76606Y-72842D02*
X76606Y-73157D01*
X76606Y-73157D02*
X77393Y-73157D01*
X77393Y-73157D02*
X77393Y-72842D01*
X77393Y-72842D02*
X76606Y-72842D01*
G54D16*
X82576Y-83826D02*
X80923Y-83826D01*
X80923Y-82173D02*
G75*
G03X80923Y-83826I826J-826D01*
G74*
G01*
X82576Y-82173D02*
G75*
G03X80923Y-82173I-826J-826D01*
G74*
G01*
X82576Y-83826D02*
G75*
G03X82576Y-82173I-826J826D01*
G74*
G01*
G54D10*
X63480Y-81893D02*
X66039Y-79334D01*
X63480Y-74807D02*
X66039Y-77366D01*
X56393Y-81893D02*
X53834Y-79334D01*
X53834Y-77366D02*
X56393Y-74807D01*
X56393Y-81893D02*
G75*
G03X63480Y-81893I3543J3543D01*
G74*
G01*
X63480Y-74807D02*
G75*
G03X56393Y-74807I-3543J-3543D01*
G74*
G01*
X53834Y-77366D02*
X53834Y-79334D01*
X66039Y-77366D02*
X66039Y-79334D01*
G54D13*
X71600Y-82250D02*
G75*
G03X71600Y-82250I-2100J0D01*
G74*
G01*
X79100Y-82250D02*
G75*
G03X79100Y-82250I-2100J0D01*
G74*
G01*
X77750Y-54850D02*
X77750Y-55250D01*
X77750Y-52650D02*
X77750Y-52250D01*
X78150Y-54850D02*
X78150Y-52650D01*
X77350Y-52650D02*
X77350Y-54850D01*
X77350Y-52900D02*
X78150Y-52900D01*
X77750Y-52650D02*
X77350Y-52650D01*
X77350Y-54850D02*
X77750Y-54850D01*
X77750Y-54850D02*
X78150Y-54850D01*
X78150Y-52650D02*
X77750Y-52650D01*
X78750Y-54850D02*
X78750Y-55250D01*
X78750Y-52650D02*
X78750Y-52250D01*
X79150Y-54850D02*
X79150Y-52650D01*
X78350Y-52650D02*
X78350Y-54850D01*
X78350Y-52900D02*
X79150Y-52900D01*
X78750Y-52650D02*
X78350Y-52650D01*
X78350Y-54850D02*
X78750Y-54850D01*
X78750Y-54850D02*
X79150Y-54850D01*
X79150Y-52650D02*
X78750Y-52650D01*
X66350Y-53250D02*
X66750Y-53250D01*
X64150Y-53250D02*
X63750Y-53250D01*
X66350Y-52850D02*
X64150Y-52850D01*
X64150Y-53650D02*
X66350Y-53650D01*
X64400Y-53650D02*
X64400Y-52850D01*
X64150Y-53250D02*
X64150Y-53650D01*
X66350Y-53650D02*
X66350Y-53250D01*
X66350Y-53250D02*
X66350Y-52850D01*
X64150Y-52850D02*
X64150Y-53250D01*
X69600Y-52000D02*
X70000Y-52000D01*
X67400Y-52000D02*
X67000Y-52000D01*
X69600Y-51600D02*
X67400Y-51600D01*
X67400Y-52400D02*
X69600Y-52400D01*
X67650Y-52400D02*
X67650Y-51600D01*
X67400Y-52000D02*
X67400Y-52400D01*
X69600Y-52400D02*
X69600Y-52000D01*
X69600Y-52000D02*
X69600Y-51600D01*
X67400Y-51600D02*
X67400Y-52000D01*
X92400Y-77850D02*
X92400Y-80650D01*
X92400Y-80650D02*
X91600Y-80650D01*
X91600Y-80650D02*
X91600Y-77850D01*
X91600Y-77850D02*
X92400Y-77850D01*
X92200Y-77850D02*
X92400Y-78050D01*
X87600Y-70850D02*
X90400Y-70850D01*
X90400Y-70850D02*
X90400Y-71650D01*
X90400Y-71650D02*
X87600Y-71650D01*
X87600Y-71650D02*
X87600Y-70850D01*
X87600Y-71050D02*
X87800Y-70850D01*
X83900Y-81000D02*
X84900Y-81000D01*
X84900Y-81000D02*
G75*
G03X84900Y-81000I-500J0D01*
G74*
G01*
X83900Y-81950D02*
X83900Y-80050D01*
X87600Y-80050D02*
X87600Y-81950D01*
X87600Y-81950D02*
X83900Y-81950D01*
X83900Y-80050D02*
X87600Y-80050D01*
G54D17*
G36*
X72773Y-66457D02*
X72781Y-66453D01*
X72800Y-66441D01*
X72826Y-66424D01*
X72857Y-66403D01*
X72888Y-66382D01*
X72914Y-66365D01*
X72932Y-66353D01*
X72939Y-66349D01*
X72943Y-66350D01*
X72958Y-66358D01*
X72980Y-66369D01*
X72992Y-66375D01*
X73012Y-66384D01*
X73022Y-66386D01*
X73023Y-66383D01*
X73031Y-66368D01*
X73042Y-66342D01*
X73057Y-66308D01*
X73074Y-66268D01*
X73092Y-66225D01*
X73110Y-66181D01*
X73128Y-66139D01*
X73143Y-66101D01*
X73156Y-66071D01*
X73164Y-66049D01*
X73167Y-66040D01*
X73166Y-66038D01*
X73156Y-66029D01*
X73139Y-66016D01*
X73101Y-65985D01*
X73065Y-65939D01*
X73042Y-65887D01*
X73035Y-65829D01*
X73041Y-65776D01*
X73062Y-65725D01*
X73098Y-65678D01*
X73142Y-65644D01*
X73193Y-65622D01*
X73250Y-65615D01*
X73305Y-65621D01*
X73357Y-65642D01*
X73404Y-65677D01*
X73423Y-65700D01*
X73450Y-65747D01*
X73466Y-65797D01*
X73467Y-65809D01*
X73465Y-65865D01*
X73449Y-65918D01*
X73420Y-65965D01*
X73379Y-66004D01*
X73374Y-66008D01*
X73355Y-66022D01*
X73343Y-66031D01*
X73333Y-66039D01*
X73403Y-66209D01*
X73414Y-66236D01*
X73434Y-66282D01*
X73451Y-66322D01*
X73464Y-66354D01*
X73474Y-66375D01*
X73478Y-66384D01*
X73478Y-66384D01*
X73484Y-66385D01*
X73497Y-66380D01*
X73521Y-66369D01*
X73537Y-66361D01*
X73555Y-66352D01*
X73563Y-66349D01*
X73570Y-66353D01*
X73587Y-66364D01*
X73612Y-66381D01*
X73642Y-66401D01*
X73671Y-66421D01*
X73698Y-66439D01*
X73717Y-66451D01*
X73727Y-66456D01*
X73728Y-66456D01*
X73736Y-66451D01*
X73752Y-66439D01*
X73775Y-66417D01*
X73807Y-66385D01*
X73812Y-66380D01*
X73839Y-66352D01*
X73861Y-66329D01*
X73876Y-66313D01*
X73881Y-66306D01*
X73881Y-66306D01*
X73876Y-66296D01*
X73864Y-66277D01*
X73846Y-66250D01*
X73825Y-66219D01*
X73769Y-66137D01*
X73800Y-66060D01*
X73809Y-66037D01*
X73821Y-66008D01*
X73830Y-65988D01*
X73835Y-65979D01*
X73843Y-65976D01*
X73864Y-65971D01*
X73895Y-65964D01*
X73931Y-65958D01*
X73966Y-65951D01*
X73997Y-65945D01*
X74020Y-65941D01*
X74030Y-65939D01*
X74032Y-65937D01*
X74034Y-65932D01*
X74036Y-65922D01*
X74036Y-65903D01*
X74037Y-65873D01*
X74037Y-65829D01*
X74037Y-65825D01*
X74036Y-65783D01*
X74036Y-65750D01*
X74035Y-65729D01*
X74033Y-65721D01*
X74033Y-65721D01*
X74023Y-65718D01*
X74001Y-65714D01*
X73970Y-65707D01*
X73932Y-65700D01*
X73930Y-65700D01*
X73893Y-65693D01*
X73862Y-65686D01*
X73840Y-65681D01*
X73831Y-65678D01*
X73829Y-65676D01*
X73821Y-65661D01*
X73810Y-65638D01*
X73798Y-65610D01*
X73786Y-65581D01*
X73775Y-65554D01*
X73768Y-65535D01*
X73766Y-65526D01*
X73766Y-65526D01*
X73772Y-65517D01*
X73785Y-65497D01*
X73803Y-65471D01*
X73825Y-65439D01*
X73826Y-65436D01*
X73848Y-65405D01*
X73865Y-65378D01*
X73877Y-65359D01*
X73881Y-65351D01*
X73881Y-65350D01*
X73874Y-65341D01*
X73858Y-65323D01*
X73835Y-65299D01*
X73807Y-65271D01*
X73798Y-65263D01*
X73768Y-65233D01*
X73747Y-65213D01*
X73733Y-65203D01*
X73727Y-65200D01*
X73727Y-65201D01*
X73717Y-65206D01*
X73697Y-65219D01*
X73670Y-65238D01*
X73638Y-65259D01*
X73636Y-65261D01*
X73605Y-65282D01*
X73579Y-65300D01*
X73560Y-65312D01*
X73552Y-65317D01*
X73550Y-65317D01*
X73538Y-65313D01*
X73515Y-65306D01*
X73488Y-65295D01*
X73459Y-65283D01*
X73432Y-65272D01*
X73412Y-65263D01*
X73403Y-65258D01*
X73403Y-65257D01*
X73399Y-65246D01*
X73394Y-65222D01*
X73387Y-65190D01*
X73380Y-65151D01*
X73379Y-65145D01*
X73372Y-65108D01*
X73366Y-65077D01*
X73361Y-65055D01*
X73359Y-65046D01*
X73354Y-65045D01*
X73335Y-65044D01*
X73307Y-65043D01*
X73273Y-65043D01*
X73238Y-65043D01*
X73204Y-65044D01*
X73174Y-65045D01*
X73153Y-65046D01*
X73144Y-65048D01*
X73143Y-65049D01*
X73140Y-65060D01*
X73135Y-65084D01*
X73128Y-65116D01*
X73121Y-65155D01*
X73120Y-65162D01*
X73113Y-65199D01*
X73106Y-65230D01*
X73102Y-65251D01*
X73099Y-65259D01*
X73096Y-65261D01*
X73081Y-65268D01*
X73056Y-65278D01*
X73024Y-65291D01*
X72952Y-65320D01*
X72864Y-65259D01*
X72856Y-65254D01*
X72824Y-65232D01*
X72798Y-65215D01*
X72780Y-65203D01*
X72772Y-65199D01*
X72772Y-65199D01*
X72763Y-65207D01*
X72745Y-65223D01*
X72721Y-65247D01*
X72694Y-65274D01*
X72673Y-65295D01*
X72649Y-65320D01*
X72633Y-65336D01*
X72625Y-65347D01*
X72622Y-65354D01*
X72623Y-65358D01*
X72628Y-65367D01*
X72641Y-65386D01*
X72659Y-65413D01*
X72681Y-65444D01*
X72699Y-65471D01*
X72718Y-65500D01*
X72730Y-65521D01*
X72735Y-65532D01*
X72734Y-65536D01*
X72727Y-65553D01*
X72717Y-65580D01*
X72704Y-65611D01*
X72673Y-65681D01*
X72627Y-65689D01*
X72599Y-65695D01*
X72560Y-65702D01*
X72523Y-65709D01*
X72465Y-65721D01*
X72463Y-65933D01*
X72472Y-65937D01*
X72481Y-65940D01*
X72502Y-65944D01*
X72533Y-65950D01*
X72569Y-65957D01*
X72600Y-65963D01*
X72631Y-65969D01*
X72653Y-65973D01*
X72663Y-65975D01*
X72666Y-65979D01*
X72674Y-65994D01*
X72685Y-66018D01*
X72697Y-66047D01*
X72709Y-66076D01*
X72720Y-66104D01*
X72728Y-66125D01*
X72731Y-66136D01*
X72727Y-66144D01*
X72715Y-66162D01*
X72698Y-66188D01*
X72677Y-66219D01*
X72655Y-66250D01*
X72638Y-66277D01*
X72625Y-66296D01*
X72620Y-66304D01*
X72623Y-66310D01*
X72635Y-66325D01*
X72658Y-66349D01*
X72693Y-66384D01*
X72699Y-66389D01*
X72726Y-66416D01*
X72750Y-66437D01*
X72766Y-66452D01*
X72773Y-66457D01*
X72773Y-66457D01*
G37*
G54D16*
X81250Y-63000D02*
X81250Y-62750D01*
X81250Y-62750D02*
X85250Y-62750D01*
X85250Y-62750D02*
X85250Y-63000D01*
X81250Y-64500D02*
X81250Y-63000D01*
X81250Y-63000D02*
X85250Y-63000D01*
X85250Y-63000D02*
X85250Y-64500D01*
X85250Y-64500D02*
X81250Y-64500D01*
X86250Y-63000D02*
X86250Y-62750D01*
X86250Y-62750D02*
X90250Y-62750D01*
X90250Y-62750D02*
X90250Y-63000D01*
X86250Y-64500D02*
X86250Y-63000D01*
X86250Y-63000D02*
X90250Y-63000D01*
X90250Y-63000D02*
X90250Y-64500D01*
X90250Y-64500D02*
X86250Y-64500D01*
G54D13*
X89250Y-61250D02*
G75*
G03X89250Y-61250I-1000J0D01*
G74*
G01*
X84250Y-61250D02*
G75*
G03X84250Y-61250I-1000J0D01*
G74*
G01*
X86750Y-61250D02*
G75*
G03X86750Y-61250I-1000J0D01*
G74*
G01*
G54D11*
X87750Y-55300D02*
X87900Y-55550D01*
X87750Y-55300D02*
X87600Y-55550D01*
X87750Y-58500D02*
X87750Y-55300D01*
X87750Y-54750D02*
X88000Y-55250D01*
X88000Y-55250D02*
X88250Y-54750D01*
X88250Y-54750D02*
X88500Y-55250D01*
X88500Y-55250D02*
X88650Y-55000D01*
X88650Y-55000D02*
X89750Y-55000D01*
X87750Y-54750D02*
X87500Y-55250D01*
X87500Y-55250D02*
X87250Y-54750D01*
X87250Y-54750D02*
X87000Y-55250D01*
X87000Y-55250D02*
X86850Y-55000D01*
X86850Y-55000D02*
X85750Y-55000D01*
X89750Y-57500D02*
X89750Y-55000D01*
X85750Y-57500D02*
X85750Y-55000D01*
G54D16*
X91883Y-52500D02*
G75*
G03X91883Y-52500I-4133J0D01*
G74*
G01*
G54D13*
X80300Y-74700D02*
X80300Y-79650D01*
X80300Y-79650D02*
X91200Y-79650D01*
X91200Y-79650D02*
X91200Y-74700D01*
X92700Y-74700D02*
X91200Y-74700D01*
X78800Y-74700D02*
X80300Y-74700D01*
X92700Y-72300D02*
X78800Y-72300D01*
X92700Y-72300D02*
X92700Y-74700D01*
X78800Y-72300D02*
X78800Y-74700D01*
X90250Y-66500D02*
X92350Y-66500D01*
X92350Y-66500D02*
X92350Y-68500D01*
X92350Y-68500D02*
X90250Y-68500D01*
X79150Y-66500D02*
X79150Y-68500D01*
X79150Y-68500D02*
X81250Y-68500D01*
X79150Y-66500D02*
X81250Y-66500D01*
X81250Y-64700D02*
X90250Y-64700D01*
X90250Y-64700D02*
X90250Y-70300D01*
X90250Y-70300D02*
X81250Y-70300D01*
X81250Y-70300D02*
X81250Y-64700D01*
G54D16*
X66522Y-46485D02*
X62978Y-46485D01*
X66522Y-45107D02*
X62978Y-45107D01*
X62978Y-45107D02*
X62978Y-50816D01*
X62978Y-50816D02*
X66522Y-50816D01*
X66522Y-50816D02*
X66522Y-45107D01*
X61522Y-46485D02*
X57978Y-46485D01*
X61522Y-45107D02*
X57978Y-45107D01*
X57978Y-45107D02*
X57978Y-50816D01*
X57978Y-50816D02*
X61522Y-50816D01*
X61522Y-50816D02*
X61522Y-45107D01*
G54D11*
X75821Y-54264D02*
X76064Y-54264D01*
X76092Y-54250D01*
X76107Y-54235D01*
X76121Y-54207D01*
X76121Y-54150D01*
X76107Y-54121D01*
X76092Y-54107D01*
X76064Y-54092D01*
X75821Y-54092D01*
X76121Y-53792D02*
X76121Y-53964D01*
X76121Y-53878D02*
X75821Y-53878D01*
X75864Y-53907D01*
X75892Y-53935D01*
X75907Y-53964D01*
X75821Y-53607D02*
X75821Y-53578D01*
X75835Y-53550D01*
X75850Y-53535D01*
X75878Y-53521D01*
X75935Y-53507D01*
X76007Y-53507D01*
X76064Y-53521D01*
X76092Y-53535D01*
X76107Y-53550D01*
X76121Y-53578D01*
X76121Y-53607D01*
X76107Y-53635D01*
X76092Y-53650D01*
X76064Y-53664D01*
X76007Y-53678D01*
X75935Y-53678D01*
X75878Y-53664D01*
X75850Y-53650D01*
X75835Y-53635D01*
X75821Y-53607D01*
X75821Y-53407D02*
X75821Y-53221D01*
X75935Y-53321D01*
X75935Y-53278D01*
X75950Y-53250D01*
X75964Y-53235D01*
X75992Y-53221D01*
X76064Y-53221D01*
X76092Y-53235D01*
X76107Y-53250D01*
X76121Y-53278D01*
X76121Y-53364D01*
X76107Y-53392D01*
X76092Y-53407D01*
G54D12*
X74073Y-56411D02*
X73883Y-56411D01*
X73883Y-56011D01*
X74207Y-56411D02*
X74207Y-56011D01*
X74340Y-56297D01*
X74473Y-56011D01*
X74473Y-56411D01*
X74626Y-56011D02*
X74873Y-56011D01*
X74740Y-56164D01*
X74797Y-56164D01*
X74835Y-56183D01*
X74854Y-56202D01*
X74873Y-56240D01*
X74873Y-56335D01*
X74854Y-56373D01*
X74835Y-56392D01*
X74797Y-56411D01*
X74683Y-56411D01*
X74645Y-56392D01*
X74626Y-56373D01*
X75254Y-56411D02*
X75026Y-56411D01*
X75140Y-56411D02*
X75140Y-56011D01*
X75102Y-56069D01*
X75064Y-56107D01*
X75026Y-56126D01*
X75388Y-56011D02*
X75654Y-56011D01*
X75483Y-56411D01*
G54D11*
X70321Y-54264D02*
X70564Y-54264D01*
X70592Y-54250D01*
X70607Y-54235D01*
X70621Y-54207D01*
X70621Y-54150D01*
X70607Y-54121D01*
X70592Y-54107D01*
X70564Y-54092D01*
X70321Y-54092D01*
X70621Y-53792D02*
X70621Y-53964D01*
X70621Y-53878D02*
X70321Y-53878D01*
X70364Y-53907D01*
X70392Y-53935D01*
X70407Y-53964D01*
X70321Y-53607D02*
X70321Y-53578D01*
X70335Y-53550D01*
X70350Y-53535D01*
X70378Y-53521D01*
X70435Y-53507D01*
X70507Y-53507D01*
X70564Y-53521D01*
X70592Y-53535D01*
X70607Y-53550D01*
X70621Y-53578D01*
X70621Y-53607D01*
X70607Y-53635D01*
X70592Y-53650D01*
X70564Y-53664D01*
X70507Y-53678D01*
X70435Y-53678D01*
X70378Y-53664D01*
X70350Y-53650D01*
X70335Y-53635D01*
X70321Y-53607D01*
X70350Y-53392D02*
X70335Y-53378D01*
X70321Y-53350D01*
X70321Y-53278D01*
X70335Y-53250D01*
X70350Y-53235D01*
X70378Y-53221D01*
X70407Y-53221D01*
X70450Y-53235D01*
X70621Y-53407D01*
X70621Y-53221D01*
G54D12*
X71073Y-56411D02*
X70883Y-56411D01*
X70883Y-56011D01*
X71207Y-56411D02*
X71207Y-56011D01*
X71340Y-56297D01*
X71473Y-56011D01*
X71473Y-56411D01*
X71626Y-56011D02*
X71873Y-56011D01*
X71740Y-56164D01*
X71797Y-56164D01*
X71835Y-56183D01*
X71854Y-56202D01*
X71873Y-56240D01*
X71873Y-56335D01*
X71854Y-56373D01*
X71835Y-56392D01*
X71797Y-56411D01*
X71683Y-56411D01*
X71645Y-56392D01*
X71626Y-56373D01*
X72254Y-56411D02*
X72026Y-56411D01*
X72140Y-56411D02*
X72140Y-56011D01*
X72102Y-56069D01*
X72064Y-56107D01*
X72026Y-56126D01*
X72388Y-56011D02*
X72654Y-56011D01*
X72483Y-56411D01*
G54D11*
X84614Y-83871D02*
X84514Y-83728D01*
X84442Y-83871D02*
X84442Y-83571D01*
X84557Y-83571D01*
X84585Y-83585D01*
X84600Y-83600D01*
X84614Y-83628D01*
X84614Y-83671D01*
X84600Y-83700D01*
X84585Y-83714D01*
X84557Y-83728D01*
X84442Y-83728D01*
X84900Y-83871D02*
X84728Y-83871D01*
X84814Y-83871D02*
X84814Y-83571D01*
X84785Y-83614D01*
X84757Y-83642D01*
X84728Y-83657D01*
X85085Y-83571D02*
X85114Y-83571D01*
X85142Y-83585D01*
X85157Y-83600D01*
X85171Y-83628D01*
X85185Y-83685D01*
X85185Y-83757D01*
X85171Y-83814D01*
X85157Y-83842D01*
X85142Y-83857D01*
X85114Y-83871D01*
X85085Y-83871D01*
X85057Y-83857D01*
X85042Y-83842D01*
X85028Y-83814D01*
X85014Y-83757D01*
X85014Y-83685D01*
X85028Y-83628D01*
X85042Y-83600D01*
X85057Y-83585D01*
X85085Y-83571D01*
X85471Y-83871D02*
X85300Y-83871D01*
X85385Y-83871D02*
X85385Y-83571D01*
X85357Y-83614D01*
X85328Y-83642D01*
X85300Y-83657D01*
X86350Y-83871D02*
X86178Y-83871D01*
X86264Y-83871D02*
X86264Y-83571D01*
X86235Y-83614D01*
X86207Y-83642D01*
X86178Y-83657D01*
X86621Y-83571D02*
X86478Y-83571D01*
X86464Y-83714D01*
X86478Y-83700D01*
X86507Y-83685D01*
X86578Y-83685D01*
X86607Y-83700D01*
X86621Y-83714D01*
X86635Y-83742D01*
X86635Y-83814D01*
X86621Y-83842D01*
X86607Y-83857D01*
X86578Y-83871D01*
X86507Y-83871D01*
X86478Y-83857D01*
X86464Y-83842D01*
X86821Y-83571D02*
X86850Y-83571D01*
X86878Y-83585D01*
X86892Y-83600D01*
X86907Y-83628D01*
X86921Y-83685D01*
X86921Y-83757D01*
X86907Y-83814D01*
X86892Y-83842D01*
X86878Y-83857D01*
X86850Y-83871D01*
X86821Y-83871D01*
X86792Y-83857D01*
X86778Y-83842D01*
X86764Y-83814D01*
X86750Y-83757D01*
X86750Y-83685D01*
X86764Y-83628D01*
X86778Y-83600D01*
X86792Y-83585D01*
X86821Y-83571D01*
X79871Y-54885D02*
X79728Y-54985D01*
X79871Y-55057D02*
X79571Y-55057D01*
X79571Y-54942D01*
X79585Y-54914D01*
X79600Y-54900D01*
X79628Y-54885D01*
X79671Y-54885D01*
X79700Y-54900D01*
X79714Y-54914D01*
X79728Y-54942D01*
X79728Y-55057D01*
X79871Y-54600D02*
X79871Y-54771D01*
X79871Y-54685D02*
X79571Y-54685D01*
X79614Y-54714D01*
X79642Y-54742D01*
X79657Y-54771D01*
X79571Y-54414D02*
X79571Y-54385D01*
X79585Y-54357D01*
X79600Y-54342D01*
X79628Y-54328D01*
X79685Y-54314D01*
X79757Y-54314D01*
X79814Y-54328D01*
X79842Y-54342D01*
X79857Y-54357D01*
X79871Y-54385D01*
X79871Y-54414D01*
X79857Y-54442D01*
X79842Y-54457D01*
X79814Y-54471D01*
X79757Y-54485D01*
X79685Y-54485D01*
X79628Y-54471D01*
X79600Y-54457D01*
X79585Y-54442D01*
X79571Y-54414D01*
X79600Y-54200D02*
X79585Y-54185D01*
X79571Y-54157D01*
X79571Y-54085D01*
X79585Y-54057D01*
X79600Y-54042D01*
X79628Y-54028D01*
X79657Y-54028D01*
X79700Y-54042D01*
X79871Y-54214D01*
X79871Y-54028D01*
X79571Y-53335D02*
X79571Y-53150D01*
X79685Y-53250D01*
X79685Y-53207D01*
X79700Y-53178D01*
X79714Y-53164D01*
X79742Y-53150D01*
X79814Y-53150D01*
X79842Y-53164D01*
X79857Y-53178D01*
X79871Y-53207D01*
X79871Y-53292D01*
X79857Y-53321D01*
X79842Y-53335D01*
X79571Y-53050D02*
X79571Y-52864D01*
X79685Y-52964D01*
X79685Y-52921D01*
X79700Y-52892D01*
X79714Y-52878D01*
X79742Y-52864D01*
X79814Y-52864D01*
X79842Y-52878D01*
X79857Y-52892D01*
X79871Y-52921D01*
X79871Y-53007D01*
X79857Y-53035D01*
X79842Y-53050D01*
X79571Y-52678D02*
X79571Y-52650D01*
X79585Y-52621D01*
X79600Y-52607D01*
X79628Y-52592D01*
X79685Y-52578D01*
X79757Y-52578D01*
X79814Y-52592D01*
X79842Y-52607D01*
X79857Y-52621D01*
X79871Y-52650D01*
X79871Y-52678D01*
X79857Y-52707D01*
X79842Y-52721D01*
X79814Y-52735D01*
X79757Y-52750D01*
X79685Y-52750D01*
X79628Y-52735D01*
X79600Y-52721D01*
X79585Y-52707D01*
X79571Y-52678D01*
X60121Y-70585D02*
X59978Y-70685D01*
X60121Y-70757D02*
X59821Y-70757D01*
X59821Y-70642D01*
X59835Y-70614D01*
X59850Y-70600D01*
X59878Y-70585D01*
X59921Y-70585D01*
X59950Y-70600D01*
X59964Y-70614D01*
X59978Y-70642D01*
X59978Y-70757D01*
X59850Y-70471D02*
X59835Y-70457D01*
X59821Y-70428D01*
X59821Y-70357D01*
X59835Y-70328D01*
X59850Y-70314D01*
X59878Y-70300D01*
X59907Y-70300D01*
X59950Y-70314D01*
X60121Y-70485D01*
X60121Y-70300D01*
X59821Y-70114D02*
X59821Y-70085D01*
X59835Y-70057D01*
X59850Y-70042D01*
X59878Y-70028D01*
X59935Y-70014D01*
X60007Y-70014D01*
X60064Y-70028D01*
X60092Y-70042D01*
X60107Y-70057D01*
X60121Y-70085D01*
X60121Y-70114D01*
X60107Y-70142D01*
X60092Y-70157D01*
X60064Y-70171D01*
X60007Y-70185D01*
X59935Y-70185D01*
X59878Y-70171D01*
X59850Y-70157D01*
X59835Y-70142D01*
X59821Y-70114D01*
X59950Y-69842D02*
X59935Y-69871D01*
X59921Y-69885D01*
X59892Y-69900D01*
X59878Y-69900D01*
X59850Y-69885D01*
X59835Y-69871D01*
X59821Y-69842D01*
X59821Y-69785D01*
X59835Y-69757D01*
X59850Y-69742D01*
X59878Y-69728D01*
X59892Y-69728D01*
X59921Y-69742D01*
X59935Y-69757D01*
X59950Y-69785D01*
X59950Y-69842D01*
X59964Y-69871D01*
X59978Y-69885D01*
X60007Y-69900D01*
X60064Y-69900D01*
X60092Y-69885D01*
X60107Y-69871D01*
X60121Y-69842D01*
X60121Y-69785D01*
X60107Y-69757D01*
X60092Y-69742D01*
X60064Y-69728D01*
X60007Y-69728D01*
X59978Y-69742D01*
X59964Y-69757D01*
X59950Y-69785D01*
X60121Y-68307D02*
X60121Y-68478D01*
X60121Y-68392D02*
X59821Y-68392D01*
X59864Y-68421D01*
X59892Y-68450D01*
X59907Y-68478D01*
X59821Y-68121D02*
X59821Y-68092D01*
X59835Y-68064D01*
X59850Y-68050D01*
X59878Y-68035D01*
X59935Y-68021D01*
X60007Y-68021D01*
X60064Y-68035D01*
X60092Y-68050D01*
X60107Y-68064D01*
X60121Y-68092D01*
X60121Y-68121D01*
X60107Y-68150D01*
X60092Y-68164D01*
X60064Y-68178D01*
X60007Y-68192D01*
X59935Y-68192D01*
X59878Y-68178D01*
X59850Y-68164D01*
X59835Y-68150D01*
X59821Y-68121D01*
X61621Y-70585D02*
X61478Y-70685D01*
X61621Y-70757D02*
X61321Y-70757D01*
X61321Y-70642D01*
X61335Y-70614D01*
X61350Y-70600D01*
X61378Y-70585D01*
X61421Y-70585D01*
X61450Y-70600D01*
X61464Y-70614D01*
X61478Y-70642D01*
X61478Y-70757D01*
X61350Y-70471D02*
X61335Y-70457D01*
X61321Y-70428D01*
X61321Y-70357D01*
X61335Y-70328D01*
X61350Y-70314D01*
X61378Y-70300D01*
X61407Y-70300D01*
X61450Y-70314D01*
X61621Y-70485D01*
X61621Y-70300D01*
X61621Y-70014D02*
X61621Y-70185D01*
X61621Y-70100D02*
X61321Y-70100D01*
X61364Y-70128D01*
X61392Y-70157D01*
X61407Y-70185D01*
X61621Y-69728D02*
X61621Y-69900D01*
X61621Y-69814D02*
X61321Y-69814D01*
X61364Y-69842D01*
X61392Y-69871D01*
X61407Y-69900D01*
X61621Y-68307D02*
X61621Y-68478D01*
X61621Y-68392D02*
X61321Y-68392D01*
X61364Y-68421D01*
X61392Y-68450D01*
X61407Y-68478D01*
X61321Y-68121D02*
X61321Y-68092D01*
X61335Y-68064D01*
X61350Y-68050D01*
X61378Y-68035D01*
X61435Y-68021D01*
X61507Y-68021D01*
X61564Y-68035D01*
X61592Y-68050D01*
X61607Y-68064D01*
X61621Y-68092D01*
X61621Y-68121D01*
X61607Y-68150D01*
X61592Y-68164D01*
X61564Y-68178D01*
X61507Y-68192D01*
X61435Y-68192D01*
X61378Y-68178D01*
X61350Y-68164D01*
X61335Y-68150D01*
X61321Y-68121D01*
X63121Y-70585D02*
X62978Y-70685D01*
X63121Y-70757D02*
X62821Y-70757D01*
X62821Y-70642D01*
X62835Y-70614D01*
X62850Y-70600D01*
X62878Y-70585D01*
X62921Y-70585D01*
X62950Y-70600D01*
X62964Y-70614D01*
X62978Y-70642D01*
X62978Y-70757D01*
X62850Y-70471D02*
X62835Y-70457D01*
X62821Y-70428D01*
X62821Y-70357D01*
X62835Y-70328D01*
X62850Y-70314D01*
X62878Y-70300D01*
X62907Y-70300D01*
X62950Y-70314D01*
X63121Y-70485D01*
X63121Y-70300D01*
X63121Y-70014D02*
X63121Y-70185D01*
X63121Y-70100D02*
X62821Y-70100D01*
X62864Y-70128D01*
X62892Y-70157D01*
X62907Y-70185D01*
X62850Y-69900D02*
X62835Y-69885D01*
X62821Y-69857D01*
X62821Y-69785D01*
X62835Y-69757D01*
X62850Y-69742D01*
X62878Y-69728D01*
X62907Y-69728D01*
X62950Y-69742D01*
X63121Y-69914D01*
X63121Y-69728D01*
X63121Y-68307D02*
X63121Y-68478D01*
X63121Y-68392D02*
X62821Y-68392D01*
X62864Y-68421D01*
X62892Y-68450D01*
X62907Y-68478D01*
X62821Y-68121D02*
X62821Y-68092D01*
X62835Y-68064D01*
X62850Y-68050D01*
X62878Y-68035D01*
X62935Y-68021D01*
X63007Y-68021D01*
X63064Y-68035D01*
X63092Y-68050D01*
X63107Y-68064D01*
X63121Y-68092D01*
X63121Y-68121D01*
X63107Y-68150D01*
X63092Y-68164D01*
X63064Y-68178D01*
X63007Y-68192D01*
X62935Y-68192D01*
X62878Y-68178D01*
X62850Y-68164D01*
X62835Y-68150D01*
X62821Y-68121D01*
X66121Y-70585D02*
X65978Y-70685D01*
X66121Y-70757D02*
X65821Y-70757D01*
X65821Y-70642D01*
X65835Y-70614D01*
X65850Y-70600D01*
X65878Y-70585D01*
X65921Y-70585D01*
X65950Y-70600D01*
X65964Y-70614D01*
X65978Y-70642D01*
X65978Y-70757D01*
X65850Y-70471D02*
X65835Y-70457D01*
X65821Y-70428D01*
X65821Y-70357D01*
X65835Y-70328D01*
X65850Y-70314D01*
X65878Y-70300D01*
X65907Y-70300D01*
X65950Y-70314D01*
X66121Y-70485D01*
X66121Y-70300D01*
X65821Y-70114D02*
X65821Y-70085D01*
X65835Y-70057D01*
X65850Y-70042D01*
X65878Y-70028D01*
X65935Y-70014D01*
X66007Y-70014D01*
X66064Y-70028D01*
X66092Y-70042D01*
X66107Y-70057D01*
X66121Y-70085D01*
X66121Y-70114D01*
X66107Y-70142D01*
X66092Y-70157D01*
X66064Y-70171D01*
X66007Y-70185D01*
X65935Y-70185D01*
X65878Y-70171D01*
X65850Y-70157D01*
X65835Y-70142D01*
X65821Y-70114D01*
X66121Y-69871D02*
X66121Y-69814D01*
X66107Y-69785D01*
X66092Y-69771D01*
X66050Y-69742D01*
X65992Y-69728D01*
X65878Y-69728D01*
X65850Y-69742D01*
X65835Y-69757D01*
X65821Y-69785D01*
X65821Y-69842D01*
X65835Y-69871D01*
X65850Y-69885D01*
X65878Y-69900D01*
X65950Y-69900D01*
X65978Y-69885D01*
X65992Y-69871D01*
X66007Y-69842D01*
X66007Y-69785D01*
X65992Y-69757D01*
X65978Y-69742D01*
X65950Y-69728D01*
X66121Y-68307D02*
X66121Y-68478D01*
X66121Y-68392D02*
X65821Y-68392D01*
X65864Y-68421D01*
X65892Y-68450D01*
X65907Y-68478D01*
X65821Y-68121D02*
X65821Y-68092D01*
X65835Y-68064D01*
X65850Y-68050D01*
X65878Y-68035D01*
X65935Y-68021D01*
X66007Y-68021D01*
X66064Y-68035D01*
X66092Y-68050D01*
X66107Y-68064D01*
X66121Y-68092D01*
X66121Y-68121D01*
X66107Y-68150D01*
X66092Y-68164D01*
X66064Y-68178D01*
X66007Y-68192D01*
X65935Y-68192D01*
X65878Y-68178D01*
X65850Y-68164D01*
X65835Y-68150D01*
X65821Y-68121D01*
X64621Y-70585D02*
X64478Y-70685D01*
X64621Y-70757D02*
X64321Y-70757D01*
X64321Y-70642D01*
X64335Y-70614D01*
X64350Y-70600D01*
X64378Y-70585D01*
X64421Y-70585D01*
X64450Y-70600D01*
X64464Y-70614D01*
X64478Y-70642D01*
X64478Y-70757D01*
X64350Y-70471D02*
X64335Y-70457D01*
X64321Y-70428D01*
X64321Y-70357D01*
X64335Y-70328D01*
X64350Y-70314D01*
X64378Y-70300D01*
X64407Y-70300D01*
X64450Y-70314D01*
X64621Y-70485D01*
X64621Y-70300D01*
X64621Y-70014D02*
X64621Y-70185D01*
X64621Y-70100D02*
X64321Y-70100D01*
X64364Y-70128D01*
X64392Y-70157D01*
X64407Y-70185D01*
X64321Y-69828D02*
X64321Y-69800D01*
X64335Y-69771D01*
X64350Y-69757D01*
X64378Y-69742D01*
X64435Y-69728D01*
X64507Y-69728D01*
X64564Y-69742D01*
X64592Y-69757D01*
X64607Y-69771D01*
X64621Y-69800D01*
X64621Y-69828D01*
X64607Y-69857D01*
X64592Y-69871D01*
X64564Y-69885D01*
X64507Y-69900D01*
X64435Y-69900D01*
X64378Y-69885D01*
X64350Y-69871D01*
X64335Y-69857D01*
X64321Y-69828D01*
X64621Y-68307D02*
X64621Y-68478D01*
X64621Y-68392D02*
X64321Y-68392D01*
X64364Y-68421D01*
X64392Y-68450D01*
X64407Y-68478D01*
X64321Y-68121D02*
X64321Y-68092D01*
X64335Y-68064D01*
X64350Y-68050D01*
X64378Y-68035D01*
X64435Y-68021D01*
X64507Y-68021D01*
X64564Y-68035D01*
X64592Y-68050D01*
X64607Y-68064D01*
X64621Y-68092D01*
X64621Y-68121D01*
X64607Y-68150D01*
X64592Y-68164D01*
X64564Y-68178D01*
X64507Y-68192D01*
X64435Y-68192D01*
X64378Y-68178D01*
X64350Y-68164D01*
X64335Y-68150D01*
X64321Y-68121D01*
X68164Y-77371D02*
X68064Y-77228D01*
X67992Y-77371D02*
X67992Y-77071D01*
X68107Y-77071D01*
X68135Y-77085D01*
X68150Y-77100D01*
X68164Y-77128D01*
X68164Y-77171D01*
X68150Y-77200D01*
X68135Y-77214D01*
X68107Y-77228D01*
X67992Y-77228D01*
X68278Y-77100D02*
X68292Y-77085D01*
X68321Y-77071D01*
X68392Y-77071D01*
X68421Y-77085D01*
X68435Y-77100D01*
X68450Y-77128D01*
X68450Y-77157D01*
X68435Y-77200D01*
X68264Y-77371D01*
X68450Y-77371D01*
X68635Y-77071D02*
X68664Y-77071D01*
X68692Y-77085D01*
X68707Y-77100D01*
X68721Y-77128D01*
X68735Y-77185D01*
X68735Y-77257D01*
X68721Y-77314D01*
X68707Y-77342D01*
X68692Y-77357D01*
X68664Y-77371D01*
X68635Y-77371D01*
X68607Y-77357D01*
X68592Y-77342D01*
X68578Y-77314D01*
X68564Y-77257D01*
X68564Y-77185D01*
X68578Y-77128D01*
X68592Y-77100D01*
X68607Y-77085D01*
X68635Y-77071D01*
X68992Y-77171D02*
X68992Y-77371D01*
X68921Y-77057D02*
X68850Y-77271D01*
X69035Y-77271D01*
X70442Y-77371D02*
X70271Y-77371D01*
X70357Y-77371D02*
X70357Y-77071D01*
X70328Y-77114D01*
X70300Y-77142D01*
X70271Y-77157D01*
X70628Y-77071D02*
X70657Y-77071D01*
X70685Y-77085D01*
X70700Y-77100D01*
X70714Y-77128D01*
X70728Y-77185D01*
X70728Y-77257D01*
X70714Y-77314D01*
X70700Y-77342D01*
X70685Y-77357D01*
X70657Y-77371D01*
X70628Y-77371D01*
X70600Y-77357D01*
X70585Y-77342D01*
X70571Y-77314D01*
X70557Y-77257D01*
X70557Y-77185D01*
X70571Y-77128D01*
X70585Y-77100D01*
X70600Y-77085D01*
X70628Y-77071D01*
X68164Y-75871D02*
X68064Y-75728D01*
X67992Y-75871D02*
X67992Y-75571D01*
X68107Y-75571D01*
X68135Y-75585D01*
X68150Y-75600D01*
X68164Y-75628D01*
X68164Y-75671D01*
X68150Y-75700D01*
X68135Y-75714D01*
X68107Y-75728D01*
X67992Y-75728D01*
X68278Y-75600D02*
X68292Y-75585D01*
X68321Y-75571D01*
X68392Y-75571D01*
X68421Y-75585D01*
X68435Y-75600D01*
X68450Y-75628D01*
X68450Y-75657D01*
X68435Y-75700D01*
X68264Y-75871D01*
X68450Y-75871D01*
X68635Y-75571D02*
X68664Y-75571D01*
X68692Y-75585D01*
X68707Y-75600D01*
X68721Y-75628D01*
X68735Y-75685D01*
X68735Y-75757D01*
X68721Y-75814D01*
X68707Y-75842D01*
X68692Y-75857D01*
X68664Y-75871D01*
X68635Y-75871D01*
X68607Y-75857D01*
X68592Y-75842D01*
X68578Y-75814D01*
X68564Y-75757D01*
X68564Y-75685D01*
X68578Y-75628D01*
X68592Y-75600D01*
X68607Y-75585D01*
X68635Y-75571D01*
X69007Y-75571D02*
X68864Y-75571D01*
X68850Y-75714D01*
X68864Y-75700D01*
X68892Y-75685D01*
X68964Y-75685D01*
X68992Y-75700D01*
X69007Y-75714D01*
X69021Y-75742D01*
X69021Y-75814D01*
X69007Y-75842D01*
X68992Y-75857D01*
X68964Y-75871D01*
X68892Y-75871D01*
X68864Y-75857D01*
X68850Y-75842D01*
X70442Y-75871D02*
X70271Y-75871D01*
X70357Y-75871D02*
X70357Y-75571D01*
X70328Y-75614D01*
X70300Y-75642D01*
X70271Y-75657D01*
X70628Y-75571D02*
X70657Y-75571D01*
X70685Y-75585D01*
X70700Y-75600D01*
X70714Y-75628D01*
X70728Y-75685D01*
X70728Y-75757D01*
X70714Y-75814D01*
X70700Y-75842D01*
X70685Y-75857D01*
X70657Y-75871D01*
X70628Y-75871D01*
X70600Y-75857D01*
X70585Y-75842D01*
X70571Y-75814D01*
X70557Y-75757D01*
X70557Y-75685D01*
X70571Y-75628D01*
X70585Y-75600D01*
X70600Y-75585D01*
X70628Y-75571D01*
X68164Y-74371D02*
X68064Y-74228D01*
X67992Y-74371D02*
X67992Y-74071D01*
X68107Y-74071D01*
X68135Y-74085D01*
X68150Y-74100D01*
X68164Y-74128D01*
X68164Y-74171D01*
X68150Y-74200D01*
X68135Y-74214D01*
X68107Y-74228D01*
X67992Y-74228D01*
X68278Y-74100D02*
X68292Y-74085D01*
X68321Y-74071D01*
X68392Y-74071D01*
X68421Y-74085D01*
X68435Y-74100D01*
X68450Y-74128D01*
X68450Y-74157D01*
X68435Y-74200D01*
X68264Y-74371D01*
X68450Y-74371D01*
X68635Y-74071D02*
X68664Y-74071D01*
X68692Y-74085D01*
X68707Y-74100D01*
X68721Y-74128D01*
X68735Y-74185D01*
X68735Y-74257D01*
X68721Y-74314D01*
X68707Y-74342D01*
X68692Y-74357D01*
X68664Y-74371D01*
X68635Y-74371D01*
X68607Y-74357D01*
X68592Y-74342D01*
X68578Y-74314D01*
X68564Y-74257D01*
X68564Y-74185D01*
X68578Y-74128D01*
X68592Y-74100D01*
X68607Y-74085D01*
X68635Y-74071D01*
X68992Y-74071D02*
X68935Y-74071D01*
X68907Y-74085D01*
X68892Y-74100D01*
X68864Y-74142D01*
X68850Y-74200D01*
X68850Y-74314D01*
X68864Y-74342D01*
X68878Y-74357D01*
X68907Y-74371D01*
X68964Y-74371D01*
X68992Y-74357D01*
X69007Y-74342D01*
X69021Y-74314D01*
X69021Y-74242D01*
X69007Y-74214D01*
X68992Y-74200D01*
X68964Y-74185D01*
X68907Y-74185D01*
X68878Y-74200D01*
X68864Y-74214D01*
X68850Y-74242D01*
X70442Y-74371D02*
X70271Y-74371D01*
X70357Y-74371D02*
X70357Y-74071D01*
X70328Y-74114D01*
X70300Y-74142D01*
X70271Y-74157D01*
X70628Y-74071D02*
X70657Y-74071D01*
X70685Y-74085D01*
X70700Y-74100D01*
X70714Y-74128D01*
X70728Y-74185D01*
X70728Y-74257D01*
X70714Y-74314D01*
X70700Y-74342D01*
X70685Y-74357D01*
X70657Y-74371D01*
X70628Y-74371D01*
X70600Y-74357D01*
X70585Y-74342D01*
X70571Y-74314D01*
X70557Y-74257D01*
X70557Y-74185D01*
X70571Y-74128D01*
X70585Y-74100D01*
X70600Y-74085D01*
X70628Y-74071D01*
X68164Y-72871D02*
X68064Y-72728D01*
X67992Y-72871D02*
X67992Y-72571D01*
X68107Y-72571D01*
X68135Y-72585D01*
X68150Y-72600D01*
X68164Y-72628D01*
X68164Y-72671D01*
X68150Y-72700D01*
X68135Y-72714D01*
X68107Y-72728D01*
X67992Y-72728D01*
X68278Y-72600D02*
X68292Y-72585D01*
X68321Y-72571D01*
X68392Y-72571D01*
X68421Y-72585D01*
X68435Y-72600D01*
X68450Y-72628D01*
X68450Y-72657D01*
X68435Y-72700D01*
X68264Y-72871D01*
X68450Y-72871D01*
X68635Y-72571D02*
X68664Y-72571D01*
X68692Y-72585D01*
X68707Y-72600D01*
X68721Y-72628D01*
X68735Y-72685D01*
X68735Y-72757D01*
X68721Y-72814D01*
X68707Y-72842D01*
X68692Y-72857D01*
X68664Y-72871D01*
X68635Y-72871D01*
X68607Y-72857D01*
X68592Y-72842D01*
X68578Y-72814D01*
X68564Y-72757D01*
X68564Y-72685D01*
X68578Y-72628D01*
X68592Y-72600D01*
X68607Y-72585D01*
X68635Y-72571D01*
X68835Y-72571D02*
X69035Y-72571D01*
X68907Y-72871D01*
X70442Y-72871D02*
X70271Y-72871D01*
X70357Y-72871D02*
X70357Y-72571D01*
X70328Y-72614D01*
X70300Y-72642D01*
X70271Y-72657D01*
X70628Y-72571D02*
X70657Y-72571D01*
X70685Y-72585D01*
X70700Y-72600D01*
X70714Y-72628D01*
X70728Y-72685D01*
X70728Y-72757D01*
X70714Y-72814D01*
X70700Y-72842D01*
X70685Y-72857D01*
X70657Y-72871D01*
X70628Y-72871D01*
X70600Y-72857D01*
X70585Y-72842D01*
X70571Y-72814D01*
X70557Y-72757D01*
X70557Y-72685D01*
X70571Y-72628D01*
X70585Y-72600D01*
X70600Y-72585D01*
X70628Y-72571D01*
X56621Y-70885D02*
X56478Y-70985D01*
X56621Y-71057D02*
X56321Y-71057D01*
X56321Y-70942D01*
X56335Y-70914D01*
X56350Y-70900D01*
X56378Y-70885D01*
X56421Y-70885D01*
X56450Y-70900D01*
X56464Y-70914D01*
X56478Y-70942D01*
X56478Y-71057D01*
X56350Y-70771D02*
X56335Y-70757D01*
X56321Y-70728D01*
X56321Y-70657D01*
X56335Y-70628D01*
X56350Y-70614D01*
X56378Y-70600D01*
X56407Y-70600D01*
X56450Y-70614D01*
X56621Y-70785D01*
X56621Y-70600D01*
X56321Y-70414D02*
X56321Y-70385D01*
X56335Y-70357D01*
X56350Y-70342D01*
X56378Y-70328D01*
X56435Y-70314D01*
X56507Y-70314D01*
X56564Y-70328D01*
X56592Y-70342D01*
X56607Y-70357D01*
X56621Y-70385D01*
X56621Y-70414D01*
X56607Y-70442D01*
X56592Y-70457D01*
X56564Y-70471D01*
X56507Y-70485D01*
X56435Y-70485D01*
X56378Y-70471D01*
X56350Y-70457D01*
X56335Y-70442D01*
X56321Y-70414D01*
X56621Y-70028D02*
X56621Y-70200D01*
X56621Y-70114D02*
X56321Y-70114D01*
X56364Y-70142D01*
X56392Y-70171D01*
X56407Y-70200D01*
X56621Y-69150D02*
X56621Y-69321D01*
X56621Y-69235D02*
X56321Y-69235D01*
X56364Y-69264D01*
X56392Y-69292D01*
X56407Y-69321D01*
X56321Y-68964D02*
X56321Y-68935D01*
X56335Y-68907D01*
X56350Y-68892D01*
X56378Y-68878D01*
X56435Y-68864D01*
X56507Y-68864D01*
X56564Y-68878D01*
X56592Y-68892D01*
X56607Y-68907D01*
X56621Y-68935D01*
X56621Y-68964D01*
X56607Y-68992D01*
X56592Y-69007D01*
X56564Y-69021D01*
X56507Y-69035D01*
X56435Y-69035D01*
X56378Y-69021D01*
X56350Y-69007D01*
X56335Y-68992D01*
X56321Y-68964D01*
X56321Y-68678D02*
X56321Y-68650D01*
X56335Y-68621D01*
X56350Y-68607D01*
X56378Y-68592D01*
X56435Y-68578D01*
X56507Y-68578D01*
X56564Y-68592D01*
X56592Y-68607D01*
X56607Y-68621D01*
X56621Y-68650D01*
X56621Y-68678D01*
X56607Y-68707D01*
X56592Y-68721D01*
X56564Y-68735D01*
X56507Y-68750D01*
X56435Y-68750D01*
X56378Y-68735D01*
X56350Y-68721D01*
X56335Y-68707D01*
X56321Y-68678D01*
X58621Y-70885D02*
X58478Y-70985D01*
X58621Y-71057D02*
X58321Y-71057D01*
X58321Y-70942D01*
X58335Y-70914D01*
X58350Y-70900D01*
X58378Y-70885D01*
X58421Y-70885D01*
X58450Y-70900D01*
X58464Y-70914D01*
X58478Y-70942D01*
X58478Y-71057D01*
X58350Y-70771D02*
X58335Y-70757D01*
X58321Y-70728D01*
X58321Y-70657D01*
X58335Y-70628D01*
X58350Y-70614D01*
X58378Y-70600D01*
X58407Y-70600D01*
X58450Y-70614D01*
X58621Y-70785D01*
X58621Y-70600D01*
X58321Y-70414D02*
X58321Y-70385D01*
X58335Y-70357D01*
X58350Y-70342D01*
X58378Y-70328D01*
X58435Y-70314D01*
X58507Y-70314D01*
X58564Y-70328D01*
X58592Y-70342D01*
X58607Y-70357D01*
X58621Y-70385D01*
X58621Y-70414D01*
X58607Y-70442D01*
X58592Y-70457D01*
X58564Y-70471D01*
X58507Y-70485D01*
X58435Y-70485D01*
X58378Y-70471D01*
X58350Y-70457D01*
X58335Y-70442D01*
X58321Y-70414D01*
X58350Y-70200D02*
X58335Y-70185D01*
X58321Y-70157D01*
X58321Y-70085D01*
X58335Y-70057D01*
X58350Y-70042D01*
X58378Y-70028D01*
X58407Y-70028D01*
X58450Y-70042D01*
X58621Y-70214D01*
X58621Y-70028D01*
X58621Y-69150D02*
X58621Y-69321D01*
X58621Y-69235D02*
X58321Y-69235D01*
X58364Y-69264D01*
X58392Y-69292D01*
X58407Y-69321D01*
X58321Y-68964D02*
X58321Y-68935D01*
X58335Y-68907D01*
X58350Y-68892D01*
X58378Y-68878D01*
X58435Y-68864D01*
X58507Y-68864D01*
X58564Y-68878D01*
X58592Y-68892D01*
X58607Y-68907D01*
X58621Y-68935D01*
X58621Y-68964D01*
X58607Y-68992D01*
X58592Y-69007D01*
X58564Y-69021D01*
X58507Y-69035D01*
X58435Y-69035D01*
X58378Y-69021D01*
X58350Y-69007D01*
X58335Y-68992D01*
X58321Y-68964D01*
X58321Y-68678D02*
X58321Y-68650D01*
X58335Y-68621D01*
X58350Y-68607D01*
X58378Y-68592D01*
X58435Y-68578D01*
X58507Y-68578D01*
X58564Y-68592D01*
X58592Y-68607D01*
X58607Y-68621D01*
X58621Y-68650D01*
X58621Y-68678D01*
X58607Y-68707D01*
X58592Y-68721D01*
X58564Y-68735D01*
X58507Y-68750D01*
X58435Y-68750D01*
X58378Y-68735D01*
X58350Y-68721D01*
X58335Y-68707D01*
X58321Y-68678D01*
X57621Y-70885D02*
X57478Y-70985D01*
X57621Y-71057D02*
X57321Y-71057D01*
X57321Y-70942D01*
X57335Y-70914D01*
X57350Y-70900D01*
X57378Y-70885D01*
X57421Y-70885D01*
X57450Y-70900D01*
X57464Y-70914D01*
X57478Y-70942D01*
X57478Y-71057D01*
X57350Y-70771D02*
X57335Y-70757D01*
X57321Y-70728D01*
X57321Y-70657D01*
X57335Y-70628D01*
X57350Y-70614D01*
X57378Y-70600D01*
X57407Y-70600D01*
X57450Y-70614D01*
X57621Y-70785D01*
X57621Y-70600D01*
X57321Y-70414D02*
X57321Y-70385D01*
X57335Y-70357D01*
X57350Y-70342D01*
X57378Y-70328D01*
X57435Y-70314D01*
X57507Y-70314D01*
X57564Y-70328D01*
X57592Y-70342D01*
X57607Y-70357D01*
X57621Y-70385D01*
X57621Y-70414D01*
X57607Y-70442D01*
X57592Y-70457D01*
X57564Y-70471D01*
X57507Y-70485D01*
X57435Y-70485D01*
X57378Y-70471D01*
X57350Y-70457D01*
X57335Y-70442D01*
X57321Y-70414D01*
X57321Y-70214D02*
X57321Y-70028D01*
X57435Y-70128D01*
X57435Y-70085D01*
X57450Y-70057D01*
X57464Y-70042D01*
X57492Y-70028D01*
X57564Y-70028D01*
X57592Y-70042D01*
X57607Y-70057D01*
X57621Y-70085D01*
X57621Y-70171D01*
X57607Y-70200D01*
X57592Y-70214D01*
X57621Y-69150D02*
X57621Y-69321D01*
X57621Y-69235D02*
X57321Y-69235D01*
X57364Y-69264D01*
X57392Y-69292D01*
X57407Y-69321D01*
X57321Y-68964D02*
X57321Y-68935D01*
X57335Y-68907D01*
X57350Y-68892D01*
X57378Y-68878D01*
X57435Y-68864D01*
X57507Y-68864D01*
X57564Y-68878D01*
X57592Y-68892D01*
X57607Y-68907D01*
X57621Y-68935D01*
X57621Y-68964D01*
X57607Y-68992D01*
X57592Y-69007D01*
X57564Y-69021D01*
X57507Y-69035D01*
X57435Y-69035D01*
X57378Y-69021D01*
X57350Y-69007D01*
X57335Y-68992D01*
X57321Y-68964D01*
X57321Y-68678D02*
X57321Y-68650D01*
X57335Y-68621D01*
X57350Y-68607D01*
X57378Y-68592D01*
X57435Y-68578D01*
X57507Y-68578D01*
X57564Y-68592D01*
X57592Y-68607D01*
X57607Y-68621D01*
X57621Y-68650D01*
X57621Y-68678D01*
X57607Y-68707D01*
X57592Y-68721D01*
X57564Y-68735D01*
X57507Y-68750D01*
X57435Y-68750D01*
X57378Y-68735D01*
X57350Y-68721D01*
X57335Y-68707D01*
X57321Y-68678D01*
X68414Y-55592D02*
X68400Y-55607D01*
X68357Y-55621D01*
X68328Y-55621D01*
X68285Y-55607D01*
X68257Y-55578D01*
X68242Y-55550D01*
X68228Y-55492D01*
X68228Y-55450D01*
X68242Y-55392D01*
X68257Y-55364D01*
X68285Y-55335D01*
X68328Y-55321D01*
X68357Y-55321D01*
X68400Y-55335D01*
X68414Y-55350D01*
X68700Y-55621D02*
X68528Y-55621D01*
X68614Y-55621D02*
X68614Y-55321D01*
X68585Y-55364D01*
X68557Y-55392D01*
X68528Y-55407D01*
X68885Y-55321D02*
X68914Y-55321D01*
X68942Y-55335D01*
X68957Y-55350D01*
X68971Y-55378D01*
X68985Y-55435D01*
X68985Y-55507D01*
X68971Y-55564D01*
X68957Y-55592D01*
X68942Y-55607D01*
X68914Y-55621D01*
X68885Y-55621D01*
X68857Y-55607D01*
X68842Y-55592D01*
X68828Y-55564D01*
X68814Y-55507D01*
X68814Y-55435D01*
X68828Y-55378D01*
X68842Y-55350D01*
X68857Y-55335D01*
X68885Y-55321D01*
X69085Y-55321D02*
X69271Y-55321D01*
X69171Y-55435D01*
X69214Y-55435D01*
X69242Y-55450D01*
X69257Y-55464D01*
X69271Y-55492D01*
X69271Y-55564D01*
X69257Y-55592D01*
X69242Y-55607D01*
X69214Y-55621D01*
X69128Y-55621D01*
X69100Y-55607D01*
X69085Y-55592D01*
X68257Y-56071D02*
X68285Y-56071D01*
X68314Y-56085D01*
X68328Y-56100D01*
X68342Y-56128D01*
X68357Y-56185D01*
X68357Y-56257D01*
X68342Y-56314D01*
X68328Y-56342D01*
X68314Y-56357D01*
X68285Y-56371D01*
X68257Y-56371D01*
X68228Y-56357D01*
X68214Y-56342D01*
X68200Y-56314D01*
X68185Y-56257D01*
X68185Y-56185D01*
X68200Y-56128D01*
X68214Y-56100D01*
X68228Y-56085D01*
X68257Y-56071D01*
X68485Y-56342D02*
X68500Y-56357D01*
X68485Y-56371D01*
X68471Y-56357D01*
X68485Y-56342D01*
X68485Y-56371D01*
X68785Y-56371D02*
X68614Y-56371D01*
X68700Y-56371D02*
X68700Y-56071D01*
X68671Y-56114D01*
X68642Y-56142D01*
X68614Y-56157D01*
X69042Y-56171D02*
X69042Y-56371D01*
X68914Y-56171D02*
X68914Y-56328D01*
X68928Y-56357D01*
X68957Y-56371D01*
X69000Y-56371D01*
X69028Y-56357D01*
X69042Y-56342D01*
X69285Y-56214D02*
X69185Y-56214D01*
X69185Y-56371D02*
X69185Y-56071D01*
X69328Y-56071D01*
G54D12*
X61873Y-57947D02*
X61892Y-57966D01*
X61911Y-58023D01*
X61911Y-58061D01*
X61892Y-58119D01*
X61854Y-58157D01*
X61816Y-58176D01*
X61740Y-58195D01*
X61683Y-58195D01*
X61607Y-58176D01*
X61569Y-58157D01*
X61530Y-58119D01*
X61511Y-58061D01*
X61511Y-58023D01*
X61530Y-57966D01*
X61550Y-57947D01*
X61911Y-57566D02*
X61911Y-57795D01*
X61911Y-57680D02*
X61511Y-57680D01*
X61569Y-57719D01*
X61607Y-57757D01*
X61626Y-57795D01*
X61511Y-57319D02*
X61511Y-57280D01*
X61530Y-57242D01*
X61550Y-57223D01*
X61588Y-57204D01*
X61664Y-57185D01*
X61759Y-57185D01*
X61835Y-57204D01*
X61873Y-57223D01*
X61892Y-57242D01*
X61911Y-57280D01*
X61911Y-57319D01*
X61892Y-57357D01*
X61873Y-57376D01*
X61835Y-57395D01*
X61759Y-57414D01*
X61664Y-57414D01*
X61588Y-57395D01*
X61550Y-57376D01*
X61530Y-57357D01*
X61511Y-57319D01*
X61911Y-56804D02*
X61911Y-57033D01*
X61911Y-56919D02*
X61511Y-56919D01*
X61569Y-56957D01*
X61607Y-56995D01*
X61626Y-57033D01*
X59911Y-58309D02*
X59911Y-58538D01*
X59911Y-58423D02*
X59511Y-58423D01*
X59569Y-58461D01*
X59607Y-58499D01*
X59626Y-58538D01*
X59511Y-58061D02*
X59511Y-58023D01*
X59530Y-57985D01*
X59550Y-57966D01*
X59588Y-57947D01*
X59664Y-57928D01*
X59759Y-57928D01*
X59835Y-57947D01*
X59873Y-57966D01*
X59892Y-57985D01*
X59911Y-58023D01*
X59911Y-58061D01*
X59892Y-58099D01*
X59873Y-58119D01*
X59835Y-58138D01*
X59759Y-58157D01*
X59664Y-58157D01*
X59588Y-58138D01*
X59550Y-58119D01*
X59530Y-58099D01*
X59511Y-58061D01*
X59511Y-57680D02*
X59511Y-57642D01*
X59530Y-57604D01*
X59550Y-57585D01*
X59588Y-57566D01*
X59664Y-57547D01*
X59759Y-57547D01*
X59835Y-57566D01*
X59873Y-57585D01*
X59892Y-57604D01*
X59911Y-57642D01*
X59911Y-57680D01*
X59892Y-57719D01*
X59873Y-57738D01*
X59835Y-57757D01*
X59759Y-57776D01*
X59664Y-57776D01*
X59588Y-57757D01*
X59550Y-57738D01*
X59530Y-57719D01*
X59511Y-57680D01*
X59511Y-57299D02*
X59511Y-57261D01*
X59530Y-57223D01*
X59550Y-57204D01*
X59588Y-57185D01*
X59664Y-57166D01*
X59759Y-57166D01*
X59835Y-57185D01*
X59873Y-57204D01*
X59892Y-57223D01*
X59911Y-57261D01*
X59911Y-57299D01*
X59892Y-57338D01*
X59873Y-57357D01*
X59835Y-57376D01*
X59759Y-57395D01*
X59664Y-57395D01*
X59588Y-57376D01*
X59550Y-57357D01*
X59530Y-57338D01*
X59511Y-57299D01*
X59645Y-56823D02*
X59911Y-56823D01*
X59645Y-56995D02*
X59854Y-56995D01*
X59892Y-56976D01*
X59911Y-56938D01*
X59911Y-56880D01*
X59892Y-56842D01*
X59873Y-56823D01*
X59702Y-56500D02*
X59702Y-56633D01*
X59911Y-56633D02*
X59511Y-56633D01*
X59511Y-56442D01*
X61509Y-55652D02*
X61509Y-55347D01*
X61661Y-55500D02*
X61357Y-55500D01*
G54D18*
X72970Y-71627D02*
X72958Y-71639D01*
X72922Y-71651D01*
X72898Y-71651D01*
X72863Y-71639D01*
X72839Y-71615D01*
X72827Y-71591D01*
X72815Y-71544D01*
X72815Y-71508D01*
X72827Y-71460D01*
X72839Y-71436D01*
X72863Y-71413D01*
X72898Y-71401D01*
X72922Y-71401D01*
X72958Y-71413D01*
X72970Y-71425D01*
X73208Y-71651D02*
X73065Y-71651D01*
X73136Y-71651D02*
X73136Y-71401D01*
X73113Y-71436D01*
X73089Y-71460D01*
X73065Y-71472D01*
X73363Y-71401D02*
X73386Y-71401D01*
X73410Y-71413D01*
X73422Y-71425D01*
X73434Y-71448D01*
X73446Y-71496D01*
X73446Y-71555D01*
X73434Y-71603D01*
X73422Y-71627D01*
X73410Y-71639D01*
X73386Y-71651D01*
X73363Y-71651D01*
X73339Y-71639D01*
X73327Y-71627D01*
X73315Y-71603D01*
X73303Y-71555D01*
X73303Y-71496D01*
X73315Y-71448D01*
X73327Y-71425D01*
X73339Y-71413D01*
X73363Y-71401D01*
X73672Y-71401D02*
X73553Y-71401D01*
X73541Y-71520D01*
X73553Y-71508D01*
X73577Y-71496D01*
X73636Y-71496D01*
X73660Y-71508D01*
X73672Y-71520D01*
X73684Y-71544D01*
X73684Y-71603D01*
X73672Y-71627D01*
X73660Y-71639D01*
X73636Y-71651D01*
X73577Y-71651D01*
X73553Y-71639D01*
X73541Y-71627D01*
X73101Y-70501D02*
X72958Y-70501D01*
X73029Y-70501D02*
X73029Y-70251D01*
X73005Y-70286D01*
X72982Y-70310D01*
X72958Y-70322D01*
X73315Y-70334D02*
X73315Y-70501D01*
X73208Y-70334D02*
X73208Y-70465D01*
X73220Y-70489D01*
X73244Y-70501D01*
X73279Y-70501D01*
X73303Y-70489D01*
X73315Y-70477D01*
X73517Y-70370D02*
X73434Y-70370D01*
X73434Y-70501D02*
X73434Y-70251D01*
X73553Y-70251D01*
G54D11*
X74135Y-71757D02*
X74364Y-71757D01*
X74250Y-71871D02*
X74250Y-71642D01*
G54D18*
X81220Y-53277D02*
X81208Y-53289D01*
X81172Y-53301D01*
X81148Y-53301D01*
X81113Y-53289D01*
X81089Y-53265D01*
X81077Y-53241D01*
X81065Y-53194D01*
X81065Y-53158D01*
X81077Y-53110D01*
X81089Y-53086D01*
X81113Y-53063D01*
X81148Y-53051D01*
X81172Y-53051D01*
X81208Y-53063D01*
X81220Y-53075D01*
X81458Y-53301D02*
X81315Y-53301D01*
X81386Y-53301D02*
X81386Y-53051D01*
X81363Y-53086D01*
X81339Y-53110D01*
X81315Y-53122D01*
X81613Y-53051D02*
X81636Y-53051D01*
X81660Y-53063D01*
X81672Y-53075D01*
X81684Y-53098D01*
X81696Y-53146D01*
X81696Y-53205D01*
X81684Y-53253D01*
X81672Y-53277D01*
X81660Y-53289D01*
X81636Y-53301D01*
X81613Y-53301D01*
X81589Y-53289D01*
X81577Y-53277D01*
X81565Y-53253D01*
X81553Y-53205D01*
X81553Y-53146D01*
X81565Y-53098D01*
X81577Y-53075D01*
X81589Y-53063D01*
X81613Y-53051D01*
X81910Y-53051D02*
X81863Y-53051D01*
X81839Y-53063D01*
X81827Y-53075D01*
X81803Y-53110D01*
X81791Y-53158D01*
X81791Y-53253D01*
X81803Y-53277D01*
X81815Y-53289D01*
X81839Y-53301D01*
X81886Y-53301D01*
X81910Y-53289D01*
X81922Y-53277D01*
X81934Y-53253D01*
X81934Y-53194D01*
X81922Y-53170D01*
X81910Y-53158D01*
X81886Y-53146D01*
X81839Y-53146D01*
X81815Y-53158D01*
X81803Y-53170D01*
X81791Y-53194D01*
X81232Y-54451D02*
X81089Y-54451D01*
X81160Y-54451D02*
X81160Y-54201D01*
X81136Y-54236D01*
X81113Y-54260D01*
X81089Y-54272D01*
X81386Y-54201D02*
X81410Y-54201D01*
X81434Y-54213D01*
X81446Y-54225D01*
X81458Y-54248D01*
X81470Y-54296D01*
X81470Y-54355D01*
X81458Y-54403D01*
X81446Y-54427D01*
X81434Y-54439D01*
X81410Y-54451D01*
X81386Y-54451D01*
X81363Y-54439D01*
X81351Y-54427D01*
X81339Y-54403D01*
X81327Y-54355D01*
X81327Y-54296D01*
X81339Y-54248D01*
X81351Y-54225D01*
X81363Y-54213D01*
X81386Y-54201D01*
X81684Y-54284D02*
X81684Y-54451D01*
X81577Y-54284D02*
X81577Y-54415D01*
X81589Y-54439D01*
X81613Y-54451D01*
X81648Y-54451D01*
X81672Y-54439D01*
X81684Y-54427D01*
X81886Y-54320D02*
X81803Y-54320D01*
X81803Y-54451D02*
X81803Y-54201D01*
X81922Y-54201D01*
G54D11*
X80385Y-53007D02*
X80614Y-53007D01*
X80500Y-53121D02*
X80500Y-52892D01*
G54D18*
X72970Y-69377D02*
X72958Y-69389D01*
X72922Y-69401D01*
X72898Y-69401D01*
X72863Y-69389D01*
X72839Y-69365D01*
X72827Y-69341D01*
X72815Y-69294D01*
X72815Y-69258D01*
X72827Y-69210D01*
X72839Y-69186D01*
X72863Y-69163D01*
X72898Y-69151D01*
X72922Y-69151D01*
X72958Y-69163D01*
X72970Y-69175D01*
X73208Y-69401D02*
X73065Y-69401D01*
X73136Y-69401D02*
X73136Y-69151D01*
X73113Y-69186D01*
X73089Y-69210D01*
X73065Y-69222D01*
X73363Y-69151D02*
X73386Y-69151D01*
X73410Y-69163D01*
X73422Y-69175D01*
X73434Y-69198D01*
X73446Y-69246D01*
X73446Y-69305D01*
X73434Y-69353D01*
X73422Y-69377D01*
X73410Y-69389D01*
X73386Y-69401D01*
X73363Y-69401D01*
X73339Y-69389D01*
X73327Y-69377D01*
X73315Y-69353D01*
X73303Y-69305D01*
X73303Y-69246D01*
X73315Y-69198D01*
X73327Y-69175D01*
X73339Y-69163D01*
X73363Y-69151D01*
X73529Y-69151D02*
X73696Y-69151D01*
X73589Y-69401D01*
X73101Y-68251D02*
X72958Y-68251D01*
X73029Y-68251D02*
X73029Y-68001D01*
X73005Y-68036D01*
X72982Y-68060D01*
X72958Y-68072D01*
X73315Y-68084D02*
X73315Y-68251D01*
X73208Y-68084D02*
X73208Y-68215D01*
X73220Y-68239D01*
X73244Y-68251D01*
X73279Y-68251D01*
X73303Y-68239D01*
X73315Y-68227D01*
X73517Y-68120D02*
X73434Y-68120D01*
X73434Y-68251D02*
X73434Y-68001D01*
X73553Y-68001D01*
G54D11*
X74135Y-69507D02*
X74364Y-69507D01*
X74250Y-69621D02*
X74250Y-69392D01*
X68492Y-50471D02*
X68350Y-50471D01*
X68335Y-50614D01*
X68350Y-50600D01*
X68378Y-50585D01*
X68450Y-50585D01*
X68478Y-50600D01*
X68492Y-50614D01*
X68507Y-50642D01*
X68507Y-50714D01*
X68492Y-50742D01*
X68478Y-50757D01*
X68450Y-50771D01*
X68378Y-50771D01*
X68350Y-50757D01*
X68335Y-50742D01*
X68607Y-50471D02*
X68792Y-50471D01*
X68692Y-50585D01*
X68735Y-50585D01*
X68764Y-50600D01*
X68778Y-50614D01*
X68792Y-50642D01*
X68792Y-50714D01*
X68778Y-50742D01*
X68764Y-50757D01*
X68735Y-50771D01*
X68650Y-50771D01*
X68621Y-50757D01*
X68607Y-50742D01*
X68978Y-50471D02*
X69007Y-50471D01*
X69035Y-50485D01*
X69050Y-50500D01*
X69064Y-50528D01*
X69078Y-50585D01*
X69078Y-50657D01*
X69064Y-50714D01*
X69050Y-50742D01*
X69035Y-50757D01*
X69007Y-50771D01*
X68978Y-50771D01*
X68950Y-50757D01*
X68935Y-50742D01*
X68921Y-50714D01*
X68907Y-50657D01*
X68907Y-50585D01*
X68921Y-50528D01*
X68935Y-50500D01*
X68950Y-50485D01*
X68978Y-50471D01*
X69264Y-50471D02*
X69292Y-50471D01*
X69321Y-50485D01*
X69335Y-50500D01*
X69350Y-50528D01*
X69364Y-50585D01*
X69364Y-50657D01*
X69350Y-50714D01*
X69335Y-50742D01*
X69321Y-50757D01*
X69292Y-50771D01*
X69264Y-50771D01*
X69235Y-50757D01*
X69221Y-50742D01*
X69207Y-50714D01*
X69192Y-50657D01*
X69192Y-50585D01*
X69207Y-50528D01*
X69221Y-50500D01*
X69235Y-50485D01*
X69264Y-50471D01*
X69550Y-50471D02*
X69578Y-50471D01*
X69607Y-50485D01*
X69621Y-50500D01*
X69635Y-50528D01*
X69650Y-50585D01*
X69650Y-50657D01*
X69635Y-50714D01*
X69621Y-50742D01*
X69607Y-50757D01*
X69578Y-50771D01*
X69550Y-50771D01*
X69521Y-50757D01*
X69507Y-50742D01*
X69492Y-50714D01*
X69478Y-50657D01*
X69478Y-50585D01*
X69492Y-50528D01*
X69507Y-50500D01*
X69521Y-50485D01*
X69550Y-50471D01*
X69764Y-50500D02*
X69778Y-50485D01*
X69807Y-50471D01*
X69878Y-50471D01*
X69907Y-50485D01*
X69921Y-50500D01*
X69935Y-50528D01*
X69935Y-50557D01*
X69921Y-50600D01*
X69750Y-50771D01*
X69935Y-50771D01*
X70164Y-50614D02*
X70207Y-50628D01*
X70221Y-50642D01*
X70235Y-50671D01*
X70235Y-50714D01*
X70221Y-50742D01*
X70207Y-50757D01*
X70178Y-50771D01*
X70064Y-50771D01*
X70064Y-50471D01*
X70164Y-50471D01*
X70192Y-50485D01*
X70207Y-50500D01*
X70221Y-50528D01*
X70221Y-50557D01*
X70207Y-50585D01*
X70192Y-50600D01*
X70164Y-50614D01*
X70064Y-50614D01*
X70421Y-50471D02*
X70450Y-50471D01*
X70478Y-50485D01*
X70492Y-50500D01*
X70507Y-50528D01*
X70521Y-50585D01*
X70521Y-50657D01*
X70507Y-50714D01*
X70492Y-50742D01*
X70478Y-50757D01*
X70450Y-50771D01*
X70421Y-50771D01*
X70392Y-50757D01*
X70378Y-50742D01*
X70364Y-50714D01*
X70350Y-50657D01*
X70350Y-50585D01*
X70364Y-50528D01*
X70378Y-50500D01*
X70392Y-50485D01*
X70421Y-50471D01*
X70635Y-50500D02*
X70650Y-50485D01*
X70678Y-50471D01*
X70750Y-50471D01*
X70778Y-50485D01*
X70792Y-50500D01*
X70807Y-50528D01*
X70807Y-50557D01*
X70792Y-50600D01*
X70621Y-50771D01*
X70807Y-50771D01*
X71078Y-50471D02*
X70935Y-50471D01*
X70921Y-50614D01*
X70935Y-50600D01*
X70964Y-50585D01*
X71035Y-50585D01*
X71064Y-50600D01*
X71078Y-50614D01*
X71092Y-50642D01*
X71092Y-50714D01*
X71078Y-50742D01*
X71064Y-50757D01*
X71035Y-50771D01*
X70964Y-50771D01*
X70935Y-50757D01*
X70921Y-50742D01*
X71278Y-50471D02*
X71307Y-50471D01*
X71335Y-50485D01*
X71349Y-50500D01*
X71364Y-50528D01*
X71378Y-50585D01*
X71378Y-50657D01*
X71364Y-50714D01*
X71349Y-50742D01*
X71335Y-50757D01*
X71307Y-50771D01*
X71278Y-50771D01*
X71249Y-50757D01*
X71235Y-50742D01*
X71221Y-50714D01*
X71207Y-50657D01*
X71207Y-50585D01*
X71221Y-50528D01*
X71235Y-50500D01*
X71249Y-50485D01*
X71278Y-50471D01*
X71564Y-50471D02*
X71592Y-50471D01*
X71621Y-50485D01*
X71635Y-50500D01*
X71649Y-50528D01*
X71664Y-50585D01*
X71664Y-50657D01*
X71649Y-50714D01*
X71635Y-50742D01*
X71621Y-50757D01*
X71592Y-50771D01*
X71564Y-50771D01*
X71535Y-50757D01*
X71521Y-50742D01*
X71507Y-50714D01*
X71492Y-50657D01*
X71492Y-50585D01*
X71507Y-50528D01*
X71521Y-50500D01*
X71535Y-50485D01*
X71564Y-50471D01*
X71949Y-50485D02*
X71921Y-50471D01*
X71878Y-50471D01*
X71835Y-50485D01*
X71807Y-50514D01*
X71792Y-50542D01*
X71778Y-50600D01*
X71778Y-50642D01*
X71792Y-50700D01*
X71807Y-50728D01*
X71835Y-50757D01*
X71878Y-50771D01*
X71907Y-50771D01*
X71949Y-50757D01*
X71964Y-50742D01*
X71964Y-50642D01*
X71907Y-50642D01*
X74392Y-50685D02*
X74535Y-50685D01*
X74364Y-50771D02*
X74464Y-50471D01*
X74564Y-50771D01*
X74792Y-50771D02*
X74792Y-50614D01*
X74778Y-50585D01*
X74750Y-50571D01*
X74692Y-50571D01*
X74664Y-50585D01*
X74792Y-50757D02*
X74764Y-50771D01*
X74692Y-50771D01*
X74664Y-50757D01*
X74650Y-50728D01*
X74650Y-50700D01*
X74664Y-50671D01*
X74692Y-50657D01*
X74764Y-50657D01*
X74792Y-50642D01*
X74907Y-50571D02*
X74978Y-50771D01*
X75050Y-50571D01*
X75164Y-50771D02*
X75164Y-50571D01*
X75164Y-50471D02*
X75150Y-50485D01*
X75164Y-50500D01*
X75178Y-50485D01*
X75164Y-50471D01*
X75164Y-50500D01*
X75435Y-50771D02*
X75435Y-50471D01*
X75435Y-50757D02*
X75407Y-50771D01*
X75350Y-50771D01*
X75321Y-50757D01*
X75307Y-50742D01*
X75292Y-50714D01*
X75292Y-50628D01*
X75307Y-50600D01*
X75321Y-50585D01*
X75350Y-50571D01*
X75407Y-50571D01*
X75435Y-50585D01*
X75764Y-50471D02*
X75935Y-50471D01*
X75850Y-50771D02*
X75850Y-50471D01*
X76035Y-50771D02*
X76035Y-50471D01*
X76164Y-50771D02*
X76164Y-50614D01*
X76149Y-50585D01*
X76121Y-50571D01*
X76078Y-50571D01*
X76049Y-50585D01*
X76035Y-50600D01*
X76421Y-50757D02*
X76392Y-50771D01*
X76335Y-50771D01*
X76307Y-50757D01*
X76292Y-50728D01*
X76292Y-50614D01*
X76307Y-50585D01*
X76335Y-50571D01*
X76392Y-50571D01*
X76421Y-50585D01*
X76435Y-50614D01*
X76435Y-50642D01*
X76292Y-50671D01*
X76564Y-50771D02*
X76564Y-50571D01*
X76564Y-50628D02*
X76578Y-50600D01*
X76592Y-50585D01*
X76621Y-50571D01*
X76650Y-50571D01*
X76750Y-50771D02*
X76750Y-50571D01*
X76750Y-50600D02*
X76764Y-50585D01*
X76792Y-50571D01*
X76835Y-50571D01*
X76864Y-50585D01*
X76878Y-50614D01*
X76878Y-50771D01*
X76878Y-50614D02*
X76892Y-50585D01*
X76921Y-50571D01*
X76964Y-50571D01*
X76992Y-50585D01*
X77007Y-50614D01*
X77007Y-50771D01*
X77278Y-50771D02*
X77278Y-50614D01*
X77264Y-50585D01*
X77235Y-50571D01*
X77178Y-50571D01*
X77150Y-50585D01*
X77278Y-50757D02*
X77250Y-50771D01*
X77178Y-50771D01*
X77150Y-50757D01*
X77135Y-50728D01*
X77135Y-50700D01*
X77150Y-50671D01*
X77178Y-50657D01*
X77250Y-50657D01*
X77278Y-50642D01*
X77464Y-50771D02*
X77435Y-50757D01*
X77421Y-50728D01*
X77421Y-50471D01*
X77621Y-50771D02*
X77592Y-50757D01*
X77578Y-50728D01*
X77578Y-50471D01*
X77778Y-50771D02*
X77750Y-50757D01*
X77735Y-50742D01*
X77721Y-50714D01*
X77721Y-50628D01*
X77735Y-50600D01*
X77750Y-50585D01*
X77778Y-50571D01*
X77821Y-50571D01*
X77850Y-50585D01*
X77864Y-50600D01*
X77878Y-50628D01*
X77878Y-50714D01*
X77864Y-50742D01*
X77850Y-50757D01*
X77821Y-50771D01*
X77778Y-50771D01*
X77978Y-50571D02*
X78050Y-50771D01*
X78121Y-50571D02*
X78050Y-50771D01*
X78021Y-50842D01*
X78007Y-50857D01*
X77978Y-50871D01*
X54564Y-48502D02*
X54607Y-48517D01*
X54678Y-48517D01*
X54707Y-48502D01*
X54721Y-48488D01*
X54735Y-48459D01*
X54735Y-48431D01*
X54721Y-48402D01*
X54707Y-48388D01*
X54678Y-48374D01*
X54621Y-48359D01*
X54592Y-48345D01*
X54578Y-48331D01*
X54564Y-48302D01*
X54564Y-48274D01*
X54578Y-48245D01*
X54592Y-48231D01*
X54621Y-48217D01*
X54692Y-48217D01*
X54735Y-48231D01*
X54835Y-48217D02*
X54907Y-48517D01*
X54964Y-48302D01*
X55021Y-48517D01*
X55092Y-48217D01*
X55364Y-48517D02*
X55192Y-48517D01*
X55278Y-48517D02*
X55278Y-48217D01*
X55250Y-48259D01*
X55221Y-48288D01*
X55192Y-48302D01*
X55550Y-48217D02*
X55578Y-48217D01*
X55607Y-48231D01*
X55621Y-48245D01*
X55635Y-48274D01*
X55650Y-48331D01*
X55650Y-48402D01*
X55635Y-48459D01*
X55621Y-48488D01*
X55607Y-48502D01*
X55578Y-48517D01*
X55550Y-48517D01*
X55521Y-48502D01*
X55507Y-48488D01*
X55492Y-48459D01*
X55478Y-48402D01*
X55478Y-48331D01*
X55492Y-48274D01*
X55507Y-48245D01*
X55521Y-48231D01*
X55550Y-48217D01*
X55935Y-48517D02*
X55764Y-48517D01*
X55850Y-48517D02*
X55850Y-48217D01*
X55821Y-48259D01*
X55792Y-48288D01*
X55764Y-48302D01*
X54357Y-53499D02*
X54371Y-53457D01*
X54371Y-53385D01*
X54357Y-53357D01*
X54342Y-53342D01*
X54314Y-53328D01*
X54285Y-53328D01*
X54257Y-53342D01*
X54242Y-53357D01*
X54228Y-53385D01*
X54214Y-53442D01*
X54200Y-53471D01*
X54185Y-53485D01*
X54157Y-53499D01*
X54128Y-53499D01*
X54100Y-53485D01*
X54085Y-53471D01*
X54071Y-53442D01*
X54071Y-53371D01*
X54085Y-53328D01*
X54371Y-53199D02*
X54071Y-53199D01*
X54071Y-53085D01*
X54085Y-53057D01*
X54100Y-53042D01*
X54128Y-53028D01*
X54171Y-53028D01*
X54200Y-53042D01*
X54214Y-53057D01*
X54228Y-53085D01*
X54228Y-53199D01*
X54371Y-52899D02*
X54071Y-52899D01*
X54071Y-52828D01*
X54085Y-52785D01*
X54114Y-52757D01*
X54142Y-52742D01*
X54200Y-52728D01*
X54242Y-52728D01*
X54300Y-52742D01*
X54328Y-52757D01*
X54357Y-52785D01*
X54371Y-52828D01*
X54371Y-52899D01*
X54071Y-52642D02*
X54071Y-52471D01*
X54371Y-52557D02*
X54071Y-52557D01*
X54564Y-58002D02*
X54607Y-58017D01*
X54678Y-58017D01*
X54707Y-58002D01*
X54721Y-57988D01*
X54735Y-57959D01*
X54735Y-57931D01*
X54721Y-57902D01*
X54707Y-57888D01*
X54678Y-57874D01*
X54621Y-57859D01*
X54592Y-57845D01*
X54578Y-57831D01*
X54564Y-57802D01*
X54564Y-57774D01*
X54578Y-57745D01*
X54592Y-57731D01*
X54621Y-57717D01*
X54692Y-57717D01*
X54735Y-57731D01*
X54835Y-57717D02*
X54907Y-58017D01*
X54964Y-57802D01*
X55021Y-58017D01*
X55092Y-57717D01*
X55364Y-58017D02*
X55192Y-58017D01*
X55278Y-58017D02*
X55278Y-57717D01*
X55250Y-57759D01*
X55221Y-57788D01*
X55192Y-57802D01*
X55550Y-57717D02*
X55578Y-57717D01*
X55607Y-57731D01*
X55621Y-57745D01*
X55635Y-57774D01*
X55650Y-57831D01*
X55650Y-57902D01*
X55635Y-57959D01*
X55621Y-57988D01*
X55607Y-58002D01*
X55578Y-58017D01*
X55550Y-58017D01*
X55521Y-58002D01*
X55507Y-57988D01*
X55492Y-57959D01*
X55478Y-57902D01*
X55478Y-57831D01*
X55492Y-57774D01*
X55507Y-57745D01*
X55521Y-57731D01*
X55550Y-57717D01*
X55764Y-57745D02*
X55778Y-57731D01*
X55807Y-57717D01*
X55878Y-57717D01*
X55907Y-57731D01*
X55921Y-57745D01*
X55935Y-57774D01*
X55935Y-57802D01*
X55921Y-57845D01*
X55750Y-58017D01*
X55935Y-58017D01*
X54357Y-62999D02*
X54371Y-62957D01*
X54371Y-62885D01*
X54357Y-62857D01*
X54342Y-62842D01*
X54314Y-62828D01*
X54285Y-62828D01*
X54257Y-62842D01*
X54242Y-62857D01*
X54228Y-62885D01*
X54214Y-62942D01*
X54200Y-62971D01*
X54185Y-62985D01*
X54157Y-62999D01*
X54128Y-62999D01*
X54100Y-62985D01*
X54085Y-62971D01*
X54071Y-62942D01*
X54071Y-62871D01*
X54085Y-62828D01*
X54371Y-62699D02*
X54071Y-62699D01*
X54071Y-62585D01*
X54085Y-62557D01*
X54100Y-62542D01*
X54128Y-62528D01*
X54171Y-62528D01*
X54200Y-62542D01*
X54214Y-62557D01*
X54228Y-62585D01*
X54228Y-62699D01*
X54371Y-62399D02*
X54071Y-62399D01*
X54071Y-62328D01*
X54085Y-62285D01*
X54114Y-62257D01*
X54142Y-62242D01*
X54200Y-62228D01*
X54242Y-62228D01*
X54300Y-62242D01*
X54328Y-62257D01*
X54357Y-62285D01*
X54371Y-62328D01*
X54371Y-62399D01*
X54071Y-62142D02*
X54071Y-61971D01*
X54371Y-62057D02*
X54071Y-62057D01*
X76314Y-70252D02*
X76357Y-70267D01*
X76428Y-70267D01*
X76457Y-70252D01*
X76471Y-70238D01*
X76485Y-70209D01*
X76485Y-70181D01*
X76471Y-70152D01*
X76457Y-70138D01*
X76428Y-70124D01*
X76371Y-70109D01*
X76342Y-70095D01*
X76328Y-70081D01*
X76314Y-70052D01*
X76314Y-70024D01*
X76328Y-69995D01*
X76342Y-69981D01*
X76371Y-69967D01*
X76442Y-69967D01*
X76485Y-69981D01*
X76585Y-69967D02*
X76657Y-70267D01*
X76714Y-70052D01*
X76771Y-70267D01*
X76842Y-69967D01*
X77114Y-70267D02*
X76942Y-70267D01*
X77028Y-70267D02*
X77028Y-69967D01*
X77000Y-70009D01*
X76971Y-70038D01*
X76942Y-70052D01*
X77300Y-69967D02*
X77328Y-69967D01*
X77357Y-69981D01*
X77371Y-69995D01*
X77385Y-70024D01*
X77400Y-70081D01*
X77400Y-70152D01*
X77385Y-70209D01*
X77371Y-70238D01*
X77357Y-70252D01*
X77328Y-70267D01*
X77300Y-70267D01*
X77271Y-70252D01*
X77257Y-70238D01*
X77242Y-70209D01*
X77228Y-70152D01*
X77228Y-70081D01*
X77242Y-70024D01*
X77257Y-69995D01*
X77271Y-69981D01*
X77300Y-69967D01*
X77500Y-69967D02*
X77685Y-69967D01*
X77585Y-70081D01*
X77628Y-70081D01*
X77657Y-70095D01*
X77671Y-70109D01*
X77685Y-70138D01*
X77685Y-70209D01*
X77671Y-70238D01*
X77657Y-70252D01*
X77628Y-70267D01*
X77542Y-70267D01*
X77514Y-70252D01*
X77500Y-70238D01*
X76107Y-75249D02*
X76121Y-75207D01*
X76121Y-75135D01*
X76107Y-75107D01*
X76092Y-75092D01*
X76064Y-75078D01*
X76035Y-75078D01*
X76007Y-75092D01*
X75992Y-75107D01*
X75978Y-75135D01*
X75964Y-75192D01*
X75950Y-75221D01*
X75935Y-75235D01*
X75907Y-75249D01*
X75878Y-75249D01*
X75850Y-75235D01*
X75835Y-75221D01*
X75821Y-75192D01*
X75821Y-75121D01*
X75835Y-75078D01*
X76121Y-74949D02*
X75821Y-74949D01*
X75821Y-74835D01*
X75835Y-74807D01*
X75850Y-74792D01*
X75878Y-74778D01*
X75921Y-74778D01*
X75950Y-74792D01*
X75964Y-74807D01*
X75978Y-74835D01*
X75978Y-74949D01*
X76121Y-74649D02*
X75821Y-74649D01*
X75821Y-74578D01*
X75835Y-74535D01*
X75864Y-74507D01*
X75892Y-74492D01*
X75950Y-74478D01*
X75992Y-74478D01*
X76050Y-74492D01*
X76078Y-74507D01*
X76107Y-74535D01*
X76121Y-74578D01*
X76121Y-74649D01*
X75821Y-74392D02*
X75821Y-74221D01*
X76121Y-74307D02*
X75821Y-74307D01*
X82621Y-83507D02*
X82321Y-83507D01*
X82321Y-83435D01*
X82335Y-83392D01*
X82364Y-83364D01*
X82392Y-83350D01*
X82450Y-83335D01*
X82492Y-83335D01*
X82550Y-83350D01*
X82578Y-83364D01*
X82607Y-83392D01*
X82621Y-83435D01*
X82621Y-83507D01*
X82621Y-83050D02*
X82621Y-83221D01*
X82621Y-83135D02*
X82321Y-83135D01*
X82364Y-83164D01*
X82392Y-83192D01*
X82407Y-83221D01*
X82321Y-82864D02*
X82321Y-82835D01*
X82335Y-82807D01*
X82350Y-82792D01*
X82378Y-82778D01*
X82435Y-82764D01*
X82507Y-82764D01*
X82564Y-82778D01*
X82592Y-82792D01*
X82607Y-82807D01*
X82621Y-82835D01*
X82621Y-82864D01*
X82607Y-82892D01*
X82592Y-82907D01*
X82564Y-82921D01*
X82507Y-82935D01*
X82435Y-82935D01*
X82378Y-82921D01*
X82350Y-82907D01*
X82335Y-82892D01*
X82321Y-82864D01*
X82321Y-82664D02*
X82321Y-82478D01*
X82435Y-82578D01*
X82435Y-82535D01*
X82450Y-82507D01*
X82464Y-82492D01*
X82492Y-82478D01*
X82564Y-82478D01*
X82592Y-82492D01*
X82607Y-82507D01*
X82621Y-82535D01*
X82621Y-82621D01*
X82607Y-82650D01*
X82592Y-82664D01*
X81121Y-83192D02*
X81121Y-83335D01*
X80821Y-83335D01*
X80964Y-83092D02*
X80964Y-82992D01*
X81121Y-82950D02*
X81121Y-83092D01*
X80821Y-83092D01*
X80821Y-82950D01*
X81121Y-82821D02*
X80821Y-82821D01*
X80821Y-82750D01*
X80835Y-82707D01*
X80864Y-82678D01*
X80892Y-82664D01*
X80950Y-82650D01*
X80992Y-82650D01*
X81050Y-82664D01*
X81078Y-82678D01*
X81107Y-82707D01*
X81121Y-82750D01*
X81121Y-82821D01*
G54D10*
X59037Y-78884D02*
X59093Y-78903D01*
X59187Y-78903D01*
X59224Y-78884D01*
X59243Y-78865D01*
X59262Y-78828D01*
X59262Y-78790D01*
X59243Y-78753D01*
X59224Y-78734D01*
X59187Y-78715D01*
X59112Y-78697D01*
X59074Y-78678D01*
X59055Y-78659D01*
X59037Y-78622D01*
X59037Y-78584D01*
X59055Y-78547D01*
X59074Y-78528D01*
X59112Y-78509D01*
X59205Y-78509D01*
X59262Y-78528D01*
X59393Y-78509D02*
X59487Y-78903D01*
X59562Y-78622D01*
X59637Y-78903D01*
X59730Y-78509D01*
X59862Y-78547D02*
X59880Y-78528D01*
X59918Y-78509D01*
X60011Y-78509D01*
X60049Y-78528D01*
X60068Y-78547D01*
X60086Y-78584D01*
X60086Y-78622D01*
X60068Y-78678D01*
X59843Y-78903D01*
X60086Y-78903D01*
X60330Y-78509D02*
X60368Y-78509D01*
X60405Y-78528D01*
X60424Y-78547D01*
X60443Y-78584D01*
X60461Y-78659D01*
X60461Y-78753D01*
X60443Y-78828D01*
X60424Y-78865D01*
X60405Y-78884D01*
X60368Y-78903D01*
X60330Y-78903D01*
X60293Y-78884D01*
X60274Y-78865D01*
X60255Y-78828D01*
X60236Y-78753D01*
X60236Y-78659D01*
X60255Y-78584D01*
X60274Y-78547D01*
X60293Y-78528D01*
X60330Y-78509D01*
X60836Y-78903D02*
X60611Y-78903D01*
X60724Y-78903D02*
X60724Y-78509D01*
X60686Y-78565D01*
X60649Y-78603D01*
X60611Y-78622D01*
X59299Y-78037D02*
X59299Y-77643D01*
X59393Y-77643D01*
X59449Y-77662D01*
X59487Y-77699D01*
X59505Y-77737D01*
X59524Y-77812D01*
X59524Y-77868D01*
X59505Y-77943D01*
X59487Y-77981D01*
X59449Y-78018D01*
X59393Y-78037D01*
X59299Y-78037D01*
X59693Y-78037D02*
X59693Y-77643D01*
X59843Y-77643D01*
X59880Y-77662D01*
X59899Y-77681D01*
X59918Y-77718D01*
X59918Y-77774D01*
X59899Y-77812D01*
X59880Y-77831D01*
X59843Y-77849D01*
X59693Y-77849D01*
X60255Y-77643D02*
X60180Y-77643D01*
X60143Y-77662D01*
X60124Y-77681D01*
X60086Y-77737D01*
X60068Y-77812D01*
X60068Y-77962D01*
X60086Y-77999D01*
X60105Y-78018D01*
X60143Y-78037D01*
X60218Y-78037D01*
X60255Y-78018D01*
X60274Y-77999D01*
X60293Y-77962D01*
X60293Y-77868D01*
X60274Y-77831D01*
X60255Y-77812D01*
X60218Y-77793D01*
X60143Y-77793D01*
X60105Y-77812D01*
X60086Y-77831D01*
X60068Y-77868D01*
X60405Y-77643D02*
X60630Y-77643D01*
X60518Y-78037D02*
X60518Y-77643D01*
G54D11*
X71242Y-84121D02*
X71242Y-83821D01*
X71357Y-83821D01*
X71385Y-83835D01*
X71400Y-83850D01*
X71414Y-83878D01*
X71414Y-83921D01*
X71400Y-83950D01*
X71385Y-83964D01*
X71357Y-83978D01*
X71242Y-83978D01*
X71700Y-84121D02*
X71528Y-84121D01*
X71614Y-84121D02*
X71614Y-83821D01*
X71585Y-83864D01*
X71557Y-83892D01*
X71528Y-83907D01*
X71885Y-83821D02*
X71914Y-83821D01*
X71942Y-83835D01*
X71957Y-83850D01*
X71971Y-83878D01*
X71985Y-83935D01*
X71985Y-84007D01*
X71971Y-84064D01*
X71957Y-84092D01*
X71942Y-84107D01*
X71914Y-84121D01*
X71885Y-84121D01*
X71857Y-84107D01*
X71842Y-84092D01*
X71828Y-84064D01*
X71814Y-84007D01*
X71814Y-83935D01*
X71828Y-83878D01*
X71842Y-83850D01*
X71857Y-83835D01*
X71885Y-83821D01*
X72271Y-84121D02*
X72100Y-84121D01*
X72185Y-84121D02*
X72185Y-83821D01*
X72157Y-83864D01*
X72128Y-83892D01*
X72100Y-83907D01*
G54D13*
X68214Y-79142D02*
X68414Y-79742D01*
X68614Y-79142D01*
X68900Y-79742D02*
X68842Y-79714D01*
X68814Y-79685D01*
X68785Y-79628D01*
X68785Y-79457D01*
X68814Y-79400D01*
X68842Y-79371D01*
X68900Y-79342D01*
X68985Y-79342D01*
X69042Y-79371D01*
X69071Y-79400D01*
X69100Y-79457D01*
X69100Y-79628D01*
X69071Y-79685D01*
X69042Y-79714D01*
X68985Y-79742D01*
X68900Y-79742D01*
X69614Y-79342D02*
X69614Y-79742D01*
X69357Y-79342D02*
X69357Y-79657D01*
X69385Y-79714D01*
X69442Y-79742D01*
X69528Y-79742D01*
X69585Y-79714D01*
X69614Y-79685D01*
X69814Y-79342D02*
X70042Y-79342D01*
X69900Y-79142D02*
X69900Y-79657D01*
X69928Y-79714D01*
X69985Y-79742D01*
X70042Y-79742D01*
X70242Y-79514D02*
X70700Y-79514D01*
X70471Y-79742D02*
X70471Y-79285D01*
G54D11*
X74242Y-84121D02*
X74242Y-83821D01*
X74357Y-83821D01*
X74385Y-83835D01*
X74400Y-83850D01*
X74414Y-83878D01*
X74414Y-83921D01*
X74400Y-83950D01*
X74385Y-83964D01*
X74357Y-83978D01*
X74242Y-83978D01*
X74700Y-84121D02*
X74528Y-84121D01*
X74614Y-84121D02*
X74614Y-83821D01*
X74585Y-83864D01*
X74557Y-83892D01*
X74528Y-83907D01*
X74885Y-83821D02*
X74914Y-83821D01*
X74942Y-83835D01*
X74957Y-83850D01*
X74971Y-83878D01*
X74985Y-83935D01*
X74985Y-84007D01*
X74971Y-84064D01*
X74957Y-84092D01*
X74942Y-84107D01*
X74914Y-84121D01*
X74885Y-84121D01*
X74857Y-84107D01*
X74842Y-84092D01*
X74828Y-84064D01*
X74814Y-84007D01*
X74814Y-83935D01*
X74828Y-83878D01*
X74842Y-83850D01*
X74857Y-83835D01*
X74885Y-83821D01*
X75100Y-83850D02*
X75114Y-83835D01*
X75142Y-83821D01*
X75214Y-83821D01*
X75242Y-83835D01*
X75257Y-83850D01*
X75271Y-83878D01*
X75271Y-83907D01*
X75257Y-83950D01*
X75085Y-84121D01*
X75271Y-84121D01*
G54D13*
X75714Y-79142D02*
X75914Y-79742D01*
X76114Y-79142D01*
X76400Y-79742D02*
X76342Y-79714D01*
X76314Y-79685D01*
X76285Y-79628D01*
X76285Y-79457D01*
X76314Y-79400D01*
X76342Y-79371D01*
X76400Y-79342D01*
X76485Y-79342D01*
X76542Y-79371D01*
X76571Y-79400D01*
X76600Y-79457D01*
X76600Y-79628D01*
X76571Y-79685D01*
X76542Y-79714D01*
X76485Y-79742D01*
X76400Y-79742D01*
X77114Y-79342D02*
X77114Y-79742D01*
X76857Y-79342D02*
X76857Y-79657D01*
X76885Y-79714D01*
X76942Y-79742D01*
X77028Y-79742D01*
X77085Y-79714D01*
X77114Y-79685D01*
X77314Y-79342D02*
X77542Y-79342D01*
X77400Y-79142D02*
X77400Y-79657D01*
X77428Y-79714D01*
X77485Y-79742D01*
X77542Y-79742D01*
X77742Y-79514D02*
X78200Y-79514D01*
G54D18*
X77851Y-56922D02*
X77601Y-56922D01*
X77601Y-56863D01*
X77613Y-56827D01*
X77636Y-56803D01*
X77660Y-56791D01*
X77708Y-56779D01*
X77744Y-56779D01*
X77791Y-56791D01*
X77815Y-56803D01*
X77839Y-56827D01*
X77851Y-56863D01*
X77851Y-56922D01*
X77851Y-56541D02*
X77851Y-56684D01*
X77851Y-56613D02*
X77601Y-56613D01*
X77636Y-56636D01*
X77660Y-56660D01*
X77672Y-56684D01*
X77601Y-56386D02*
X77601Y-56363D01*
X77613Y-56339D01*
X77625Y-56327D01*
X77648Y-56315D01*
X77696Y-56303D01*
X77755Y-56303D01*
X77803Y-56315D01*
X77827Y-56327D01*
X77839Y-56339D01*
X77851Y-56363D01*
X77851Y-56386D01*
X77839Y-56410D01*
X77827Y-56422D01*
X77803Y-56434D01*
X77755Y-56446D01*
X77696Y-56446D01*
X77648Y-56434D01*
X77625Y-56422D01*
X77613Y-56410D01*
X77601Y-56386D01*
X77601Y-56077D02*
X77601Y-56196D01*
X77720Y-56208D01*
X77708Y-56196D01*
X77696Y-56172D01*
X77696Y-56113D01*
X77708Y-56089D01*
X77720Y-56077D01*
X77744Y-56065D01*
X77803Y-56065D01*
X77827Y-56077D01*
X77839Y-56089D01*
X77851Y-56113D01*
X77851Y-56172D01*
X77839Y-56196D01*
X77827Y-56208D01*
X77851Y-54285D02*
X77851Y-54428D01*
X77851Y-54357D02*
X77601Y-54357D01*
X77636Y-54380D01*
X77660Y-54404D01*
X77672Y-54428D01*
X77851Y-54178D02*
X77601Y-54178D01*
X77851Y-54035D01*
X77601Y-54035D01*
X77684Y-53809D02*
X77851Y-53809D01*
X77589Y-53869D02*
X77767Y-53928D01*
X77767Y-53773D01*
X77851Y-53547D02*
X77851Y-53690D01*
X77851Y-53619D02*
X77601Y-53619D01*
X77636Y-53642D01*
X77660Y-53666D01*
X77672Y-53690D01*
X77684Y-53333D02*
X77851Y-53333D01*
X77589Y-53392D02*
X77767Y-53452D01*
X77767Y-53297D01*
X77708Y-53166D02*
X77696Y-53190D01*
X77684Y-53202D01*
X77660Y-53214D01*
X77648Y-53214D01*
X77625Y-53202D01*
X77613Y-53190D01*
X77601Y-53166D01*
X77601Y-53119D01*
X77613Y-53095D01*
X77625Y-53083D01*
X77648Y-53071D01*
X77660Y-53071D01*
X77684Y-53083D01*
X77696Y-53095D01*
X77708Y-53119D01*
X77708Y-53166D01*
X77720Y-53190D01*
X77732Y-53202D01*
X77755Y-53214D01*
X77803Y-53214D01*
X77827Y-53202D01*
X77839Y-53190D01*
X77851Y-53166D01*
X77851Y-53119D01*
X77839Y-53095D01*
X77827Y-53083D01*
X77803Y-53071D01*
X77755Y-53071D01*
X77732Y-53083D01*
X77720Y-53095D01*
X77708Y-53119D01*
X78851Y-56922D02*
X78601Y-56922D01*
X78601Y-56863D01*
X78613Y-56827D01*
X78636Y-56803D01*
X78660Y-56791D01*
X78708Y-56779D01*
X78744Y-56779D01*
X78791Y-56791D01*
X78815Y-56803D01*
X78839Y-56827D01*
X78851Y-56863D01*
X78851Y-56922D01*
X78851Y-56541D02*
X78851Y-56684D01*
X78851Y-56613D02*
X78601Y-56613D01*
X78636Y-56636D01*
X78660Y-56660D01*
X78672Y-56684D01*
X78601Y-56386D02*
X78601Y-56363D01*
X78613Y-56339D01*
X78625Y-56327D01*
X78648Y-56315D01*
X78696Y-56303D01*
X78755Y-56303D01*
X78803Y-56315D01*
X78827Y-56327D01*
X78839Y-56339D01*
X78851Y-56363D01*
X78851Y-56386D01*
X78839Y-56410D01*
X78827Y-56422D01*
X78803Y-56434D01*
X78755Y-56446D01*
X78696Y-56446D01*
X78648Y-56434D01*
X78625Y-56422D01*
X78613Y-56410D01*
X78601Y-56386D01*
X78684Y-56089D02*
X78851Y-56089D01*
X78589Y-56148D02*
X78767Y-56208D01*
X78767Y-56053D01*
X78851Y-54285D02*
X78851Y-54428D01*
X78851Y-54357D02*
X78601Y-54357D01*
X78636Y-54380D01*
X78660Y-54404D01*
X78672Y-54428D01*
X78851Y-54178D02*
X78601Y-54178D01*
X78851Y-54035D01*
X78601Y-54035D01*
X78684Y-53809D02*
X78851Y-53809D01*
X78589Y-53869D02*
X78767Y-53928D01*
X78767Y-53773D01*
X78851Y-53547D02*
X78851Y-53690D01*
X78851Y-53619D02*
X78601Y-53619D01*
X78636Y-53642D01*
X78660Y-53666D01*
X78672Y-53690D01*
X78684Y-53333D02*
X78851Y-53333D01*
X78589Y-53392D02*
X78767Y-53452D01*
X78767Y-53297D01*
X78708Y-53166D02*
X78696Y-53190D01*
X78684Y-53202D01*
X78660Y-53214D01*
X78648Y-53214D01*
X78625Y-53202D01*
X78613Y-53190D01*
X78601Y-53166D01*
X78601Y-53119D01*
X78613Y-53095D01*
X78625Y-53083D01*
X78648Y-53071D01*
X78660Y-53071D01*
X78684Y-53083D01*
X78696Y-53095D01*
X78708Y-53119D01*
X78708Y-53166D01*
X78720Y-53190D01*
X78732Y-53202D01*
X78755Y-53214D01*
X78803Y-53214D01*
X78827Y-53202D01*
X78839Y-53190D01*
X78851Y-53166D01*
X78851Y-53119D01*
X78839Y-53095D01*
X78827Y-53083D01*
X78803Y-53071D01*
X78755Y-53071D01*
X78732Y-53083D01*
X78720Y-53095D01*
X78708Y-53119D01*
X65427Y-54001D02*
X65427Y-53751D01*
X65486Y-53751D01*
X65522Y-53763D01*
X65546Y-53786D01*
X65558Y-53810D01*
X65570Y-53858D01*
X65570Y-53894D01*
X65558Y-53941D01*
X65546Y-53965D01*
X65522Y-53989D01*
X65486Y-54001D01*
X65427Y-54001D01*
X65808Y-54001D02*
X65665Y-54001D01*
X65736Y-54001D02*
X65736Y-53751D01*
X65713Y-53786D01*
X65689Y-53810D01*
X65665Y-53822D01*
X65963Y-53751D02*
X65986Y-53751D01*
X66010Y-53763D01*
X66022Y-53775D01*
X66034Y-53798D01*
X66046Y-53846D01*
X66046Y-53905D01*
X66034Y-53953D01*
X66022Y-53977D01*
X66010Y-53989D01*
X65986Y-54001D01*
X65963Y-54001D01*
X65939Y-53989D01*
X65927Y-53977D01*
X65915Y-53953D01*
X65903Y-53905D01*
X65903Y-53846D01*
X65915Y-53798D01*
X65927Y-53775D01*
X65939Y-53763D01*
X65963Y-53751D01*
X66284Y-54001D02*
X66141Y-54001D01*
X66213Y-54001D02*
X66213Y-53751D01*
X66189Y-53786D01*
X66165Y-53810D01*
X66141Y-53822D01*
X64714Y-53351D02*
X64571Y-53351D01*
X64642Y-53351D02*
X64642Y-53101D01*
X64619Y-53136D01*
X64595Y-53160D01*
X64571Y-53172D01*
X64821Y-53351D02*
X64821Y-53101D01*
X64964Y-53351D01*
X64964Y-53101D01*
X65190Y-53184D02*
X65190Y-53351D01*
X65130Y-53089D02*
X65071Y-53267D01*
X65226Y-53267D01*
X65452Y-53351D02*
X65309Y-53351D01*
X65380Y-53351D02*
X65380Y-53101D01*
X65357Y-53136D01*
X65333Y-53160D01*
X65309Y-53172D01*
X65666Y-53184D02*
X65666Y-53351D01*
X65607Y-53089D02*
X65547Y-53267D01*
X65702Y-53267D01*
X65833Y-53208D02*
X65809Y-53196D01*
X65797Y-53184D01*
X65785Y-53160D01*
X65785Y-53148D01*
X65797Y-53125D01*
X65809Y-53113D01*
X65833Y-53101D01*
X65880Y-53101D01*
X65904Y-53113D01*
X65916Y-53125D01*
X65928Y-53148D01*
X65928Y-53160D01*
X65916Y-53184D01*
X65904Y-53196D01*
X65880Y-53208D01*
X65833Y-53208D01*
X65809Y-53220D01*
X65797Y-53232D01*
X65785Y-53255D01*
X65785Y-53303D01*
X65797Y-53327D01*
X65809Y-53339D01*
X65833Y-53351D01*
X65880Y-53351D01*
X65904Y-53339D01*
X65916Y-53327D01*
X65928Y-53303D01*
X65928Y-53255D01*
X65916Y-53232D01*
X65904Y-53220D01*
X65880Y-53208D01*
X68677Y-52751D02*
X68677Y-52501D01*
X68736Y-52501D01*
X68772Y-52513D01*
X68796Y-52536D01*
X68808Y-52560D01*
X68820Y-52608D01*
X68820Y-52644D01*
X68808Y-52691D01*
X68796Y-52715D01*
X68772Y-52739D01*
X68736Y-52751D01*
X68677Y-52751D01*
X69058Y-52751D02*
X68915Y-52751D01*
X68986Y-52751D02*
X68986Y-52501D01*
X68963Y-52536D01*
X68939Y-52560D01*
X68915Y-52572D01*
X69213Y-52501D02*
X69236Y-52501D01*
X69260Y-52513D01*
X69272Y-52525D01*
X69284Y-52548D01*
X69296Y-52596D01*
X69296Y-52655D01*
X69284Y-52703D01*
X69272Y-52727D01*
X69260Y-52739D01*
X69236Y-52751D01*
X69213Y-52751D01*
X69189Y-52739D01*
X69177Y-52727D01*
X69165Y-52703D01*
X69153Y-52655D01*
X69153Y-52596D01*
X69165Y-52548D01*
X69177Y-52525D01*
X69189Y-52513D01*
X69213Y-52501D01*
X69391Y-52525D02*
X69403Y-52513D01*
X69427Y-52501D01*
X69486Y-52501D01*
X69510Y-52513D01*
X69522Y-52525D01*
X69534Y-52548D01*
X69534Y-52572D01*
X69522Y-52608D01*
X69379Y-52751D01*
X69534Y-52751D01*
X67964Y-52101D02*
X67821Y-52101D01*
X67892Y-52101D02*
X67892Y-51851D01*
X67869Y-51886D01*
X67845Y-51910D01*
X67821Y-51922D01*
X68071Y-52101D02*
X68071Y-51851D01*
X68214Y-52101D01*
X68214Y-51851D01*
X68440Y-51934D02*
X68440Y-52101D01*
X68380Y-51839D02*
X68321Y-52017D01*
X68476Y-52017D01*
X68702Y-52101D02*
X68559Y-52101D01*
X68630Y-52101D02*
X68630Y-51851D01*
X68607Y-51886D01*
X68583Y-51910D01*
X68559Y-51922D01*
X68916Y-51934D02*
X68916Y-52101D01*
X68857Y-51839D02*
X68797Y-52017D01*
X68952Y-52017D01*
X69083Y-51958D02*
X69059Y-51946D01*
X69047Y-51934D01*
X69035Y-51910D01*
X69035Y-51898D01*
X69047Y-51875D01*
X69059Y-51863D01*
X69083Y-51851D01*
X69130Y-51851D01*
X69154Y-51863D01*
X69166Y-51875D01*
X69178Y-51898D01*
X69178Y-51910D01*
X69166Y-51934D01*
X69154Y-51946D01*
X69130Y-51958D01*
X69083Y-51958D01*
X69059Y-51970D01*
X69047Y-51982D01*
X69035Y-52005D01*
X69035Y-52053D01*
X69047Y-52077D01*
X69059Y-52089D01*
X69083Y-52101D01*
X69130Y-52101D01*
X69154Y-52089D01*
X69166Y-52077D01*
X69178Y-52053D01*
X69178Y-52005D01*
X69166Y-51982D01*
X69154Y-51970D01*
X69130Y-51958D01*
G54D11*
X92092Y-77335D02*
X92107Y-77350D01*
X92121Y-77392D01*
X92121Y-77421D01*
X92107Y-77464D01*
X92078Y-77492D01*
X92050Y-77507D01*
X91992Y-77521D01*
X91950Y-77521D01*
X91892Y-77507D01*
X91864Y-77492D01*
X91835Y-77464D01*
X91821Y-77421D01*
X91821Y-77392D01*
X91835Y-77350D01*
X91850Y-77335D01*
X92121Y-77050D02*
X92121Y-77221D01*
X92121Y-77135D02*
X91821Y-77135D01*
X91864Y-77164D01*
X91892Y-77192D01*
X91907Y-77221D01*
X91821Y-76864D02*
X91821Y-76835D01*
X91835Y-76807D01*
X91850Y-76792D01*
X91878Y-76778D01*
X91935Y-76764D01*
X92007Y-76764D01*
X92064Y-76778D01*
X92092Y-76792D01*
X92107Y-76807D01*
X92121Y-76835D01*
X92121Y-76864D01*
X92107Y-76892D01*
X92092Y-76907D01*
X92064Y-76921D01*
X92007Y-76935D01*
X91935Y-76935D01*
X91878Y-76921D01*
X91850Y-76907D01*
X91835Y-76892D01*
X91821Y-76864D01*
X92121Y-76621D02*
X92121Y-76564D01*
X92107Y-76535D01*
X92092Y-76521D01*
X92050Y-76492D01*
X91992Y-76478D01*
X91878Y-76478D01*
X91850Y-76492D01*
X91835Y-76507D01*
X91821Y-76535D01*
X91821Y-76592D01*
X91835Y-76621D01*
X91850Y-76635D01*
X91878Y-76650D01*
X91950Y-76650D01*
X91978Y-76635D01*
X91992Y-76621D01*
X92007Y-76592D01*
X92007Y-76535D01*
X91992Y-76507D01*
X91978Y-76492D01*
X91950Y-76478D01*
X91821Y-79742D02*
X91821Y-79714D01*
X91835Y-79685D01*
X91850Y-79671D01*
X91878Y-79657D01*
X91935Y-79642D01*
X92007Y-79642D01*
X92064Y-79657D01*
X92092Y-79671D01*
X92107Y-79685D01*
X92121Y-79714D01*
X92121Y-79742D01*
X92107Y-79771D01*
X92092Y-79785D01*
X92064Y-79799D01*
X92007Y-79814D01*
X91935Y-79814D01*
X91878Y-79799D01*
X91850Y-79785D01*
X91835Y-79771D01*
X91821Y-79742D01*
X92092Y-79514D02*
X92107Y-79500D01*
X92121Y-79514D01*
X92107Y-79528D01*
X92092Y-79514D01*
X92121Y-79514D01*
X92121Y-79214D02*
X92121Y-79385D01*
X92121Y-79300D02*
X91821Y-79300D01*
X91864Y-79328D01*
X91892Y-79357D01*
X91907Y-79385D01*
X91921Y-78957D02*
X92121Y-78957D01*
X91921Y-79085D02*
X92078Y-79085D01*
X92107Y-79071D01*
X92121Y-79042D01*
X92121Y-79000D01*
X92107Y-78971D01*
X92092Y-78957D01*
X91964Y-78714D02*
X91964Y-78814D01*
X92121Y-78814D02*
X91821Y-78814D01*
X91821Y-78671D01*
X90914Y-71342D02*
X90900Y-71357D01*
X90857Y-71371D01*
X90828Y-71371D01*
X90785Y-71357D01*
X90757Y-71328D01*
X90742Y-71300D01*
X90728Y-71242D01*
X90728Y-71200D01*
X90742Y-71142D01*
X90757Y-71114D01*
X90785Y-71085D01*
X90828Y-71071D01*
X90857Y-71071D01*
X90900Y-71085D01*
X90914Y-71100D01*
X91200Y-71371D02*
X91028Y-71371D01*
X91114Y-71371D02*
X91114Y-71071D01*
X91085Y-71114D01*
X91057Y-71142D01*
X91028Y-71157D01*
X91385Y-71071D02*
X91414Y-71071D01*
X91442Y-71085D01*
X91457Y-71100D01*
X91471Y-71128D01*
X91485Y-71185D01*
X91485Y-71257D01*
X91471Y-71314D01*
X91457Y-71342D01*
X91442Y-71357D01*
X91414Y-71371D01*
X91385Y-71371D01*
X91357Y-71357D01*
X91342Y-71342D01*
X91328Y-71314D01*
X91314Y-71257D01*
X91314Y-71185D01*
X91328Y-71128D01*
X91342Y-71100D01*
X91357Y-71085D01*
X91385Y-71071D01*
X91657Y-71200D02*
X91628Y-71185D01*
X91614Y-71171D01*
X91600Y-71142D01*
X91600Y-71128D01*
X91614Y-71100D01*
X91628Y-71085D01*
X91657Y-71071D01*
X91714Y-71071D01*
X91742Y-71085D01*
X91757Y-71100D01*
X91771Y-71128D01*
X91771Y-71142D01*
X91757Y-71171D01*
X91742Y-71185D01*
X91714Y-71200D01*
X91657Y-71200D01*
X91628Y-71214D01*
X91614Y-71228D01*
X91600Y-71257D01*
X91600Y-71314D01*
X91614Y-71342D01*
X91628Y-71357D01*
X91657Y-71371D01*
X91714Y-71371D01*
X91742Y-71357D01*
X91757Y-71342D01*
X91771Y-71314D01*
X91771Y-71257D01*
X91757Y-71228D01*
X91742Y-71214D01*
X91714Y-71200D01*
X88507Y-71071D02*
X88535Y-71071D01*
X88564Y-71085D01*
X88578Y-71100D01*
X88592Y-71128D01*
X88607Y-71185D01*
X88607Y-71257D01*
X88592Y-71314D01*
X88578Y-71342D01*
X88564Y-71357D01*
X88535Y-71371D01*
X88507Y-71371D01*
X88478Y-71357D01*
X88464Y-71342D01*
X88450Y-71314D01*
X88435Y-71257D01*
X88435Y-71185D01*
X88450Y-71128D01*
X88464Y-71100D01*
X88478Y-71085D01*
X88507Y-71071D01*
X88735Y-71342D02*
X88750Y-71357D01*
X88735Y-71371D01*
X88721Y-71357D01*
X88735Y-71342D01*
X88735Y-71371D01*
X89035Y-71371D02*
X88864Y-71371D01*
X88950Y-71371D02*
X88950Y-71071D01*
X88921Y-71114D01*
X88892Y-71142D01*
X88864Y-71157D01*
X89292Y-71171D02*
X89292Y-71371D01*
X89164Y-71171D02*
X89164Y-71328D01*
X89178Y-71357D01*
X89207Y-71371D01*
X89250Y-71371D01*
X89278Y-71357D01*
X89292Y-71342D01*
X89535Y-71214D02*
X89435Y-71214D01*
X89435Y-71371D02*
X89435Y-71071D01*
X89578Y-71071D01*
X84285Y-79371D02*
X84185Y-79228D01*
X84114Y-79371D02*
X84114Y-79071D01*
X84228Y-79071D01*
X84257Y-79085D01*
X84271Y-79100D01*
X84285Y-79128D01*
X84285Y-79171D01*
X84271Y-79200D01*
X84257Y-79214D01*
X84228Y-79228D01*
X84114Y-79228D01*
X84371Y-79071D02*
X84471Y-79371D01*
X84571Y-79071D01*
X84828Y-79371D02*
X84657Y-79371D01*
X84742Y-79371D02*
X84742Y-79071D01*
X84714Y-79114D01*
X84685Y-79142D01*
X84657Y-79157D01*
X85014Y-79071D02*
X85042Y-79071D01*
X85071Y-79085D01*
X85085Y-79100D01*
X85100Y-79128D01*
X85114Y-79185D01*
X85114Y-79257D01*
X85100Y-79314D01*
X85085Y-79342D01*
X85071Y-79357D01*
X85042Y-79371D01*
X85014Y-79371D01*
X84985Y-79357D01*
X84971Y-79342D01*
X84957Y-79314D01*
X84942Y-79257D01*
X84942Y-79185D01*
X84957Y-79128D01*
X84971Y-79100D01*
X84985Y-79085D01*
X85014Y-79071D01*
X85228Y-79100D02*
X85242Y-79085D01*
X85271Y-79071D01*
X85342Y-79071D01*
X85371Y-79085D01*
X85385Y-79100D01*
X85400Y-79128D01*
X85400Y-79157D01*
X85385Y-79200D01*
X85214Y-79371D01*
X85400Y-79371D01*
X86692Y-79371D02*
X86521Y-79371D01*
X86607Y-79371D02*
X86607Y-79071D01*
X86578Y-79114D01*
X86550Y-79142D01*
X86521Y-79157D01*
X86878Y-79071D02*
X86907Y-79071D01*
X86935Y-79085D01*
X86950Y-79100D01*
X86964Y-79128D01*
X86978Y-79185D01*
X86978Y-79257D01*
X86964Y-79314D01*
X86950Y-79342D01*
X86935Y-79357D01*
X86907Y-79371D01*
X86878Y-79371D01*
X86850Y-79357D01*
X86835Y-79342D01*
X86821Y-79314D01*
X86807Y-79257D01*
X86807Y-79185D01*
X86821Y-79128D01*
X86835Y-79100D01*
X86850Y-79085D01*
X86878Y-79071D01*
X82735Y-64671D02*
X82735Y-64914D01*
X82750Y-64942D01*
X82764Y-64957D01*
X82792Y-64971D01*
X82850Y-64971D01*
X82878Y-64957D01*
X82892Y-64942D01*
X82907Y-64914D01*
X82907Y-64671D01*
X83207Y-64971D02*
X83035Y-64971D01*
X83121Y-64971D02*
X83121Y-64671D01*
X83092Y-64714D01*
X83064Y-64742D01*
X83035Y-64757D01*
X83392Y-64671D02*
X83421Y-64671D01*
X83450Y-64685D01*
X83464Y-64700D01*
X83478Y-64728D01*
X83492Y-64785D01*
X83492Y-64857D01*
X83478Y-64914D01*
X83464Y-64942D01*
X83450Y-64957D01*
X83421Y-64971D01*
X83392Y-64971D01*
X83364Y-64957D01*
X83350Y-64942D01*
X83335Y-64914D01*
X83321Y-64857D01*
X83321Y-64785D01*
X83335Y-64728D01*
X83350Y-64700D01*
X83364Y-64685D01*
X83392Y-64671D01*
X83778Y-64971D02*
X83607Y-64971D01*
X83692Y-64971D02*
X83692Y-64671D01*
X83664Y-64714D01*
X83635Y-64742D01*
X83607Y-64757D01*
G54D12*
X80611Y-64454D02*
X80611Y-64188D01*
X81011Y-64359D01*
X80783Y-63978D02*
X80764Y-64016D01*
X80745Y-64035D01*
X80707Y-64054D01*
X80688Y-64054D01*
X80650Y-64035D01*
X80630Y-64016D01*
X80611Y-63978D01*
X80611Y-63902D01*
X80630Y-63864D01*
X80650Y-63845D01*
X80688Y-63826D01*
X80707Y-63826D01*
X80745Y-63845D01*
X80764Y-63864D01*
X80783Y-63902D01*
X80783Y-63978D01*
X80802Y-64016D01*
X80821Y-64035D01*
X80859Y-64054D01*
X80935Y-64054D01*
X80973Y-64035D01*
X80992Y-64016D01*
X81011Y-63978D01*
X81011Y-63902D01*
X80992Y-63864D01*
X80973Y-63845D01*
X80935Y-63826D01*
X80859Y-63826D01*
X80821Y-63845D01*
X80802Y-63864D01*
X80783Y-63902D01*
X81011Y-63445D02*
X81011Y-63673D01*
X81011Y-63559D02*
X80611Y-63559D01*
X80669Y-63597D01*
X80707Y-63635D01*
X80726Y-63673D01*
X80650Y-63292D02*
X80630Y-63273D01*
X80611Y-63235D01*
X80611Y-63140D01*
X80630Y-63102D01*
X80650Y-63083D01*
X80688Y-63064D01*
X80726Y-63064D01*
X80783Y-63083D01*
X81011Y-63311D01*
X81011Y-63064D01*
G54D11*
X87735Y-64671D02*
X87735Y-64914D01*
X87750Y-64942D01*
X87764Y-64957D01*
X87792Y-64971D01*
X87850Y-64971D01*
X87878Y-64957D01*
X87892Y-64942D01*
X87907Y-64914D01*
X87907Y-64671D01*
X88207Y-64971D02*
X88035Y-64971D01*
X88121Y-64971D02*
X88121Y-64671D01*
X88092Y-64714D01*
X88064Y-64742D01*
X88035Y-64757D01*
X88392Y-64671D02*
X88421Y-64671D01*
X88450Y-64685D01*
X88464Y-64700D01*
X88478Y-64728D01*
X88492Y-64785D01*
X88492Y-64857D01*
X88478Y-64914D01*
X88464Y-64942D01*
X88450Y-64957D01*
X88421Y-64971D01*
X88392Y-64971D01*
X88364Y-64957D01*
X88350Y-64942D01*
X88335Y-64914D01*
X88321Y-64857D01*
X88321Y-64785D01*
X88335Y-64728D01*
X88350Y-64700D01*
X88364Y-64685D01*
X88392Y-64671D01*
X88750Y-64771D02*
X88750Y-64971D01*
X88678Y-64657D02*
X88607Y-64871D01*
X88792Y-64871D01*
G54D12*
X85611Y-64454D02*
X85611Y-64188D01*
X86011Y-64359D01*
X85783Y-63978D02*
X85764Y-64016D01*
X85745Y-64035D01*
X85707Y-64054D01*
X85688Y-64054D01*
X85650Y-64035D01*
X85630Y-64016D01*
X85611Y-63978D01*
X85611Y-63902D01*
X85630Y-63864D01*
X85650Y-63845D01*
X85688Y-63826D01*
X85707Y-63826D01*
X85745Y-63845D01*
X85764Y-63864D01*
X85783Y-63902D01*
X85783Y-63978D01*
X85802Y-64016D01*
X85821Y-64035D01*
X85859Y-64054D01*
X85935Y-64054D01*
X85973Y-64035D01*
X85992Y-64016D01*
X86011Y-63978D01*
X86011Y-63902D01*
X85992Y-63864D01*
X85973Y-63845D01*
X85935Y-63826D01*
X85859Y-63826D01*
X85821Y-63845D01*
X85802Y-63864D01*
X85783Y-63902D01*
X85611Y-63578D02*
X85611Y-63540D01*
X85630Y-63502D01*
X85650Y-63483D01*
X85688Y-63464D01*
X85764Y-63445D01*
X85859Y-63445D01*
X85935Y-63464D01*
X85973Y-63483D01*
X85992Y-63502D01*
X86011Y-63540D01*
X86011Y-63578D01*
X85992Y-63616D01*
X85973Y-63635D01*
X85935Y-63654D01*
X85859Y-63673D01*
X85764Y-63673D01*
X85688Y-63654D01*
X85650Y-63635D01*
X85630Y-63616D01*
X85611Y-63578D01*
X85611Y-63083D02*
X85611Y-63273D01*
X85802Y-63292D01*
X85783Y-63273D01*
X85764Y-63235D01*
X85764Y-63140D01*
X85783Y-63102D01*
X85802Y-63083D01*
X85840Y-63064D01*
X85935Y-63064D01*
X85973Y-63083D01*
X85992Y-63102D01*
X86011Y-63140D01*
X86011Y-63235D01*
X85992Y-63273D01*
X85973Y-63292D01*
G54D18*
X87970Y-61877D02*
X87958Y-61889D01*
X87922Y-61901D01*
X87898Y-61901D01*
X87863Y-61889D01*
X87839Y-61865D01*
X87827Y-61841D01*
X87815Y-61794D01*
X87815Y-61758D01*
X87827Y-61710D01*
X87839Y-61686D01*
X87863Y-61663D01*
X87898Y-61651D01*
X87922Y-61651D01*
X87958Y-61663D01*
X87970Y-61675D01*
X88208Y-61901D02*
X88065Y-61901D01*
X88136Y-61901D02*
X88136Y-61651D01*
X88113Y-61686D01*
X88089Y-61710D01*
X88065Y-61722D01*
X88363Y-61651D02*
X88386Y-61651D01*
X88410Y-61663D01*
X88422Y-61675D01*
X88434Y-61698D01*
X88446Y-61746D01*
X88446Y-61805D01*
X88434Y-61853D01*
X88422Y-61877D01*
X88410Y-61889D01*
X88386Y-61901D01*
X88363Y-61901D01*
X88339Y-61889D01*
X88327Y-61877D01*
X88315Y-61853D01*
X88303Y-61805D01*
X88303Y-61746D01*
X88315Y-61698D01*
X88327Y-61675D01*
X88339Y-61663D01*
X88363Y-61651D01*
X88660Y-61734D02*
X88660Y-61901D01*
X88601Y-61639D02*
X88541Y-61817D01*
X88696Y-61817D01*
X87982Y-60751D02*
X87839Y-60751D01*
X87910Y-60751D02*
X87910Y-60501D01*
X87886Y-60536D01*
X87863Y-60560D01*
X87839Y-60572D01*
X88136Y-60501D02*
X88160Y-60501D01*
X88184Y-60513D01*
X88196Y-60525D01*
X88208Y-60548D01*
X88220Y-60596D01*
X88220Y-60655D01*
X88208Y-60703D01*
X88196Y-60727D01*
X88184Y-60739D01*
X88160Y-60751D01*
X88136Y-60751D01*
X88113Y-60739D01*
X88101Y-60727D01*
X88089Y-60703D01*
X88077Y-60655D01*
X88077Y-60596D01*
X88089Y-60548D01*
X88101Y-60525D01*
X88113Y-60513D01*
X88136Y-60501D01*
X88434Y-60584D02*
X88434Y-60751D01*
X88327Y-60584D02*
X88327Y-60715D01*
X88339Y-60739D01*
X88363Y-60751D01*
X88398Y-60751D01*
X88422Y-60739D01*
X88434Y-60727D01*
X88636Y-60620D02*
X88553Y-60620D01*
X88553Y-60751D02*
X88553Y-60501D01*
X88672Y-60501D01*
G54D11*
X89135Y-62007D02*
X89364Y-62007D01*
X89250Y-62121D02*
X89250Y-61892D01*
G54D18*
X82970Y-60777D02*
X82958Y-60789D01*
X82922Y-60801D01*
X82898Y-60801D01*
X82863Y-60789D01*
X82839Y-60765D01*
X82827Y-60741D01*
X82815Y-60694D01*
X82815Y-60658D01*
X82827Y-60610D01*
X82839Y-60586D01*
X82863Y-60563D01*
X82898Y-60551D01*
X82922Y-60551D01*
X82958Y-60563D01*
X82970Y-60575D01*
X83208Y-60801D02*
X83065Y-60801D01*
X83136Y-60801D02*
X83136Y-60551D01*
X83113Y-60586D01*
X83089Y-60610D01*
X83065Y-60622D01*
X83363Y-60551D02*
X83386Y-60551D01*
X83410Y-60563D01*
X83422Y-60575D01*
X83434Y-60598D01*
X83446Y-60646D01*
X83446Y-60705D01*
X83434Y-60753D01*
X83422Y-60777D01*
X83410Y-60789D01*
X83386Y-60801D01*
X83363Y-60801D01*
X83339Y-60789D01*
X83327Y-60777D01*
X83315Y-60753D01*
X83303Y-60705D01*
X83303Y-60646D01*
X83315Y-60598D01*
X83327Y-60575D01*
X83339Y-60563D01*
X83363Y-60551D01*
X83541Y-60575D02*
X83553Y-60563D01*
X83577Y-60551D01*
X83636Y-60551D01*
X83660Y-60563D01*
X83672Y-60575D01*
X83684Y-60598D01*
X83684Y-60622D01*
X83672Y-60658D01*
X83529Y-60801D01*
X83684Y-60801D01*
X83101Y-61951D02*
X82958Y-61951D01*
X83029Y-61951D02*
X83029Y-61701D01*
X83005Y-61736D01*
X82982Y-61760D01*
X82958Y-61772D01*
X83315Y-61784D02*
X83315Y-61951D01*
X83208Y-61784D02*
X83208Y-61915D01*
X83220Y-61939D01*
X83244Y-61951D01*
X83279Y-61951D01*
X83303Y-61939D01*
X83315Y-61927D01*
X83517Y-61820D02*
X83434Y-61820D01*
X83434Y-61951D02*
X83434Y-61701D01*
X83553Y-61701D01*
G54D11*
X82135Y-60507D02*
X82364Y-60507D01*
X82250Y-60621D02*
X82250Y-60392D01*
G54D18*
X85277Y-61529D02*
X85289Y-61541D01*
X85301Y-61577D01*
X85301Y-61601D01*
X85289Y-61636D01*
X85265Y-61660D01*
X85241Y-61672D01*
X85194Y-61684D01*
X85158Y-61684D01*
X85110Y-61672D01*
X85086Y-61660D01*
X85063Y-61636D01*
X85051Y-61601D01*
X85051Y-61577D01*
X85063Y-61541D01*
X85075Y-61529D01*
X85301Y-61291D02*
X85301Y-61434D01*
X85301Y-61363D02*
X85051Y-61363D01*
X85086Y-61386D01*
X85110Y-61410D01*
X85122Y-61434D01*
X85301Y-61053D02*
X85301Y-61196D01*
X85301Y-61125D02*
X85051Y-61125D01*
X85086Y-61148D01*
X85110Y-61172D01*
X85122Y-61196D01*
X85051Y-60898D02*
X85051Y-60875D01*
X85063Y-60851D01*
X85075Y-60839D01*
X85098Y-60827D01*
X85146Y-60815D01*
X85205Y-60815D01*
X85253Y-60827D01*
X85277Y-60839D01*
X85289Y-60851D01*
X85301Y-60875D01*
X85301Y-60898D01*
X85289Y-60922D01*
X85277Y-60934D01*
X85253Y-60946D01*
X85205Y-60958D01*
X85146Y-60958D01*
X85098Y-60946D01*
X85075Y-60934D01*
X85063Y-60922D01*
X85051Y-60898D01*
X86451Y-61398D02*
X86451Y-61541D01*
X86451Y-61470D02*
X86201Y-61470D01*
X86236Y-61494D01*
X86260Y-61517D01*
X86272Y-61541D01*
X86284Y-61184D02*
X86451Y-61184D01*
X86284Y-61291D02*
X86415Y-61291D01*
X86439Y-61279D01*
X86451Y-61255D01*
X86451Y-61220D01*
X86439Y-61196D01*
X86427Y-61184D01*
X86320Y-60982D02*
X86320Y-61065D01*
X86451Y-61065D02*
X86201Y-61065D01*
X86201Y-60946D01*
G54D11*
X85007Y-62364D02*
X85007Y-62135D01*
X85121Y-62250D02*
X84892Y-62250D01*
G54D12*
X87411Y-53119D02*
X87221Y-53252D01*
X87411Y-53347D02*
X87011Y-53347D01*
X87011Y-53195D01*
X87030Y-53157D01*
X87050Y-53138D01*
X87088Y-53119D01*
X87145Y-53119D01*
X87183Y-53138D01*
X87202Y-53157D01*
X87221Y-53195D01*
X87221Y-53347D01*
X87011Y-53004D02*
X87411Y-52871D01*
X87011Y-52738D01*
X87411Y-52395D02*
X87411Y-52623D01*
X87411Y-52509D02*
X87011Y-52509D01*
X87069Y-52547D01*
X87107Y-52585D01*
X87126Y-52623D01*
X87011Y-52147D02*
X87011Y-52109D01*
X87030Y-52071D01*
X87050Y-52052D01*
X87088Y-52033D01*
X87164Y-52014D01*
X87259Y-52014D01*
X87335Y-52033D01*
X87373Y-52052D01*
X87392Y-52071D01*
X87411Y-52109D01*
X87411Y-52147D01*
X87392Y-52185D01*
X87373Y-52204D01*
X87335Y-52223D01*
X87259Y-52242D01*
X87164Y-52242D01*
X87088Y-52223D01*
X87050Y-52204D01*
X87030Y-52185D01*
X87011Y-52147D01*
X87411Y-51633D02*
X87411Y-51861D01*
X87411Y-51747D02*
X87011Y-51747D01*
X87069Y-51785D01*
X87107Y-51823D01*
X87126Y-51861D01*
X88145Y-52871D02*
X88411Y-52871D01*
X87992Y-52966D02*
X88278Y-53061D01*
X88278Y-52814D01*
X88373Y-52661D02*
X88392Y-52642D01*
X88411Y-52661D01*
X88392Y-52680D01*
X88373Y-52661D01*
X88411Y-52661D01*
X88011Y-52509D02*
X88011Y-52242D01*
X88411Y-52414D01*
X88411Y-52090D02*
X88011Y-52090D01*
X88259Y-52052D02*
X88411Y-51938D01*
X88145Y-51938D02*
X88297Y-52090D01*
G54D11*
X89321Y-56850D02*
X89321Y-56664D01*
X89435Y-56764D01*
X89435Y-56721D01*
X89450Y-56692D01*
X89464Y-56678D01*
X89492Y-56664D01*
X89564Y-56664D01*
X89592Y-56678D01*
X89607Y-56692D01*
X89621Y-56721D01*
X89621Y-56807D01*
X89607Y-56835D01*
X89592Y-56850D01*
X87350Y-57835D02*
X87335Y-57821D01*
X87321Y-57792D01*
X87321Y-57721D01*
X87335Y-57692D01*
X87350Y-57678D01*
X87378Y-57664D01*
X87407Y-57664D01*
X87450Y-57678D01*
X87621Y-57850D01*
X87621Y-57664D01*
X85621Y-56664D02*
X85621Y-56835D01*
X85621Y-56750D02*
X85321Y-56750D01*
X85364Y-56778D01*
X85392Y-56807D01*
X85407Y-56835D01*
X90871Y-53192D02*
X90871Y-53364D01*
X90871Y-53278D02*
X90571Y-53278D01*
X90614Y-53307D01*
X90642Y-53335D01*
X90657Y-53364D01*
X90571Y-53007D02*
X90571Y-52978D01*
X90585Y-52950D01*
X90600Y-52935D01*
X90628Y-52921D01*
X90685Y-52907D01*
X90757Y-52907D01*
X90814Y-52921D01*
X90842Y-52935D01*
X90857Y-52950D01*
X90871Y-52978D01*
X90871Y-53007D01*
X90857Y-53035D01*
X90842Y-53050D01*
X90814Y-53064D01*
X90757Y-53078D01*
X90685Y-53078D01*
X90628Y-53064D01*
X90600Y-53050D01*
X90585Y-53035D01*
X90571Y-53007D01*
X90757Y-52778D02*
X90757Y-52550D01*
X90671Y-52450D02*
X90671Y-52335D01*
X90571Y-52407D02*
X90828Y-52407D01*
X90857Y-52392D01*
X90871Y-52364D01*
X90871Y-52335D01*
X90671Y-52107D02*
X90871Y-52107D01*
X90671Y-52235D02*
X90828Y-52235D01*
X90857Y-52221D01*
X90871Y-52192D01*
X90871Y-52150D01*
X90857Y-52121D01*
X90842Y-52107D01*
X90871Y-51964D02*
X90671Y-51964D01*
X90728Y-51964D02*
X90700Y-51950D01*
X90685Y-51935D01*
X90671Y-51907D01*
X90671Y-51878D01*
X90671Y-51778D02*
X90871Y-51778D01*
X90700Y-51778D02*
X90685Y-51764D01*
X90671Y-51735D01*
X90671Y-51692D01*
X90685Y-51664D01*
X90714Y-51650D01*
X90871Y-51650D01*
X90071Y-54035D02*
X90371Y-53964D01*
X90157Y-53907D01*
X90371Y-53850D01*
X90071Y-53778D01*
X90071Y-53692D02*
X90371Y-53492D01*
X90071Y-53492D02*
X90371Y-53692D01*
X90371Y-53378D02*
X90071Y-53378D01*
X90071Y-53307D01*
X90085Y-53264D01*
X90114Y-53235D01*
X90142Y-53221D01*
X90200Y-53207D01*
X90242Y-53207D01*
X90300Y-53221D01*
X90328Y-53235D01*
X90357Y-53264D01*
X90371Y-53307D01*
X90371Y-53378D01*
X90071Y-53107D02*
X90071Y-52921D01*
X90185Y-53021D01*
X90185Y-52978D01*
X90200Y-52950D01*
X90214Y-52935D01*
X90242Y-52921D01*
X90314Y-52921D01*
X90342Y-52935D01*
X90357Y-52950D01*
X90371Y-52978D01*
X90371Y-53064D01*
X90357Y-53092D01*
X90342Y-53107D01*
X90257Y-52792D02*
X90257Y-52564D01*
X90371Y-52264D02*
X90371Y-52435D01*
X90371Y-52350D02*
X90071Y-52350D01*
X90114Y-52378D01*
X90142Y-52407D01*
X90157Y-52435D01*
X90071Y-52164D02*
X90071Y-51978D01*
X90185Y-52078D01*
X90185Y-52035D01*
X90200Y-52007D01*
X90214Y-51992D01*
X90242Y-51978D01*
X90314Y-51978D01*
X90342Y-51992D01*
X90357Y-52007D01*
X90371Y-52035D01*
X90371Y-52121D01*
X90357Y-52150D01*
X90342Y-52164D01*
X90257Y-51850D02*
X90257Y-51621D01*
X90100Y-51492D02*
X90085Y-51478D01*
X90071Y-51450D01*
X90071Y-51378D01*
X90085Y-51350D01*
X90100Y-51335D01*
X90128Y-51321D01*
X90157Y-51321D01*
X90200Y-51335D01*
X90371Y-51507D01*
X90371Y-51321D01*
X90071Y-51221D02*
X90371Y-51150D01*
X90157Y-51092D01*
X90371Y-51035D01*
X90071Y-50964D01*
X82350Y-72871D02*
X82350Y-72571D01*
X82421Y-72571D01*
X82464Y-72585D01*
X82492Y-72614D01*
X82507Y-72642D01*
X82521Y-72700D01*
X82521Y-72742D01*
X82507Y-72800D01*
X82492Y-72828D01*
X82464Y-72857D01*
X82421Y-72871D01*
X82350Y-72871D01*
X82635Y-72857D02*
X82678Y-72871D01*
X82750Y-72871D01*
X82778Y-72857D01*
X82792Y-72842D01*
X82807Y-72814D01*
X82807Y-72785D01*
X82792Y-72757D01*
X82778Y-72742D01*
X82750Y-72728D01*
X82692Y-72714D01*
X82664Y-72700D01*
X82650Y-72685D01*
X82635Y-72657D01*
X82635Y-72628D01*
X82650Y-72600D01*
X82664Y-72585D01*
X82692Y-72571D01*
X82764Y-72571D01*
X82807Y-72585D01*
X83092Y-72871D02*
X82921Y-72871D01*
X83007Y-72871D02*
X83007Y-72571D01*
X82978Y-72614D01*
X82950Y-72642D01*
X82921Y-72657D01*
X83278Y-72571D02*
X83307Y-72571D01*
X83335Y-72585D01*
X83350Y-72600D01*
X83364Y-72628D01*
X83378Y-72685D01*
X83378Y-72757D01*
X83364Y-72814D01*
X83350Y-72842D01*
X83335Y-72857D01*
X83307Y-72871D01*
X83278Y-72871D01*
X83250Y-72857D01*
X83235Y-72842D01*
X83221Y-72814D01*
X83207Y-72757D01*
X83207Y-72685D01*
X83221Y-72628D01*
X83235Y-72600D01*
X83250Y-72585D01*
X83278Y-72571D01*
X83492Y-72600D02*
X83507Y-72585D01*
X83535Y-72571D01*
X83607Y-72571D01*
X83635Y-72585D01*
X83650Y-72600D01*
X83664Y-72628D01*
X83664Y-72657D01*
X83650Y-72700D01*
X83478Y-72871D01*
X83664Y-72871D01*
G54D10*
X88852Y-80745D02*
X88852Y-80352D01*
X89040Y-80595D02*
X89340Y-80595D01*
X82159Y-80745D02*
X82159Y-80352D01*
X82347Y-80595D02*
X82647Y-80595D01*
X82497Y-80745D02*
X82497Y-80446D01*
G54D18*
X90433Y-75713D02*
X90516Y-75963D01*
X90599Y-75713D01*
X90683Y-75868D02*
X90873Y-75868D01*
X90433Y-76894D02*
X90516Y-77144D01*
X90599Y-76894D01*
X90683Y-77049D02*
X90873Y-77049D01*
X90778Y-77144D02*
X90778Y-76954D01*
G54D11*
X86314Y-72571D02*
X86342Y-72571D01*
X86371Y-72585D01*
X86385Y-72600D01*
X86400Y-72628D01*
X86414Y-72685D01*
X86414Y-72757D01*
X86400Y-72814D01*
X86385Y-72842D01*
X86371Y-72857D01*
X86342Y-72871D01*
X86314Y-72871D01*
X86285Y-72857D01*
X86271Y-72842D01*
X86257Y-72814D01*
X86242Y-72757D01*
X86242Y-72685D01*
X86257Y-72628D01*
X86271Y-72600D01*
X86285Y-72585D01*
X86314Y-72571D01*
X86542Y-72757D02*
X86771Y-72757D01*
X86928Y-72871D02*
X86985Y-72871D01*
X87014Y-72857D01*
X87028Y-72842D01*
X87057Y-72800D01*
X87071Y-72742D01*
X87071Y-72628D01*
X87057Y-72600D01*
X87042Y-72585D01*
X87014Y-72571D01*
X86957Y-72571D01*
X86928Y-72585D01*
X86914Y-72600D01*
X86900Y-72628D01*
X86900Y-72700D01*
X86914Y-72728D01*
X86928Y-72742D01*
X86957Y-72757D01*
X87014Y-72757D01*
X87042Y-72742D01*
X87057Y-72728D01*
X87071Y-72700D01*
X87214Y-72871D02*
X87271Y-72871D01*
X87300Y-72857D01*
X87314Y-72842D01*
X87342Y-72800D01*
X87357Y-72742D01*
X87357Y-72628D01*
X87342Y-72600D01*
X87328Y-72585D01*
X87300Y-72571D01*
X87242Y-72571D01*
X87214Y-72585D01*
X87200Y-72600D01*
X87185Y-72628D01*
X87185Y-72700D01*
X87200Y-72728D01*
X87214Y-72742D01*
X87242Y-72757D01*
X87300Y-72757D01*
X87328Y-72742D01*
X87342Y-72728D01*
X87357Y-72700D01*
X87500Y-72871D02*
X87557Y-72871D01*
X87585Y-72857D01*
X87600Y-72842D01*
X87628Y-72800D01*
X87642Y-72742D01*
X87642Y-72628D01*
X87628Y-72600D01*
X87614Y-72585D01*
X87585Y-72571D01*
X87528Y-72571D01*
X87500Y-72585D01*
X87485Y-72600D01*
X87471Y-72628D01*
X87471Y-72700D01*
X87485Y-72728D01*
X87500Y-72742D01*
X87528Y-72757D01*
X87585Y-72757D01*
X87614Y-72742D01*
X87628Y-72728D01*
X87642Y-72700D01*
X87771Y-72871D02*
X87771Y-72671D01*
X87771Y-72700D02*
X87785Y-72685D01*
X87814Y-72671D01*
X87857Y-72671D01*
X87885Y-72685D01*
X87900Y-72714D01*
X87900Y-72871D01*
X87900Y-72714D02*
X87914Y-72685D01*
X87942Y-72671D01*
X87985Y-72671D01*
X88014Y-72685D01*
X88028Y-72714D01*
X88028Y-72871D01*
X88157Y-72785D02*
X88300Y-72785D01*
X88128Y-72871D02*
X88228Y-72571D01*
X88328Y-72871D01*
X88642Y-72785D02*
X88785Y-72785D01*
X88614Y-72871D02*
X88714Y-72571D01*
X88814Y-72871D01*
X88914Y-72871D02*
X88914Y-72671D01*
X88914Y-72700D02*
X88928Y-72685D01*
X88957Y-72671D01*
X89000Y-72671D01*
X89028Y-72685D01*
X89042Y-72714D01*
X89042Y-72871D01*
X89042Y-72714D02*
X89057Y-72685D01*
X89085Y-72671D01*
X89128Y-72671D01*
X89157Y-72685D01*
X89171Y-72714D01*
X89171Y-72871D01*
X89314Y-72871D02*
X89314Y-72671D01*
X89314Y-72700D02*
X89328Y-72685D01*
X89357Y-72671D01*
X89400Y-72671D01*
X89428Y-72685D01*
X89442Y-72714D01*
X89442Y-72871D01*
X89442Y-72714D02*
X89457Y-72685D01*
X89485Y-72671D01*
X89528Y-72671D01*
X89557Y-72685D01*
X89571Y-72714D01*
X89571Y-72871D01*
X89828Y-72857D02*
X89800Y-72871D01*
X89742Y-72871D01*
X89714Y-72857D01*
X89700Y-72828D01*
X89700Y-72714D01*
X89714Y-72685D01*
X89742Y-72671D01*
X89800Y-72671D01*
X89828Y-72685D01*
X89842Y-72714D01*
X89842Y-72742D01*
X89700Y-72771D01*
X89928Y-72671D02*
X90042Y-72671D01*
X89971Y-72571D02*
X89971Y-72828D01*
X89985Y-72857D01*
X90014Y-72871D01*
X90042Y-72871D01*
X90257Y-72857D02*
X90228Y-72871D01*
X90171Y-72871D01*
X90142Y-72857D01*
X90128Y-72828D01*
X90128Y-72714D01*
X90142Y-72685D01*
X90171Y-72671D01*
X90228Y-72671D01*
X90257Y-72685D01*
X90271Y-72714D01*
X90271Y-72742D01*
X90128Y-72771D01*
X90400Y-72871D02*
X90400Y-72671D01*
X90400Y-72728D02*
X90414Y-72700D01*
X90428Y-72685D01*
X90457Y-72671D01*
X90485Y-72671D01*
X81450Y-65171D02*
X81450Y-64871D01*
X81521Y-64871D01*
X81564Y-64885D01*
X81592Y-64914D01*
X81607Y-64942D01*
X81621Y-65000D01*
X81621Y-65042D01*
X81607Y-65100D01*
X81592Y-65128D01*
X81564Y-65157D01*
X81521Y-65171D01*
X81450Y-65171D01*
X81735Y-65157D02*
X81778Y-65171D01*
X81850Y-65171D01*
X81878Y-65157D01*
X81892Y-65142D01*
X81907Y-65114D01*
X81907Y-65085D01*
X81892Y-65057D01*
X81878Y-65042D01*
X81850Y-65028D01*
X81792Y-65014D01*
X81764Y-65000D01*
X81750Y-64985D01*
X81735Y-64957D01*
X81735Y-64928D01*
X81750Y-64900D01*
X81764Y-64885D01*
X81792Y-64871D01*
X81864Y-64871D01*
X81907Y-64885D01*
X82192Y-65171D02*
X82021Y-65171D01*
X82107Y-65171D02*
X82107Y-64871D01*
X82078Y-64914D01*
X82050Y-64942D01*
X82021Y-64957D01*
X82378Y-64871D02*
X82407Y-64871D01*
X82435Y-64885D01*
X82450Y-64900D01*
X82464Y-64928D01*
X82478Y-64985D01*
X82478Y-65057D01*
X82464Y-65114D01*
X82450Y-65142D01*
X82435Y-65157D01*
X82407Y-65171D01*
X82378Y-65171D01*
X82350Y-65157D01*
X82335Y-65142D01*
X82321Y-65114D01*
X82307Y-65057D01*
X82307Y-64985D01*
X82321Y-64928D01*
X82335Y-64900D01*
X82350Y-64885D01*
X82378Y-64871D01*
X82764Y-65171D02*
X82592Y-65171D01*
X82678Y-65171D02*
X82678Y-64871D01*
X82650Y-64914D01*
X82621Y-64942D01*
X82592Y-64957D01*
X87500Y-69821D02*
X87600Y-70121D01*
X87700Y-69821D01*
X87857Y-69821D02*
X87914Y-69821D01*
X87942Y-69835D01*
X87971Y-69864D01*
X87985Y-69921D01*
X87985Y-70021D01*
X87971Y-70078D01*
X87942Y-70107D01*
X87914Y-70121D01*
X87857Y-70121D01*
X87828Y-70107D01*
X87800Y-70078D01*
X87785Y-70021D01*
X87785Y-69921D01*
X87800Y-69864D01*
X87828Y-69835D01*
X87857Y-69821D01*
X88257Y-70121D02*
X88114Y-70121D01*
X88114Y-69821D01*
X88314Y-69821D02*
X88485Y-69821D01*
X88400Y-70121D02*
X88400Y-69821D01*
X88585Y-70121D02*
X88585Y-69821D01*
X88685Y-70035D01*
X88785Y-69821D01*
X88785Y-70121D01*
X88928Y-69964D02*
X89028Y-69964D01*
X89071Y-70121D02*
X88928Y-70121D01*
X88928Y-69821D01*
X89071Y-69821D01*
X89157Y-69821D02*
X89328Y-69821D01*
X89242Y-70121D02*
X89242Y-69821D01*
X89428Y-69964D02*
X89528Y-69964D01*
X89571Y-70121D02*
X89428Y-70121D01*
X89428Y-69821D01*
X89571Y-69821D01*
X89871Y-70121D02*
X89771Y-69978D01*
X89700Y-70121D02*
X89700Y-69821D01*
X89814Y-69821D01*
X89842Y-69835D01*
X89857Y-69850D01*
X89871Y-69878D01*
X89871Y-69921D01*
X89857Y-69950D01*
X89842Y-69964D01*
X89814Y-69978D01*
X89700Y-69978D01*
G54D18*
X86601Y-69988D02*
X86851Y-69904D01*
X86601Y-69821D01*
X86755Y-69738D02*
X86755Y-69547D01*
X85601Y-69988D02*
X85851Y-69904D01*
X85601Y-69821D01*
X85755Y-69738D02*
X85755Y-69547D01*
X85851Y-69642D02*
X85660Y-69642D01*
X84601Y-70113D02*
X84851Y-70029D01*
X84601Y-69946D01*
X84839Y-69875D02*
X84851Y-69851D01*
X84851Y-69803D01*
X84839Y-69779D01*
X84815Y-69767D01*
X84803Y-69767D01*
X84779Y-69779D01*
X84767Y-69803D01*
X84767Y-69839D01*
X84755Y-69863D01*
X84732Y-69875D01*
X84720Y-69875D01*
X84696Y-69863D01*
X84684Y-69839D01*
X84684Y-69803D01*
X84696Y-69779D01*
X84839Y-69565D02*
X84851Y-69589D01*
X84851Y-69636D01*
X84839Y-69660D01*
X84815Y-69672D01*
X84720Y-69672D01*
X84696Y-69660D01*
X84684Y-69636D01*
X84684Y-69589D01*
X84696Y-69565D01*
X84720Y-69553D01*
X84744Y-69553D01*
X84767Y-69672D01*
X84684Y-69446D02*
X84851Y-69446D01*
X84708Y-69446D02*
X84696Y-69434D01*
X84684Y-69410D01*
X84684Y-69375D01*
X84696Y-69351D01*
X84720Y-69339D01*
X84851Y-69339D01*
X84839Y-69232D02*
X84851Y-69208D01*
X84851Y-69160D01*
X84839Y-69136D01*
X84815Y-69125D01*
X84803Y-69125D01*
X84779Y-69136D01*
X84767Y-69160D01*
X84767Y-69196D01*
X84755Y-69220D01*
X84732Y-69232D01*
X84720Y-69232D01*
X84696Y-69220D01*
X84684Y-69196D01*
X84684Y-69160D01*
X84696Y-69136D01*
X84839Y-68922D02*
X84851Y-68946D01*
X84851Y-68994D01*
X84839Y-69017D01*
X84815Y-69029D01*
X84720Y-69029D01*
X84696Y-69017D01*
X84684Y-68994D01*
X84684Y-68946D01*
X84696Y-68922D01*
X84720Y-68910D01*
X84744Y-68910D01*
X84767Y-69029D01*
G54D11*
X85242Y-64871D02*
X85271Y-64871D01*
X85300Y-64885D01*
X85314Y-64900D01*
X85328Y-64928D01*
X85342Y-64985D01*
X85342Y-65057D01*
X85328Y-65114D01*
X85314Y-65142D01*
X85300Y-65157D01*
X85271Y-65171D01*
X85242Y-65171D01*
X85214Y-65157D01*
X85200Y-65142D01*
X85185Y-65114D01*
X85171Y-65057D01*
X85171Y-64985D01*
X85185Y-64928D01*
X85200Y-64900D01*
X85214Y-64885D01*
X85242Y-64871D01*
X85471Y-65057D02*
X85700Y-65057D01*
X85814Y-64871D02*
X86000Y-64871D01*
X85900Y-64985D01*
X85942Y-64985D01*
X85971Y-65000D01*
X85985Y-65014D01*
X86000Y-65042D01*
X86000Y-65114D01*
X85985Y-65142D01*
X85971Y-65157D01*
X85942Y-65171D01*
X85857Y-65171D01*
X85828Y-65157D01*
X85814Y-65142D01*
X86114Y-64900D02*
X86128Y-64885D01*
X86157Y-64871D01*
X86228Y-64871D01*
X86257Y-64885D01*
X86271Y-64900D01*
X86285Y-64928D01*
X86285Y-64957D01*
X86271Y-65000D01*
X86100Y-65171D01*
X86285Y-65171D01*
X86371Y-64871D02*
X86471Y-65171D01*
X86571Y-64871D01*
X86900Y-65171D02*
X86900Y-64871D01*
X87000Y-65085D01*
X87100Y-64871D01*
X87100Y-65171D01*
X87242Y-65171D02*
X87242Y-64971D01*
X87242Y-64871D02*
X87228Y-64885D01*
X87242Y-64900D01*
X87257Y-64885D01*
X87242Y-64871D01*
X87242Y-64900D01*
X87385Y-64971D02*
X87385Y-65171D01*
X87385Y-65000D02*
X87399Y-64985D01*
X87428Y-64971D01*
X87471Y-64971D01*
X87499Y-64985D01*
X87514Y-65014D01*
X87514Y-65171D01*
X87657Y-65171D02*
X87657Y-64971D01*
X87657Y-64871D02*
X87642Y-64885D01*
X87657Y-64900D01*
X87671Y-64885D01*
X87657Y-64871D01*
X87657Y-64900D01*
X87985Y-64871D02*
X88085Y-65171D01*
X88185Y-64871D01*
X88328Y-65171D02*
X88299Y-65157D01*
X88285Y-65142D01*
X88271Y-65114D01*
X88271Y-65028D01*
X88285Y-65000D01*
X88299Y-64985D01*
X88328Y-64971D01*
X88371Y-64971D01*
X88399Y-64985D01*
X88414Y-65000D01*
X88428Y-65028D01*
X88428Y-65114D01*
X88414Y-65142D01*
X88399Y-65157D01*
X88371Y-65171D01*
X88328Y-65171D01*
X88600Y-65171D02*
X88571Y-65157D01*
X88557Y-65128D01*
X88557Y-64871D01*
X88671Y-64971D02*
X88785Y-64971D01*
X88714Y-64871D02*
X88714Y-65128D01*
X88728Y-65157D01*
X88757Y-65171D01*
X88785Y-65171D01*
X88885Y-65171D02*
X88885Y-64971D01*
X88885Y-65000D02*
X88900Y-64985D01*
X88928Y-64971D01*
X88971Y-64971D01*
X89000Y-64985D01*
X89014Y-65014D01*
X89014Y-65171D01*
X89014Y-65014D02*
X89028Y-64985D01*
X89057Y-64971D01*
X89100Y-64971D01*
X89128Y-64985D01*
X89142Y-65014D01*
X89142Y-65171D01*
X89400Y-65157D02*
X89371Y-65171D01*
X89314Y-65171D01*
X89285Y-65157D01*
X89271Y-65128D01*
X89271Y-65014D01*
X89285Y-64985D01*
X89314Y-64971D01*
X89371Y-64971D01*
X89400Y-64985D01*
X89414Y-65014D01*
X89414Y-65042D01*
X89271Y-65071D01*
X89500Y-64971D02*
X89614Y-64971D01*
X89542Y-64871D02*
X89542Y-65128D01*
X89557Y-65157D01*
X89585Y-65171D01*
X89614Y-65171D01*
X89828Y-65157D02*
X89800Y-65171D01*
X89742Y-65171D01*
X89714Y-65157D01*
X89700Y-65128D01*
X89700Y-65014D01*
X89714Y-64985D01*
X89742Y-64971D01*
X89800Y-64971D01*
X89828Y-64985D01*
X89842Y-65014D01*
X89842Y-65042D01*
X89700Y-65071D01*
X89971Y-65171D02*
X89971Y-64971D01*
X89971Y-65028D02*
X89985Y-65000D01*
X90000Y-64985D01*
X90028Y-64971D01*
X90057Y-64971D01*
X62692Y-48150D02*
X62707Y-48164D01*
X62721Y-48207D01*
X62721Y-48235D01*
X62707Y-48278D01*
X62678Y-48307D01*
X62650Y-48321D01*
X62592Y-48335D01*
X62550Y-48335D01*
X62492Y-48321D01*
X62464Y-48307D01*
X62435Y-48278D01*
X62421Y-48235D01*
X62421Y-48207D01*
X62435Y-48164D01*
X62450Y-48150D01*
X62421Y-47964D02*
X62421Y-47907D01*
X62435Y-47878D01*
X62464Y-47850D01*
X62521Y-47835D01*
X62621Y-47835D01*
X62678Y-47850D01*
X62707Y-47878D01*
X62721Y-47907D01*
X62721Y-47964D01*
X62707Y-47992D01*
X62678Y-48021D01*
X62621Y-48035D01*
X62521Y-48035D01*
X62464Y-48021D01*
X62435Y-47992D01*
X62421Y-47964D01*
X62721Y-47707D02*
X62421Y-47707D01*
X62721Y-47535D01*
X62421Y-47535D01*
X62721Y-47235D02*
X62721Y-47407D01*
X62721Y-47321D02*
X62421Y-47321D01*
X62464Y-47349D01*
X62492Y-47378D01*
X62507Y-47407D01*
X62421Y-47050D02*
X62421Y-47021D01*
X62435Y-46992D01*
X62450Y-46978D01*
X62478Y-46964D01*
X62535Y-46950D01*
X62607Y-46950D01*
X62664Y-46964D01*
X62692Y-46978D01*
X62707Y-46992D01*
X62721Y-47021D01*
X62721Y-47050D01*
X62707Y-47078D01*
X62692Y-47092D01*
X62664Y-47107D01*
X62607Y-47121D01*
X62535Y-47121D01*
X62478Y-47107D01*
X62450Y-47092D01*
X62435Y-47078D01*
X62421Y-47050D01*
X62450Y-46835D02*
X62435Y-46821D01*
X62421Y-46792D01*
X62421Y-46721D01*
X62435Y-46692D01*
X62450Y-46678D01*
X62478Y-46664D01*
X62507Y-46664D01*
X62550Y-46678D01*
X62721Y-46850D01*
X62721Y-46664D01*
X63571Y-51600D02*
X63585Y-51585D01*
X63614Y-51571D01*
X63685Y-51571D01*
X63714Y-51585D01*
X63728Y-51600D01*
X63742Y-51628D01*
X63742Y-51657D01*
X63728Y-51700D01*
X63557Y-51871D01*
X63742Y-51871D01*
X63871Y-51842D02*
X63885Y-51857D01*
X63871Y-51871D01*
X63857Y-51857D01*
X63871Y-51842D01*
X63871Y-51871D01*
X64157Y-51571D02*
X64014Y-51571D01*
X64000Y-51714D01*
X64014Y-51700D01*
X64042Y-51685D01*
X64114Y-51685D01*
X64142Y-51700D01*
X64157Y-51714D01*
X64171Y-51742D01*
X64171Y-51814D01*
X64157Y-51842D01*
X64142Y-51857D01*
X64114Y-51871D01*
X64042Y-51871D01*
X64014Y-51857D01*
X64000Y-51842D01*
X64271Y-51871D02*
X64428Y-51671D01*
X64271Y-51671D02*
X64428Y-51871D01*
X64685Y-51571D02*
X64542Y-51571D01*
X64528Y-51714D01*
X64542Y-51700D01*
X64571Y-51685D01*
X64642Y-51685D01*
X64671Y-51700D01*
X64685Y-51714D01*
X64700Y-51742D01*
X64700Y-51814D01*
X64685Y-51842D01*
X64671Y-51857D01*
X64642Y-51871D01*
X64571Y-51871D01*
X64542Y-51857D01*
X64528Y-51842D01*
X64828Y-51842D02*
X64842Y-51857D01*
X64828Y-51871D01*
X64814Y-51857D01*
X64828Y-51842D01*
X64828Y-51871D01*
X65114Y-51571D02*
X64971Y-51571D01*
X64957Y-51714D01*
X64971Y-51700D01*
X65000Y-51685D01*
X65071Y-51685D01*
X65100Y-51700D01*
X65114Y-51714D01*
X65128Y-51742D01*
X65128Y-51814D01*
X65114Y-51842D01*
X65100Y-51857D01*
X65071Y-51871D01*
X65000Y-51871D01*
X64971Y-51857D01*
X64957Y-51842D01*
X65257Y-51871D02*
X65257Y-51671D01*
X65257Y-51700D02*
X65271Y-51685D01*
X65300Y-51671D01*
X65342Y-51671D01*
X65371Y-51685D01*
X65385Y-51714D01*
X65385Y-51871D01*
X65385Y-51714D02*
X65400Y-51685D01*
X65428Y-51671D01*
X65471Y-51671D01*
X65500Y-51685D01*
X65514Y-51714D01*
X65514Y-51871D01*
X65657Y-51871D02*
X65657Y-51671D01*
X65657Y-51700D02*
X65671Y-51685D01*
X65700Y-51671D01*
X65742Y-51671D01*
X65771Y-51685D01*
X65785Y-51714D01*
X65785Y-51871D01*
X65785Y-51714D02*
X65800Y-51685D01*
X65828Y-51671D01*
X65871Y-51671D01*
X65900Y-51685D01*
X65914Y-51714D01*
X65914Y-51871D01*
X57692Y-48150D02*
X57707Y-48164D01*
X57721Y-48207D01*
X57721Y-48235D01*
X57707Y-48278D01*
X57678Y-48307D01*
X57650Y-48321D01*
X57592Y-48335D01*
X57550Y-48335D01*
X57492Y-48321D01*
X57464Y-48307D01*
X57435Y-48278D01*
X57421Y-48235D01*
X57421Y-48207D01*
X57435Y-48164D01*
X57450Y-48150D01*
X57421Y-47964D02*
X57421Y-47907D01*
X57435Y-47878D01*
X57464Y-47850D01*
X57521Y-47835D01*
X57621Y-47835D01*
X57678Y-47850D01*
X57707Y-47878D01*
X57721Y-47907D01*
X57721Y-47964D01*
X57707Y-47992D01*
X57678Y-48021D01*
X57621Y-48035D01*
X57521Y-48035D01*
X57464Y-48021D01*
X57435Y-47992D01*
X57421Y-47964D01*
X57721Y-47707D02*
X57421Y-47707D01*
X57721Y-47535D01*
X57421Y-47535D01*
X57721Y-47235D02*
X57721Y-47407D01*
X57721Y-47321D02*
X57421Y-47321D01*
X57464Y-47349D01*
X57492Y-47378D01*
X57507Y-47407D01*
X57421Y-47050D02*
X57421Y-47021D01*
X57435Y-46992D01*
X57450Y-46978D01*
X57478Y-46964D01*
X57535Y-46950D01*
X57607Y-46950D01*
X57664Y-46964D01*
X57692Y-46978D01*
X57707Y-46992D01*
X57721Y-47021D01*
X57721Y-47050D01*
X57707Y-47078D01*
X57692Y-47092D01*
X57664Y-47107D01*
X57607Y-47121D01*
X57535Y-47121D01*
X57478Y-47107D01*
X57450Y-47092D01*
X57435Y-47078D01*
X57421Y-47050D01*
X57721Y-46664D02*
X57721Y-46835D01*
X57721Y-46750D02*
X57421Y-46750D01*
X57464Y-46778D01*
X57492Y-46807D01*
X57507Y-46835D01*
X58571Y-51600D02*
X58585Y-51585D01*
X58614Y-51571D01*
X58685Y-51571D01*
X58714Y-51585D01*
X58728Y-51600D01*
X58742Y-51628D01*
X58742Y-51657D01*
X58728Y-51700D01*
X58557Y-51871D01*
X58742Y-51871D01*
X58871Y-51842D02*
X58885Y-51857D01*
X58871Y-51871D01*
X58857Y-51857D01*
X58871Y-51842D01*
X58871Y-51871D01*
X59171Y-51871D02*
X59000Y-51871D01*
X59085Y-51871D02*
X59085Y-51571D01*
X59057Y-51614D01*
X59028Y-51642D01*
X59000Y-51657D01*
X59271Y-51871D02*
X59428Y-51671D01*
X59271Y-51671D02*
X59428Y-51871D01*
X59685Y-51571D02*
X59542Y-51571D01*
X59528Y-51714D01*
X59542Y-51700D01*
X59571Y-51685D01*
X59642Y-51685D01*
X59671Y-51700D01*
X59685Y-51714D01*
X59700Y-51742D01*
X59700Y-51814D01*
X59685Y-51842D01*
X59671Y-51857D01*
X59642Y-51871D01*
X59571Y-51871D01*
X59542Y-51857D01*
X59528Y-51842D01*
X59828Y-51842D02*
X59842Y-51857D01*
X59828Y-51871D01*
X59814Y-51857D01*
X59828Y-51842D01*
X59828Y-51871D01*
X60114Y-51571D02*
X59971Y-51571D01*
X59957Y-51714D01*
X59971Y-51700D01*
X60000Y-51685D01*
X60071Y-51685D01*
X60100Y-51700D01*
X60114Y-51714D01*
X60128Y-51742D01*
X60128Y-51814D01*
X60114Y-51842D01*
X60100Y-51857D01*
X60071Y-51871D01*
X60000Y-51871D01*
X59971Y-51857D01*
X59957Y-51842D01*
X60257Y-51871D02*
X60257Y-51671D01*
X60257Y-51700D02*
X60271Y-51685D01*
X60300Y-51671D01*
X60342Y-51671D01*
X60371Y-51685D01*
X60385Y-51714D01*
X60385Y-51871D01*
X60385Y-51714D02*
X60400Y-51685D01*
X60428Y-51671D01*
X60471Y-51671D01*
X60500Y-51685D01*
X60514Y-51714D01*
X60514Y-51871D01*
X60657Y-51871D02*
X60657Y-51671D01*
X60657Y-51700D02*
X60671Y-51685D01*
X60700Y-51671D01*
X60742Y-51671D01*
X60771Y-51685D01*
X60785Y-51714D01*
X60785Y-51871D01*
X60785Y-51714D02*
X60800Y-51685D01*
X60828Y-51671D01*
X60871Y-51671D01*
X60900Y-51685D01*
X60914Y-51714D01*
X60914Y-51871D01*
M02*
