G04 (created by PCBNEW (2013-07-07 BZR 4022)-stable) date 4/20/2014 10:40:41 PM*
%MOIN*%
G04 Gerber Fmt 3.4, Leading zero omitted, Abs format*
%FSLAX34Y34*%
G01*
G70*
G90*
G04 APERTURE LIST*
%ADD10C,0.00590551*%
%ADD11R,0.1035X0.069*%
%ADD12O,0.1035X0.069*%
%ADD13O,0.0885X0.059*%
%ADD14O,0.059X0.0885*%
%ADD15R,0.16X0.16*%
%ADD16C,0.16*%
%ADD17O,0.069X0.1035*%
%ADD18C,0.23622*%
%ADD19C,0.055*%
%ADD20R,0.069X0.1035*%
%ADD21R,0.0885X0.059*%
%ADD22R,0.137795X0.137795*%
%ADD23C,0.137795*%
%ADD24C,0.15*%
%ADD25C,0.36*%
%ADD26R,0.059X0.0885*%
%ADD27C,0.11811*%
%ADD28C,0.02*%
%ADD29C,0.04*%
%ADD30C,0.15*%
%ADD31C,0.01*%
G04 APERTURE END LIST*
G54D10*
G54D11*
X74922Y-54750D03*
G54D12*
X74922Y-53750D03*
X74922Y-52750D03*
G54D11*
X71577Y-52750D03*
G54D12*
X71577Y-53750D03*
X71577Y-54750D03*
G54D13*
X83897Y-83750D03*
X87602Y-83750D03*
G54D14*
X79750Y-55602D03*
X79750Y-51897D03*
G54D15*
X64750Y-50500D03*
G54D16*
X64750Y-48150D03*
X62900Y-49300D03*
G54D17*
X60000Y-71577D03*
X60000Y-66922D03*
X61500Y-71577D03*
X61500Y-66922D03*
X63000Y-71577D03*
X63000Y-66922D03*
X66000Y-71577D03*
X66000Y-66922D03*
X64500Y-71577D03*
X64500Y-66922D03*
G54D12*
X67172Y-77250D03*
X71827Y-77250D03*
X67172Y-75750D03*
X71827Y-75750D03*
X67172Y-74250D03*
X71827Y-74250D03*
X67172Y-72750D03*
X71827Y-72750D03*
G54D14*
X56500Y-71602D03*
X56500Y-67897D03*
X58500Y-71602D03*
X58500Y-67897D03*
X57500Y-71602D03*
X57500Y-67897D03*
G54D15*
X59750Y-50500D03*
G54D16*
X59750Y-48150D03*
X57900Y-49300D03*
G54D18*
X55000Y-83250D03*
X55000Y-46500D03*
X91500Y-46500D03*
X91500Y-83250D03*
G54D19*
X69750Y-56250D03*
X67750Y-56250D03*
G54D20*
X60750Y-56327D03*
G54D17*
X60750Y-58672D03*
G54D21*
X73897Y-71000D03*
G54D13*
X72602Y-71000D03*
G54D21*
X80852Y-53750D03*
G54D13*
X82147Y-53750D03*
G54D21*
X73897Y-68750D03*
G54D13*
X72602Y-68750D03*
G54D16*
X73250Y-58750D03*
X73250Y-48750D03*
G54D22*
X55250Y-53120D03*
G54D23*
X55250Y-51250D03*
X55250Y-49379D03*
G54D22*
X55250Y-62620D03*
G54D23*
X55250Y-60750D03*
X55250Y-58879D03*
G54D22*
X77000Y-74870D03*
G54D23*
X77000Y-73000D03*
X77000Y-71129D03*
G54D20*
X81750Y-82327D03*
G54D17*
X81750Y-83672D03*
G54D24*
X56118Y-79334D03*
X58952Y-82169D03*
X57141Y-81145D03*
X60960Y-82169D03*
X60921Y-74531D03*
X58952Y-74531D03*
X56118Y-77366D03*
X63755Y-77366D03*
X63755Y-79334D03*
X57141Y-75555D03*
X62732Y-75555D03*
X62732Y-81145D03*
X61000Y-76500D03*
X58874Y-80200D03*
G54D25*
X69500Y-82250D03*
X77000Y-82250D03*
G54D26*
X77750Y-52102D03*
G54D14*
X77750Y-55397D03*
G54D26*
X78750Y-52102D03*
G54D14*
X78750Y-55397D03*
G54D21*
X63602Y-53250D03*
G54D13*
X66897Y-53250D03*
G54D21*
X66852Y-52000D03*
G54D13*
X70147Y-52000D03*
G54D19*
X92000Y-78250D03*
X92000Y-80250D03*
X88000Y-71250D03*
X90000Y-71250D03*
G54D14*
X85750Y-81147D03*
X86750Y-81147D03*
G54D26*
X84750Y-81147D03*
G54D20*
X82250Y-63922D03*
G54D17*
X83250Y-63922D03*
X84250Y-63922D03*
G54D20*
X87250Y-63922D03*
G54D17*
X88250Y-63922D03*
X89250Y-63922D03*
G54D21*
X88897Y-61250D03*
G54D13*
X87602Y-61250D03*
G54D21*
X82602Y-61250D03*
G54D13*
X83897Y-61250D03*
G54D26*
X85750Y-61897D03*
G54D14*
X85750Y-60602D03*
G54D17*
X87750Y-58672D03*
G54D20*
X85750Y-57672D03*
G54D17*
X89750Y-57672D03*
G54D13*
X91999Y-75862D03*
G54D27*
X81222Y-80586D03*
G54D13*
X91999Y-77043D03*
G54D27*
X90277Y-80586D03*
G54D20*
X84750Y-71172D03*
G54D17*
X85750Y-71172D03*
X86750Y-71172D03*
G54D28*
X66750Y-53250D02*
X67750Y-53250D01*
X67750Y-53250D02*
X68250Y-53750D01*
G54D29*
X71750Y-53750D02*
X70000Y-53750D01*
G54D30*
X68250Y-53750D02*
X67875Y-54125D01*
X55000Y-67000D02*
X55000Y-73000D01*
X67875Y-54125D02*
X55000Y-67000D01*
X70000Y-53750D02*
X68250Y-53750D01*
G54D28*
X74750Y-54750D02*
X76250Y-54750D01*
X76250Y-54750D02*
X76750Y-55250D01*
X76750Y-55250D02*
X77750Y-55250D01*
G54D10*
G36*
X92450Y-82317D02*
X92297Y-82164D01*
X92297Y-80617D01*
X92000Y-80320D01*
X91929Y-80391D01*
X91929Y-80250D01*
X91632Y-79952D01*
X91539Y-79977D01*
X91470Y-80174D01*
X91481Y-80382D01*
X91539Y-80522D01*
X91632Y-80547D01*
X91929Y-80250D01*
X91929Y-80391D01*
X91702Y-80617D01*
X91727Y-80710D01*
X91924Y-80779D01*
X92132Y-80768D01*
X92272Y-80710D01*
X92297Y-80617D01*
X92297Y-82164D01*
X92254Y-82122D01*
X91765Y-81919D01*
X91236Y-81918D01*
X91121Y-81966D01*
X91121Y-80737D01*
X91114Y-80403D01*
X90999Y-80124D01*
X90873Y-80061D01*
X90802Y-80131D01*
X90802Y-79990D01*
X90739Y-79865D01*
X90529Y-79782D01*
X90529Y-71325D01*
X90518Y-71117D01*
X90460Y-70977D01*
X90367Y-70952D01*
X90297Y-71023D01*
X90297Y-70882D01*
X90272Y-70789D01*
X90245Y-70779D01*
X90245Y-57858D01*
X90245Y-57486D01*
X90207Y-57297D01*
X90100Y-57136D01*
X89939Y-57029D01*
X89750Y-56991D01*
X89560Y-57029D01*
X89399Y-57136D01*
X89292Y-57297D01*
X89255Y-57486D01*
X89255Y-57858D01*
X89292Y-58047D01*
X89399Y-58208D01*
X89560Y-58315D01*
X89750Y-58353D01*
X89939Y-58315D01*
X90100Y-58208D01*
X90207Y-58047D01*
X90245Y-57858D01*
X90245Y-70779D01*
X90075Y-70720D01*
X89867Y-70731D01*
X89745Y-70782D01*
X89745Y-64108D01*
X89745Y-63736D01*
X89707Y-63547D01*
X89600Y-63386D01*
X89490Y-63313D01*
X89490Y-61515D01*
X89490Y-60925D01*
X89467Y-60870D01*
X89425Y-60827D01*
X89369Y-60805D01*
X89310Y-60804D01*
X88425Y-60804D01*
X88370Y-60827D01*
X88327Y-60869D01*
X88305Y-60925D01*
X88304Y-60984D01*
X88304Y-61574D01*
X88327Y-61629D01*
X88369Y-61672D01*
X88425Y-61694D01*
X88484Y-61695D01*
X89369Y-61695D01*
X89424Y-61672D01*
X89467Y-61630D01*
X89489Y-61574D01*
X89490Y-61515D01*
X89490Y-63313D01*
X89439Y-63279D01*
X89250Y-63241D01*
X89060Y-63279D01*
X88899Y-63386D01*
X88798Y-63538D01*
X88780Y-63476D01*
X88635Y-63293D01*
X88431Y-63181D01*
X88392Y-63172D01*
X88300Y-63219D01*
X88300Y-63872D01*
X88307Y-63872D01*
X88307Y-63972D01*
X88300Y-63972D01*
X88300Y-64625D01*
X88392Y-64672D01*
X88431Y-64663D01*
X88635Y-64551D01*
X88780Y-64368D01*
X88798Y-64306D01*
X88899Y-64458D01*
X89060Y-64565D01*
X89250Y-64603D01*
X89439Y-64565D01*
X89600Y-64458D01*
X89707Y-64297D01*
X89745Y-64108D01*
X89745Y-70782D01*
X89727Y-70789D01*
X89702Y-70882D01*
X90000Y-71179D01*
X90297Y-70882D01*
X90297Y-71023D01*
X90070Y-71250D01*
X90367Y-71547D01*
X90460Y-71522D01*
X90529Y-71325D01*
X90529Y-79782D01*
X90428Y-79743D01*
X90297Y-79745D01*
X90297Y-71617D01*
X90000Y-71320D01*
X89929Y-71391D01*
X89929Y-71250D01*
X89632Y-70952D01*
X89539Y-70977D01*
X89470Y-71174D01*
X89481Y-71382D01*
X89539Y-71522D01*
X89632Y-71547D01*
X89929Y-71250D01*
X89929Y-71391D01*
X89702Y-71617D01*
X89727Y-71710D01*
X89924Y-71779D01*
X90132Y-71768D01*
X90272Y-71710D01*
X90297Y-71617D01*
X90297Y-79745D01*
X90094Y-79749D01*
X89815Y-79865D01*
X89752Y-79990D01*
X90277Y-80515D01*
X90802Y-79990D01*
X90802Y-80131D01*
X90348Y-80586D01*
X90873Y-81111D01*
X90999Y-81049D01*
X91121Y-80737D01*
X91121Y-81966D01*
X90802Y-82097D01*
X90802Y-81182D01*
X90277Y-80657D01*
X90206Y-80728D01*
X90206Y-80586D01*
X89681Y-80061D01*
X89556Y-80124D01*
X89433Y-80435D01*
X89440Y-80769D01*
X89556Y-81049D01*
X89681Y-81111D01*
X90206Y-80586D01*
X90206Y-80728D01*
X89752Y-81182D01*
X89815Y-81308D01*
X90126Y-81430D01*
X90460Y-81423D01*
X90739Y-81308D01*
X90802Y-81182D01*
X90802Y-82097D01*
X90746Y-82120D01*
X90372Y-82495D01*
X90169Y-82984D01*
X90168Y-83513D01*
X90370Y-84003D01*
X90567Y-84200D01*
X88425Y-84200D01*
X88425Y-71165D01*
X88360Y-71009D01*
X88278Y-70927D01*
X88278Y-61384D01*
X88278Y-61115D01*
X88272Y-61087D01*
X88245Y-61036D01*
X88245Y-58858D01*
X88245Y-58486D01*
X88207Y-58297D01*
X88100Y-58136D01*
X87939Y-58029D01*
X87750Y-57991D01*
X87560Y-58029D01*
X87399Y-58136D01*
X87292Y-58297D01*
X87255Y-58486D01*
X87255Y-58858D01*
X87292Y-59047D01*
X87399Y-59208D01*
X87560Y-59315D01*
X87750Y-59353D01*
X87939Y-59315D01*
X88100Y-59208D01*
X88207Y-59047D01*
X88245Y-58858D01*
X88245Y-61036D01*
X88170Y-60899D01*
X88004Y-60765D01*
X87800Y-60705D01*
X87652Y-60705D01*
X87652Y-61200D01*
X88229Y-61200D01*
X88278Y-61115D01*
X88278Y-61384D01*
X88229Y-61300D01*
X87652Y-61300D01*
X87652Y-61795D01*
X87800Y-61795D01*
X88004Y-61734D01*
X88170Y-61600D01*
X88272Y-61412D01*
X88278Y-61384D01*
X88278Y-70927D01*
X88241Y-70889D01*
X88200Y-70872D01*
X88200Y-64625D01*
X88200Y-63972D01*
X88192Y-63972D01*
X88192Y-63872D01*
X88200Y-63872D01*
X88200Y-63219D01*
X88107Y-63172D01*
X88068Y-63181D01*
X87864Y-63293D01*
X87745Y-63443D01*
X87745Y-63375D01*
X87722Y-63320D01*
X87680Y-63277D01*
X87624Y-63255D01*
X87565Y-63254D01*
X87552Y-63254D01*
X87552Y-61795D01*
X87552Y-61300D01*
X87552Y-61200D01*
X87552Y-60705D01*
X87405Y-60705D01*
X87200Y-60765D01*
X87034Y-60899D01*
X86932Y-61087D01*
X86926Y-61115D01*
X86975Y-61200D01*
X87552Y-61200D01*
X87552Y-61300D01*
X86975Y-61300D01*
X86926Y-61384D01*
X86932Y-61412D01*
X87034Y-61600D01*
X87200Y-61734D01*
X87405Y-61795D01*
X87552Y-61795D01*
X87552Y-63254D01*
X86875Y-63254D01*
X86820Y-63277D01*
X86777Y-63319D01*
X86755Y-63375D01*
X86754Y-63434D01*
X86754Y-64469D01*
X86777Y-64524D01*
X86819Y-64567D01*
X86875Y-64589D01*
X86934Y-64590D01*
X87624Y-64590D01*
X87679Y-64567D01*
X87722Y-64525D01*
X87744Y-64469D01*
X87745Y-64410D01*
X87745Y-64401D01*
X87864Y-64551D01*
X88068Y-64663D01*
X88107Y-64672D01*
X88200Y-64625D01*
X88200Y-70872D01*
X88084Y-70825D01*
X87915Y-70824D01*
X87759Y-70889D01*
X87639Y-71008D01*
X87575Y-71165D01*
X87574Y-71334D01*
X87639Y-71490D01*
X87758Y-71610D01*
X87915Y-71674D01*
X88084Y-71675D01*
X88240Y-71610D01*
X88360Y-71491D01*
X88424Y-71334D01*
X88425Y-71165D01*
X88425Y-84200D01*
X88047Y-84200D01*
X88170Y-84100D01*
X88272Y-83912D01*
X88278Y-83884D01*
X88278Y-83615D01*
X88272Y-83587D01*
X88170Y-83399D01*
X88004Y-83265D01*
X87800Y-83205D01*
X87652Y-83205D01*
X87652Y-83700D01*
X88229Y-83700D01*
X88278Y-83615D01*
X88278Y-83884D01*
X88229Y-83800D01*
X87652Y-83800D01*
X87652Y-83807D01*
X87552Y-83807D01*
X87552Y-83800D01*
X87552Y-83700D01*
X87552Y-83205D01*
X87405Y-83205D01*
X87345Y-83222D01*
X87345Y-71395D01*
X87345Y-71222D01*
X87345Y-71122D01*
X87345Y-70950D01*
X87280Y-70726D01*
X87135Y-70543D01*
X86931Y-70431D01*
X86892Y-70422D01*
X86800Y-70469D01*
X86800Y-71122D01*
X87345Y-71122D01*
X87345Y-71222D01*
X86800Y-71222D01*
X86800Y-71875D01*
X86892Y-71922D01*
X86931Y-71913D01*
X87135Y-71801D01*
X87280Y-71618D01*
X87345Y-71395D01*
X87345Y-83222D01*
X87295Y-83237D01*
X87295Y-81345D01*
X87295Y-81197D01*
X87295Y-81097D01*
X87295Y-80950D01*
X87234Y-80745D01*
X87100Y-80579D01*
X86912Y-80477D01*
X86884Y-80471D01*
X86800Y-80520D01*
X86800Y-81097D01*
X87295Y-81097D01*
X87295Y-81197D01*
X86800Y-81197D01*
X86800Y-81774D01*
X86884Y-81823D01*
X86912Y-81817D01*
X87100Y-81715D01*
X87234Y-81549D01*
X87295Y-81345D01*
X87295Y-83237D01*
X87200Y-83265D01*
X87034Y-83399D01*
X86932Y-83587D01*
X86926Y-83615D01*
X86975Y-83700D01*
X87552Y-83700D01*
X87552Y-83800D01*
X86975Y-83800D01*
X86926Y-83884D01*
X86932Y-83912D01*
X87034Y-84100D01*
X87157Y-84200D01*
X86700Y-84200D01*
X86700Y-81774D01*
X86700Y-81197D01*
X86700Y-81097D01*
X86700Y-80520D01*
X86700Y-71875D01*
X86700Y-71222D01*
X86692Y-71222D01*
X86692Y-71122D01*
X86700Y-71122D01*
X86700Y-70469D01*
X86607Y-70422D01*
X86568Y-70431D01*
X86364Y-70543D01*
X86345Y-70568D01*
X86345Y-58239D01*
X86345Y-57105D01*
X86307Y-57013D01*
X86236Y-56943D01*
X86144Y-56905D01*
X86045Y-56904D01*
X85862Y-56905D01*
X85800Y-56967D01*
X85800Y-57622D01*
X86282Y-57622D01*
X86345Y-57560D01*
X86345Y-57105D01*
X86345Y-58239D01*
X86345Y-57785D01*
X86282Y-57722D01*
X85800Y-57722D01*
X85800Y-58377D01*
X85862Y-58440D01*
X86045Y-58440D01*
X86144Y-58439D01*
X86236Y-58401D01*
X86307Y-58331D01*
X86345Y-58239D01*
X86345Y-70568D01*
X86295Y-70631D01*
X86295Y-60800D01*
X86295Y-60652D01*
X86295Y-60552D01*
X86295Y-60405D01*
X86234Y-60200D01*
X86100Y-60034D01*
X85912Y-59932D01*
X85884Y-59926D01*
X85800Y-59975D01*
X85800Y-60552D01*
X86295Y-60552D01*
X86295Y-60652D01*
X85800Y-60652D01*
X85800Y-61229D01*
X85884Y-61278D01*
X85912Y-61272D01*
X86100Y-61170D01*
X86234Y-61004D01*
X86295Y-60800D01*
X86295Y-70631D01*
X86219Y-70726D01*
X86201Y-70788D01*
X86195Y-70779D01*
X86195Y-62310D01*
X86195Y-61425D01*
X86172Y-61370D01*
X86130Y-61327D01*
X86074Y-61305D01*
X86015Y-61304D01*
X85700Y-61304D01*
X85700Y-61229D01*
X85700Y-60652D01*
X85700Y-60552D01*
X85700Y-59975D01*
X85700Y-58377D01*
X85700Y-57722D01*
X85700Y-57622D01*
X85700Y-56967D01*
X85637Y-56905D01*
X85454Y-56904D01*
X85355Y-56905D01*
X85263Y-56943D01*
X85192Y-57013D01*
X85154Y-57105D01*
X85155Y-57560D01*
X85217Y-57622D01*
X85700Y-57622D01*
X85700Y-57722D01*
X85217Y-57722D01*
X85155Y-57785D01*
X85154Y-58239D01*
X85192Y-58331D01*
X85263Y-58401D01*
X85355Y-58439D01*
X85454Y-58440D01*
X85637Y-58440D01*
X85700Y-58377D01*
X85700Y-59975D01*
X85615Y-59926D01*
X85587Y-59932D01*
X85399Y-60034D01*
X85265Y-60200D01*
X85205Y-60405D01*
X85205Y-60552D01*
X85700Y-60552D01*
X85700Y-60652D01*
X85205Y-60652D01*
X85205Y-60800D01*
X85265Y-61004D01*
X85399Y-61170D01*
X85587Y-61272D01*
X85615Y-61278D01*
X85700Y-61229D01*
X85700Y-61304D01*
X85425Y-61304D01*
X85370Y-61327D01*
X85327Y-61369D01*
X85305Y-61425D01*
X85304Y-61484D01*
X85304Y-62369D01*
X85327Y-62424D01*
X85369Y-62467D01*
X85425Y-62489D01*
X85484Y-62490D01*
X86074Y-62490D01*
X86129Y-62467D01*
X86172Y-62425D01*
X86194Y-62369D01*
X86195Y-62310D01*
X86195Y-70779D01*
X86100Y-70636D01*
X85939Y-70529D01*
X85750Y-70491D01*
X85560Y-70529D01*
X85399Y-70636D01*
X85292Y-70797D01*
X85255Y-70986D01*
X85255Y-71358D01*
X85292Y-71547D01*
X85399Y-71708D01*
X85560Y-71815D01*
X85750Y-71853D01*
X85939Y-71815D01*
X86100Y-71708D01*
X86201Y-71556D01*
X86219Y-71618D01*
X86364Y-71801D01*
X86568Y-71913D01*
X86607Y-71922D01*
X86700Y-71875D01*
X86700Y-80520D01*
X86615Y-80471D01*
X86587Y-80477D01*
X86399Y-80579D01*
X86265Y-80745D01*
X86250Y-80798D01*
X86234Y-80745D01*
X86100Y-80579D01*
X85912Y-80477D01*
X85884Y-80471D01*
X85800Y-80520D01*
X85800Y-81097D01*
X86205Y-81097D01*
X86295Y-81097D01*
X86700Y-81097D01*
X86700Y-81197D01*
X86295Y-81197D01*
X86205Y-81197D01*
X85800Y-81197D01*
X85800Y-81774D01*
X85884Y-81823D01*
X85912Y-81817D01*
X86100Y-81715D01*
X86234Y-81549D01*
X86250Y-81496D01*
X86265Y-81549D01*
X86399Y-81715D01*
X86587Y-81817D01*
X86615Y-81823D01*
X86700Y-81774D01*
X86700Y-84200D01*
X85700Y-84200D01*
X85700Y-81774D01*
X85700Y-81197D01*
X85700Y-81097D01*
X85700Y-80520D01*
X85615Y-80471D01*
X85587Y-80477D01*
X85399Y-80579D01*
X85265Y-80745D01*
X85245Y-80814D01*
X85245Y-71660D01*
X85245Y-70625D01*
X85222Y-70570D01*
X85180Y-70527D01*
X85124Y-70505D01*
X85065Y-70504D01*
X84745Y-70504D01*
X84745Y-64108D01*
X84745Y-63736D01*
X84707Y-63547D01*
X84600Y-63386D01*
X84573Y-63368D01*
X84573Y-61384D01*
X84573Y-61115D01*
X84567Y-61087D01*
X84465Y-60899D01*
X84299Y-60765D01*
X84095Y-60705D01*
X83947Y-60705D01*
X83947Y-61200D01*
X84524Y-61200D01*
X84573Y-61115D01*
X84573Y-61384D01*
X84524Y-61300D01*
X83947Y-61300D01*
X83947Y-61795D01*
X84095Y-61795D01*
X84299Y-61734D01*
X84465Y-61600D01*
X84567Y-61412D01*
X84573Y-61384D01*
X84573Y-63368D01*
X84439Y-63279D01*
X84250Y-63241D01*
X84060Y-63279D01*
X83899Y-63386D01*
X83847Y-63465D01*
X83847Y-61795D01*
X83847Y-61300D01*
X83847Y-61200D01*
X83847Y-60705D01*
X83700Y-60705D01*
X83495Y-60765D01*
X83329Y-60899D01*
X83227Y-61087D01*
X83221Y-61115D01*
X83270Y-61200D01*
X83847Y-61200D01*
X83847Y-61300D01*
X83270Y-61300D01*
X83221Y-61384D01*
X83227Y-61412D01*
X83329Y-61600D01*
X83495Y-61734D01*
X83700Y-61795D01*
X83847Y-61795D01*
X83847Y-63465D01*
X83798Y-63538D01*
X83780Y-63476D01*
X83635Y-63293D01*
X83431Y-63181D01*
X83392Y-63172D01*
X83300Y-63219D01*
X83300Y-63872D01*
X83307Y-63872D01*
X83307Y-63972D01*
X83300Y-63972D01*
X83300Y-64625D01*
X83392Y-64672D01*
X83431Y-64663D01*
X83635Y-64551D01*
X83780Y-64368D01*
X83798Y-64306D01*
X83899Y-64458D01*
X84060Y-64565D01*
X84250Y-64603D01*
X84439Y-64565D01*
X84600Y-64458D01*
X84707Y-64297D01*
X84745Y-64108D01*
X84745Y-70504D01*
X84375Y-70504D01*
X84320Y-70527D01*
X84277Y-70569D01*
X84255Y-70625D01*
X84254Y-70684D01*
X84254Y-71719D01*
X84277Y-71774D01*
X84319Y-71817D01*
X84375Y-71839D01*
X84434Y-71840D01*
X85124Y-71840D01*
X85179Y-71817D01*
X85222Y-71775D01*
X85244Y-71719D01*
X85245Y-71660D01*
X85245Y-80814D01*
X85205Y-80950D01*
X85205Y-81097D01*
X85700Y-81097D01*
X85700Y-81197D01*
X85205Y-81197D01*
X85205Y-81345D01*
X85265Y-81549D01*
X85399Y-81715D01*
X85587Y-81817D01*
X85615Y-81823D01*
X85700Y-81774D01*
X85700Y-84200D01*
X85195Y-84200D01*
X85195Y-81560D01*
X85195Y-80675D01*
X85172Y-80620D01*
X85130Y-80577D01*
X85074Y-80555D01*
X85015Y-80554D01*
X84425Y-80554D01*
X84370Y-80577D01*
X84327Y-80619D01*
X84305Y-80675D01*
X84304Y-80734D01*
X84304Y-81619D01*
X84327Y-81674D01*
X84369Y-81717D01*
X84425Y-81739D01*
X84484Y-81740D01*
X85074Y-81740D01*
X85129Y-81717D01*
X85172Y-81675D01*
X85194Y-81619D01*
X85195Y-81560D01*
X85195Y-84200D01*
X84501Y-84200D01*
X84501Y-83750D01*
X84467Y-83579D01*
X84371Y-83435D01*
X84226Y-83338D01*
X84056Y-83305D01*
X83738Y-83305D01*
X83568Y-83338D01*
X83423Y-83435D01*
X83327Y-83579D01*
X83293Y-83750D01*
X83327Y-83920D01*
X83423Y-84064D01*
X83568Y-84161D01*
X83738Y-84195D01*
X84056Y-84195D01*
X84226Y-84161D01*
X84371Y-84064D01*
X84467Y-83920D01*
X84501Y-83750D01*
X84501Y-84200D01*
X83200Y-84200D01*
X83200Y-64625D01*
X83200Y-63972D01*
X83192Y-63972D01*
X83192Y-63872D01*
X83200Y-63872D01*
X83200Y-63219D01*
X83195Y-63217D01*
X83195Y-61515D01*
X83195Y-60925D01*
X83172Y-60870D01*
X83130Y-60827D01*
X83074Y-60805D01*
X83015Y-60804D01*
X82823Y-60804D01*
X82823Y-53884D01*
X82823Y-53615D01*
X82817Y-53587D01*
X82715Y-53399D01*
X82549Y-53265D01*
X82345Y-53205D01*
X82197Y-53205D01*
X82197Y-53700D01*
X82774Y-53700D01*
X82823Y-53615D01*
X82823Y-53884D01*
X82774Y-53800D01*
X82197Y-53800D01*
X82197Y-54295D01*
X82345Y-54295D01*
X82549Y-54234D01*
X82715Y-54100D01*
X82817Y-53912D01*
X82823Y-53884D01*
X82823Y-60804D01*
X82130Y-60804D01*
X82097Y-60818D01*
X82097Y-54295D01*
X82097Y-53800D01*
X82097Y-53700D01*
X82097Y-53205D01*
X81950Y-53205D01*
X81745Y-53265D01*
X81579Y-53399D01*
X81477Y-53587D01*
X81471Y-53615D01*
X81520Y-53700D01*
X82097Y-53700D01*
X82097Y-53800D01*
X81520Y-53800D01*
X81471Y-53884D01*
X81477Y-53912D01*
X81579Y-54100D01*
X81745Y-54234D01*
X81950Y-54295D01*
X82097Y-54295D01*
X82097Y-60818D01*
X82075Y-60827D01*
X82032Y-60869D01*
X82010Y-60925D01*
X82009Y-60984D01*
X82009Y-61574D01*
X82032Y-61629D01*
X82074Y-61672D01*
X82130Y-61694D01*
X82189Y-61695D01*
X83074Y-61695D01*
X83129Y-61672D01*
X83172Y-61630D01*
X83194Y-61574D01*
X83195Y-61515D01*
X83195Y-63217D01*
X83107Y-63172D01*
X83068Y-63181D01*
X82864Y-63293D01*
X82745Y-63443D01*
X82745Y-63375D01*
X82722Y-63320D01*
X82680Y-63277D01*
X82624Y-63255D01*
X82565Y-63254D01*
X81875Y-63254D01*
X81820Y-63277D01*
X81777Y-63319D01*
X81755Y-63375D01*
X81754Y-63434D01*
X81754Y-64469D01*
X81777Y-64524D01*
X81819Y-64567D01*
X81875Y-64589D01*
X81934Y-64590D01*
X82624Y-64590D01*
X82679Y-64567D01*
X82722Y-64525D01*
X82744Y-64469D01*
X82745Y-64410D01*
X82745Y-64401D01*
X82864Y-64551D01*
X83068Y-64663D01*
X83107Y-64672D01*
X83200Y-64625D01*
X83200Y-84200D01*
X82105Y-84200D01*
X82207Y-84047D01*
X82245Y-83858D01*
X82245Y-83486D01*
X82207Y-83297D01*
X82100Y-83136D01*
X81939Y-83029D01*
X81765Y-82995D01*
X82124Y-82995D01*
X82179Y-82972D01*
X82222Y-82930D01*
X82244Y-82874D01*
X82245Y-82815D01*
X82245Y-81780D01*
X82222Y-81725D01*
X82180Y-81682D01*
X82124Y-81660D01*
X82065Y-81659D01*
X81963Y-81659D01*
X81963Y-80439D01*
X81850Y-80167D01*
X81642Y-79959D01*
X81445Y-79877D01*
X81445Y-54015D01*
X81445Y-53425D01*
X81422Y-53370D01*
X81380Y-53327D01*
X81324Y-53305D01*
X81265Y-53304D01*
X80380Y-53304D01*
X80325Y-53327D01*
X80282Y-53369D01*
X80260Y-53425D01*
X80259Y-53484D01*
X80259Y-54074D01*
X80282Y-54129D01*
X80324Y-54172D01*
X80380Y-54194D01*
X80439Y-54195D01*
X81324Y-54195D01*
X81379Y-54172D01*
X81422Y-54130D01*
X81444Y-54074D01*
X81445Y-54015D01*
X81445Y-79877D01*
X81370Y-79846D01*
X81075Y-79845D01*
X81030Y-79864D01*
X81030Y-67345D01*
X80911Y-67058D01*
X80692Y-66839D01*
X80405Y-66720D01*
X80195Y-66720D01*
X80195Y-55761D01*
X80195Y-55443D01*
X80195Y-52056D01*
X80195Y-51738D01*
X80161Y-51568D01*
X80064Y-51423D01*
X79920Y-51327D01*
X79750Y-51293D01*
X79579Y-51327D01*
X79435Y-51423D01*
X79338Y-51568D01*
X79305Y-51738D01*
X79305Y-52056D01*
X79338Y-52226D01*
X79435Y-52371D01*
X79579Y-52467D01*
X79750Y-52501D01*
X79920Y-52467D01*
X80064Y-52371D01*
X80161Y-52226D01*
X80195Y-52056D01*
X80195Y-55443D01*
X80161Y-55273D01*
X80064Y-55128D01*
X79920Y-55032D01*
X79750Y-54998D01*
X79579Y-55032D01*
X79435Y-55128D01*
X79338Y-55273D01*
X79305Y-55443D01*
X79305Y-55761D01*
X79338Y-55931D01*
X79435Y-56076D01*
X79579Y-56172D01*
X79750Y-56206D01*
X79920Y-56172D01*
X80064Y-56076D01*
X80161Y-55931D01*
X80195Y-55761D01*
X80195Y-66720D01*
X80095Y-66719D01*
X79808Y-66838D01*
X79589Y-67057D01*
X79470Y-67344D01*
X79469Y-67654D01*
X79588Y-67941D01*
X79807Y-68160D01*
X80094Y-68279D01*
X80404Y-68280D01*
X80691Y-68161D01*
X80910Y-67942D01*
X81029Y-67655D01*
X81030Y-67345D01*
X81030Y-79864D01*
X80821Y-79951D01*
X80821Y-73345D01*
X80702Y-73058D01*
X80483Y-72839D01*
X80197Y-72720D01*
X79886Y-72719D01*
X79600Y-72838D01*
X79380Y-73057D01*
X79261Y-73344D01*
X79261Y-73654D01*
X79379Y-73941D01*
X79598Y-74160D01*
X79885Y-74279D01*
X80195Y-74280D01*
X80482Y-74161D01*
X80702Y-73942D01*
X80821Y-73655D01*
X80821Y-73345D01*
X80821Y-79951D01*
X80803Y-79958D01*
X80594Y-80166D01*
X80482Y-80438D01*
X80481Y-80733D01*
X80594Y-81005D01*
X80802Y-81214D01*
X81074Y-81327D01*
X81369Y-81327D01*
X81641Y-81214D01*
X81849Y-81006D01*
X81962Y-80734D01*
X81963Y-80439D01*
X81963Y-81659D01*
X81375Y-81659D01*
X81320Y-81682D01*
X81277Y-81724D01*
X81255Y-81780D01*
X81254Y-81839D01*
X81254Y-82874D01*
X81277Y-82929D01*
X81319Y-82972D01*
X81375Y-82994D01*
X81434Y-82995D01*
X81734Y-82995D01*
X81560Y-83029D01*
X81399Y-83136D01*
X81292Y-83297D01*
X81255Y-83486D01*
X81255Y-83858D01*
X81292Y-84047D01*
X81394Y-84200D01*
X79195Y-84200D01*
X79195Y-52515D01*
X79195Y-51630D01*
X79172Y-51575D01*
X79130Y-51532D01*
X79074Y-51510D01*
X79015Y-51509D01*
X78425Y-51509D01*
X78370Y-51532D01*
X78327Y-51574D01*
X78305Y-51630D01*
X78304Y-51689D01*
X78304Y-52574D01*
X78327Y-52629D01*
X78369Y-52672D01*
X78425Y-52694D01*
X78484Y-52695D01*
X79074Y-52695D01*
X79129Y-52672D01*
X79172Y-52630D01*
X79194Y-52574D01*
X79195Y-52515D01*
X79195Y-84200D01*
X79195Y-84200D01*
X79195Y-55556D01*
X79195Y-55238D01*
X79161Y-55068D01*
X79064Y-54923D01*
X78920Y-54827D01*
X78750Y-54793D01*
X78579Y-54827D01*
X78435Y-54923D01*
X78338Y-55068D01*
X78305Y-55238D01*
X78305Y-55556D01*
X78338Y-55726D01*
X78435Y-55871D01*
X78579Y-55967D01*
X78750Y-56001D01*
X78920Y-55967D01*
X79064Y-55871D01*
X79161Y-55726D01*
X79195Y-55556D01*
X79195Y-84200D01*
X77386Y-84200D01*
X78103Y-83904D01*
X78652Y-83356D01*
X78949Y-82639D01*
X78950Y-81863D01*
X78654Y-81146D01*
X78195Y-80686D01*
X78195Y-52515D01*
X78195Y-51630D01*
X78172Y-51575D01*
X78130Y-51532D01*
X78074Y-51510D01*
X78015Y-51509D01*
X77425Y-51509D01*
X77370Y-51532D01*
X77327Y-51574D01*
X77305Y-51630D01*
X77304Y-51689D01*
X77304Y-52574D01*
X77327Y-52629D01*
X77369Y-52672D01*
X77425Y-52694D01*
X77484Y-52695D01*
X78074Y-52695D01*
X78129Y-52672D01*
X78172Y-52630D01*
X78194Y-52574D01*
X78195Y-52515D01*
X78195Y-80686D01*
X78195Y-80686D01*
X78195Y-55556D01*
X78195Y-55238D01*
X78161Y-55068D01*
X78064Y-54923D01*
X77920Y-54827D01*
X77750Y-54793D01*
X77579Y-54827D01*
X77435Y-54923D01*
X77384Y-55000D01*
X76853Y-55000D01*
X76426Y-54573D01*
X76345Y-54519D01*
X76250Y-54500D01*
X75603Y-54500D01*
X75603Y-53750D01*
X75603Y-52750D01*
X75565Y-52560D01*
X75458Y-52399D01*
X75297Y-52292D01*
X75108Y-52255D01*
X74736Y-52255D01*
X74547Y-52292D01*
X74386Y-52399D01*
X74279Y-52560D01*
X74241Y-52750D01*
X74279Y-52939D01*
X74386Y-53100D01*
X74547Y-53207D01*
X74736Y-53245D01*
X75108Y-53245D01*
X75297Y-53207D01*
X75458Y-53100D01*
X75565Y-52939D01*
X75603Y-52750D01*
X75603Y-53750D01*
X75565Y-53560D01*
X75458Y-53399D01*
X75297Y-53292D01*
X75108Y-53255D01*
X74736Y-53255D01*
X74547Y-53292D01*
X74386Y-53399D01*
X74279Y-53560D01*
X74241Y-53750D01*
X74279Y-53939D01*
X74386Y-54100D01*
X74547Y-54207D01*
X74736Y-54245D01*
X75108Y-54245D01*
X75297Y-54207D01*
X75458Y-54100D01*
X75565Y-53939D01*
X75603Y-53750D01*
X75603Y-54500D01*
X75590Y-54500D01*
X75590Y-54375D01*
X75567Y-54320D01*
X75525Y-54277D01*
X75469Y-54255D01*
X75410Y-54254D01*
X74375Y-54254D01*
X74320Y-54277D01*
X74277Y-54319D01*
X74255Y-54375D01*
X74254Y-54434D01*
X74254Y-55124D01*
X74277Y-55179D01*
X74319Y-55222D01*
X74375Y-55244D01*
X74434Y-55245D01*
X75469Y-55245D01*
X75524Y-55222D01*
X75567Y-55180D01*
X75589Y-55124D01*
X75590Y-55065D01*
X75590Y-55000D01*
X76146Y-55000D01*
X76573Y-55426D01*
X76654Y-55480D01*
X76750Y-55500D01*
X77305Y-55500D01*
X77305Y-55556D01*
X77338Y-55726D01*
X77435Y-55871D01*
X77579Y-55967D01*
X77750Y-56001D01*
X77920Y-55967D01*
X78064Y-55871D01*
X78161Y-55726D01*
X78195Y-55556D01*
X78195Y-80686D01*
X78106Y-80597D01*
X77839Y-80487D01*
X77839Y-72833D01*
X77839Y-70963D01*
X77711Y-70655D01*
X77475Y-70419D01*
X77167Y-70291D01*
X76833Y-70290D01*
X76525Y-70418D01*
X76289Y-70654D01*
X76161Y-70962D01*
X76160Y-71296D01*
X76288Y-71604D01*
X76524Y-71840D01*
X76832Y-71968D01*
X77166Y-71969D01*
X77474Y-71841D01*
X77710Y-71605D01*
X77838Y-71297D01*
X77839Y-70963D01*
X77839Y-72833D01*
X77711Y-72525D01*
X77475Y-72289D01*
X77167Y-72161D01*
X76833Y-72160D01*
X76525Y-72288D01*
X76289Y-72524D01*
X76161Y-72832D01*
X76160Y-73166D01*
X76288Y-73474D01*
X76524Y-73710D01*
X76832Y-73838D01*
X77166Y-73839D01*
X77474Y-73711D01*
X77710Y-73475D01*
X77838Y-73167D01*
X77839Y-72833D01*
X77839Y-80487D01*
X77839Y-80486D01*
X77839Y-75529D01*
X77839Y-74151D01*
X77816Y-74096D01*
X77774Y-74054D01*
X77718Y-74031D01*
X77659Y-74031D01*
X76281Y-74031D01*
X76226Y-74053D01*
X76183Y-74096D01*
X76161Y-74151D01*
X76160Y-74210D01*
X76160Y-75588D01*
X76183Y-75643D01*
X76225Y-75686D01*
X76281Y-75709D01*
X76340Y-75709D01*
X77718Y-75709D01*
X77773Y-75686D01*
X77816Y-75644D01*
X77838Y-75589D01*
X77839Y-75529D01*
X77839Y-80486D01*
X77389Y-80300D01*
X76613Y-80299D01*
X75896Y-80595D01*
X75347Y-81143D01*
X75050Y-81860D01*
X75049Y-82636D01*
X75345Y-83353D01*
X75893Y-83902D01*
X76610Y-84199D01*
X76999Y-84200D01*
X74490Y-84200D01*
X74490Y-71265D01*
X74490Y-70675D01*
X74490Y-69015D01*
X74490Y-68425D01*
X74467Y-68370D01*
X74425Y-68327D01*
X74369Y-68305D01*
X74310Y-68304D01*
X74200Y-68304D01*
X74200Y-58561D01*
X74200Y-48561D01*
X74055Y-48212D01*
X73788Y-47945D01*
X73439Y-47800D01*
X73061Y-47799D01*
X72712Y-47944D01*
X72445Y-48211D01*
X72300Y-48560D01*
X72299Y-48938D01*
X72444Y-49287D01*
X72711Y-49554D01*
X73060Y-49699D01*
X73438Y-49700D01*
X73787Y-49555D01*
X74054Y-49288D01*
X74199Y-48939D01*
X74200Y-48561D01*
X74200Y-58561D01*
X74055Y-58212D01*
X73788Y-57945D01*
X73439Y-57800D01*
X73061Y-57799D01*
X72712Y-57944D01*
X72445Y-58211D01*
X72300Y-58560D01*
X72299Y-58938D01*
X72444Y-59287D01*
X72711Y-59554D01*
X73060Y-59699D01*
X73438Y-59700D01*
X73787Y-59555D01*
X74054Y-59288D01*
X74199Y-58939D01*
X74200Y-58561D01*
X74200Y-68304D01*
X73425Y-68304D01*
X73370Y-68327D01*
X73327Y-68369D01*
X73305Y-68425D01*
X73304Y-68484D01*
X73304Y-69074D01*
X73327Y-69129D01*
X73369Y-69172D01*
X73425Y-69194D01*
X73484Y-69195D01*
X74369Y-69195D01*
X74424Y-69172D01*
X74467Y-69130D01*
X74489Y-69074D01*
X74490Y-69015D01*
X74490Y-70675D01*
X74467Y-70620D01*
X74425Y-70577D01*
X74369Y-70555D01*
X74310Y-70554D01*
X73425Y-70554D01*
X73370Y-70577D01*
X73327Y-70619D01*
X73305Y-70675D01*
X73304Y-70734D01*
X73304Y-71324D01*
X73327Y-71379D01*
X73369Y-71422D01*
X73425Y-71444D01*
X73484Y-71445D01*
X74369Y-71445D01*
X74424Y-71422D01*
X74467Y-71380D01*
X74489Y-71324D01*
X74490Y-71265D01*
X74490Y-84200D01*
X73278Y-84200D01*
X73278Y-71134D01*
X73278Y-70865D01*
X73278Y-68884D01*
X73278Y-68615D01*
X73272Y-68587D01*
X73170Y-68399D01*
X73004Y-68265D01*
X72800Y-68205D01*
X72652Y-68205D01*
X72652Y-68700D01*
X73229Y-68700D01*
X73278Y-68615D01*
X73278Y-68884D01*
X73229Y-68800D01*
X72652Y-68800D01*
X72652Y-69295D01*
X72800Y-69295D01*
X73004Y-69234D01*
X73170Y-69100D01*
X73272Y-68912D01*
X73278Y-68884D01*
X73278Y-70865D01*
X73272Y-70837D01*
X73170Y-70649D01*
X73004Y-70515D01*
X72800Y-70455D01*
X72652Y-70455D01*
X72652Y-70950D01*
X73229Y-70950D01*
X73278Y-70865D01*
X73278Y-71134D01*
X73229Y-71050D01*
X72652Y-71050D01*
X72652Y-71545D01*
X72800Y-71545D01*
X73004Y-71484D01*
X73170Y-71350D01*
X73272Y-71162D01*
X73278Y-71134D01*
X73278Y-84200D01*
X72552Y-84200D01*
X72552Y-71545D01*
X72552Y-71050D01*
X72552Y-70950D01*
X72552Y-70455D01*
X72552Y-69295D01*
X72552Y-68800D01*
X72552Y-68700D01*
X72552Y-68205D01*
X72405Y-68205D01*
X72258Y-68248D01*
X72258Y-54750D01*
X72220Y-54560D01*
X72113Y-54399D01*
X71952Y-54292D01*
X71763Y-54255D01*
X71391Y-54255D01*
X71202Y-54292D01*
X71041Y-54399D01*
X70934Y-54560D01*
X70896Y-54750D01*
X70934Y-54939D01*
X71041Y-55100D01*
X71202Y-55207D01*
X71391Y-55245D01*
X71763Y-55245D01*
X71952Y-55207D01*
X72113Y-55100D01*
X72220Y-54939D01*
X72258Y-54750D01*
X72258Y-68248D01*
X72200Y-68265D01*
X72034Y-68399D01*
X71932Y-68587D01*
X71926Y-68615D01*
X71975Y-68700D01*
X72552Y-68700D01*
X72552Y-68800D01*
X71975Y-68800D01*
X71926Y-68884D01*
X71932Y-68912D01*
X72034Y-69100D01*
X72200Y-69234D01*
X72405Y-69295D01*
X72552Y-69295D01*
X72552Y-70455D01*
X72405Y-70455D01*
X72200Y-70515D01*
X72034Y-70649D01*
X71932Y-70837D01*
X71926Y-70865D01*
X71975Y-70950D01*
X72552Y-70950D01*
X72552Y-71050D01*
X71975Y-71050D01*
X71926Y-71134D01*
X71932Y-71162D01*
X72034Y-71350D01*
X72200Y-71484D01*
X72405Y-71545D01*
X72552Y-71545D01*
X72552Y-84200D01*
X72508Y-84200D01*
X72508Y-77250D01*
X72508Y-75750D01*
X72508Y-74250D01*
X72508Y-72750D01*
X72470Y-72560D01*
X72363Y-72399D01*
X72202Y-72292D01*
X72013Y-72255D01*
X71641Y-72255D01*
X71452Y-72292D01*
X71291Y-72399D01*
X71184Y-72560D01*
X71146Y-72750D01*
X71184Y-72939D01*
X71291Y-73100D01*
X71452Y-73207D01*
X71641Y-73245D01*
X72013Y-73245D01*
X72202Y-73207D01*
X72363Y-73100D01*
X72470Y-72939D01*
X72508Y-72750D01*
X72508Y-74250D01*
X72470Y-74060D01*
X72363Y-73899D01*
X72202Y-73792D01*
X72013Y-73755D01*
X71641Y-73755D01*
X71452Y-73792D01*
X71291Y-73899D01*
X71184Y-74060D01*
X71146Y-74250D01*
X71184Y-74439D01*
X71291Y-74600D01*
X71452Y-74707D01*
X71641Y-74745D01*
X72013Y-74745D01*
X72202Y-74707D01*
X72363Y-74600D01*
X72470Y-74439D01*
X72508Y-74250D01*
X72508Y-75750D01*
X72470Y-75560D01*
X72363Y-75399D01*
X72202Y-75292D01*
X72013Y-75255D01*
X71641Y-75255D01*
X71452Y-75292D01*
X71291Y-75399D01*
X71184Y-75560D01*
X71146Y-75750D01*
X71184Y-75939D01*
X71291Y-76100D01*
X71452Y-76207D01*
X71641Y-76245D01*
X72013Y-76245D01*
X72202Y-76207D01*
X72363Y-76100D01*
X72470Y-75939D01*
X72508Y-75750D01*
X72508Y-77250D01*
X72470Y-77060D01*
X72363Y-76899D01*
X72202Y-76792D01*
X72013Y-76755D01*
X71641Y-76755D01*
X71452Y-76792D01*
X71291Y-76899D01*
X71184Y-77060D01*
X71146Y-77250D01*
X71184Y-77439D01*
X71291Y-77600D01*
X71452Y-77707D01*
X71641Y-77745D01*
X72013Y-77745D01*
X72202Y-77707D01*
X72363Y-77600D01*
X72470Y-77439D01*
X72508Y-77250D01*
X72508Y-84200D01*
X69886Y-84200D01*
X70603Y-83904D01*
X71152Y-83356D01*
X71449Y-82639D01*
X71450Y-81863D01*
X71154Y-81146D01*
X70606Y-80597D01*
X70175Y-80418D01*
X70175Y-56165D01*
X70110Y-56009D01*
X69991Y-55889D01*
X69834Y-55825D01*
X69665Y-55824D01*
X69509Y-55889D01*
X69389Y-56008D01*
X69325Y-56165D01*
X69324Y-56334D01*
X69389Y-56490D01*
X69508Y-56610D01*
X69665Y-56674D01*
X69834Y-56675D01*
X69990Y-56610D01*
X70110Y-56491D01*
X70174Y-56334D01*
X70175Y-56165D01*
X70175Y-80418D01*
X69889Y-80300D01*
X69113Y-80299D01*
X68396Y-80595D01*
X68279Y-80712D01*
X68279Y-56325D01*
X68268Y-56117D01*
X68210Y-55977D01*
X68117Y-55952D01*
X67820Y-56250D01*
X68117Y-56547D01*
X68210Y-56522D01*
X68279Y-56325D01*
X68279Y-80712D01*
X68047Y-80945D01*
X68047Y-56617D01*
X67750Y-56320D01*
X67452Y-56617D01*
X67477Y-56710D01*
X67674Y-56779D01*
X67882Y-56768D01*
X68022Y-56710D01*
X68047Y-56617D01*
X68047Y-80945D01*
X67853Y-81138D01*
X67853Y-77250D01*
X67853Y-75750D01*
X67853Y-74250D01*
X67853Y-72750D01*
X67815Y-72560D01*
X67708Y-72399D01*
X67547Y-72292D01*
X67358Y-72255D01*
X66986Y-72255D01*
X66797Y-72292D01*
X66636Y-72399D01*
X66529Y-72560D01*
X66491Y-72750D01*
X66529Y-72939D01*
X66636Y-73100D01*
X66797Y-73207D01*
X66986Y-73245D01*
X67358Y-73245D01*
X67547Y-73207D01*
X67708Y-73100D01*
X67815Y-72939D01*
X67853Y-72750D01*
X67853Y-74250D01*
X67815Y-74060D01*
X67708Y-73899D01*
X67547Y-73792D01*
X67358Y-73755D01*
X66986Y-73755D01*
X66797Y-73792D01*
X66636Y-73899D01*
X66529Y-74060D01*
X66491Y-74250D01*
X66529Y-74439D01*
X66636Y-74600D01*
X66797Y-74707D01*
X66986Y-74745D01*
X67358Y-74745D01*
X67547Y-74707D01*
X67708Y-74600D01*
X67815Y-74439D01*
X67853Y-74250D01*
X67853Y-75750D01*
X67815Y-75560D01*
X67708Y-75399D01*
X67547Y-75292D01*
X67358Y-75255D01*
X66986Y-75255D01*
X66797Y-75292D01*
X66636Y-75399D01*
X66529Y-75560D01*
X66491Y-75750D01*
X66529Y-75939D01*
X66636Y-76100D01*
X66797Y-76207D01*
X66986Y-76245D01*
X67358Y-76245D01*
X67547Y-76207D01*
X67708Y-76100D01*
X67815Y-75939D01*
X67853Y-75750D01*
X67853Y-77250D01*
X67815Y-77060D01*
X67708Y-76899D01*
X67547Y-76792D01*
X67358Y-76755D01*
X66986Y-76755D01*
X66797Y-76792D01*
X66636Y-76899D01*
X66529Y-77060D01*
X66491Y-77250D01*
X66529Y-77439D01*
X66636Y-77600D01*
X66797Y-77707D01*
X66986Y-77745D01*
X67358Y-77745D01*
X67547Y-77707D01*
X67708Y-77600D01*
X67815Y-77439D01*
X67853Y-77250D01*
X67853Y-81138D01*
X67847Y-81143D01*
X67550Y-81860D01*
X67549Y-82636D01*
X67845Y-83353D01*
X68393Y-83902D01*
X69110Y-84199D01*
X69499Y-84200D01*
X65550Y-84200D01*
X65550Y-71963D01*
X65649Y-72113D01*
X65810Y-72220D01*
X66000Y-72258D01*
X66189Y-72220D01*
X66350Y-72113D01*
X66457Y-71952D01*
X66495Y-71763D01*
X66495Y-71391D01*
X66495Y-67108D01*
X66495Y-66736D01*
X66457Y-66547D01*
X66350Y-66386D01*
X66189Y-66279D01*
X66000Y-66241D01*
X65810Y-66279D01*
X65649Y-66386D01*
X65542Y-66547D01*
X65505Y-66736D01*
X65505Y-67108D01*
X65542Y-67297D01*
X65649Y-67458D01*
X65810Y-67565D01*
X66000Y-67603D01*
X66189Y-67565D01*
X66350Y-67458D01*
X66457Y-67297D01*
X66495Y-67108D01*
X66495Y-71391D01*
X66457Y-71202D01*
X66350Y-71041D01*
X66189Y-70934D01*
X66000Y-70896D01*
X65810Y-70934D01*
X65649Y-71041D01*
X65542Y-71202D01*
X65505Y-71391D01*
X65505Y-71763D01*
X65542Y-71950D01*
X64957Y-71950D01*
X64995Y-71763D01*
X64995Y-71391D01*
X64995Y-67108D01*
X64995Y-66736D01*
X64957Y-66547D01*
X64850Y-66386D01*
X64689Y-66279D01*
X64500Y-66241D01*
X64310Y-66279D01*
X64149Y-66386D01*
X64042Y-66547D01*
X64005Y-66736D01*
X64005Y-67108D01*
X64042Y-67297D01*
X64149Y-67458D01*
X64310Y-67565D01*
X64500Y-67603D01*
X64689Y-67565D01*
X64850Y-67458D01*
X64957Y-67297D01*
X64995Y-67108D01*
X64995Y-71391D01*
X64957Y-71202D01*
X64850Y-71041D01*
X64689Y-70934D01*
X64500Y-70896D01*
X64310Y-70934D01*
X64149Y-71041D01*
X64042Y-71202D01*
X64005Y-71391D01*
X64005Y-71763D01*
X64042Y-71950D01*
X63457Y-71950D01*
X63495Y-71763D01*
X63495Y-71391D01*
X63495Y-67108D01*
X63495Y-66736D01*
X63457Y-66547D01*
X63350Y-66386D01*
X63189Y-66279D01*
X63000Y-66241D01*
X62810Y-66279D01*
X62649Y-66386D01*
X62542Y-66547D01*
X62505Y-66736D01*
X62505Y-67108D01*
X62542Y-67297D01*
X62649Y-67458D01*
X62810Y-67565D01*
X63000Y-67603D01*
X63189Y-67565D01*
X63350Y-67458D01*
X63457Y-67297D01*
X63495Y-67108D01*
X63495Y-71391D01*
X63457Y-71202D01*
X63350Y-71041D01*
X63189Y-70934D01*
X63000Y-70896D01*
X62810Y-70934D01*
X62649Y-71041D01*
X62542Y-71202D01*
X62505Y-71391D01*
X62505Y-71763D01*
X62542Y-71950D01*
X61957Y-71950D01*
X61995Y-71763D01*
X61995Y-71391D01*
X61995Y-67108D01*
X61995Y-66736D01*
X61957Y-66547D01*
X61850Y-66386D01*
X61689Y-66279D01*
X61500Y-66241D01*
X61310Y-66279D01*
X61149Y-66386D01*
X61042Y-66547D01*
X61005Y-66736D01*
X61005Y-67108D01*
X61042Y-67297D01*
X61149Y-67458D01*
X61310Y-67565D01*
X61500Y-67603D01*
X61689Y-67565D01*
X61850Y-67458D01*
X61957Y-67297D01*
X61995Y-67108D01*
X61995Y-71391D01*
X61957Y-71202D01*
X61850Y-71041D01*
X61689Y-70934D01*
X61500Y-70896D01*
X61310Y-70934D01*
X61149Y-71041D01*
X61042Y-71202D01*
X61005Y-71391D01*
X61005Y-71763D01*
X61042Y-71950D01*
X60457Y-71950D01*
X60495Y-71763D01*
X60495Y-71391D01*
X60495Y-67108D01*
X60495Y-66736D01*
X60457Y-66547D01*
X60350Y-66386D01*
X60189Y-66279D01*
X60000Y-66241D01*
X59810Y-66279D01*
X59649Y-66386D01*
X59542Y-66547D01*
X59505Y-66736D01*
X59505Y-67108D01*
X59542Y-67297D01*
X59649Y-67458D01*
X59810Y-67565D01*
X60000Y-67603D01*
X60189Y-67565D01*
X60350Y-67458D01*
X60457Y-67297D01*
X60495Y-67108D01*
X60495Y-71391D01*
X60457Y-71202D01*
X60350Y-71041D01*
X60189Y-70934D01*
X60000Y-70896D01*
X59810Y-70934D01*
X59649Y-71041D01*
X59542Y-71202D01*
X59505Y-71391D01*
X59505Y-71763D01*
X59542Y-71950D01*
X58899Y-71950D01*
X58911Y-71931D01*
X58945Y-71761D01*
X58945Y-71443D01*
X58945Y-68056D01*
X58945Y-67738D01*
X58911Y-67568D01*
X58814Y-67423D01*
X58670Y-67327D01*
X58500Y-67293D01*
X58329Y-67327D01*
X58185Y-67423D01*
X58088Y-67568D01*
X58055Y-67738D01*
X58055Y-68056D01*
X58088Y-68226D01*
X58185Y-68371D01*
X58329Y-68467D01*
X58500Y-68501D01*
X58670Y-68467D01*
X58814Y-68371D01*
X58911Y-68226D01*
X58945Y-68056D01*
X58945Y-71443D01*
X58911Y-71273D01*
X58814Y-71128D01*
X58670Y-71032D01*
X58500Y-70998D01*
X58329Y-71032D01*
X58185Y-71128D01*
X58088Y-71273D01*
X58055Y-71443D01*
X58055Y-71761D01*
X58088Y-71931D01*
X58100Y-71950D01*
X57899Y-71950D01*
X57911Y-71931D01*
X57945Y-71761D01*
X57945Y-71443D01*
X57945Y-68056D01*
X57945Y-67738D01*
X57911Y-67568D01*
X57814Y-67423D01*
X57670Y-67327D01*
X57500Y-67293D01*
X57329Y-67327D01*
X57185Y-67423D01*
X57088Y-67568D01*
X57055Y-67738D01*
X57055Y-68056D01*
X57088Y-68226D01*
X57185Y-68371D01*
X57329Y-68467D01*
X57500Y-68501D01*
X57670Y-68467D01*
X57814Y-68371D01*
X57911Y-68226D01*
X57945Y-68056D01*
X57945Y-71443D01*
X57911Y-71273D01*
X57814Y-71128D01*
X57670Y-71032D01*
X57500Y-70998D01*
X57329Y-71032D01*
X57185Y-71128D01*
X57088Y-71273D01*
X57055Y-71443D01*
X57055Y-71761D01*
X57088Y-71931D01*
X57100Y-71950D01*
X56899Y-71950D01*
X56911Y-71931D01*
X56945Y-71761D01*
X56945Y-71443D01*
X56945Y-68056D01*
X56945Y-67738D01*
X56911Y-67568D01*
X56814Y-67423D01*
X56670Y-67327D01*
X56500Y-67293D01*
X56329Y-67327D01*
X56185Y-67423D01*
X56088Y-67568D01*
X56055Y-67738D01*
X56055Y-68056D01*
X56088Y-68226D01*
X56185Y-68371D01*
X56329Y-68467D01*
X56500Y-68501D01*
X56670Y-68467D01*
X56814Y-68371D01*
X56911Y-68226D01*
X56945Y-68056D01*
X56945Y-71443D01*
X56911Y-71273D01*
X56814Y-71128D01*
X56670Y-71032D01*
X56500Y-70998D01*
X56329Y-71032D01*
X56185Y-71128D01*
X56088Y-71273D01*
X56055Y-71443D01*
X56055Y-71761D01*
X56088Y-71931D01*
X56100Y-71950D01*
X55900Y-71950D01*
X55900Y-67372D01*
X67286Y-55986D01*
X67220Y-56174D01*
X67231Y-56382D01*
X67289Y-56522D01*
X67382Y-56547D01*
X67679Y-56250D01*
X67673Y-56244D01*
X67744Y-56173D01*
X67750Y-56179D01*
X68047Y-55882D01*
X68022Y-55789D01*
X67825Y-55720D01*
X67617Y-55731D01*
X67487Y-55785D01*
X68511Y-54761D01*
X68622Y-54650D01*
X70000Y-54650D01*
X70344Y-54581D01*
X70636Y-54386D01*
X70827Y-54100D01*
X71041Y-54100D01*
X71041Y-54100D01*
X71202Y-54207D01*
X71391Y-54245D01*
X71763Y-54245D01*
X71952Y-54207D01*
X72113Y-54100D01*
X72220Y-53939D01*
X72258Y-53750D01*
X72245Y-53684D01*
X72245Y-53065D01*
X72245Y-52375D01*
X72222Y-52320D01*
X72180Y-52277D01*
X72124Y-52255D01*
X72065Y-52254D01*
X71030Y-52254D01*
X70975Y-52277D01*
X70932Y-52319D01*
X70910Y-52375D01*
X70909Y-52434D01*
X70909Y-53124D01*
X70932Y-53179D01*
X70974Y-53222D01*
X71030Y-53244D01*
X71089Y-53245D01*
X72124Y-53245D01*
X72179Y-53222D01*
X72222Y-53180D01*
X72244Y-53124D01*
X72245Y-53065D01*
X72245Y-53684D01*
X72220Y-53560D01*
X72113Y-53399D01*
X71952Y-53292D01*
X71763Y-53255D01*
X71391Y-53255D01*
X71202Y-53292D01*
X71041Y-53399D01*
X71041Y-53400D01*
X70827Y-53400D01*
X70751Y-53286D01*
X70751Y-52000D01*
X70717Y-51829D01*
X70621Y-51685D01*
X70476Y-51588D01*
X70306Y-51555D01*
X69988Y-51555D01*
X69818Y-51588D01*
X69673Y-51685D01*
X69577Y-51829D01*
X69543Y-52000D01*
X69577Y-52170D01*
X69673Y-52314D01*
X69818Y-52411D01*
X69988Y-52445D01*
X70306Y-52445D01*
X70476Y-52411D01*
X70621Y-52314D01*
X70717Y-52170D01*
X70751Y-52000D01*
X70751Y-53286D01*
X70636Y-53113D01*
X70344Y-52918D01*
X70000Y-52850D01*
X68250Y-52850D01*
X67905Y-52918D01*
X67775Y-53005D01*
X67750Y-53000D01*
X67445Y-53000D01*
X67445Y-52265D01*
X67445Y-51675D01*
X67422Y-51620D01*
X67380Y-51577D01*
X67324Y-51555D01*
X67265Y-51554D01*
X66380Y-51554D01*
X66325Y-51577D01*
X66282Y-51619D01*
X66260Y-51675D01*
X66259Y-51734D01*
X66259Y-52324D01*
X66282Y-52379D01*
X66324Y-52422D01*
X66380Y-52444D01*
X66439Y-52445D01*
X67324Y-52445D01*
X67379Y-52422D01*
X67422Y-52380D01*
X67444Y-52324D01*
X67445Y-52265D01*
X67445Y-53000D01*
X67414Y-53000D01*
X67371Y-52935D01*
X67226Y-52838D01*
X67056Y-52805D01*
X66738Y-52805D01*
X66568Y-52838D01*
X66423Y-52935D01*
X66327Y-53079D01*
X66293Y-53250D01*
X66327Y-53420D01*
X66423Y-53564D01*
X66568Y-53661D01*
X66738Y-53695D01*
X67032Y-53695D01*
X65801Y-54925D01*
X65801Y-48351D01*
X65798Y-47933D01*
X65644Y-47561D01*
X65497Y-47473D01*
X65426Y-47544D01*
X65426Y-47402D01*
X65338Y-47255D01*
X64951Y-47098D01*
X64533Y-47101D01*
X64161Y-47255D01*
X64073Y-47402D01*
X64750Y-48079D01*
X65426Y-47402D01*
X65426Y-47544D01*
X64820Y-48150D01*
X65497Y-48826D01*
X65644Y-48738D01*
X65801Y-48351D01*
X65801Y-54925D01*
X65700Y-55027D01*
X65700Y-51270D01*
X65700Y-49670D01*
X65677Y-49615D01*
X65635Y-49572D01*
X65579Y-49550D01*
X65520Y-49549D01*
X65426Y-49549D01*
X65426Y-48897D01*
X64750Y-48220D01*
X64679Y-48291D01*
X64679Y-48150D01*
X64002Y-47473D01*
X63855Y-47561D01*
X63698Y-47948D01*
X63701Y-48366D01*
X63855Y-48738D01*
X64002Y-48826D01*
X64679Y-48150D01*
X64679Y-48291D01*
X64073Y-48897D01*
X64161Y-49044D01*
X64548Y-49201D01*
X64966Y-49198D01*
X65338Y-49044D01*
X65426Y-48897D01*
X65426Y-49549D01*
X63931Y-49549D01*
X63951Y-49501D01*
X63948Y-49083D01*
X63794Y-48711D01*
X63647Y-48623D01*
X63576Y-48694D01*
X63576Y-48552D01*
X63488Y-48405D01*
X63101Y-48248D01*
X62683Y-48251D01*
X62311Y-48405D01*
X62223Y-48552D01*
X62900Y-49229D01*
X63576Y-48552D01*
X63576Y-48694D01*
X62970Y-49300D01*
X63647Y-49976D01*
X63794Y-49888D01*
X63799Y-49874D01*
X63799Y-51329D01*
X63822Y-51384D01*
X63864Y-51427D01*
X63920Y-51449D01*
X63979Y-51450D01*
X65579Y-51450D01*
X65634Y-51427D01*
X65677Y-51385D01*
X65699Y-51329D01*
X65700Y-51270D01*
X65700Y-55027D01*
X64195Y-56532D01*
X64195Y-53515D01*
X64195Y-52925D01*
X64172Y-52870D01*
X64130Y-52827D01*
X64074Y-52805D01*
X64015Y-52804D01*
X63576Y-52804D01*
X63576Y-50047D01*
X62900Y-49370D01*
X62829Y-49441D01*
X62829Y-49300D01*
X62152Y-48623D01*
X62005Y-48711D01*
X61848Y-49098D01*
X61851Y-49516D01*
X62005Y-49888D01*
X62152Y-49976D01*
X62829Y-49300D01*
X62829Y-49441D01*
X62223Y-50047D01*
X62311Y-50194D01*
X62698Y-50351D01*
X63116Y-50348D01*
X63488Y-50194D01*
X63576Y-50047D01*
X63576Y-52804D01*
X63130Y-52804D01*
X63075Y-52827D01*
X63032Y-52869D01*
X63010Y-52925D01*
X63009Y-52984D01*
X63009Y-53574D01*
X63032Y-53629D01*
X63074Y-53672D01*
X63130Y-53694D01*
X63189Y-53695D01*
X64074Y-53695D01*
X64129Y-53672D01*
X64172Y-53630D01*
X64194Y-53574D01*
X64195Y-53515D01*
X64195Y-56532D01*
X61345Y-59382D01*
X61345Y-58895D01*
X61345Y-58722D01*
X61345Y-58622D01*
X61345Y-58450D01*
X61280Y-58226D01*
X61245Y-58181D01*
X61245Y-56815D01*
X61245Y-55780D01*
X61222Y-55725D01*
X61180Y-55682D01*
X61124Y-55660D01*
X61065Y-55659D01*
X60801Y-55659D01*
X60801Y-48351D01*
X60798Y-47933D01*
X60644Y-47561D01*
X60497Y-47473D01*
X60426Y-47544D01*
X60426Y-47402D01*
X60338Y-47255D01*
X59951Y-47098D01*
X59533Y-47101D01*
X59161Y-47255D01*
X59073Y-47402D01*
X59750Y-48079D01*
X60426Y-47402D01*
X60426Y-47544D01*
X59820Y-48150D01*
X60497Y-48826D01*
X60644Y-48738D01*
X60801Y-48351D01*
X60801Y-55659D01*
X60700Y-55659D01*
X60700Y-51270D01*
X60700Y-49670D01*
X60677Y-49615D01*
X60635Y-49572D01*
X60579Y-49550D01*
X60520Y-49549D01*
X60426Y-49549D01*
X60426Y-48897D01*
X59750Y-48220D01*
X59679Y-48291D01*
X59679Y-48150D01*
X59002Y-47473D01*
X58855Y-47561D01*
X58698Y-47948D01*
X58701Y-48366D01*
X58855Y-48738D01*
X59002Y-48826D01*
X59679Y-48150D01*
X59679Y-48291D01*
X59073Y-48897D01*
X59161Y-49044D01*
X59548Y-49201D01*
X59966Y-49198D01*
X60338Y-49044D01*
X60426Y-48897D01*
X60426Y-49549D01*
X58931Y-49549D01*
X58951Y-49501D01*
X58948Y-49083D01*
X58794Y-48711D01*
X58647Y-48623D01*
X58576Y-48694D01*
X58576Y-48552D01*
X58488Y-48405D01*
X58101Y-48248D01*
X57683Y-48251D01*
X57311Y-48405D01*
X57223Y-48552D01*
X57900Y-49229D01*
X58576Y-48552D01*
X58576Y-48694D01*
X57970Y-49300D01*
X58647Y-49976D01*
X58794Y-49888D01*
X58799Y-49874D01*
X58799Y-51329D01*
X58822Y-51384D01*
X58864Y-51427D01*
X58920Y-51449D01*
X58979Y-51450D01*
X60579Y-51450D01*
X60634Y-51427D01*
X60677Y-51385D01*
X60699Y-51329D01*
X60700Y-51270D01*
X60700Y-55659D01*
X60375Y-55659D01*
X60320Y-55682D01*
X60277Y-55724D01*
X60255Y-55780D01*
X60254Y-55839D01*
X60254Y-56874D01*
X60277Y-56929D01*
X60319Y-56972D01*
X60375Y-56994D01*
X60434Y-56995D01*
X61124Y-56995D01*
X61179Y-56972D01*
X61222Y-56930D01*
X61244Y-56874D01*
X61245Y-56815D01*
X61245Y-58181D01*
X61135Y-58043D01*
X60931Y-57931D01*
X60892Y-57922D01*
X60800Y-57969D01*
X60800Y-58622D01*
X61345Y-58622D01*
X61345Y-58722D01*
X60800Y-58722D01*
X60800Y-59375D01*
X60892Y-59422D01*
X60931Y-59413D01*
X61135Y-59301D01*
X61280Y-59118D01*
X61345Y-58895D01*
X61345Y-59382D01*
X60700Y-60027D01*
X60700Y-59375D01*
X60700Y-58722D01*
X60700Y-58622D01*
X60700Y-57969D01*
X60607Y-57922D01*
X60568Y-57931D01*
X60364Y-58043D01*
X60219Y-58226D01*
X60155Y-58450D01*
X60155Y-58622D01*
X60700Y-58622D01*
X60700Y-58722D01*
X60155Y-58722D01*
X60155Y-58895D01*
X60219Y-59118D01*
X60364Y-59301D01*
X60568Y-59413D01*
X60607Y-59422D01*
X60700Y-59375D01*
X60700Y-60027D01*
X58576Y-62150D01*
X58576Y-50047D01*
X57900Y-49370D01*
X57829Y-49441D01*
X57829Y-49300D01*
X57152Y-48623D01*
X57005Y-48711D01*
X56848Y-49098D01*
X56851Y-49516D01*
X57005Y-49888D01*
X57152Y-49976D01*
X57829Y-49300D01*
X57829Y-49441D01*
X57223Y-50047D01*
X57311Y-50194D01*
X57698Y-50351D01*
X58116Y-50348D01*
X58488Y-50194D01*
X58576Y-50047D01*
X58576Y-62150D01*
X56089Y-64638D01*
X56089Y-60583D01*
X56089Y-58713D01*
X56089Y-51083D01*
X56089Y-49213D01*
X55961Y-48905D01*
X55725Y-48669D01*
X55417Y-48541D01*
X55083Y-48540D01*
X54775Y-48668D01*
X54539Y-48904D01*
X54411Y-49212D01*
X54410Y-49546D01*
X54538Y-49854D01*
X54774Y-50090D01*
X55082Y-50218D01*
X55416Y-50219D01*
X55724Y-50091D01*
X55960Y-49855D01*
X56088Y-49547D01*
X56089Y-49213D01*
X56089Y-51083D01*
X55961Y-50775D01*
X55725Y-50539D01*
X55417Y-50411D01*
X55083Y-50410D01*
X54775Y-50538D01*
X54539Y-50774D01*
X54411Y-51082D01*
X54410Y-51416D01*
X54538Y-51724D01*
X54774Y-51960D01*
X55082Y-52088D01*
X55416Y-52089D01*
X55724Y-51961D01*
X55960Y-51725D01*
X56088Y-51417D01*
X56089Y-51083D01*
X56089Y-58713D01*
X56089Y-58713D01*
X56089Y-53779D01*
X56089Y-52401D01*
X56066Y-52346D01*
X56024Y-52304D01*
X55968Y-52281D01*
X55909Y-52281D01*
X54531Y-52281D01*
X54476Y-52303D01*
X54433Y-52346D01*
X54411Y-52401D01*
X54410Y-52460D01*
X54410Y-53838D01*
X54433Y-53893D01*
X54475Y-53936D01*
X54531Y-53959D01*
X54590Y-53959D01*
X55968Y-53959D01*
X56023Y-53936D01*
X56066Y-53894D01*
X56088Y-53839D01*
X56089Y-53779D01*
X56089Y-58713D01*
X55961Y-58405D01*
X55725Y-58169D01*
X55417Y-58041D01*
X55083Y-58040D01*
X54775Y-58168D01*
X54539Y-58404D01*
X54411Y-58712D01*
X54410Y-59046D01*
X54538Y-59354D01*
X54774Y-59590D01*
X55082Y-59718D01*
X55416Y-59719D01*
X55724Y-59591D01*
X55960Y-59355D01*
X56088Y-59047D01*
X56089Y-58713D01*
X56089Y-60583D01*
X55961Y-60275D01*
X55725Y-60039D01*
X55417Y-59911D01*
X55083Y-59910D01*
X54775Y-60038D01*
X54539Y-60274D01*
X54411Y-60582D01*
X54410Y-60916D01*
X54538Y-61224D01*
X54774Y-61460D01*
X55082Y-61588D01*
X55416Y-61589D01*
X55724Y-61461D01*
X55960Y-61225D01*
X56088Y-60917D01*
X56089Y-60583D01*
X56089Y-64638D01*
X56089Y-64638D01*
X56089Y-63279D01*
X56089Y-61901D01*
X56066Y-61846D01*
X56024Y-61804D01*
X55968Y-61781D01*
X55909Y-61781D01*
X54531Y-61781D01*
X54476Y-61803D01*
X54433Y-61846D01*
X54411Y-61901D01*
X54410Y-61960D01*
X54410Y-63338D01*
X54433Y-63393D01*
X54475Y-63436D01*
X54531Y-63459D01*
X54590Y-63459D01*
X55968Y-63459D01*
X56023Y-63436D01*
X56066Y-63394D01*
X56088Y-63339D01*
X56089Y-63279D01*
X56089Y-64638D01*
X54363Y-66363D01*
X54168Y-66655D01*
X54100Y-67000D01*
X54100Y-71950D01*
X54050Y-71950D01*
X54050Y-47432D01*
X54245Y-47627D01*
X54734Y-47830D01*
X55263Y-47831D01*
X55753Y-47629D01*
X56127Y-47254D01*
X56330Y-46765D01*
X56331Y-46236D01*
X56129Y-45746D01*
X55932Y-45550D01*
X90567Y-45550D01*
X90372Y-45745D01*
X90169Y-46234D01*
X90168Y-46763D01*
X90370Y-47253D01*
X90745Y-47627D01*
X91234Y-47830D01*
X91763Y-47831D01*
X92253Y-47629D01*
X92450Y-47432D01*
X92450Y-75416D01*
X92402Y-75377D01*
X92238Y-75329D01*
X92238Y-73345D01*
X92120Y-73058D01*
X92030Y-72968D01*
X92030Y-67345D01*
X91911Y-67058D01*
X91692Y-66839D01*
X91405Y-66720D01*
X91095Y-66719D01*
X90808Y-66838D01*
X90589Y-67057D01*
X90470Y-67344D01*
X90469Y-67654D01*
X90588Y-67941D01*
X90807Y-68160D01*
X91094Y-68279D01*
X91404Y-68280D01*
X91691Y-68161D01*
X91910Y-67942D01*
X92029Y-67655D01*
X92030Y-67345D01*
X92030Y-72968D01*
X91901Y-72839D01*
X91614Y-72720D01*
X91304Y-72719D01*
X91017Y-72838D01*
X90797Y-73057D01*
X90678Y-73344D01*
X90678Y-73654D01*
X90797Y-73941D01*
X91016Y-74160D01*
X91302Y-74279D01*
X91613Y-74280D01*
X91899Y-74161D01*
X92119Y-73942D01*
X92238Y-73655D01*
X92238Y-73345D01*
X92238Y-75329D01*
X92197Y-75317D01*
X92049Y-75317D01*
X92049Y-75812D01*
X92057Y-75812D01*
X92057Y-75912D01*
X92049Y-75912D01*
X92049Y-76407D01*
X92197Y-76407D01*
X92402Y-76346D01*
X92450Y-76307D01*
X92450Y-76712D01*
X92329Y-76632D01*
X92158Y-76598D01*
X91949Y-76598D01*
X91949Y-76407D01*
X91949Y-75912D01*
X91949Y-75812D01*
X91949Y-75317D01*
X91802Y-75317D01*
X91597Y-75377D01*
X91431Y-75512D01*
X91329Y-75699D01*
X91324Y-75727D01*
X91372Y-75812D01*
X91949Y-75812D01*
X91949Y-75912D01*
X91372Y-75912D01*
X91324Y-75996D01*
X91329Y-76024D01*
X91431Y-76212D01*
X91597Y-76346D01*
X91802Y-76407D01*
X91949Y-76407D01*
X91949Y-76598D01*
X91840Y-76598D01*
X91670Y-76632D01*
X91526Y-76728D01*
X91429Y-76873D01*
X91395Y-77043D01*
X91429Y-77213D01*
X91526Y-77357D01*
X91670Y-77454D01*
X91840Y-77488D01*
X92158Y-77488D01*
X92329Y-77454D01*
X92450Y-77373D01*
X92450Y-79974D01*
X92425Y-79967D01*
X92425Y-78165D01*
X92360Y-78009D01*
X92241Y-77889D01*
X92084Y-77825D01*
X91915Y-77824D01*
X91759Y-77889D01*
X91639Y-78008D01*
X91575Y-78165D01*
X91574Y-78334D01*
X91639Y-78490D01*
X91758Y-78610D01*
X91915Y-78674D01*
X92084Y-78675D01*
X92240Y-78610D01*
X92360Y-78491D01*
X92424Y-78334D01*
X92425Y-78165D01*
X92425Y-79967D01*
X92367Y-79952D01*
X92297Y-80023D01*
X92297Y-79882D01*
X92272Y-79789D01*
X92075Y-79720D01*
X91867Y-79731D01*
X91727Y-79789D01*
X91702Y-79882D01*
X92000Y-80179D01*
X92297Y-79882D01*
X92297Y-80023D01*
X92070Y-80250D01*
X92367Y-80547D01*
X92450Y-80525D01*
X92450Y-82317D01*
X92450Y-82317D01*
G37*
G54D31*
X92450Y-82317D02*
X92297Y-82164D01*
X92297Y-80617D01*
X92000Y-80320D01*
X91929Y-80391D01*
X91929Y-80250D01*
X91632Y-79952D01*
X91539Y-79977D01*
X91470Y-80174D01*
X91481Y-80382D01*
X91539Y-80522D01*
X91632Y-80547D01*
X91929Y-80250D01*
X91929Y-80391D01*
X91702Y-80617D01*
X91727Y-80710D01*
X91924Y-80779D01*
X92132Y-80768D01*
X92272Y-80710D01*
X92297Y-80617D01*
X92297Y-82164D01*
X92254Y-82122D01*
X91765Y-81919D01*
X91236Y-81918D01*
X91121Y-81966D01*
X91121Y-80737D01*
X91114Y-80403D01*
X90999Y-80124D01*
X90873Y-80061D01*
X90802Y-80131D01*
X90802Y-79990D01*
X90739Y-79865D01*
X90529Y-79782D01*
X90529Y-71325D01*
X90518Y-71117D01*
X90460Y-70977D01*
X90367Y-70952D01*
X90297Y-71023D01*
X90297Y-70882D01*
X90272Y-70789D01*
X90245Y-70779D01*
X90245Y-57858D01*
X90245Y-57486D01*
X90207Y-57297D01*
X90100Y-57136D01*
X89939Y-57029D01*
X89750Y-56991D01*
X89560Y-57029D01*
X89399Y-57136D01*
X89292Y-57297D01*
X89255Y-57486D01*
X89255Y-57858D01*
X89292Y-58047D01*
X89399Y-58208D01*
X89560Y-58315D01*
X89750Y-58353D01*
X89939Y-58315D01*
X90100Y-58208D01*
X90207Y-58047D01*
X90245Y-57858D01*
X90245Y-70779D01*
X90075Y-70720D01*
X89867Y-70731D01*
X89745Y-70782D01*
X89745Y-64108D01*
X89745Y-63736D01*
X89707Y-63547D01*
X89600Y-63386D01*
X89490Y-63313D01*
X89490Y-61515D01*
X89490Y-60925D01*
X89467Y-60870D01*
X89425Y-60827D01*
X89369Y-60805D01*
X89310Y-60804D01*
X88425Y-60804D01*
X88370Y-60827D01*
X88327Y-60869D01*
X88305Y-60925D01*
X88304Y-60984D01*
X88304Y-61574D01*
X88327Y-61629D01*
X88369Y-61672D01*
X88425Y-61694D01*
X88484Y-61695D01*
X89369Y-61695D01*
X89424Y-61672D01*
X89467Y-61630D01*
X89489Y-61574D01*
X89490Y-61515D01*
X89490Y-63313D01*
X89439Y-63279D01*
X89250Y-63241D01*
X89060Y-63279D01*
X88899Y-63386D01*
X88798Y-63538D01*
X88780Y-63476D01*
X88635Y-63293D01*
X88431Y-63181D01*
X88392Y-63172D01*
X88300Y-63219D01*
X88300Y-63872D01*
X88307Y-63872D01*
X88307Y-63972D01*
X88300Y-63972D01*
X88300Y-64625D01*
X88392Y-64672D01*
X88431Y-64663D01*
X88635Y-64551D01*
X88780Y-64368D01*
X88798Y-64306D01*
X88899Y-64458D01*
X89060Y-64565D01*
X89250Y-64603D01*
X89439Y-64565D01*
X89600Y-64458D01*
X89707Y-64297D01*
X89745Y-64108D01*
X89745Y-70782D01*
X89727Y-70789D01*
X89702Y-70882D01*
X90000Y-71179D01*
X90297Y-70882D01*
X90297Y-71023D01*
X90070Y-71250D01*
X90367Y-71547D01*
X90460Y-71522D01*
X90529Y-71325D01*
X90529Y-79782D01*
X90428Y-79743D01*
X90297Y-79745D01*
X90297Y-71617D01*
X90000Y-71320D01*
X89929Y-71391D01*
X89929Y-71250D01*
X89632Y-70952D01*
X89539Y-70977D01*
X89470Y-71174D01*
X89481Y-71382D01*
X89539Y-71522D01*
X89632Y-71547D01*
X89929Y-71250D01*
X89929Y-71391D01*
X89702Y-71617D01*
X89727Y-71710D01*
X89924Y-71779D01*
X90132Y-71768D01*
X90272Y-71710D01*
X90297Y-71617D01*
X90297Y-79745D01*
X90094Y-79749D01*
X89815Y-79865D01*
X89752Y-79990D01*
X90277Y-80515D01*
X90802Y-79990D01*
X90802Y-80131D01*
X90348Y-80586D01*
X90873Y-81111D01*
X90999Y-81049D01*
X91121Y-80737D01*
X91121Y-81966D01*
X90802Y-82097D01*
X90802Y-81182D01*
X90277Y-80657D01*
X90206Y-80728D01*
X90206Y-80586D01*
X89681Y-80061D01*
X89556Y-80124D01*
X89433Y-80435D01*
X89440Y-80769D01*
X89556Y-81049D01*
X89681Y-81111D01*
X90206Y-80586D01*
X90206Y-80728D01*
X89752Y-81182D01*
X89815Y-81308D01*
X90126Y-81430D01*
X90460Y-81423D01*
X90739Y-81308D01*
X90802Y-81182D01*
X90802Y-82097D01*
X90746Y-82120D01*
X90372Y-82495D01*
X90169Y-82984D01*
X90168Y-83513D01*
X90370Y-84003D01*
X90567Y-84200D01*
X88425Y-84200D01*
X88425Y-71165D01*
X88360Y-71009D01*
X88278Y-70927D01*
X88278Y-61384D01*
X88278Y-61115D01*
X88272Y-61087D01*
X88245Y-61036D01*
X88245Y-58858D01*
X88245Y-58486D01*
X88207Y-58297D01*
X88100Y-58136D01*
X87939Y-58029D01*
X87750Y-57991D01*
X87560Y-58029D01*
X87399Y-58136D01*
X87292Y-58297D01*
X87255Y-58486D01*
X87255Y-58858D01*
X87292Y-59047D01*
X87399Y-59208D01*
X87560Y-59315D01*
X87750Y-59353D01*
X87939Y-59315D01*
X88100Y-59208D01*
X88207Y-59047D01*
X88245Y-58858D01*
X88245Y-61036D01*
X88170Y-60899D01*
X88004Y-60765D01*
X87800Y-60705D01*
X87652Y-60705D01*
X87652Y-61200D01*
X88229Y-61200D01*
X88278Y-61115D01*
X88278Y-61384D01*
X88229Y-61300D01*
X87652Y-61300D01*
X87652Y-61795D01*
X87800Y-61795D01*
X88004Y-61734D01*
X88170Y-61600D01*
X88272Y-61412D01*
X88278Y-61384D01*
X88278Y-70927D01*
X88241Y-70889D01*
X88200Y-70872D01*
X88200Y-64625D01*
X88200Y-63972D01*
X88192Y-63972D01*
X88192Y-63872D01*
X88200Y-63872D01*
X88200Y-63219D01*
X88107Y-63172D01*
X88068Y-63181D01*
X87864Y-63293D01*
X87745Y-63443D01*
X87745Y-63375D01*
X87722Y-63320D01*
X87680Y-63277D01*
X87624Y-63255D01*
X87565Y-63254D01*
X87552Y-63254D01*
X87552Y-61795D01*
X87552Y-61300D01*
X87552Y-61200D01*
X87552Y-60705D01*
X87405Y-60705D01*
X87200Y-60765D01*
X87034Y-60899D01*
X86932Y-61087D01*
X86926Y-61115D01*
X86975Y-61200D01*
X87552Y-61200D01*
X87552Y-61300D01*
X86975Y-61300D01*
X86926Y-61384D01*
X86932Y-61412D01*
X87034Y-61600D01*
X87200Y-61734D01*
X87405Y-61795D01*
X87552Y-61795D01*
X87552Y-63254D01*
X86875Y-63254D01*
X86820Y-63277D01*
X86777Y-63319D01*
X86755Y-63375D01*
X86754Y-63434D01*
X86754Y-64469D01*
X86777Y-64524D01*
X86819Y-64567D01*
X86875Y-64589D01*
X86934Y-64590D01*
X87624Y-64590D01*
X87679Y-64567D01*
X87722Y-64525D01*
X87744Y-64469D01*
X87745Y-64410D01*
X87745Y-64401D01*
X87864Y-64551D01*
X88068Y-64663D01*
X88107Y-64672D01*
X88200Y-64625D01*
X88200Y-70872D01*
X88084Y-70825D01*
X87915Y-70824D01*
X87759Y-70889D01*
X87639Y-71008D01*
X87575Y-71165D01*
X87574Y-71334D01*
X87639Y-71490D01*
X87758Y-71610D01*
X87915Y-71674D01*
X88084Y-71675D01*
X88240Y-71610D01*
X88360Y-71491D01*
X88424Y-71334D01*
X88425Y-71165D01*
X88425Y-84200D01*
X88047Y-84200D01*
X88170Y-84100D01*
X88272Y-83912D01*
X88278Y-83884D01*
X88278Y-83615D01*
X88272Y-83587D01*
X88170Y-83399D01*
X88004Y-83265D01*
X87800Y-83205D01*
X87652Y-83205D01*
X87652Y-83700D01*
X88229Y-83700D01*
X88278Y-83615D01*
X88278Y-83884D01*
X88229Y-83800D01*
X87652Y-83800D01*
X87652Y-83807D01*
X87552Y-83807D01*
X87552Y-83800D01*
X87552Y-83700D01*
X87552Y-83205D01*
X87405Y-83205D01*
X87345Y-83222D01*
X87345Y-71395D01*
X87345Y-71222D01*
X87345Y-71122D01*
X87345Y-70950D01*
X87280Y-70726D01*
X87135Y-70543D01*
X86931Y-70431D01*
X86892Y-70422D01*
X86800Y-70469D01*
X86800Y-71122D01*
X87345Y-71122D01*
X87345Y-71222D01*
X86800Y-71222D01*
X86800Y-71875D01*
X86892Y-71922D01*
X86931Y-71913D01*
X87135Y-71801D01*
X87280Y-71618D01*
X87345Y-71395D01*
X87345Y-83222D01*
X87295Y-83237D01*
X87295Y-81345D01*
X87295Y-81197D01*
X87295Y-81097D01*
X87295Y-80950D01*
X87234Y-80745D01*
X87100Y-80579D01*
X86912Y-80477D01*
X86884Y-80471D01*
X86800Y-80520D01*
X86800Y-81097D01*
X87295Y-81097D01*
X87295Y-81197D01*
X86800Y-81197D01*
X86800Y-81774D01*
X86884Y-81823D01*
X86912Y-81817D01*
X87100Y-81715D01*
X87234Y-81549D01*
X87295Y-81345D01*
X87295Y-83237D01*
X87200Y-83265D01*
X87034Y-83399D01*
X86932Y-83587D01*
X86926Y-83615D01*
X86975Y-83700D01*
X87552Y-83700D01*
X87552Y-83800D01*
X86975Y-83800D01*
X86926Y-83884D01*
X86932Y-83912D01*
X87034Y-84100D01*
X87157Y-84200D01*
X86700Y-84200D01*
X86700Y-81774D01*
X86700Y-81197D01*
X86700Y-81097D01*
X86700Y-80520D01*
X86700Y-71875D01*
X86700Y-71222D01*
X86692Y-71222D01*
X86692Y-71122D01*
X86700Y-71122D01*
X86700Y-70469D01*
X86607Y-70422D01*
X86568Y-70431D01*
X86364Y-70543D01*
X86345Y-70568D01*
X86345Y-58239D01*
X86345Y-57105D01*
X86307Y-57013D01*
X86236Y-56943D01*
X86144Y-56905D01*
X86045Y-56904D01*
X85862Y-56905D01*
X85800Y-56967D01*
X85800Y-57622D01*
X86282Y-57622D01*
X86345Y-57560D01*
X86345Y-57105D01*
X86345Y-58239D01*
X86345Y-57785D01*
X86282Y-57722D01*
X85800Y-57722D01*
X85800Y-58377D01*
X85862Y-58440D01*
X86045Y-58440D01*
X86144Y-58439D01*
X86236Y-58401D01*
X86307Y-58331D01*
X86345Y-58239D01*
X86345Y-70568D01*
X86295Y-70631D01*
X86295Y-60800D01*
X86295Y-60652D01*
X86295Y-60552D01*
X86295Y-60405D01*
X86234Y-60200D01*
X86100Y-60034D01*
X85912Y-59932D01*
X85884Y-59926D01*
X85800Y-59975D01*
X85800Y-60552D01*
X86295Y-60552D01*
X86295Y-60652D01*
X85800Y-60652D01*
X85800Y-61229D01*
X85884Y-61278D01*
X85912Y-61272D01*
X86100Y-61170D01*
X86234Y-61004D01*
X86295Y-60800D01*
X86295Y-70631D01*
X86219Y-70726D01*
X86201Y-70788D01*
X86195Y-70779D01*
X86195Y-62310D01*
X86195Y-61425D01*
X86172Y-61370D01*
X86130Y-61327D01*
X86074Y-61305D01*
X86015Y-61304D01*
X85700Y-61304D01*
X85700Y-61229D01*
X85700Y-60652D01*
X85700Y-60552D01*
X85700Y-59975D01*
X85700Y-58377D01*
X85700Y-57722D01*
X85700Y-57622D01*
X85700Y-56967D01*
X85637Y-56905D01*
X85454Y-56904D01*
X85355Y-56905D01*
X85263Y-56943D01*
X85192Y-57013D01*
X85154Y-57105D01*
X85155Y-57560D01*
X85217Y-57622D01*
X85700Y-57622D01*
X85700Y-57722D01*
X85217Y-57722D01*
X85155Y-57785D01*
X85154Y-58239D01*
X85192Y-58331D01*
X85263Y-58401D01*
X85355Y-58439D01*
X85454Y-58440D01*
X85637Y-58440D01*
X85700Y-58377D01*
X85700Y-59975D01*
X85615Y-59926D01*
X85587Y-59932D01*
X85399Y-60034D01*
X85265Y-60200D01*
X85205Y-60405D01*
X85205Y-60552D01*
X85700Y-60552D01*
X85700Y-60652D01*
X85205Y-60652D01*
X85205Y-60800D01*
X85265Y-61004D01*
X85399Y-61170D01*
X85587Y-61272D01*
X85615Y-61278D01*
X85700Y-61229D01*
X85700Y-61304D01*
X85425Y-61304D01*
X85370Y-61327D01*
X85327Y-61369D01*
X85305Y-61425D01*
X85304Y-61484D01*
X85304Y-62369D01*
X85327Y-62424D01*
X85369Y-62467D01*
X85425Y-62489D01*
X85484Y-62490D01*
X86074Y-62490D01*
X86129Y-62467D01*
X86172Y-62425D01*
X86194Y-62369D01*
X86195Y-62310D01*
X86195Y-70779D01*
X86100Y-70636D01*
X85939Y-70529D01*
X85750Y-70491D01*
X85560Y-70529D01*
X85399Y-70636D01*
X85292Y-70797D01*
X85255Y-70986D01*
X85255Y-71358D01*
X85292Y-71547D01*
X85399Y-71708D01*
X85560Y-71815D01*
X85750Y-71853D01*
X85939Y-71815D01*
X86100Y-71708D01*
X86201Y-71556D01*
X86219Y-71618D01*
X86364Y-71801D01*
X86568Y-71913D01*
X86607Y-71922D01*
X86700Y-71875D01*
X86700Y-80520D01*
X86615Y-80471D01*
X86587Y-80477D01*
X86399Y-80579D01*
X86265Y-80745D01*
X86250Y-80798D01*
X86234Y-80745D01*
X86100Y-80579D01*
X85912Y-80477D01*
X85884Y-80471D01*
X85800Y-80520D01*
X85800Y-81097D01*
X86205Y-81097D01*
X86295Y-81097D01*
X86700Y-81097D01*
X86700Y-81197D01*
X86295Y-81197D01*
X86205Y-81197D01*
X85800Y-81197D01*
X85800Y-81774D01*
X85884Y-81823D01*
X85912Y-81817D01*
X86100Y-81715D01*
X86234Y-81549D01*
X86250Y-81496D01*
X86265Y-81549D01*
X86399Y-81715D01*
X86587Y-81817D01*
X86615Y-81823D01*
X86700Y-81774D01*
X86700Y-84200D01*
X85700Y-84200D01*
X85700Y-81774D01*
X85700Y-81197D01*
X85700Y-81097D01*
X85700Y-80520D01*
X85615Y-80471D01*
X85587Y-80477D01*
X85399Y-80579D01*
X85265Y-80745D01*
X85245Y-80814D01*
X85245Y-71660D01*
X85245Y-70625D01*
X85222Y-70570D01*
X85180Y-70527D01*
X85124Y-70505D01*
X85065Y-70504D01*
X84745Y-70504D01*
X84745Y-64108D01*
X84745Y-63736D01*
X84707Y-63547D01*
X84600Y-63386D01*
X84573Y-63368D01*
X84573Y-61384D01*
X84573Y-61115D01*
X84567Y-61087D01*
X84465Y-60899D01*
X84299Y-60765D01*
X84095Y-60705D01*
X83947Y-60705D01*
X83947Y-61200D01*
X84524Y-61200D01*
X84573Y-61115D01*
X84573Y-61384D01*
X84524Y-61300D01*
X83947Y-61300D01*
X83947Y-61795D01*
X84095Y-61795D01*
X84299Y-61734D01*
X84465Y-61600D01*
X84567Y-61412D01*
X84573Y-61384D01*
X84573Y-63368D01*
X84439Y-63279D01*
X84250Y-63241D01*
X84060Y-63279D01*
X83899Y-63386D01*
X83847Y-63465D01*
X83847Y-61795D01*
X83847Y-61300D01*
X83847Y-61200D01*
X83847Y-60705D01*
X83700Y-60705D01*
X83495Y-60765D01*
X83329Y-60899D01*
X83227Y-61087D01*
X83221Y-61115D01*
X83270Y-61200D01*
X83847Y-61200D01*
X83847Y-61300D01*
X83270Y-61300D01*
X83221Y-61384D01*
X83227Y-61412D01*
X83329Y-61600D01*
X83495Y-61734D01*
X83700Y-61795D01*
X83847Y-61795D01*
X83847Y-63465D01*
X83798Y-63538D01*
X83780Y-63476D01*
X83635Y-63293D01*
X83431Y-63181D01*
X83392Y-63172D01*
X83300Y-63219D01*
X83300Y-63872D01*
X83307Y-63872D01*
X83307Y-63972D01*
X83300Y-63972D01*
X83300Y-64625D01*
X83392Y-64672D01*
X83431Y-64663D01*
X83635Y-64551D01*
X83780Y-64368D01*
X83798Y-64306D01*
X83899Y-64458D01*
X84060Y-64565D01*
X84250Y-64603D01*
X84439Y-64565D01*
X84600Y-64458D01*
X84707Y-64297D01*
X84745Y-64108D01*
X84745Y-70504D01*
X84375Y-70504D01*
X84320Y-70527D01*
X84277Y-70569D01*
X84255Y-70625D01*
X84254Y-70684D01*
X84254Y-71719D01*
X84277Y-71774D01*
X84319Y-71817D01*
X84375Y-71839D01*
X84434Y-71840D01*
X85124Y-71840D01*
X85179Y-71817D01*
X85222Y-71775D01*
X85244Y-71719D01*
X85245Y-71660D01*
X85245Y-80814D01*
X85205Y-80950D01*
X85205Y-81097D01*
X85700Y-81097D01*
X85700Y-81197D01*
X85205Y-81197D01*
X85205Y-81345D01*
X85265Y-81549D01*
X85399Y-81715D01*
X85587Y-81817D01*
X85615Y-81823D01*
X85700Y-81774D01*
X85700Y-84200D01*
X85195Y-84200D01*
X85195Y-81560D01*
X85195Y-80675D01*
X85172Y-80620D01*
X85130Y-80577D01*
X85074Y-80555D01*
X85015Y-80554D01*
X84425Y-80554D01*
X84370Y-80577D01*
X84327Y-80619D01*
X84305Y-80675D01*
X84304Y-80734D01*
X84304Y-81619D01*
X84327Y-81674D01*
X84369Y-81717D01*
X84425Y-81739D01*
X84484Y-81740D01*
X85074Y-81740D01*
X85129Y-81717D01*
X85172Y-81675D01*
X85194Y-81619D01*
X85195Y-81560D01*
X85195Y-84200D01*
X84501Y-84200D01*
X84501Y-83750D01*
X84467Y-83579D01*
X84371Y-83435D01*
X84226Y-83338D01*
X84056Y-83305D01*
X83738Y-83305D01*
X83568Y-83338D01*
X83423Y-83435D01*
X83327Y-83579D01*
X83293Y-83750D01*
X83327Y-83920D01*
X83423Y-84064D01*
X83568Y-84161D01*
X83738Y-84195D01*
X84056Y-84195D01*
X84226Y-84161D01*
X84371Y-84064D01*
X84467Y-83920D01*
X84501Y-83750D01*
X84501Y-84200D01*
X83200Y-84200D01*
X83200Y-64625D01*
X83200Y-63972D01*
X83192Y-63972D01*
X83192Y-63872D01*
X83200Y-63872D01*
X83200Y-63219D01*
X83195Y-63217D01*
X83195Y-61515D01*
X83195Y-60925D01*
X83172Y-60870D01*
X83130Y-60827D01*
X83074Y-60805D01*
X83015Y-60804D01*
X82823Y-60804D01*
X82823Y-53884D01*
X82823Y-53615D01*
X82817Y-53587D01*
X82715Y-53399D01*
X82549Y-53265D01*
X82345Y-53205D01*
X82197Y-53205D01*
X82197Y-53700D01*
X82774Y-53700D01*
X82823Y-53615D01*
X82823Y-53884D01*
X82774Y-53800D01*
X82197Y-53800D01*
X82197Y-54295D01*
X82345Y-54295D01*
X82549Y-54234D01*
X82715Y-54100D01*
X82817Y-53912D01*
X82823Y-53884D01*
X82823Y-60804D01*
X82130Y-60804D01*
X82097Y-60818D01*
X82097Y-54295D01*
X82097Y-53800D01*
X82097Y-53700D01*
X82097Y-53205D01*
X81950Y-53205D01*
X81745Y-53265D01*
X81579Y-53399D01*
X81477Y-53587D01*
X81471Y-53615D01*
X81520Y-53700D01*
X82097Y-53700D01*
X82097Y-53800D01*
X81520Y-53800D01*
X81471Y-53884D01*
X81477Y-53912D01*
X81579Y-54100D01*
X81745Y-54234D01*
X81950Y-54295D01*
X82097Y-54295D01*
X82097Y-60818D01*
X82075Y-60827D01*
X82032Y-60869D01*
X82010Y-60925D01*
X82009Y-60984D01*
X82009Y-61574D01*
X82032Y-61629D01*
X82074Y-61672D01*
X82130Y-61694D01*
X82189Y-61695D01*
X83074Y-61695D01*
X83129Y-61672D01*
X83172Y-61630D01*
X83194Y-61574D01*
X83195Y-61515D01*
X83195Y-63217D01*
X83107Y-63172D01*
X83068Y-63181D01*
X82864Y-63293D01*
X82745Y-63443D01*
X82745Y-63375D01*
X82722Y-63320D01*
X82680Y-63277D01*
X82624Y-63255D01*
X82565Y-63254D01*
X81875Y-63254D01*
X81820Y-63277D01*
X81777Y-63319D01*
X81755Y-63375D01*
X81754Y-63434D01*
X81754Y-64469D01*
X81777Y-64524D01*
X81819Y-64567D01*
X81875Y-64589D01*
X81934Y-64590D01*
X82624Y-64590D01*
X82679Y-64567D01*
X82722Y-64525D01*
X82744Y-64469D01*
X82745Y-64410D01*
X82745Y-64401D01*
X82864Y-64551D01*
X83068Y-64663D01*
X83107Y-64672D01*
X83200Y-64625D01*
X83200Y-84200D01*
X82105Y-84200D01*
X82207Y-84047D01*
X82245Y-83858D01*
X82245Y-83486D01*
X82207Y-83297D01*
X82100Y-83136D01*
X81939Y-83029D01*
X81765Y-82995D01*
X82124Y-82995D01*
X82179Y-82972D01*
X82222Y-82930D01*
X82244Y-82874D01*
X82245Y-82815D01*
X82245Y-81780D01*
X82222Y-81725D01*
X82180Y-81682D01*
X82124Y-81660D01*
X82065Y-81659D01*
X81963Y-81659D01*
X81963Y-80439D01*
X81850Y-80167D01*
X81642Y-79959D01*
X81445Y-79877D01*
X81445Y-54015D01*
X81445Y-53425D01*
X81422Y-53370D01*
X81380Y-53327D01*
X81324Y-53305D01*
X81265Y-53304D01*
X80380Y-53304D01*
X80325Y-53327D01*
X80282Y-53369D01*
X80260Y-53425D01*
X80259Y-53484D01*
X80259Y-54074D01*
X80282Y-54129D01*
X80324Y-54172D01*
X80380Y-54194D01*
X80439Y-54195D01*
X81324Y-54195D01*
X81379Y-54172D01*
X81422Y-54130D01*
X81444Y-54074D01*
X81445Y-54015D01*
X81445Y-79877D01*
X81370Y-79846D01*
X81075Y-79845D01*
X81030Y-79864D01*
X81030Y-67345D01*
X80911Y-67058D01*
X80692Y-66839D01*
X80405Y-66720D01*
X80195Y-66720D01*
X80195Y-55761D01*
X80195Y-55443D01*
X80195Y-52056D01*
X80195Y-51738D01*
X80161Y-51568D01*
X80064Y-51423D01*
X79920Y-51327D01*
X79750Y-51293D01*
X79579Y-51327D01*
X79435Y-51423D01*
X79338Y-51568D01*
X79305Y-51738D01*
X79305Y-52056D01*
X79338Y-52226D01*
X79435Y-52371D01*
X79579Y-52467D01*
X79750Y-52501D01*
X79920Y-52467D01*
X80064Y-52371D01*
X80161Y-52226D01*
X80195Y-52056D01*
X80195Y-55443D01*
X80161Y-55273D01*
X80064Y-55128D01*
X79920Y-55032D01*
X79750Y-54998D01*
X79579Y-55032D01*
X79435Y-55128D01*
X79338Y-55273D01*
X79305Y-55443D01*
X79305Y-55761D01*
X79338Y-55931D01*
X79435Y-56076D01*
X79579Y-56172D01*
X79750Y-56206D01*
X79920Y-56172D01*
X80064Y-56076D01*
X80161Y-55931D01*
X80195Y-55761D01*
X80195Y-66720D01*
X80095Y-66719D01*
X79808Y-66838D01*
X79589Y-67057D01*
X79470Y-67344D01*
X79469Y-67654D01*
X79588Y-67941D01*
X79807Y-68160D01*
X80094Y-68279D01*
X80404Y-68280D01*
X80691Y-68161D01*
X80910Y-67942D01*
X81029Y-67655D01*
X81030Y-67345D01*
X81030Y-79864D01*
X80821Y-79951D01*
X80821Y-73345D01*
X80702Y-73058D01*
X80483Y-72839D01*
X80197Y-72720D01*
X79886Y-72719D01*
X79600Y-72838D01*
X79380Y-73057D01*
X79261Y-73344D01*
X79261Y-73654D01*
X79379Y-73941D01*
X79598Y-74160D01*
X79885Y-74279D01*
X80195Y-74280D01*
X80482Y-74161D01*
X80702Y-73942D01*
X80821Y-73655D01*
X80821Y-73345D01*
X80821Y-79951D01*
X80803Y-79958D01*
X80594Y-80166D01*
X80482Y-80438D01*
X80481Y-80733D01*
X80594Y-81005D01*
X80802Y-81214D01*
X81074Y-81327D01*
X81369Y-81327D01*
X81641Y-81214D01*
X81849Y-81006D01*
X81962Y-80734D01*
X81963Y-80439D01*
X81963Y-81659D01*
X81375Y-81659D01*
X81320Y-81682D01*
X81277Y-81724D01*
X81255Y-81780D01*
X81254Y-81839D01*
X81254Y-82874D01*
X81277Y-82929D01*
X81319Y-82972D01*
X81375Y-82994D01*
X81434Y-82995D01*
X81734Y-82995D01*
X81560Y-83029D01*
X81399Y-83136D01*
X81292Y-83297D01*
X81255Y-83486D01*
X81255Y-83858D01*
X81292Y-84047D01*
X81394Y-84200D01*
X79195Y-84200D01*
X79195Y-52515D01*
X79195Y-51630D01*
X79172Y-51575D01*
X79130Y-51532D01*
X79074Y-51510D01*
X79015Y-51509D01*
X78425Y-51509D01*
X78370Y-51532D01*
X78327Y-51574D01*
X78305Y-51630D01*
X78304Y-51689D01*
X78304Y-52574D01*
X78327Y-52629D01*
X78369Y-52672D01*
X78425Y-52694D01*
X78484Y-52695D01*
X79074Y-52695D01*
X79129Y-52672D01*
X79172Y-52630D01*
X79194Y-52574D01*
X79195Y-52515D01*
X79195Y-84200D01*
X79195Y-84200D01*
X79195Y-55556D01*
X79195Y-55238D01*
X79161Y-55068D01*
X79064Y-54923D01*
X78920Y-54827D01*
X78750Y-54793D01*
X78579Y-54827D01*
X78435Y-54923D01*
X78338Y-55068D01*
X78305Y-55238D01*
X78305Y-55556D01*
X78338Y-55726D01*
X78435Y-55871D01*
X78579Y-55967D01*
X78750Y-56001D01*
X78920Y-55967D01*
X79064Y-55871D01*
X79161Y-55726D01*
X79195Y-55556D01*
X79195Y-84200D01*
X77386Y-84200D01*
X78103Y-83904D01*
X78652Y-83356D01*
X78949Y-82639D01*
X78950Y-81863D01*
X78654Y-81146D01*
X78195Y-80686D01*
X78195Y-52515D01*
X78195Y-51630D01*
X78172Y-51575D01*
X78130Y-51532D01*
X78074Y-51510D01*
X78015Y-51509D01*
X77425Y-51509D01*
X77370Y-51532D01*
X77327Y-51574D01*
X77305Y-51630D01*
X77304Y-51689D01*
X77304Y-52574D01*
X77327Y-52629D01*
X77369Y-52672D01*
X77425Y-52694D01*
X77484Y-52695D01*
X78074Y-52695D01*
X78129Y-52672D01*
X78172Y-52630D01*
X78194Y-52574D01*
X78195Y-52515D01*
X78195Y-80686D01*
X78195Y-80686D01*
X78195Y-55556D01*
X78195Y-55238D01*
X78161Y-55068D01*
X78064Y-54923D01*
X77920Y-54827D01*
X77750Y-54793D01*
X77579Y-54827D01*
X77435Y-54923D01*
X77384Y-55000D01*
X76853Y-55000D01*
X76426Y-54573D01*
X76345Y-54519D01*
X76250Y-54500D01*
X75603Y-54500D01*
X75603Y-53750D01*
X75603Y-52750D01*
X75565Y-52560D01*
X75458Y-52399D01*
X75297Y-52292D01*
X75108Y-52255D01*
X74736Y-52255D01*
X74547Y-52292D01*
X74386Y-52399D01*
X74279Y-52560D01*
X74241Y-52750D01*
X74279Y-52939D01*
X74386Y-53100D01*
X74547Y-53207D01*
X74736Y-53245D01*
X75108Y-53245D01*
X75297Y-53207D01*
X75458Y-53100D01*
X75565Y-52939D01*
X75603Y-52750D01*
X75603Y-53750D01*
X75565Y-53560D01*
X75458Y-53399D01*
X75297Y-53292D01*
X75108Y-53255D01*
X74736Y-53255D01*
X74547Y-53292D01*
X74386Y-53399D01*
X74279Y-53560D01*
X74241Y-53750D01*
X74279Y-53939D01*
X74386Y-54100D01*
X74547Y-54207D01*
X74736Y-54245D01*
X75108Y-54245D01*
X75297Y-54207D01*
X75458Y-54100D01*
X75565Y-53939D01*
X75603Y-53750D01*
X75603Y-54500D01*
X75590Y-54500D01*
X75590Y-54375D01*
X75567Y-54320D01*
X75525Y-54277D01*
X75469Y-54255D01*
X75410Y-54254D01*
X74375Y-54254D01*
X74320Y-54277D01*
X74277Y-54319D01*
X74255Y-54375D01*
X74254Y-54434D01*
X74254Y-55124D01*
X74277Y-55179D01*
X74319Y-55222D01*
X74375Y-55244D01*
X74434Y-55245D01*
X75469Y-55245D01*
X75524Y-55222D01*
X75567Y-55180D01*
X75589Y-55124D01*
X75590Y-55065D01*
X75590Y-55000D01*
X76146Y-55000D01*
X76573Y-55426D01*
X76654Y-55480D01*
X76750Y-55500D01*
X77305Y-55500D01*
X77305Y-55556D01*
X77338Y-55726D01*
X77435Y-55871D01*
X77579Y-55967D01*
X77750Y-56001D01*
X77920Y-55967D01*
X78064Y-55871D01*
X78161Y-55726D01*
X78195Y-55556D01*
X78195Y-80686D01*
X78106Y-80597D01*
X77839Y-80487D01*
X77839Y-72833D01*
X77839Y-70963D01*
X77711Y-70655D01*
X77475Y-70419D01*
X77167Y-70291D01*
X76833Y-70290D01*
X76525Y-70418D01*
X76289Y-70654D01*
X76161Y-70962D01*
X76160Y-71296D01*
X76288Y-71604D01*
X76524Y-71840D01*
X76832Y-71968D01*
X77166Y-71969D01*
X77474Y-71841D01*
X77710Y-71605D01*
X77838Y-71297D01*
X77839Y-70963D01*
X77839Y-72833D01*
X77711Y-72525D01*
X77475Y-72289D01*
X77167Y-72161D01*
X76833Y-72160D01*
X76525Y-72288D01*
X76289Y-72524D01*
X76161Y-72832D01*
X76160Y-73166D01*
X76288Y-73474D01*
X76524Y-73710D01*
X76832Y-73838D01*
X77166Y-73839D01*
X77474Y-73711D01*
X77710Y-73475D01*
X77838Y-73167D01*
X77839Y-72833D01*
X77839Y-80487D01*
X77839Y-80486D01*
X77839Y-75529D01*
X77839Y-74151D01*
X77816Y-74096D01*
X77774Y-74054D01*
X77718Y-74031D01*
X77659Y-74031D01*
X76281Y-74031D01*
X76226Y-74053D01*
X76183Y-74096D01*
X76161Y-74151D01*
X76160Y-74210D01*
X76160Y-75588D01*
X76183Y-75643D01*
X76225Y-75686D01*
X76281Y-75709D01*
X76340Y-75709D01*
X77718Y-75709D01*
X77773Y-75686D01*
X77816Y-75644D01*
X77838Y-75589D01*
X77839Y-75529D01*
X77839Y-80486D01*
X77389Y-80300D01*
X76613Y-80299D01*
X75896Y-80595D01*
X75347Y-81143D01*
X75050Y-81860D01*
X75049Y-82636D01*
X75345Y-83353D01*
X75893Y-83902D01*
X76610Y-84199D01*
X76999Y-84200D01*
X74490Y-84200D01*
X74490Y-71265D01*
X74490Y-70675D01*
X74490Y-69015D01*
X74490Y-68425D01*
X74467Y-68370D01*
X74425Y-68327D01*
X74369Y-68305D01*
X74310Y-68304D01*
X74200Y-68304D01*
X74200Y-58561D01*
X74200Y-48561D01*
X74055Y-48212D01*
X73788Y-47945D01*
X73439Y-47800D01*
X73061Y-47799D01*
X72712Y-47944D01*
X72445Y-48211D01*
X72300Y-48560D01*
X72299Y-48938D01*
X72444Y-49287D01*
X72711Y-49554D01*
X73060Y-49699D01*
X73438Y-49700D01*
X73787Y-49555D01*
X74054Y-49288D01*
X74199Y-48939D01*
X74200Y-48561D01*
X74200Y-58561D01*
X74055Y-58212D01*
X73788Y-57945D01*
X73439Y-57800D01*
X73061Y-57799D01*
X72712Y-57944D01*
X72445Y-58211D01*
X72300Y-58560D01*
X72299Y-58938D01*
X72444Y-59287D01*
X72711Y-59554D01*
X73060Y-59699D01*
X73438Y-59700D01*
X73787Y-59555D01*
X74054Y-59288D01*
X74199Y-58939D01*
X74200Y-58561D01*
X74200Y-68304D01*
X73425Y-68304D01*
X73370Y-68327D01*
X73327Y-68369D01*
X73305Y-68425D01*
X73304Y-68484D01*
X73304Y-69074D01*
X73327Y-69129D01*
X73369Y-69172D01*
X73425Y-69194D01*
X73484Y-69195D01*
X74369Y-69195D01*
X74424Y-69172D01*
X74467Y-69130D01*
X74489Y-69074D01*
X74490Y-69015D01*
X74490Y-70675D01*
X74467Y-70620D01*
X74425Y-70577D01*
X74369Y-70555D01*
X74310Y-70554D01*
X73425Y-70554D01*
X73370Y-70577D01*
X73327Y-70619D01*
X73305Y-70675D01*
X73304Y-70734D01*
X73304Y-71324D01*
X73327Y-71379D01*
X73369Y-71422D01*
X73425Y-71444D01*
X73484Y-71445D01*
X74369Y-71445D01*
X74424Y-71422D01*
X74467Y-71380D01*
X74489Y-71324D01*
X74490Y-71265D01*
X74490Y-84200D01*
X73278Y-84200D01*
X73278Y-71134D01*
X73278Y-70865D01*
X73278Y-68884D01*
X73278Y-68615D01*
X73272Y-68587D01*
X73170Y-68399D01*
X73004Y-68265D01*
X72800Y-68205D01*
X72652Y-68205D01*
X72652Y-68700D01*
X73229Y-68700D01*
X73278Y-68615D01*
X73278Y-68884D01*
X73229Y-68800D01*
X72652Y-68800D01*
X72652Y-69295D01*
X72800Y-69295D01*
X73004Y-69234D01*
X73170Y-69100D01*
X73272Y-68912D01*
X73278Y-68884D01*
X73278Y-70865D01*
X73272Y-70837D01*
X73170Y-70649D01*
X73004Y-70515D01*
X72800Y-70455D01*
X72652Y-70455D01*
X72652Y-70950D01*
X73229Y-70950D01*
X73278Y-70865D01*
X73278Y-71134D01*
X73229Y-71050D01*
X72652Y-71050D01*
X72652Y-71545D01*
X72800Y-71545D01*
X73004Y-71484D01*
X73170Y-71350D01*
X73272Y-71162D01*
X73278Y-71134D01*
X73278Y-84200D01*
X72552Y-84200D01*
X72552Y-71545D01*
X72552Y-71050D01*
X72552Y-70950D01*
X72552Y-70455D01*
X72552Y-69295D01*
X72552Y-68800D01*
X72552Y-68700D01*
X72552Y-68205D01*
X72405Y-68205D01*
X72258Y-68248D01*
X72258Y-54750D01*
X72220Y-54560D01*
X72113Y-54399D01*
X71952Y-54292D01*
X71763Y-54255D01*
X71391Y-54255D01*
X71202Y-54292D01*
X71041Y-54399D01*
X70934Y-54560D01*
X70896Y-54750D01*
X70934Y-54939D01*
X71041Y-55100D01*
X71202Y-55207D01*
X71391Y-55245D01*
X71763Y-55245D01*
X71952Y-55207D01*
X72113Y-55100D01*
X72220Y-54939D01*
X72258Y-54750D01*
X72258Y-68248D01*
X72200Y-68265D01*
X72034Y-68399D01*
X71932Y-68587D01*
X71926Y-68615D01*
X71975Y-68700D01*
X72552Y-68700D01*
X72552Y-68800D01*
X71975Y-68800D01*
X71926Y-68884D01*
X71932Y-68912D01*
X72034Y-69100D01*
X72200Y-69234D01*
X72405Y-69295D01*
X72552Y-69295D01*
X72552Y-70455D01*
X72405Y-70455D01*
X72200Y-70515D01*
X72034Y-70649D01*
X71932Y-70837D01*
X71926Y-70865D01*
X71975Y-70950D01*
X72552Y-70950D01*
X72552Y-71050D01*
X71975Y-71050D01*
X71926Y-71134D01*
X71932Y-71162D01*
X72034Y-71350D01*
X72200Y-71484D01*
X72405Y-71545D01*
X72552Y-71545D01*
X72552Y-84200D01*
X72508Y-84200D01*
X72508Y-77250D01*
X72508Y-75750D01*
X72508Y-74250D01*
X72508Y-72750D01*
X72470Y-72560D01*
X72363Y-72399D01*
X72202Y-72292D01*
X72013Y-72255D01*
X71641Y-72255D01*
X71452Y-72292D01*
X71291Y-72399D01*
X71184Y-72560D01*
X71146Y-72750D01*
X71184Y-72939D01*
X71291Y-73100D01*
X71452Y-73207D01*
X71641Y-73245D01*
X72013Y-73245D01*
X72202Y-73207D01*
X72363Y-73100D01*
X72470Y-72939D01*
X72508Y-72750D01*
X72508Y-74250D01*
X72470Y-74060D01*
X72363Y-73899D01*
X72202Y-73792D01*
X72013Y-73755D01*
X71641Y-73755D01*
X71452Y-73792D01*
X71291Y-73899D01*
X71184Y-74060D01*
X71146Y-74250D01*
X71184Y-74439D01*
X71291Y-74600D01*
X71452Y-74707D01*
X71641Y-74745D01*
X72013Y-74745D01*
X72202Y-74707D01*
X72363Y-74600D01*
X72470Y-74439D01*
X72508Y-74250D01*
X72508Y-75750D01*
X72470Y-75560D01*
X72363Y-75399D01*
X72202Y-75292D01*
X72013Y-75255D01*
X71641Y-75255D01*
X71452Y-75292D01*
X71291Y-75399D01*
X71184Y-75560D01*
X71146Y-75750D01*
X71184Y-75939D01*
X71291Y-76100D01*
X71452Y-76207D01*
X71641Y-76245D01*
X72013Y-76245D01*
X72202Y-76207D01*
X72363Y-76100D01*
X72470Y-75939D01*
X72508Y-75750D01*
X72508Y-77250D01*
X72470Y-77060D01*
X72363Y-76899D01*
X72202Y-76792D01*
X72013Y-76755D01*
X71641Y-76755D01*
X71452Y-76792D01*
X71291Y-76899D01*
X71184Y-77060D01*
X71146Y-77250D01*
X71184Y-77439D01*
X71291Y-77600D01*
X71452Y-77707D01*
X71641Y-77745D01*
X72013Y-77745D01*
X72202Y-77707D01*
X72363Y-77600D01*
X72470Y-77439D01*
X72508Y-77250D01*
X72508Y-84200D01*
X69886Y-84200D01*
X70603Y-83904D01*
X71152Y-83356D01*
X71449Y-82639D01*
X71450Y-81863D01*
X71154Y-81146D01*
X70606Y-80597D01*
X70175Y-80418D01*
X70175Y-56165D01*
X70110Y-56009D01*
X69991Y-55889D01*
X69834Y-55825D01*
X69665Y-55824D01*
X69509Y-55889D01*
X69389Y-56008D01*
X69325Y-56165D01*
X69324Y-56334D01*
X69389Y-56490D01*
X69508Y-56610D01*
X69665Y-56674D01*
X69834Y-56675D01*
X69990Y-56610D01*
X70110Y-56491D01*
X70174Y-56334D01*
X70175Y-56165D01*
X70175Y-80418D01*
X69889Y-80300D01*
X69113Y-80299D01*
X68396Y-80595D01*
X68279Y-80712D01*
X68279Y-56325D01*
X68268Y-56117D01*
X68210Y-55977D01*
X68117Y-55952D01*
X67820Y-56250D01*
X68117Y-56547D01*
X68210Y-56522D01*
X68279Y-56325D01*
X68279Y-80712D01*
X68047Y-80945D01*
X68047Y-56617D01*
X67750Y-56320D01*
X67452Y-56617D01*
X67477Y-56710D01*
X67674Y-56779D01*
X67882Y-56768D01*
X68022Y-56710D01*
X68047Y-56617D01*
X68047Y-80945D01*
X67853Y-81138D01*
X67853Y-77250D01*
X67853Y-75750D01*
X67853Y-74250D01*
X67853Y-72750D01*
X67815Y-72560D01*
X67708Y-72399D01*
X67547Y-72292D01*
X67358Y-72255D01*
X66986Y-72255D01*
X66797Y-72292D01*
X66636Y-72399D01*
X66529Y-72560D01*
X66491Y-72750D01*
X66529Y-72939D01*
X66636Y-73100D01*
X66797Y-73207D01*
X66986Y-73245D01*
X67358Y-73245D01*
X67547Y-73207D01*
X67708Y-73100D01*
X67815Y-72939D01*
X67853Y-72750D01*
X67853Y-74250D01*
X67815Y-74060D01*
X67708Y-73899D01*
X67547Y-73792D01*
X67358Y-73755D01*
X66986Y-73755D01*
X66797Y-73792D01*
X66636Y-73899D01*
X66529Y-74060D01*
X66491Y-74250D01*
X66529Y-74439D01*
X66636Y-74600D01*
X66797Y-74707D01*
X66986Y-74745D01*
X67358Y-74745D01*
X67547Y-74707D01*
X67708Y-74600D01*
X67815Y-74439D01*
X67853Y-74250D01*
X67853Y-75750D01*
X67815Y-75560D01*
X67708Y-75399D01*
X67547Y-75292D01*
X67358Y-75255D01*
X66986Y-75255D01*
X66797Y-75292D01*
X66636Y-75399D01*
X66529Y-75560D01*
X66491Y-75750D01*
X66529Y-75939D01*
X66636Y-76100D01*
X66797Y-76207D01*
X66986Y-76245D01*
X67358Y-76245D01*
X67547Y-76207D01*
X67708Y-76100D01*
X67815Y-75939D01*
X67853Y-75750D01*
X67853Y-77250D01*
X67815Y-77060D01*
X67708Y-76899D01*
X67547Y-76792D01*
X67358Y-76755D01*
X66986Y-76755D01*
X66797Y-76792D01*
X66636Y-76899D01*
X66529Y-77060D01*
X66491Y-77250D01*
X66529Y-77439D01*
X66636Y-77600D01*
X66797Y-77707D01*
X66986Y-77745D01*
X67358Y-77745D01*
X67547Y-77707D01*
X67708Y-77600D01*
X67815Y-77439D01*
X67853Y-77250D01*
X67853Y-81138D01*
X67847Y-81143D01*
X67550Y-81860D01*
X67549Y-82636D01*
X67845Y-83353D01*
X68393Y-83902D01*
X69110Y-84199D01*
X69499Y-84200D01*
X65550Y-84200D01*
X65550Y-71963D01*
X65649Y-72113D01*
X65810Y-72220D01*
X66000Y-72258D01*
X66189Y-72220D01*
X66350Y-72113D01*
X66457Y-71952D01*
X66495Y-71763D01*
X66495Y-71391D01*
X66495Y-67108D01*
X66495Y-66736D01*
X66457Y-66547D01*
X66350Y-66386D01*
X66189Y-66279D01*
X66000Y-66241D01*
X65810Y-66279D01*
X65649Y-66386D01*
X65542Y-66547D01*
X65505Y-66736D01*
X65505Y-67108D01*
X65542Y-67297D01*
X65649Y-67458D01*
X65810Y-67565D01*
X66000Y-67603D01*
X66189Y-67565D01*
X66350Y-67458D01*
X66457Y-67297D01*
X66495Y-67108D01*
X66495Y-71391D01*
X66457Y-71202D01*
X66350Y-71041D01*
X66189Y-70934D01*
X66000Y-70896D01*
X65810Y-70934D01*
X65649Y-71041D01*
X65542Y-71202D01*
X65505Y-71391D01*
X65505Y-71763D01*
X65542Y-71950D01*
X64957Y-71950D01*
X64995Y-71763D01*
X64995Y-71391D01*
X64995Y-67108D01*
X64995Y-66736D01*
X64957Y-66547D01*
X64850Y-66386D01*
X64689Y-66279D01*
X64500Y-66241D01*
X64310Y-66279D01*
X64149Y-66386D01*
X64042Y-66547D01*
X64005Y-66736D01*
X64005Y-67108D01*
X64042Y-67297D01*
X64149Y-67458D01*
X64310Y-67565D01*
X64500Y-67603D01*
X64689Y-67565D01*
X64850Y-67458D01*
X64957Y-67297D01*
X64995Y-67108D01*
X64995Y-71391D01*
X64957Y-71202D01*
X64850Y-71041D01*
X64689Y-70934D01*
X64500Y-70896D01*
X64310Y-70934D01*
X64149Y-71041D01*
X64042Y-71202D01*
X64005Y-71391D01*
X64005Y-71763D01*
X64042Y-71950D01*
X63457Y-71950D01*
X63495Y-71763D01*
X63495Y-71391D01*
X63495Y-67108D01*
X63495Y-66736D01*
X63457Y-66547D01*
X63350Y-66386D01*
X63189Y-66279D01*
X63000Y-66241D01*
X62810Y-66279D01*
X62649Y-66386D01*
X62542Y-66547D01*
X62505Y-66736D01*
X62505Y-67108D01*
X62542Y-67297D01*
X62649Y-67458D01*
X62810Y-67565D01*
X63000Y-67603D01*
X63189Y-67565D01*
X63350Y-67458D01*
X63457Y-67297D01*
X63495Y-67108D01*
X63495Y-71391D01*
X63457Y-71202D01*
X63350Y-71041D01*
X63189Y-70934D01*
X63000Y-70896D01*
X62810Y-70934D01*
X62649Y-71041D01*
X62542Y-71202D01*
X62505Y-71391D01*
X62505Y-71763D01*
X62542Y-71950D01*
X61957Y-71950D01*
X61995Y-71763D01*
X61995Y-71391D01*
X61995Y-67108D01*
X61995Y-66736D01*
X61957Y-66547D01*
X61850Y-66386D01*
X61689Y-66279D01*
X61500Y-66241D01*
X61310Y-66279D01*
X61149Y-66386D01*
X61042Y-66547D01*
X61005Y-66736D01*
X61005Y-67108D01*
X61042Y-67297D01*
X61149Y-67458D01*
X61310Y-67565D01*
X61500Y-67603D01*
X61689Y-67565D01*
X61850Y-67458D01*
X61957Y-67297D01*
X61995Y-67108D01*
X61995Y-71391D01*
X61957Y-71202D01*
X61850Y-71041D01*
X61689Y-70934D01*
X61500Y-70896D01*
X61310Y-70934D01*
X61149Y-71041D01*
X61042Y-71202D01*
X61005Y-71391D01*
X61005Y-71763D01*
X61042Y-71950D01*
X60457Y-71950D01*
X60495Y-71763D01*
X60495Y-71391D01*
X60495Y-67108D01*
X60495Y-66736D01*
X60457Y-66547D01*
X60350Y-66386D01*
X60189Y-66279D01*
X60000Y-66241D01*
X59810Y-66279D01*
X59649Y-66386D01*
X59542Y-66547D01*
X59505Y-66736D01*
X59505Y-67108D01*
X59542Y-67297D01*
X59649Y-67458D01*
X59810Y-67565D01*
X60000Y-67603D01*
X60189Y-67565D01*
X60350Y-67458D01*
X60457Y-67297D01*
X60495Y-67108D01*
X60495Y-71391D01*
X60457Y-71202D01*
X60350Y-71041D01*
X60189Y-70934D01*
X60000Y-70896D01*
X59810Y-70934D01*
X59649Y-71041D01*
X59542Y-71202D01*
X59505Y-71391D01*
X59505Y-71763D01*
X59542Y-71950D01*
X58899Y-71950D01*
X58911Y-71931D01*
X58945Y-71761D01*
X58945Y-71443D01*
X58945Y-68056D01*
X58945Y-67738D01*
X58911Y-67568D01*
X58814Y-67423D01*
X58670Y-67327D01*
X58500Y-67293D01*
X58329Y-67327D01*
X58185Y-67423D01*
X58088Y-67568D01*
X58055Y-67738D01*
X58055Y-68056D01*
X58088Y-68226D01*
X58185Y-68371D01*
X58329Y-68467D01*
X58500Y-68501D01*
X58670Y-68467D01*
X58814Y-68371D01*
X58911Y-68226D01*
X58945Y-68056D01*
X58945Y-71443D01*
X58911Y-71273D01*
X58814Y-71128D01*
X58670Y-71032D01*
X58500Y-70998D01*
X58329Y-71032D01*
X58185Y-71128D01*
X58088Y-71273D01*
X58055Y-71443D01*
X58055Y-71761D01*
X58088Y-71931D01*
X58100Y-71950D01*
X57899Y-71950D01*
X57911Y-71931D01*
X57945Y-71761D01*
X57945Y-71443D01*
X57945Y-68056D01*
X57945Y-67738D01*
X57911Y-67568D01*
X57814Y-67423D01*
X57670Y-67327D01*
X57500Y-67293D01*
X57329Y-67327D01*
X57185Y-67423D01*
X57088Y-67568D01*
X57055Y-67738D01*
X57055Y-68056D01*
X57088Y-68226D01*
X57185Y-68371D01*
X57329Y-68467D01*
X57500Y-68501D01*
X57670Y-68467D01*
X57814Y-68371D01*
X57911Y-68226D01*
X57945Y-68056D01*
X57945Y-71443D01*
X57911Y-71273D01*
X57814Y-71128D01*
X57670Y-71032D01*
X57500Y-70998D01*
X57329Y-71032D01*
X57185Y-71128D01*
X57088Y-71273D01*
X57055Y-71443D01*
X57055Y-71761D01*
X57088Y-71931D01*
X57100Y-71950D01*
X56899Y-71950D01*
X56911Y-71931D01*
X56945Y-71761D01*
X56945Y-71443D01*
X56945Y-68056D01*
X56945Y-67738D01*
X56911Y-67568D01*
X56814Y-67423D01*
X56670Y-67327D01*
X56500Y-67293D01*
X56329Y-67327D01*
X56185Y-67423D01*
X56088Y-67568D01*
X56055Y-67738D01*
X56055Y-68056D01*
X56088Y-68226D01*
X56185Y-68371D01*
X56329Y-68467D01*
X56500Y-68501D01*
X56670Y-68467D01*
X56814Y-68371D01*
X56911Y-68226D01*
X56945Y-68056D01*
X56945Y-71443D01*
X56911Y-71273D01*
X56814Y-71128D01*
X56670Y-71032D01*
X56500Y-70998D01*
X56329Y-71032D01*
X56185Y-71128D01*
X56088Y-71273D01*
X56055Y-71443D01*
X56055Y-71761D01*
X56088Y-71931D01*
X56100Y-71950D01*
X55900Y-71950D01*
X55900Y-67372D01*
X67286Y-55986D01*
X67220Y-56174D01*
X67231Y-56382D01*
X67289Y-56522D01*
X67382Y-56547D01*
X67679Y-56250D01*
X67673Y-56244D01*
X67744Y-56173D01*
X67750Y-56179D01*
X68047Y-55882D01*
X68022Y-55789D01*
X67825Y-55720D01*
X67617Y-55731D01*
X67487Y-55785D01*
X68511Y-54761D01*
X68622Y-54650D01*
X70000Y-54650D01*
X70344Y-54581D01*
X70636Y-54386D01*
X70827Y-54100D01*
X71041Y-54100D01*
X71041Y-54100D01*
X71202Y-54207D01*
X71391Y-54245D01*
X71763Y-54245D01*
X71952Y-54207D01*
X72113Y-54100D01*
X72220Y-53939D01*
X72258Y-53750D01*
X72245Y-53684D01*
X72245Y-53065D01*
X72245Y-52375D01*
X72222Y-52320D01*
X72180Y-52277D01*
X72124Y-52255D01*
X72065Y-52254D01*
X71030Y-52254D01*
X70975Y-52277D01*
X70932Y-52319D01*
X70910Y-52375D01*
X70909Y-52434D01*
X70909Y-53124D01*
X70932Y-53179D01*
X70974Y-53222D01*
X71030Y-53244D01*
X71089Y-53245D01*
X72124Y-53245D01*
X72179Y-53222D01*
X72222Y-53180D01*
X72244Y-53124D01*
X72245Y-53065D01*
X72245Y-53684D01*
X72220Y-53560D01*
X72113Y-53399D01*
X71952Y-53292D01*
X71763Y-53255D01*
X71391Y-53255D01*
X71202Y-53292D01*
X71041Y-53399D01*
X71041Y-53400D01*
X70827Y-53400D01*
X70751Y-53286D01*
X70751Y-52000D01*
X70717Y-51829D01*
X70621Y-51685D01*
X70476Y-51588D01*
X70306Y-51555D01*
X69988Y-51555D01*
X69818Y-51588D01*
X69673Y-51685D01*
X69577Y-51829D01*
X69543Y-52000D01*
X69577Y-52170D01*
X69673Y-52314D01*
X69818Y-52411D01*
X69988Y-52445D01*
X70306Y-52445D01*
X70476Y-52411D01*
X70621Y-52314D01*
X70717Y-52170D01*
X70751Y-52000D01*
X70751Y-53286D01*
X70636Y-53113D01*
X70344Y-52918D01*
X70000Y-52850D01*
X68250Y-52850D01*
X67905Y-52918D01*
X67775Y-53005D01*
X67750Y-53000D01*
X67445Y-53000D01*
X67445Y-52265D01*
X67445Y-51675D01*
X67422Y-51620D01*
X67380Y-51577D01*
X67324Y-51555D01*
X67265Y-51554D01*
X66380Y-51554D01*
X66325Y-51577D01*
X66282Y-51619D01*
X66260Y-51675D01*
X66259Y-51734D01*
X66259Y-52324D01*
X66282Y-52379D01*
X66324Y-52422D01*
X66380Y-52444D01*
X66439Y-52445D01*
X67324Y-52445D01*
X67379Y-52422D01*
X67422Y-52380D01*
X67444Y-52324D01*
X67445Y-52265D01*
X67445Y-53000D01*
X67414Y-53000D01*
X67371Y-52935D01*
X67226Y-52838D01*
X67056Y-52805D01*
X66738Y-52805D01*
X66568Y-52838D01*
X66423Y-52935D01*
X66327Y-53079D01*
X66293Y-53250D01*
X66327Y-53420D01*
X66423Y-53564D01*
X66568Y-53661D01*
X66738Y-53695D01*
X67032Y-53695D01*
X65801Y-54925D01*
X65801Y-48351D01*
X65798Y-47933D01*
X65644Y-47561D01*
X65497Y-47473D01*
X65426Y-47544D01*
X65426Y-47402D01*
X65338Y-47255D01*
X64951Y-47098D01*
X64533Y-47101D01*
X64161Y-47255D01*
X64073Y-47402D01*
X64750Y-48079D01*
X65426Y-47402D01*
X65426Y-47544D01*
X64820Y-48150D01*
X65497Y-48826D01*
X65644Y-48738D01*
X65801Y-48351D01*
X65801Y-54925D01*
X65700Y-55027D01*
X65700Y-51270D01*
X65700Y-49670D01*
X65677Y-49615D01*
X65635Y-49572D01*
X65579Y-49550D01*
X65520Y-49549D01*
X65426Y-49549D01*
X65426Y-48897D01*
X64750Y-48220D01*
X64679Y-48291D01*
X64679Y-48150D01*
X64002Y-47473D01*
X63855Y-47561D01*
X63698Y-47948D01*
X63701Y-48366D01*
X63855Y-48738D01*
X64002Y-48826D01*
X64679Y-48150D01*
X64679Y-48291D01*
X64073Y-48897D01*
X64161Y-49044D01*
X64548Y-49201D01*
X64966Y-49198D01*
X65338Y-49044D01*
X65426Y-48897D01*
X65426Y-49549D01*
X63931Y-49549D01*
X63951Y-49501D01*
X63948Y-49083D01*
X63794Y-48711D01*
X63647Y-48623D01*
X63576Y-48694D01*
X63576Y-48552D01*
X63488Y-48405D01*
X63101Y-48248D01*
X62683Y-48251D01*
X62311Y-48405D01*
X62223Y-48552D01*
X62900Y-49229D01*
X63576Y-48552D01*
X63576Y-48694D01*
X62970Y-49300D01*
X63647Y-49976D01*
X63794Y-49888D01*
X63799Y-49874D01*
X63799Y-51329D01*
X63822Y-51384D01*
X63864Y-51427D01*
X63920Y-51449D01*
X63979Y-51450D01*
X65579Y-51450D01*
X65634Y-51427D01*
X65677Y-51385D01*
X65699Y-51329D01*
X65700Y-51270D01*
X65700Y-55027D01*
X64195Y-56532D01*
X64195Y-53515D01*
X64195Y-52925D01*
X64172Y-52870D01*
X64130Y-52827D01*
X64074Y-52805D01*
X64015Y-52804D01*
X63576Y-52804D01*
X63576Y-50047D01*
X62900Y-49370D01*
X62829Y-49441D01*
X62829Y-49300D01*
X62152Y-48623D01*
X62005Y-48711D01*
X61848Y-49098D01*
X61851Y-49516D01*
X62005Y-49888D01*
X62152Y-49976D01*
X62829Y-49300D01*
X62829Y-49441D01*
X62223Y-50047D01*
X62311Y-50194D01*
X62698Y-50351D01*
X63116Y-50348D01*
X63488Y-50194D01*
X63576Y-50047D01*
X63576Y-52804D01*
X63130Y-52804D01*
X63075Y-52827D01*
X63032Y-52869D01*
X63010Y-52925D01*
X63009Y-52984D01*
X63009Y-53574D01*
X63032Y-53629D01*
X63074Y-53672D01*
X63130Y-53694D01*
X63189Y-53695D01*
X64074Y-53695D01*
X64129Y-53672D01*
X64172Y-53630D01*
X64194Y-53574D01*
X64195Y-53515D01*
X64195Y-56532D01*
X61345Y-59382D01*
X61345Y-58895D01*
X61345Y-58722D01*
X61345Y-58622D01*
X61345Y-58450D01*
X61280Y-58226D01*
X61245Y-58181D01*
X61245Y-56815D01*
X61245Y-55780D01*
X61222Y-55725D01*
X61180Y-55682D01*
X61124Y-55660D01*
X61065Y-55659D01*
X60801Y-55659D01*
X60801Y-48351D01*
X60798Y-47933D01*
X60644Y-47561D01*
X60497Y-47473D01*
X60426Y-47544D01*
X60426Y-47402D01*
X60338Y-47255D01*
X59951Y-47098D01*
X59533Y-47101D01*
X59161Y-47255D01*
X59073Y-47402D01*
X59750Y-48079D01*
X60426Y-47402D01*
X60426Y-47544D01*
X59820Y-48150D01*
X60497Y-48826D01*
X60644Y-48738D01*
X60801Y-48351D01*
X60801Y-55659D01*
X60700Y-55659D01*
X60700Y-51270D01*
X60700Y-49670D01*
X60677Y-49615D01*
X60635Y-49572D01*
X60579Y-49550D01*
X60520Y-49549D01*
X60426Y-49549D01*
X60426Y-48897D01*
X59750Y-48220D01*
X59679Y-48291D01*
X59679Y-48150D01*
X59002Y-47473D01*
X58855Y-47561D01*
X58698Y-47948D01*
X58701Y-48366D01*
X58855Y-48738D01*
X59002Y-48826D01*
X59679Y-48150D01*
X59679Y-48291D01*
X59073Y-48897D01*
X59161Y-49044D01*
X59548Y-49201D01*
X59966Y-49198D01*
X60338Y-49044D01*
X60426Y-48897D01*
X60426Y-49549D01*
X58931Y-49549D01*
X58951Y-49501D01*
X58948Y-49083D01*
X58794Y-48711D01*
X58647Y-48623D01*
X58576Y-48694D01*
X58576Y-48552D01*
X58488Y-48405D01*
X58101Y-48248D01*
X57683Y-48251D01*
X57311Y-48405D01*
X57223Y-48552D01*
X57900Y-49229D01*
X58576Y-48552D01*
X58576Y-48694D01*
X57970Y-49300D01*
X58647Y-49976D01*
X58794Y-49888D01*
X58799Y-49874D01*
X58799Y-51329D01*
X58822Y-51384D01*
X58864Y-51427D01*
X58920Y-51449D01*
X58979Y-51450D01*
X60579Y-51450D01*
X60634Y-51427D01*
X60677Y-51385D01*
X60699Y-51329D01*
X60700Y-51270D01*
X60700Y-55659D01*
X60375Y-55659D01*
X60320Y-55682D01*
X60277Y-55724D01*
X60255Y-55780D01*
X60254Y-55839D01*
X60254Y-56874D01*
X60277Y-56929D01*
X60319Y-56972D01*
X60375Y-56994D01*
X60434Y-56995D01*
X61124Y-56995D01*
X61179Y-56972D01*
X61222Y-56930D01*
X61244Y-56874D01*
X61245Y-56815D01*
X61245Y-58181D01*
X61135Y-58043D01*
X60931Y-57931D01*
X60892Y-57922D01*
X60800Y-57969D01*
X60800Y-58622D01*
X61345Y-58622D01*
X61345Y-58722D01*
X60800Y-58722D01*
X60800Y-59375D01*
X60892Y-59422D01*
X60931Y-59413D01*
X61135Y-59301D01*
X61280Y-59118D01*
X61345Y-58895D01*
X61345Y-59382D01*
X60700Y-60027D01*
X60700Y-59375D01*
X60700Y-58722D01*
X60700Y-58622D01*
X60700Y-57969D01*
X60607Y-57922D01*
X60568Y-57931D01*
X60364Y-58043D01*
X60219Y-58226D01*
X60155Y-58450D01*
X60155Y-58622D01*
X60700Y-58622D01*
X60700Y-58722D01*
X60155Y-58722D01*
X60155Y-58895D01*
X60219Y-59118D01*
X60364Y-59301D01*
X60568Y-59413D01*
X60607Y-59422D01*
X60700Y-59375D01*
X60700Y-60027D01*
X58576Y-62150D01*
X58576Y-50047D01*
X57900Y-49370D01*
X57829Y-49441D01*
X57829Y-49300D01*
X57152Y-48623D01*
X57005Y-48711D01*
X56848Y-49098D01*
X56851Y-49516D01*
X57005Y-49888D01*
X57152Y-49976D01*
X57829Y-49300D01*
X57829Y-49441D01*
X57223Y-50047D01*
X57311Y-50194D01*
X57698Y-50351D01*
X58116Y-50348D01*
X58488Y-50194D01*
X58576Y-50047D01*
X58576Y-62150D01*
X56089Y-64638D01*
X56089Y-60583D01*
X56089Y-58713D01*
X56089Y-51083D01*
X56089Y-49213D01*
X55961Y-48905D01*
X55725Y-48669D01*
X55417Y-48541D01*
X55083Y-48540D01*
X54775Y-48668D01*
X54539Y-48904D01*
X54411Y-49212D01*
X54410Y-49546D01*
X54538Y-49854D01*
X54774Y-50090D01*
X55082Y-50218D01*
X55416Y-50219D01*
X55724Y-50091D01*
X55960Y-49855D01*
X56088Y-49547D01*
X56089Y-49213D01*
X56089Y-51083D01*
X55961Y-50775D01*
X55725Y-50539D01*
X55417Y-50411D01*
X55083Y-50410D01*
X54775Y-50538D01*
X54539Y-50774D01*
X54411Y-51082D01*
X54410Y-51416D01*
X54538Y-51724D01*
X54774Y-51960D01*
X55082Y-52088D01*
X55416Y-52089D01*
X55724Y-51961D01*
X55960Y-51725D01*
X56088Y-51417D01*
X56089Y-51083D01*
X56089Y-58713D01*
X56089Y-58713D01*
X56089Y-53779D01*
X56089Y-52401D01*
X56066Y-52346D01*
X56024Y-52304D01*
X55968Y-52281D01*
X55909Y-52281D01*
X54531Y-52281D01*
X54476Y-52303D01*
X54433Y-52346D01*
X54411Y-52401D01*
X54410Y-52460D01*
X54410Y-53838D01*
X54433Y-53893D01*
X54475Y-53936D01*
X54531Y-53959D01*
X54590Y-53959D01*
X55968Y-53959D01*
X56023Y-53936D01*
X56066Y-53894D01*
X56088Y-53839D01*
X56089Y-53779D01*
X56089Y-58713D01*
X55961Y-58405D01*
X55725Y-58169D01*
X55417Y-58041D01*
X55083Y-58040D01*
X54775Y-58168D01*
X54539Y-58404D01*
X54411Y-58712D01*
X54410Y-59046D01*
X54538Y-59354D01*
X54774Y-59590D01*
X55082Y-59718D01*
X55416Y-59719D01*
X55724Y-59591D01*
X55960Y-59355D01*
X56088Y-59047D01*
X56089Y-58713D01*
X56089Y-60583D01*
X55961Y-60275D01*
X55725Y-60039D01*
X55417Y-59911D01*
X55083Y-59910D01*
X54775Y-60038D01*
X54539Y-60274D01*
X54411Y-60582D01*
X54410Y-60916D01*
X54538Y-61224D01*
X54774Y-61460D01*
X55082Y-61588D01*
X55416Y-61589D01*
X55724Y-61461D01*
X55960Y-61225D01*
X56088Y-60917D01*
X56089Y-60583D01*
X56089Y-64638D01*
X56089Y-64638D01*
X56089Y-63279D01*
X56089Y-61901D01*
X56066Y-61846D01*
X56024Y-61804D01*
X55968Y-61781D01*
X55909Y-61781D01*
X54531Y-61781D01*
X54476Y-61803D01*
X54433Y-61846D01*
X54411Y-61901D01*
X54410Y-61960D01*
X54410Y-63338D01*
X54433Y-63393D01*
X54475Y-63436D01*
X54531Y-63459D01*
X54590Y-63459D01*
X55968Y-63459D01*
X56023Y-63436D01*
X56066Y-63394D01*
X56088Y-63339D01*
X56089Y-63279D01*
X56089Y-64638D01*
X54363Y-66363D01*
X54168Y-66655D01*
X54100Y-67000D01*
X54100Y-71950D01*
X54050Y-71950D01*
X54050Y-47432D01*
X54245Y-47627D01*
X54734Y-47830D01*
X55263Y-47831D01*
X55753Y-47629D01*
X56127Y-47254D01*
X56330Y-46765D01*
X56331Y-46236D01*
X56129Y-45746D01*
X55932Y-45550D01*
X90567Y-45550D01*
X90372Y-45745D01*
X90169Y-46234D01*
X90168Y-46763D01*
X90370Y-47253D01*
X90745Y-47627D01*
X91234Y-47830D01*
X91763Y-47831D01*
X92253Y-47629D01*
X92450Y-47432D01*
X92450Y-75416D01*
X92402Y-75377D01*
X92238Y-75329D01*
X92238Y-73345D01*
X92120Y-73058D01*
X92030Y-72968D01*
X92030Y-67345D01*
X91911Y-67058D01*
X91692Y-66839D01*
X91405Y-66720D01*
X91095Y-66719D01*
X90808Y-66838D01*
X90589Y-67057D01*
X90470Y-67344D01*
X90469Y-67654D01*
X90588Y-67941D01*
X90807Y-68160D01*
X91094Y-68279D01*
X91404Y-68280D01*
X91691Y-68161D01*
X91910Y-67942D01*
X92029Y-67655D01*
X92030Y-67345D01*
X92030Y-72968D01*
X91901Y-72839D01*
X91614Y-72720D01*
X91304Y-72719D01*
X91017Y-72838D01*
X90797Y-73057D01*
X90678Y-73344D01*
X90678Y-73654D01*
X90797Y-73941D01*
X91016Y-74160D01*
X91302Y-74279D01*
X91613Y-74280D01*
X91899Y-74161D01*
X92119Y-73942D01*
X92238Y-73655D01*
X92238Y-73345D01*
X92238Y-75329D01*
X92197Y-75317D01*
X92049Y-75317D01*
X92049Y-75812D01*
X92057Y-75812D01*
X92057Y-75912D01*
X92049Y-75912D01*
X92049Y-76407D01*
X92197Y-76407D01*
X92402Y-76346D01*
X92450Y-76307D01*
X92450Y-76712D01*
X92329Y-76632D01*
X92158Y-76598D01*
X91949Y-76598D01*
X91949Y-76407D01*
X91949Y-75912D01*
X91949Y-75812D01*
X91949Y-75317D01*
X91802Y-75317D01*
X91597Y-75377D01*
X91431Y-75512D01*
X91329Y-75699D01*
X91324Y-75727D01*
X91372Y-75812D01*
X91949Y-75812D01*
X91949Y-75912D01*
X91372Y-75912D01*
X91324Y-75996D01*
X91329Y-76024D01*
X91431Y-76212D01*
X91597Y-76346D01*
X91802Y-76407D01*
X91949Y-76407D01*
X91949Y-76598D01*
X91840Y-76598D01*
X91670Y-76632D01*
X91526Y-76728D01*
X91429Y-76873D01*
X91395Y-77043D01*
X91429Y-77213D01*
X91526Y-77357D01*
X91670Y-77454D01*
X91840Y-77488D01*
X92158Y-77488D01*
X92329Y-77454D01*
X92450Y-77373D01*
X92450Y-79974D01*
X92425Y-79967D01*
X92425Y-78165D01*
X92360Y-78009D01*
X92241Y-77889D01*
X92084Y-77825D01*
X91915Y-77824D01*
X91759Y-77889D01*
X91639Y-78008D01*
X91575Y-78165D01*
X91574Y-78334D01*
X91639Y-78490D01*
X91758Y-78610D01*
X91915Y-78674D01*
X92084Y-78675D01*
X92240Y-78610D01*
X92360Y-78491D01*
X92424Y-78334D01*
X92425Y-78165D01*
X92425Y-79967D01*
X92367Y-79952D01*
X92297Y-80023D01*
X92297Y-79882D01*
X92272Y-79789D01*
X92075Y-79720D01*
X91867Y-79731D01*
X91727Y-79789D01*
X91702Y-79882D01*
X92000Y-80179D01*
X92297Y-79882D01*
X92297Y-80023D01*
X92070Y-80250D01*
X92367Y-80547D01*
X92450Y-80525D01*
X92450Y-82317D01*
G54D10*
G36*
X65200Y-76950D02*
X64557Y-76950D01*
X64519Y-76856D01*
X64266Y-76603D01*
X63935Y-76466D01*
X63632Y-76466D01*
X63632Y-75376D01*
X63495Y-75045D01*
X63242Y-74792D01*
X62912Y-74655D01*
X62554Y-74654D01*
X62223Y-74791D01*
X61969Y-75044D01*
X61832Y-75375D01*
X61832Y-75733D01*
X61968Y-76064D01*
X62221Y-76317D01*
X62552Y-76454D01*
X62910Y-76455D01*
X63241Y-76318D01*
X63494Y-76065D01*
X63632Y-75734D01*
X63632Y-75376D01*
X63632Y-76466D01*
X63577Y-76465D01*
X63246Y-76602D01*
X62993Y-76855D01*
X62954Y-76950D01*
X62200Y-76950D01*
X62200Y-80405D01*
X62001Y-80603D01*
X62001Y-76689D01*
X61998Y-76291D01*
X61853Y-75941D01*
X61821Y-75923D01*
X61821Y-74353D01*
X61684Y-74022D01*
X61431Y-73768D01*
X61101Y-73631D01*
X60743Y-73631D01*
X60412Y-73768D01*
X60158Y-74021D01*
X60021Y-74351D01*
X60021Y-74709D01*
X60157Y-75040D01*
X60410Y-75294D01*
X60741Y-75431D01*
X61099Y-75431D01*
X61430Y-75294D01*
X61683Y-75041D01*
X61821Y-74711D01*
X61821Y-74353D01*
X61821Y-75923D01*
X61711Y-75859D01*
X61640Y-75930D01*
X61640Y-75788D01*
X61558Y-75646D01*
X61189Y-75498D01*
X60791Y-75501D01*
X60441Y-75646D01*
X60359Y-75788D01*
X61000Y-76429D01*
X61640Y-75788D01*
X61640Y-75930D01*
X61070Y-76500D01*
X61711Y-77140D01*
X61853Y-77058D01*
X62001Y-76689D01*
X62001Y-80603D01*
X61969Y-80635D01*
X61832Y-80965D01*
X61832Y-81323D01*
X61968Y-81654D01*
X62013Y-81700D01*
X61740Y-81700D01*
X61724Y-81660D01*
X61640Y-81576D01*
X61640Y-77211D01*
X61000Y-76570D01*
X60929Y-76641D01*
X60929Y-76500D01*
X60288Y-75859D01*
X60146Y-75941D01*
X59998Y-76310D01*
X60001Y-76708D01*
X60146Y-77058D01*
X60288Y-77140D01*
X60929Y-76500D01*
X60929Y-76641D01*
X60359Y-77211D01*
X60441Y-77353D01*
X60810Y-77501D01*
X61208Y-77498D01*
X61558Y-77353D01*
X61640Y-77211D01*
X61640Y-81576D01*
X61471Y-81406D01*
X61140Y-81269D01*
X60782Y-81269D01*
X60451Y-81405D01*
X60198Y-81658D01*
X60180Y-81700D01*
X59875Y-81700D01*
X59875Y-80389D01*
X59872Y-79992D01*
X59852Y-79945D01*
X59852Y-74353D01*
X59716Y-74022D01*
X59463Y-73768D01*
X59132Y-73631D01*
X58774Y-73631D01*
X58443Y-73768D01*
X58190Y-74021D01*
X58052Y-74351D01*
X58052Y-74709D01*
X58189Y-75040D01*
X58442Y-75294D01*
X58772Y-75431D01*
X59130Y-75431D01*
X59461Y-75294D01*
X59715Y-75041D01*
X59852Y-74711D01*
X59852Y-74353D01*
X59852Y-79945D01*
X59727Y-79642D01*
X59585Y-79560D01*
X59514Y-79631D01*
X59514Y-79489D01*
X59432Y-79347D01*
X59063Y-79198D01*
X58665Y-79202D01*
X58315Y-79347D01*
X58233Y-79489D01*
X58874Y-80130D01*
X59514Y-79489D01*
X59514Y-79631D01*
X58944Y-80200D01*
X59585Y-80841D01*
X59727Y-80758D01*
X59875Y-80389D01*
X59875Y-81700D01*
X59732Y-81700D01*
X59716Y-81660D01*
X59514Y-81458D01*
X59514Y-80911D01*
X58874Y-80271D01*
X58803Y-80342D01*
X58803Y-80200D01*
X58162Y-79560D01*
X58041Y-79630D01*
X58041Y-75376D01*
X57905Y-75045D01*
X57652Y-74792D01*
X57321Y-74655D01*
X56963Y-74654D01*
X56632Y-74791D01*
X56379Y-75044D01*
X56241Y-75375D01*
X56241Y-75733D01*
X56378Y-76064D01*
X56631Y-76317D01*
X56961Y-76454D01*
X57319Y-76455D01*
X57650Y-76318D01*
X57904Y-76065D01*
X58041Y-75734D01*
X58041Y-75376D01*
X58041Y-79630D01*
X58020Y-79642D01*
X57872Y-80011D01*
X57876Y-80409D01*
X58020Y-80758D01*
X58162Y-80841D01*
X58803Y-80200D01*
X58803Y-80342D01*
X58233Y-80911D01*
X58315Y-81054D01*
X58684Y-81202D01*
X59082Y-81198D01*
X59432Y-81054D01*
X59514Y-80911D01*
X59514Y-81458D01*
X59463Y-81406D01*
X59132Y-81269D01*
X58774Y-81269D01*
X58443Y-81405D01*
X58190Y-81658D01*
X58173Y-81700D01*
X57860Y-81700D01*
X57904Y-81656D01*
X58041Y-81325D01*
X58041Y-80967D01*
X57905Y-80636D01*
X57652Y-80383D01*
X57321Y-80245D01*
X57300Y-80245D01*
X57300Y-78950D01*
X57018Y-78950D01*
X57018Y-77187D01*
X56881Y-76856D01*
X56628Y-76603D01*
X56297Y-76466D01*
X55939Y-76465D01*
X55608Y-76602D01*
X55355Y-76855D01*
X55218Y-77186D01*
X55217Y-77544D01*
X55354Y-77875D01*
X55607Y-78128D01*
X55938Y-78265D01*
X56296Y-78266D01*
X56627Y-78129D01*
X56880Y-77876D01*
X57017Y-77545D01*
X57018Y-77187D01*
X57018Y-78950D01*
X56932Y-78950D01*
X56881Y-78825D01*
X56628Y-78572D01*
X56297Y-78434D01*
X55939Y-78434D01*
X55608Y-78571D01*
X55355Y-78824D01*
X55303Y-78950D01*
X54050Y-78950D01*
X54050Y-72300D01*
X65200Y-72300D01*
X65200Y-76950D01*
X65200Y-76950D01*
G37*
G54D31*
X65200Y-76950D02*
X64557Y-76950D01*
X64519Y-76856D01*
X64266Y-76603D01*
X63935Y-76466D01*
X63632Y-76466D01*
X63632Y-75376D01*
X63495Y-75045D01*
X63242Y-74792D01*
X62912Y-74655D01*
X62554Y-74654D01*
X62223Y-74791D01*
X61969Y-75044D01*
X61832Y-75375D01*
X61832Y-75733D01*
X61968Y-76064D01*
X62221Y-76317D01*
X62552Y-76454D01*
X62910Y-76455D01*
X63241Y-76318D01*
X63494Y-76065D01*
X63632Y-75734D01*
X63632Y-75376D01*
X63632Y-76466D01*
X63577Y-76465D01*
X63246Y-76602D01*
X62993Y-76855D01*
X62954Y-76950D01*
X62200Y-76950D01*
X62200Y-80405D01*
X62001Y-80603D01*
X62001Y-76689D01*
X61998Y-76291D01*
X61853Y-75941D01*
X61821Y-75923D01*
X61821Y-74353D01*
X61684Y-74022D01*
X61431Y-73768D01*
X61101Y-73631D01*
X60743Y-73631D01*
X60412Y-73768D01*
X60158Y-74021D01*
X60021Y-74351D01*
X60021Y-74709D01*
X60157Y-75040D01*
X60410Y-75294D01*
X60741Y-75431D01*
X61099Y-75431D01*
X61430Y-75294D01*
X61683Y-75041D01*
X61821Y-74711D01*
X61821Y-74353D01*
X61821Y-75923D01*
X61711Y-75859D01*
X61640Y-75930D01*
X61640Y-75788D01*
X61558Y-75646D01*
X61189Y-75498D01*
X60791Y-75501D01*
X60441Y-75646D01*
X60359Y-75788D01*
X61000Y-76429D01*
X61640Y-75788D01*
X61640Y-75930D01*
X61070Y-76500D01*
X61711Y-77140D01*
X61853Y-77058D01*
X62001Y-76689D01*
X62001Y-80603D01*
X61969Y-80635D01*
X61832Y-80965D01*
X61832Y-81323D01*
X61968Y-81654D01*
X62013Y-81700D01*
X61740Y-81700D01*
X61724Y-81660D01*
X61640Y-81576D01*
X61640Y-77211D01*
X61000Y-76570D01*
X60929Y-76641D01*
X60929Y-76500D01*
X60288Y-75859D01*
X60146Y-75941D01*
X59998Y-76310D01*
X60001Y-76708D01*
X60146Y-77058D01*
X60288Y-77140D01*
X60929Y-76500D01*
X60929Y-76641D01*
X60359Y-77211D01*
X60441Y-77353D01*
X60810Y-77501D01*
X61208Y-77498D01*
X61558Y-77353D01*
X61640Y-77211D01*
X61640Y-81576D01*
X61471Y-81406D01*
X61140Y-81269D01*
X60782Y-81269D01*
X60451Y-81405D01*
X60198Y-81658D01*
X60180Y-81700D01*
X59875Y-81700D01*
X59875Y-80389D01*
X59872Y-79992D01*
X59852Y-79945D01*
X59852Y-74353D01*
X59716Y-74022D01*
X59463Y-73768D01*
X59132Y-73631D01*
X58774Y-73631D01*
X58443Y-73768D01*
X58190Y-74021D01*
X58052Y-74351D01*
X58052Y-74709D01*
X58189Y-75040D01*
X58442Y-75294D01*
X58772Y-75431D01*
X59130Y-75431D01*
X59461Y-75294D01*
X59715Y-75041D01*
X59852Y-74711D01*
X59852Y-74353D01*
X59852Y-79945D01*
X59727Y-79642D01*
X59585Y-79560D01*
X59514Y-79631D01*
X59514Y-79489D01*
X59432Y-79347D01*
X59063Y-79198D01*
X58665Y-79202D01*
X58315Y-79347D01*
X58233Y-79489D01*
X58874Y-80130D01*
X59514Y-79489D01*
X59514Y-79631D01*
X58944Y-80200D01*
X59585Y-80841D01*
X59727Y-80758D01*
X59875Y-80389D01*
X59875Y-81700D01*
X59732Y-81700D01*
X59716Y-81660D01*
X59514Y-81458D01*
X59514Y-80911D01*
X58874Y-80271D01*
X58803Y-80342D01*
X58803Y-80200D01*
X58162Y-79560D01*
X58041Y-79630D01*
X58041Y-75376D01*
X57905Y-75045D01*
X57652Y-74792D01*
X57321Y-74655D01*
X56963Y-74654D01*
X56632Y-74791D01*
X56379Y-75044D01*
X56241Y-75375D01*
X56241Y-75733D01*
X56378Y-76064D01*
X56631Y-76317D01*
X56961Y-76454D01*
X57319Y-76455D01*
X57650Y-76318D01*
X57904Y-76065D01*
X58041Y-75734D01*
X58041Y-75376D01*
X58041Y-79630D01*
X58020Y-79642D01*
X57872Y-80011D01*
X57876Y-80409D01*
X58020Y-80758D01*
X58162Y-80841D01*
X58803Y-80200D01*
X58803Y-80342D01*
X58233Y-80911D01*
X58315Y-81054D01*
X58684Y-81202D01*
X59082Y-81198D01*
X59432Y-81054D01*
X59514Y-80911D01*
X59514Y-81458D01*
X59463Y-81406D01*
X59132Y-81269D01*
X58774Y-81269D01*
X58443Y-81405D01*
X58190Y-81658D01*
X58173Y-81700D01*
X57860Y-81700D01*
X57904Y-81656D01*
X58041Y-81325D01*
X58041Y-80967D01*
X57905Y-80636D01*
X57652Y-80383D01*
X57321Y-80245D01*
X57300Y-80245D01*
X57300Y-78950D01*
X57018Y-78950D01*
X57018Y-77187D01*
X56881Y-76856D01*
X56628Y-76603D01*
X56297Y-76466D01*
X55939Y-76465D01*
X55608Y-76602D01*
X55355Y-76855D01*
X55218Y-77186D01*
X55217Y-77544D01*
X55354Y-77875D01*
X55607Y-78128D01*
X55938Y-78265D01*
X56296Y-78266D01*
X56627Y-78129D01*
X56880Y-77876D01*
X57017Y-77545D01*
X57018Y-77187D01*
X57018Y-78950D01*
X56932Y-78950D01*
X56881Y-78825D01*
X56628Y-78572D01*
X56297Y-78434D01*
X55939Y-78434D01*
X55608Y-78571D01*
X55355Y-78824D01*
X55303Y-78950D01*
X54050Y-78950D01*
X54050Y-72300D01*
X65200Y-72300D01*
X65200Y-76950D01*
G54D10*
G36*
X65200Y-84200D02*
X64656Y-84200D01*
X64656Y-79156D01*
X64519Y-78825D01*
X64396Y-78702D01*
X64396Y-78077D01*
X63755Y-77436D01*
X63115Y-78077D01*
X63197Y-78219D01*
X63566Y-78368D01*
X63964Y-78364D01*
X64314Y-78219D01*
X64396Y-78077D01*
X64396Y-78702D01*
X64266Y-78572D01*
X63935Y-78434D01*
X63577Y-78434D01*
X63246Y-78571D01*
X62993Y-78824D01*
X62856Y-79154D01*
X62855Y-79512D01*
X62992Y-79843D01*
X63245Y-80097D01*
X63576Y-80234D01*
X63934Y-80234D01*
X64265Y-80098D01*
X64518Y-79845D01*
X64655Y-79514D01*
X64656Y-79156D01*
X64656Y-84200D01*
X55932Y-84200D01*
X56127Y-84004D01*
X56330Y-83515D01*
X56331Y-82986D01*
X56129Y-82496D01*
X55754Y-82122D01*
X55265Y-81919D01*
X54736Y-81918D01*
X54246Y-82120D01*
X54050Y-82317D01*
X54050Y-79300D01*
X55117Y-79300D01*
X55120Y-79543D01*
X55264Y-79892D01*
X55406Y-79975D01*
X56047Y-79334D01*
X56041Y-79329D01*
X56070Y-79300D01*
X56165Y-79300D01*
X56194Y-79329D01*
X56188Y-79334D01*
X56829Y-79975D01*
X56950Y-79905D01*
X56950Y-80251D01*
X56758Y-80330D01*
X56758Y-80045D01*
X56118Y-79405D01*
X55477Y-80045D01*
X55559Y-80187D01*
X55928Y-80336D01*
X56326Y-80332D01*
X56676Y-80187D01*
X56758Y-80045D01*
X56758Y-80330D01*
X56632Y-80382D01*
X56379Y-80635D01*
X56241Y-80965D01*
X56241Y-81323D01*
X56378Y-81654D01*
X56631Y-81908D01*
X56950Y-82040D01*
X56950Y-82050D01*
X58052Y-82050D01*
X58052Y-82347D01*
X58189Y-82678D01*
X58442Y-82931D01*
X58772Y-83069D01*
X59130Y-83069D01*
X59461Y-82932D01*
X59715Y-82679D01*
X59852Y-82349D01*
X59852Y-82050D01*
X60060Y-82050D01*
X60060Y-82347D01*
X60197Y-82678D01*
X60450Y-82931D01*
X60780Y-83069D01*
X61138Y-83069D01*
X61469Y-82932D01*
X61723Y-82679D01*
X61860Y-82349D01*
X61860Y-82050D01*
X62550Y-82050D01*
X62550Y-82044D01*
X62552Y-82045D01*
X62910Y-82045D01*
X63241Y-81909D01*
X63494Y-81656D01*
X63632Y-81325D01*
X63632Y-80967D01*
X63495Y-80636D01*
X63242Y-80383D01*
X62912Y-80245D01*
X62554Y-80245D01*
X62550Y-80247D01*
X62550Y-77300D01*
X62755Y-77300D01*
X62757Y-77574D01*
X62902Y-77924D01*
X63044Y-78006D01*
X63685Y-77366D01*
X63679Y-77360D01*
X63740Y-77300D01*
X63771Y-77300D01*
X63832Y-77360D01*
X63826Y-77366D01*
X64467Y-78006D01*
X64609Y-77924D01*
X64757Y-77555D01*
X64755Y-77300D01*
X65200Y-77300D01*
X65200Y-84200D01*
X65200Y-84200D01*
G37*
G54D31*
X65200Y-84200D02*
X64656Y-84200D01*
X64656Y-79156D01*
X64519Y-78825D01*
X64396Y-78702D01*
X64396Y-78077D01*
X63755Y-77436D01*
X63115Y-78077D01*
X63197Y-78219D01*
X63566Y-78368D01*
X63964Y-78364D01*
X64314Y-78219D01*
X64396Y-78077D01*
X64396Y-78702D01*
X64266Y-78572D01*
X63935Y-78434D01*
X63577Y-78434D01*
X63246Y-78571D01*
X62993Y-78824D01*
X62856Y-79154D01*
X62855Y-79512D01*
X62992Y-79843D01*
X63245Y-80097D01*
X63576Y-80234D01*
X63934Y-80234D01*
X64265Y-80098D01*
X64518Y-79845D01*
X64655Y-79514D01*
X64656Y-79156D01*
X64656Y-84200D01*
X55932Y-84200D01*
X56127Y-84004D01*
X56330Y-83515D01*
X56331Y-82986D01*
X56129Y-82496D01*
X55754Y-82122D01*
X55265Y-81919D01*
X54736Y-81918D01*
X54246Y-82120D01*
X54050Y-82317D01*
X54050Y-79300D01*
X55117Y-79300D01*
X55120Y-79543D01*
X55264Y-79892D01*
X55406Y-79975D01*
X56047Y-79334D01*
X56041Y-79329D01*
X56070Y-79300D01*
X56165Y-79300D01*
X56194Y-79329D01*
X56188Y-79334D01*
X56829Y-79975D01*
X56950Y-79905D01*
X56950Y-80251D01*
X56758Y-80330D01*
X56758Y-80045D01*
X56118Y-79405D01*
X55477Y-80045D01*
X55559Y-80187D01*
X55928Y-80336D01*
X56326Y-80332D01*
X56676Y-80187D01*
X56758Y-80045D01*
X56758Y-80330D01*
X56632Y-80382D01*
X56379Y-80635D01*
X56241Y-80965D01*
X56241Y-81323D01*
X56378Y-81654D01*
X56631Y-81908D01*
X56950Y-82040D01*
X56950Y-82050D01*
X58052Y-82050D01*
X58052Y-82347D01*
X58189Y-82678D01*
X58442Y-82931D01*
X58772Y-83069D01*
X59130Y-83069D01*
X59461Y-82932D01*
X59715Y-82679D01*
X59852Y-82349D01*
X59852Y-82050D01*
X60060Y-82050D01*
X60060Y-82347D01*
X60197Y-82678D01*
X60450Y-82931D01*
X60780Y-83069D01*
X61138Y-83069D01*
X61469Y-82932D01*
X61723Y-82679D01*
X61860Y-82349D01*
X61860Y-82050D01*
X62550Y-82050D01*
X62550Y-82044D01*
X62552Y-82045D01*
X62910Y-82045D01*
X63241Y-81909D01*
X63494Y-81656D01*
X63632Y-81325D01*
X63632Y-80967D01*
X63495Y-80636D01*
X63242Y-80383D01*
X62912Y-80245D01*
X62554Y-80245D01*
X62550Y-80247D01*
X62550Y-77300D01*
X62755Y-77300D01*
X62757Y-77574D01*
X62902Y-77924D01*
X63044Y-78006D01*
X63685Y-77366D01*
X63679Y-77360D01*
X63740Y-77300D01*
X63771Y-77300D01*
X63832Y-77360D01*
X63826Y-77366D01*
X64467Y-78006D01*
X64609Y-77924D01*
X64757Y-77555D01*
X64755Y-77300D01*
X65200Y-77300D01*
X65200Y-84200D01*
M02*
