G04 (created by PCBNEW (2013-07-07 BZR 4022)-stable) date 3/27/2014 11:31:02 PM*
%MOIN*%
G04 Gerber Fmt 3.4, Leading zero omitted, Abs format*
%FSLAX34Y34*%
G01*
G70*
G90*
G04 APERTURE LIST*
%ADD10C,0.00590551*%
%ADD11R,0.1035X0.069*%
%ADD12O,0.1035X0.069*%
%ADD13R,0.069X0.1035*%
%ADD14O,0.069X0.1035*%
%ADD15O,0.0885X0.059*%
%ADD16O,0.059X0.0885*%
%ADD17R,0.16X0.16*%
%ADD18C,0.16*%
%ADD19C,0.23622*%
%ADD20C,0.055*%
%ADD21R,0.059X0.0885*%
%ADD22R,0.0885X0.059*%
%ADD23R,0.137795X0.137795*%
%ADD24C,0.137795*%
%ADD25C,0.15*%
%ADD26C,0.36*%
%ADD27C,0.125984*%
%ADD28C,0.11811*%
G04 APERTURE END LIST*
G54D10*
G54D11*
X74922Y-54750D03*
G54D12*
X74922Y-53750D03*
X74922Y-52750D03*
G54D11*
X71577Y-52750D03*
G54D12*
X71577Y-53750D03*
X71577Y-54750D03*
G54D13*
X83750Y-47422D03*
G54D14*
X84750Y-47422D03*
X85750Y-47422D03*
G54D15*
X85852Y-83250D03*
X82147Y-83250D03*
G54D16*
X79750Y-55602D03*
X79750Y-51897D03*
G54D17*
X64750Y-50500D03*
G54D18*
X64750Y-48150D03*
X62900Y-49300D03*
G54D14*
X60000Y-71577D03*
X60000Y-66922D03*
X61500Y-71577D03*
X61500Y-66922D03*
X63000Y-71577D03*
X63000Y-66922D03*
X66000Y-71577D03*
X66000Y-66922D03*
X64500Y-71577D03*
X64500Y-66922D03*
G54D12*
X67172Y-77250D03*
X71827Y-77250D03*
X67172Y-75750D03*
X71827Y-75750D03*
X67172Y-74250D03*
X71827Y-74250D03*
X67172Y-72750D03*
X71827Y-72750D03*
G54D16*
X56500Y-71602D03*
X56500Y-67897D03*
X58500Y-71602D03*
X58500Y-67897D03*
X57500Y-71602D03*
X57500Y-67897D03*
G54D17*
X59750Y-50500D03*
G54D18*
X59750Y-48150D03*
X57900Y-49300D03*
G54D19*
X55000Y-83250D03*
X55000Y-46500D03*
X91500Y-46500D03*
X91500Y-83250D03*
G54D20*
X81750Y-46250D03*
X81750Y-48250D03*
X69750Y-56250D03*
X67750Y-56250D03*
G54D13*
X60750Y-56077D03*
G54D14*
X60750Y-58422D03*
G54D21*
X88250Y-47897D03*
G54D16*
X88250Y-46602D03*
G54D22*
X69147Y-70250D03*
G54D15*
X67852Y-70250D03*
G54D21*
X82250Y-56352D03*
G54D16*
X82250Y-57647D03*
G54D21*
X74000Y-70397D03*
G54D16*
X74000Y-69102D03*
G54D18*
X73250Y-58750D03*
X73250Y-48750D03*
G54D23*
X55250Y-53120D03*
G54D24*
X55250Y-51250D03*
X55250Y-49379D03*
G54D23*
X55250Y-62620D03*
G54D24*
X55250Y-60750D03*
X55250Y-58879D03*
G54D23*
X77000Y-74870D03*
G54D24*
X77000Y-73000D03*
X77000Y-71129D03*
G54D11*
X88422Y-83250D03*
G54D12*
X87077Y-83250D03*
G54D25*
X56118Y-79334D03*
X58952Y-82169D03*
X57141Y-81145D03*
X60960Y-82169D03*
X60921Y-74531D03*
X58952Y-74531D03*
X56118Y-77366D03*
X63755Y-77366D03*
X63755Y-79334D03*
X57141Y-75555D03*
X62732Y-75555D03*
X62732Y-81145D03*
X61000Y-76500D03*
X58874Y-80200D03*
G54D26*
X69500Y-82250D03*
X77000Y-82250D03*
G54D21*
X77750Y-52102D03*
G54D16*
X77750Y-55397D03*
G54D21*
X78750Y-52102D03*
G54D16*
X78750Y-55397D03*
G54D22*
X63852Y-53250D03*
G54D15*
X67147Y-53250D03*
G54D22*
X66852Y-52000D03*
G54D15*
X70147Y-52000D03*
G54D12*
X83077Y-53750D03*
G54D11*
X83077Y-52750D03*
G54D12*
X83077Y-54750D03*
G54D27*
X80250Y-66000D03*
X91250Y-66000D03*
G54D13*
X84750Y-68827D03*
G54D14*
X85750Y-68827D03*
X86750Y-68827D03*
G54D27*
X80041Y-71750D03*
X91458Y-71750D03*
G54D15*
X90523Y-74309D03*
G54D28*
X81222Y-77064D03*
G54D15*
X90523Y-75096D03*
G54D28*
X90277Y-77064D03*
X82797Y-77064D03*
X88702Y-77064D03*
G54D20*
X92000Y-75250D03*
X92000Y-77250D03*
X87750Y-69750D03*
X89750Y-69750D03*
G54D16*
X85750Y-79647D03*
X86750Y-79647D03*
G54D21*
X84750Y-79647D03*
M02*
